<svg width="116" height="64" viewBox="0 0 116 64" fill="none" xmlns="http://www.w3.org/2000/svg">
<g clip-path="url(#clip0_590_161549)">
<path d="M115.474 50.7621C114.937 50.312 114.321 50.1109 113.63 49.9732C112.403 49.727 111.178 49.6529 109.935 49.682C109.316 49.6952 108.695 49.6396 108.078 49.6582C107.171 49.6873 106.266 49.7667 105.359 49.7985C104.925 49.8144 104.492 49.7588 104.055 49.7561C103.767 49.7561 103.481 49.7958 103.193 49.8064C101.823 49.8567 100.455 49.907 99.0852 49.9441C97.9426 49.9758 96.7999 49.9917 95.6546 50.0208C95.4113 50.0261 95.1706 50.0844 94.9273 50.0817C93.7925 50.0685 92.6605 50.0076 91.5258 50.0314C89.9917 50.0632 88.4549 50.1532 86.9208 50.2273C86.6378 50.2406 86.3548 50.3041 86.0744 50.3412C86.0241 50.3465 85.9739 50.3465 85.9236 50.3412C85.7279 50.3147 85.5321 50.2644 85.3364 50.2617C83.9081 50.2432 82.4798 50.2406 81.0515 50.2167C80.5569 50.2088 80.0622 50.14 79.5676 50.1347C79.1762 50.132 78.7821 50.1903 78.3906 50.2114C77.7558 50.2459 77.1183 50.267 76.4809 50.3015C75.6451 50.3465 74.8066 50.3968 73.9708 50.455C73.8544 50.4629 73.7433 50.5609 73.6296 50.5582C73.336 50.5529 73.0397 50.4841 72.7488 50.4921C71.8071 50.5212 70.8682 50.5927 69.9265 50.6191C68.5564 50.6562 67.1863 50.6668 65.8162 50.688C65.6204 50.6906 65.4221 50.688 65.2263 50.688C65.2078 50.6588 65.1867 50.6297 65.1681 50.6006C65.2819 50.4735 65.3824 50.3359 65.5067 50.2247C66.0304 49.7641 66.5621 49.3087 67.0884 48.8534C68.2681 47.8316 69.4293 46.7859 70.6328 45.7932C71.8971 44.7528 73.2037 43.7601 74.4918 42.7488C75.005 42.3465 75.5207 41.9441 76.0418 41.5523C76.3116 41.3484 76.6422 41.2028 76.8671 40.9619C77.1157 40.6946 77.4146 40.541 77.7188 40.3769C77.8113 40.3266 77.8986 40.2684 77.9833 40.2101C79.028 39.498 80.0834 38.8044 81.1097 38.0659C83.0405 36.6734 84.9502 35.2545 86.8705 33.8488C87.1244 33.6635 87.3863 33.4914 87.6349 33.3008C88.3041 32.7846 88.9707 32.2631 89.6346 31.7442C89.9705 31.4821 90.3064 31.2174 90.6397 30.9474C90.7984 30.8203 90.8037 30.7065 90.6476 30.5397C90.5286 30.4126 90.4836 30.2141 90.4016 30.05C90.3646 29.9758 90.3276 29.8885 90.2641 29.8435C89.8726 29.5602 89.4891 29.3061 88.9469 29.5205C88.3676 29.7508 87.7275 29.8435 87.1668 30.1082C85.5903 30.8494 84.0377 31.641 82.4851 32.4272C81.39 32.9831 80.3162 33.5761 79.2185 34.1294C78.3879 34.5477 77.6209 35.0771 76.7427 35.4212C76.0683 35.686 75.4626 36.1254 74.8225 36.4775C74.4707 36.6707 74.1083 36.8428 73.7539 37.0281C72.8863 37.4782 72.0214 37.9282 71.1565 38.3862C71.0057 38.4656 70.892 38.6297 70.7359 38.6853C70.1355 38.8944 69.5509 39.1195 69.0907 39.5827C69.0642 39.6092 69.0114 39.6092 68.9717 39.6224C68.8103 39.6807 68.641 39.723 68.4903 39.7998C67.9375 40.091 67.4085 40.4378 66.8345 40.6787C66.2499 40.9249 65.676 41.1737 65.1285 41.4967C64.6127 41.8038 64.0705 42.0685 63.5388 42.3491C63.4859 42.3782 63.4198 42.3835 63.3537 42.4021C63.3457 42.3518 63.3325 42.3306 63.3404 42.32C63.7319 41.6423 64.126 40.9646 64.5228 40.2895C64.7423 39.9163 64.9777 39.551 65.1946 39.1751C65.8691 38.0182 66.5277 36.8481 67.2207 35.6992C67.6201 35.0374 68.0591 34.4021 68.5035 33.7694C68.7865 33.3643 69.1198 32.9937 69.4134 32.5913C70.0641 31.6992 70.6962 30.7965 71.3469 29.9044C72.1483 28.8058 72.963 27.7151 73.7645 26.6138C74.2194 25.9917 74.6611 25.3617 75.1055 24.729C75.2086 24.5807 75.2774 24.4087 75.3806 24.2631C75.7641 23.7363 76.1873 23.2359 76.5364 22.6853C77.002 21.9547 77.5389 21.2637 77.888 20.459C78.0573 20.0672 78.3112 19.7098 78.5255 19.3365C78.9831 18.545 79.3825 17.727 79.602 16.8322C79.9697 16.4272 79.4195 16.1678 79.4327 15.8157C79.4327 15.7998 79.3269 15.776 79.2714 15.7601C79.0968 15.7071 78.9222 15.6595 78.7503 15.6066C78.6075 15.5615 78.5731 15.4795 78.6604 15.3498C78.6815 15.3154 78.6789 15.2651 78.6842 15.2201C78.6313 15.2201 78.5652 15.1962 78.5281 15.2201C78.306 15.3577 78.0679 15.4795 77.8748 15.6516C77.0998 16.3504 76.2825 17.007 75.6662 17.8647C75.0684 18.7012 74.4442 19.5192 73.8861 20.3822C73.1058 21.5893 72.3758 22.8283 71.6193 24.0539C71.1591 24.7978 70.6883 25.5338 70.236 26.2829C69.908 26.8256 69.6065 27.3868 69.2811 27.9348C68.9108 28.5649 68.522 29.1843 68.1544 29.817C68.0697 29.9626 68.075 30.1612 67.9851 30.3041C67.7417 30.6906 67.4614 31.0559 67.2101 31.4398C67.0064 31.7522 66.8213 32.0778 66.6308 32.4007C66.369 32.8508 66.1283 33.3167 65.8453 33.7535C65.3454 34.5291 64.8269 35.2942 64.3085 36.0592C63.8377 36.7528 63.3748 37.449 62.8802 38.1241C61.9121 39.4477 60.9149 40.7475 59.9495 42.0738C59.2248 43.0692 58.5397 44.0884 57.8229 45.089C57.5716 45.4411 57.3124 45.8011 57.0003 46.095C56.2333 46.8177 55.4186 47.4927 54.6568 48.2181C54.3183 48.5384 54.0352 48.9249 53.7655 49.3087C53.5565 49.6079 53.5486 49.9997 53.7364 50.275C53.8898 50.4974 53.8474 50.6059 53.7258 50.7647C53.3502 51.2571 52.9693 51.7469 52.6016 52.2445C52.4112 52.5013 52.2737 52.7952 51.9748 52.9619C51.8848 53.0122 51.8319 53.134 51.7685 53.2267C51.6812 53.3564 51.6124 53.4993 51.5119 53.6211C50.4803 54.8733 49.4647 56.136 48.3273 57.3008C47.6846 57.96 47.0392 58.5953 46.3012 59.1433C45.8992 59.4398 45.4733 59.6568 44.9866 59.7574C44.8861 59.7786 44.775 59.7601 44.6639 59.7601C44.6639 59.5007 44.6322 59.2809 44.6692 59.0718C44.7645 58.5609 44.8755 58.0526 45.0157 57.5523C45.1691 57.0096 45.3649 56.4775 45.5421 55.9401C45.5553 55.9004 45.5844 55.866 45.6056 55.8289C45.7378 55.6039 45.9045 55.3921 45.9917 55.1512C46.3673 54.1109 47.063 53.2823 47.7507 52.4457C48.203 51.8951 48.6659 51.3498 49.1129 50.7912C49.5308 50.2697 49.9381 49.7376 50.3454 49.2055C50.8956 48.4854 51.4378 47.7574 51.9933 47.0427C52.6598 46.1823 53.3449 45.3379 54.0061 44.4722C54.3341 44.0407 54.6224 43.5774 54.9319 43.13C54.9557 43.0956 54.9848 43.0453 55.0165 43.0427C55.2123 43.0136 55.2229 42.8653 55.2546 42.7171C55.2731 42.6297 55.3154 42.5371 55.371 42.4656C55.5694 42.2115 55.7783 41.9653 55.9873 41.7191C56.056 41.6396 56.1433 41.5761 56.2333 41.494C56.2438 41.4279 56.2333 41.322 56.2782 41.2479C56.5348 40.8084 56.7914 40.3663 57.077 39.9428C57.2833 39.6357 57.4553 39.3815 57.204 38.9897C57.003 38.6774 56.921 38.2909 56.4263 38.4524C56.3973 38.3729 56.3655 38.3253 56.3655 38.2776C56.3655 38.0685 56.2544 38.0791 56.0798 38.0632C55.5879 38.0182 55.2414 38.2882 54.924 38.5741C54.4505 39.0003 54.0035 39.4557 53.5829 39.9348C52.9719 40.6284 52.3953 41.3511 51.8002 42.0579C50.5174 43.5801 49.3377 45.1737 48.3405 46.8997C48.1818 47.1751 47.9411 47.4001 47.7745 47.6701C47.3698 48.324 46.9783 48.9884 46.5922 49.6529C46.2827 50.1876 45.9891 50.7303 45.6823 51.2677C45.3252 51.8951 44.9681 52.5252 44.5952 53.142C44.1587 53.8673 43.6668 54.5503 43.1007 55.1856C42.4765 55.8898 41.8867 56.6284 41.2757 57.3458C41.1778 57.4596 41.0297 57.5311 40.9292 57.6423C40.6065 58.0023 40.2997 58.3782 39.9743 58.7356C39.7495 58.9844 39.5035 59.2201 39.2681 59.461C39.2126 59.5165 39.1597 59.5748 39.0935 59.6171C38.7867 59.813 38.4534 59.9798 38.1678 60.2048C37.7313 60.549 37.2394 60.631 36.713 60.5887C36.6389 60.5834 36.5173 60.5066 36.512 60.451C36.4829 60.2128 36.4459 59.9639 36.4829 59.7283C36.631 58.7991 36.7818 57.87 37.0992 56.9778C37.3293 56.3319 37.525 55.6727 37.7287 55.0162C37.7816 54.8468 37.808 54.6694 37.853 54.4974C37.8662 54.4444 37.9006 54.3941 37.9324 54.3465C37.972 54.2829 38.0329 54.23 38.062 54.1638C38.3979 53.3246 38.6941 52.4696 39.0697 51.6489C39.6358 50.4153 40.2547 49.2081 40.8578 47.9904C41.199 47.3048 41.5322 46.6138 41.8999 45.9441C42.3892 45.052 42.8521 44.136 43.4314 43.3021C43.9445 42.5635 44.6057 41.9255 45.1929 41.2373C45.3146 41.0943 45.3569 40.8746 45.4945 40.7608C46.2933 40.0936 46.8567 39.2227 47.5391 38.4576C48.2003 37.7164 48.8325 36.9487 49.4699 36.1863C49.9064 35.6648 50.3269 35.13 50.7554 34.6006C51.34 33.8752 51.9351 33.1578 52.5117 32.4246C53.337 31.3789 54.1543 30.3279 54.9663 29.2717C55.2837 28.8587 55.5667 28.4193 55.8921 28.0169C56.2914 27.5218 56.7226 27.0559 57.1326 26.5715C57.3362 26.3332 57.5663 26.1056 57.7118 25.8329C58.0663 25.1764 58.5106 24.5913 58.9973 24.0328C59.0899 23.9242 59.2935 23.8766 59.193 23.6648C59.1851 23.6489 59.2274 23.6092 59.2486 23.5827C59.5342 23.2359 59.8464 22.9077 60.1003 22.5371C60.9546 21.2849 61.7904 20.0195 62.6236 18.7541C62.8881 18.3544 63.1156 17.9308 63.3801 17.5338C63.642 17.1393 63.7054 16.6602 63.9779 16.2604C64.1948 15.9454 64.3032 15.5536 64.4328 15.1856C64.528 14.9156 64.5783 14.6324 64.6497 14.3544C64.7582 13.9335 64.4064 13.7058 64.2371 13.4093C64.1895 13.3246 64.0228 13.314 63.9144 13.2584C63.8562 13.2293 63.7927 13.187 63.7583 13.134C63.5309 12.7899 63.232 12.6628 62.8723 12.8216C62.4755 12.9964 62.0629 13.1658 61.719 13.4226C61.2403 13.7826 60.8091 14.2088 60.378 14.6244C59.5686 15.4054 58.7354 16.1651 57.9816 16.9964C57.241 17.8144 56.5824 18.7091 55.8921 19.5721C55.3763 20.2181 54.842 20.8508 54.3659 21.5232C53.4004 22.8918 52.4588 24.2763 51.5304 25.6688C50.7766 26.7965 50.0307 27.9348 49.3192 29.089C48.9145 29.7482 48.5891 30.455 48.0839 31.0506C47.9834 31.1671 47.9253 31.3207 47.8512 31.4583C47.7136 31.7204 47.5973 31.9957 47.4439 32.2472C46.9519 33.0387 46.4282 33.8091 45.9494 34.6085C45.4892 35.3789 45.0819 36.1784 44.6348 36.954C44.2883 37.5576 43.9101 38.1453 43.553 38.7436C43.0478 39.596 42.5347 40.4457 42.0533 41.3114C41.4264 42.4418 40.7943 43.5642 39.8738 44.4907C39.6966 44.6681 39.5141 44.8455 39.3474 45.0308C38.7074 45.7429 38.0911 46.4815 37.4298 47.1724C35.9724 48.6999 34.5203 50.2353 33.0126 51.7124C31.9864 52.7184 30.8966 53.6688 29.7857 54.5821C29.1509 55.1036 28.4288 55.5271 27.7199 55.9507C27.3787 56.1545 26.9767 56.2631 26.6011 56.4087C26.5746 56.4193 26.5297 56.3848 26.4688 56.3637C26.5508 56.2922 26.6117 56.2392 26.6725 56.1863C26.6461 56.1784 26.6223 56.1731 26.5958 56.1651C26.609 55.9957 26.5746 55.7972 26.6487 55.6569C26.863 55.2465 26.7598 54.7065 27.1804 54.3862C27.2095 54.365 27.2147 54.3068 27.228 54.267C27.4607 53.5682 27.6908 52.8719 27.9236 52.1731C27.9421 52.1175 27.9897 52.0725 28.0215 52.0195C28.2013 51.7019 28.4129 51.3974 28.5558 51.0665C28.8573 50.365 29.1271 49.6476 29.4075 48.9381C29.4101 48.9302 29.4154 48.9222 29.4207 48.9143C29.7275 48.3001 30.0317 47.686 30.3464 47.0771C30.6189 46.5529 30.8993 46.0314 31.1823 45.5126C31.4785 44.9646 31.7748 44.4166 32.0816 43.8739C32.1583 43.7389 32.2694 43.6251 32.3672 43.506C32.4043 43.461 32.4625 43.4265 32.4889 43.3762C32.8116 42.7886 33.1184 42.1903 33.4517 41.6079C33.6448 41.269 33.8828 40.954 34.0944 40.6231C34.4198 40.1175 34.7319 39.6039 35.0652 39.1036C35.2503 38.8283 35.2979 38.4603 35.1313 38.2565C34.8959 37.9653 34.7187 37.9361 34.3325 38.1267C34.2875 37.9653 34.2426 37.8011 34.1923 37.6158C34.1077 37.6582 34.0706 37.6635 34.0468 37.6873C33.6316 38.095 33.1819 38.4762 32.809 38.9209C31.7615 40.1598 30.7458 41.4252 29.7196 42.68C29.6032 42.823 29.4921 42.9659 29.381 43.1115C28.7409 43.9507 28.1008 44.7899 27.4581 45.6264C26.6461 46.6827 25.8288 47.7363 25.0194 48.7952C24.8871 48.9672 24.7893 49.1631 24.6544 49.3352C24.3793 49.6873 24.083 50.0261 23.808 50.3782C23.5223 50.7409 23.2631 51.1248 22.9748 51.4848C22.2686 52.3716 21.5491 53.2479 20.8402 54.1347C20.2425 54.8839 19.6606 55.6436 19.0575 56.3875C18.8221 56.6787 18.5549 56.9434 18.2957 57.2134C18.2375 57.2743 18.1476 57.3034 18.0736 57.3484C18.0471 57.3326 18.0233 57.314 17.9968 57.2981C18.0683 57.0705 18.1132 56.8296 18.2111 56.6152C18.5126 55.9613 18.8353 55.318 19.1474 54.6694C19.605 53.7164 20.0335 52.7475 20.5281 51.8157C21.1815 50.5847 21.8744 49.3749 22.5727 48.1678C23.2472 47.0083 23.9429 45.8594 24.6438 44.7158C25.3765 43.5192 26.1223 42.3306 26.8682 41.142C27.466 40.1863 28.1299 39.2809 28.8837 38.4391C29.0583 38.2459 29.1403 37.9679 29.2593 37.727C29.2726 37.7005 29.2673 37.6476 29.2488 37.6264C29.0768 37.4464 28.9287 37.2002 28.7145 37.1155C28.4949 37.0281 28.2489 37.0228 28.1352 36.7608C28.0691 36.8058 28.0268 36.8243 27.9977 36.8534C27.6194 37.2531 27.2385 37.6449 26.8709 38.0553C26.527 38.4391 26.17 38.7991 25.8631 39.228C25.2019 40.1545 24.4348 41.007 23.7022 41.8832C23.1044 42.598 22.4934 43.3048 21.8903 44.0142C20.8958 45.1843 19.9039 46.357 18.9094 47.5271C18.2984 48.2445 17.6927 48.9672 17.0711 49.6741C16.3411 50.5053 15.5978 51.3286 14.8519 52.1492C13.495 53.6476 12.1593 55.1645 10.7654 56.631C9.42698 58.0394 8.09654 59.4662 6.48043 60.5807C5.94878 60.9487 5.433 61.3432 4.79291 61.5046C4.14223 61.6714 3.48891 61.8567 2.81178 61.6688C2.68218 61.6317 2.5129 61.5126 2.47587 61.3961C2.26162 60.6893 2.17434 59.956 2.26427 59.2253C2.43884 57.7773 2.78004 56.3637 3.32492 55.003C3.55239 54.4365 3.70316 53.8355 3.97295 53.2929C4.21365 52.8005 4.39351 52.3054 4.46757 51.7654C4.47815 51.686 4.55485 51.5854 4.62627 51.5536C4.79555 51.4795 4.85374 51.3524 4.88019 51.1909C4.92251 50.9315 4.98599 50.688 5.20817 50.5053C5.36423 50.3756 5.4039 50.1876 5.3272 49.9785C5.30604 49.9229 5.33778 49.8329 5.36952 49.772C5.41448 49.6873 5.50706 49.6264 5.53351 49.539C5.76098 48.8005 6.36405 48.2631 6.60474 47.5192C6.74493 47.0877 7.02001 46.6985 7.25013 46.2988C7.83732 45.269 8.41923 44.2366 9.03287 43.2227C9.48253 42.4788 9.97185 41.7561 10.4638 41.0387C11.0669 40.1545 11.6488 39.2518 12.3206 38.4206C13.1036 37.4543 13.9632 36.5463 14.8175 35.641C15.0424 35.4054 15.3756 35.273 15.6692 35.1089C15.7089 35.085 15.8385 35.13 15.8597 35.1724C15.9417 35.3524 16.0448 35.543 16.0528 35.731C16.0766 36.4193 16.066 37.1075 16.0607 37.7958C16.0607 38.0923 16.0686 38.3941 16.0237 38.6827C15.947 39.1592 15.8306 39.6304 15.7327 40.1042C15.7195 40.1625 15.7168 40.226 15.7063 40.2843C15.6137 40.7528 15.5343 41.2214 15.4259 41.6847C15.2566 42.3994 15.0688 43.1089 14.8837 43.821C14.8017 44.1307 14.7064 44.4378 14.6218 44.7449C14.5953 44.8455 14.5424 45.0255 14.5663 45.0387C14.8255 45.1737 14.9154 45.5073 15.1217 45.6079C15.4021 45.7455 15.7724 45.7058 16.103 45.7376C16.14 45.7402 16.1929 45.7191 16.2194 45.6899C16.4178 45.4808 16.6082 45.269 16.8039 45.0572C16.8621 44.9937 16.9071 44.8984 16.9785 44.8719C17.2457 44.7766 17.28 44.5622 17.2986 44.3266C17.3039 44.2498 17.2986 44.1625 17.325 44.0936C17.5922 43.453 17.8699 42.8124 18.1397 42.1717C18.3804 41.6026 18.6422 41.0414 18.8485 40.4616C19.0125 40.0036 19.1369 39.5271 19.2241 39.048C19.3379 38.4153 19.4913 37.7641 19.4437 37.1367C19.4066 36.6628 19.4754 36.2472 19.5944 35.8157C19.6315 35.6807 19.6764 35.5483 19.7029 35.4107C19.724 35.2995 19.7214 35.1803 19.7293 35.0453C19.24 35.1406 19.0205 35.4636 18.8538 35.8422C18.7533 36.0725 18.666 36.3134 18.5523 36.5384C18.5126 36.6205 18.4121 36.6707 18.3381 36.7343C18.2772 36.6469 18.1661 36.5622 18.1608 36.4722C18.1317 35.9242 18.1265 35.3736 18.1106 34.8256C18.1 34.4709 18.0894 34.1135 18.0603 33.7614C18.0392 33.4835 17.8937 33.2717 17.6477 33.1314C17.5736 33.089 17.4943 33.0387 17.4387 32.9752C17.243 32.7396 16.9838 32.6999 16.6955 32.6602C16.1004 32.5781 15.6745 32.8799 15.254 33.2108C14.2912 33.9706 13.4077 34.8124 12.6169 35.7469C11.8948 36.5993 11.1383 37.4226 10.4585 38.3094C9.8158 39.1459 9.24712 40.0354 8.66521 40.9169C7.96164 41.9838 7.22103 43.0347 6.61003 44.1545C6.2556 44.8031 5.77685 45.3855 5.55203 46.1162C5.44094 46.4815 5.1685 46.7965 4.98864 47.1433C4.49931 48.0778 3.99675 49.0043 3.54446 49.9547C2.95991 51.1803 2.40445 52.4219 1.86487 53.6688C1.49456 54.5238 1.14542 55.3921 0.84918 56.2737C0.613773 56.9725 0.428622 57.6952 0.293726 58.4232C0.19057 58.9765 -0.0871572 59.5113 0.0583189 60.1016C0.0636089 60.1254 0.0530289 60.1545 0.0477388 60.1784C-0.0924472 60.8296 0.100639 61.4358 0.309596 62.0367C0.391591 62.2723 0.463007 62.5291 0.611128 62.7171C0.82802 62.9924 1.11104 63.2174 1.3676 63.4636C1.74055 63.8236 2.11879 64.1625 2.69276 63.8475C2.77211 63.8024 2.88056 63.7945 2.97313 63.7972C3.0419 63.7972 3.10803 63.8475 3.1768 63.8766C3.27731 63.9189 3.39104 64.0116 3.47569 63.9904C3.86186 63.8978 4.25332 63.7998 4.62098 63.6489C5.04154 63.4742 5.42771 63.2253 5.84298 63.0374C6.23444 62.86 6.61268 62.6694 6.9724 62.4259C8.14415 61.6343 9.19422 60.6972 10.1835 59.7045C11.6858 58.1982 13.2146 56.7158 14.5901 55.085C15.4894 54.0182 16.4574 53.0096 17.3964 51.9745C17.899 51.4212 18.4042 50.8706 18.9094 50.3173C18.9438 50.2803 18.9887 50.2512 19.0284 50.2194C18.9729 50.3968 18.8962 50.5529 18.8142 50.7012C18.4386 51.3842 18.0471 52.0592 17.6874 52.7502C17.3091 53.4755 16.9626 54.2167 16.6003 54.9527C16.3252 55.5086 16.0475 56.0645 15.7724 56.6205C15.7565 56.6496 15.7618 56.6893 15.7512 56.7237C15.6296 57.1128 15.5264 57.5099 15.3836 57.8911C15.1032 58.6324 14.8466 59.3657 15.1402 60.1731C15.2566 60.496 15.4418 60.6946 15.775 60.6707C16.5262 60.6178 17.2377 60.3954 17.8831 60.0169C18.5549 59.6224 19.1051 59.0639 19.6341 58.5C20.0679 58.0367 20.462 57.5338 20.8667 57.044C21.3825 56.4193 21.9035 55.7998 22.3982 55.1592C22.8981 54.5106 23.3557 53.8276 23.8556 53.179C24.5671 52.2525 25.3024 51.3418 26.0298 50.4259C26.1752 50.2406 26.3313 50.0632 26.4821 49.8805C26.5217 49.952 26.5191 49.9944 26.5032 50.0288C26.08 50.9553 25.6489 51.8766 25.2336 52.8058C25.0062 53.314 24.7813 53.8276 24.6015 54.3544C24.3105 55.2015 24.0116 56.0513 23.8027 56.9196C23.5673 57.8964 24.1915 58.5265 25.0749 58.7171C26.1567 58.9474 27.1777 58.7144 28.1088 58.1373C28.7753 57.7244 29.4339 57.2929 30.0555 56.819C30.7829 56.2657 31.4917 55.678 32.1689 55.0665C33.0682 54.2538 33.9384 53.4067 34.8112 52.5649C35.2186 52.1731 35.6047 51.7601 36.0041 51.363C36.4009 50.9659 36.8029 50.5741 37.2023 50.1823C37.2209 50.1638 37.2605 50.1664 37.3187 50.1532C37.3002 50.2194 37.2923 50.2591 37.279 50.2962C37.0833 50.77 36.8823 51.2439 36.6945 51.7204C36.549 52.0884 36.4273 52.4643 36.2713 52.8269C36.1628 53.0811 35.9936 53.3114 35.8878 53.5655C35.6444 54.1532 35.4143 54.7462 35.1948 55.3445C34.9964 55.8819 34.8086 56.4246 34.634 56.9699C34.5097 57.359 34.4542 57.7747 34.3113 58.1559C34.0362 58.8865 33.9119 59.633 33.9146 60.4087C33.9146 60.7661 33.8961 61.1234 33.8961 61.4808C33.8961 61.547 33.9252 61.6608 33.9701 61.6741C34.2055 61.7588 34.1288 61.8964 34.0362 62.0447C34.3536 62.2644 34.4806 62.6403 34.917 62.77C35.6444 62.9871 36.3639 63.085 37.1071 62.9792C37.8319 62.8759 38.4085 62.4391 38.9798 62.0314C39.5379 61.6317 40.0669 61.187 40.588 60.7369C40.9636 60.4113 41.3021 60.046 41.6592 59.6992C41.7306 59.6304 41.81 59.5721 41.9528 59.453C41.9528 59.8369 41.9422 60.136 41.9528 60.4351C41.9925 61.3246 42.4077 61.8091 43.2674 61.9891C43.3785 62.0129 43.4869 62.0579 43.598 62.0659C43.963 62.0897 44.3122 62.2882 44.6851 62.1638C45.0475 62.0447 45.4839 61.9997 45.7484 61.7641C45.997 61.5443 46.28 61.4385 46.5366 61.2637C46.973 60.9646 47.4306 60.684 47.8327 60.3398C48.3299 59.9163 48.7928 59.4504 49.2451 58.9792C49.6048 58.6032 49.9249 58.1903 50.2634 57.7958C50.2846 57.7694 50.3269 57.7614 50.3481 57.7376C50.4724 57.6026 50.5994 57.4649 50.7184 57.322C50.7845 57.2426 50.8242 57.1446 50.893 57.0678C51.3902 56.5199 51.9113 55.9904 52.39 55.4265C52.8794 54.8521 53.3237 54.2406 53.7998 53.6555C54.1225 53.2584 54.4664 52.8799 54.7997 52.4907C54.8975 52.3769 54.9927 52.2604 55.0906 52.1439C55.1118 52.1545 55.1303 52.1678 55.1514 52.1784C55.1303 52.2684 55.1223 52.3637 55.0827 52.4457C54.7468 53.134 54.4003 53.817 54.0617 54.5053C53.8554 54.9262 53.6597 55.3524 53.4481 55.7707C53.3793 55.9083 53.2285 56.0142 53.1888 56.1572C52.9164 57.0917 52.2816 57.8382 51.8954 58.7144C51.5595 59.4742 51.131 60.2075 51.3082 61.1473C51.6653 61.1605 52.0356 61.1923 52.4059 61.179C52.7736 61.1658 53.1571 61.1578 53.5036 61.052C53.821 60.954 54.1305 60.7661 54.3844 60.549C55.2493 59.8157 56.1116 59.0771 56.9342 58.2962C57.9896 57.2955 58.992 56.2419 60.0394 55.2359C60.7748 54.5291 61.5577 53.87 62.2983 53.1711C62.5258 52.9567 62.7691 52.8587 63.0653 52.8481C63.3087 52.8402 63.552 52.8216 63.7954 52.8111C64.1154 52.7978 64.4381 52.7846 64.7582 52.774C65.0703 52.7661 65.4035 52.9222 65.6786 52.6469C65.6945 52.631 65.7289 52.6257 65.7527 52.6284C65.9669 52.6496 66.1812 52.6866 66.3954 52.6972C67.0646 52.7316 67.7312 52.7713 68.4004 52.7766C68.6067 52.7766 68.887 52.8613 68.9928 52.5516C69.0008 52.5331 69.0563 52.5199 69.0881 52.5199C69.4187 52.5066 69.7493 52.4907 70.0799 52.4854C70.2122 52.4854 70.3286 52.5172 70.1884 52.7687C70.564 52.7025 70.8761 52.6469 71.1908 52.594C71.249 52.5834 71.3072 52.5728 71.3654 52.5728C72.0452 52.5728 72.7223 52.594 73.4021 52.5649C74.1665 52.5331 74.9283 52.459 75.69 52.4034C76.2058 52.3663 76.7242 52.3425 77.2374 52.2842C77.7029 52.2313 78.1631 52.1069 78.6313 52.0725C79.0704 52.0381 79.5147 52.0831 79.9564 52.0804C81.5461 52.0751 83.1331 52.0645 84.7228 52.0566C85.0111 52.0566 85.2994 52.0486 85.585 52.0645C85.7199 52.0725 85.8522 52.1572 85.9844 52.1519C86.4923 52.136 86.9975 52.0989 87.5053 52.0672C87.5926 52.0619 87.6799 52.0592 87.7672 52.0486C88.3491 51.9931 88.931 51.911 89.5129 51.8898C90.7323 51.8475 91.9543 51.8422 93.1736 51.813C94.2369 51.7866 95.3028 51.7442 96.3661 51.7177C97.1782 51.6966 97.9902 51.6966 98.8022 51.6754C100.162 51.641 101.524 51.5854 102.883 51.5563C104.034 51.5324 105.185 51.5377 106.338 51.5271C106.626 51.5245 106.912 51.4848 107.2 51.4848C108.726 51.4901 110.255 51.3762 111.779 51.5854C112.308 51.6569 112.837 51.7177 113.318 51.9613C113.403 52.0036 113.44 52.1413 113.503 52.2313C113.553 52.3028 113.601 52.4166 113.665 52.4298C113.929 52.4828 114.202 52.5066 114.469 52.5384C114.492 52.541 114.519 52.5278 114.543 52.5199C114.945 52.4193 115.347 52.3081 115.752 52.226C115.915 52.1916 115.971 52.1122 115.982 51.9639C116.016 51.4662 115.844 51.0639 115.461 50.7435L115.474 50.7621ZM49.306 32.9461C49.7212 32.2657 50.1418 31.588 50.565 30.913C51.1469 29.9838 51.7261 29.052 52.316 28.1281C52.554 27.7574 52.8132 27.4001 53.0645 27.04C53.2973 26.7065 53.5909 26.3994 53.7443 26.0314C53.8898 25.6846 54.1622 25.4649 54.3553 25.1737C54.4902 24.9752 54.5457 24.7237 54.6833 24.5251C54.998 24.0645 55.3445 23.6277 55.6672 23.1724C55.7386 23.0718 55.7651 22.9394 55.818 22.8256C55.8497 22.7568 55.8815 22.6906 55.9238 22.6297C56.1407 22.3068 56.3602 21.9838 56.5798 21.6635C56.6274 21.592 56.6829 21.5258 56.7358 21.4596C56.9633 21.1658 57.1934 20.8746 57.4209 20.5807C57.4579 20.5331 57.487 20.4749 57.532 20.4378C58.0213 20.0142 58.3334 19.4583 58.6693 18.9183C58.7275 18.8256 58.8307 18.7621 58.9047 18.68C59.447 18.0659 59.976 17.4411 60.5288 16.8375C60.825 16.5146 61.1556 16.2234 61.4704 15.9189C61.4995 15.9295 61.5259 15.9401 61.555 15.9533C61.5312 16.0539 61.5259 16.1678 61.4757 16.2498C60.6875 17.5549 59.9045 18.8653 59.0952 20.1572C58.7222 20.7528 58.2329 21.2849 57.9023 21.9017C57.3283 22.9633 56.5454 23.8713 55.8392 24.8296C54.3817 26.8097 52.8476 28.7316 51.34 30.6747C50.647 31.5695 49.9487 32.4616 49.2504 33.3511C49.1816 33.4385 49.0996 33.5179 49.0256 33.5999C49.0071 33.5893 48.9859 33.5761 48.9674 33.5655C49.0785 33.359 49.1816 33.1473 49.306 32.9487V32.9461ZM55.0086 57.4596C55.1726 57.097 55.2996 56.774 55.4609 56.4669C55.7307 55.9507 56.0349 55.453 56.2994 54.9368C56.6062 54.3332 56.8866 53.7164 57.1775 53.1049C57.2119 53.0334 57.2516 52.9672 57.2833 52.8931C57.4949 52.414 57.4949 52.4219 58.0001 52.504C58.5424 52.5913 59.0846 52.6575 59.6268 52.7343C59.685 52.7422 59.7406 52.7634 59.7961 52.7793C59.722 53.1155 55.8603 56.8958 55.0113 57.4596H55.0086ZM63.8298 49.2823C63.388 49.7032 62.9622 50.1532 62.4623 50.4921C62.211 50.6615 61.8143 50.6588 61.4836 50.6562C61.0684 50.6509 60.6531 50.5847 60.2431 50.5132C59.7511 50.4259 59.2671 50.3068 58.7249 50.1876C58.8201 50.0341 58.8889 49.9176 58.9629 49.8011C59.0052 49.7349 59.074 49.6741 59.0872 49.6052C59.1587 49.1817 59.4761 48.8958 59.6691 48.541C60.095 47.7522 60.5155 46.958 60.9864 46.1956C61.3064 45.6794 61.7032 45.232 62.3406 45.0387C62.7506 44.9143 63.1209 44.6549 63.5071 44.4563C63.9012 44.2525 64.2953 44.046 64.6867 43.8369C65.3401 43.4874 65.9828 43.1248 66.6414 42.7859C67.2048 42.4947 67.7867 42.2379 68.3527 41.9494C69.6276 41.2955 70.8946 40.6231 72.1721 39.9719C73.3518 39.3683 74.55 38.8018 75.7191 38.185C76.8009 37.6132 77.8537 36.9884 78.9302 36.4034C79.5094 36.0884 80.1125 35.813 80.7023 35.5139C81.1996 35.2624 81.6916 35.0003 82.1888 34.7462C82.4719 34.6032 82.7602 34.4682 83.0458 34.3279C83.0564 34.3465 83.067 34.365 83.0802 34.3835C82.8633 34.5291 82.6411 34.6615 82.4348 34.8203C81.4879 35.543 80.5674 36.3028 79.5941 36.9884C78.1578 38.0023 76.6793 38.9527 75.2298 39.9507C74.6135 40.3769 74.0316 40.8534 73.4259 41.2981C73.0582 41.5682 72.6721 41.8117 72.307 42.0844C72.1325 42.2141 71.9923 42.3862 71.823 42.5238C70.929 43.2518 70.027 43.9666 69.1383 44.6999C68.5326 45.2002 67.9533 45.7297 67.3529 46.2353C66.6017 46.8706 65.7977 47.453 65.0994 48.1413C64.692 48.5437 64.2477 48.9011 63.835 49.2929L63.8298 49.2823Z" fill="#111111"/>
<path d="M17.1616 28.6764C17.2171 28.6897 17.2832 28.7214 17.3123 28.7638C17.5821 29.1715 18.0053 29.2377 18.4153 29.1715C19.6743 28.9703 20.8329 28.4938 21.875 27.7525C22.4225 27.3634 22.9727 26.9769 23.5043 26.5692C24.1815 26.0477 24.8374 25.505 25.504 24.9729C25.7156 24.8035 25.9351 24.6447 26.1493 24.4805C26.472 24.2317 26.8053 23.9882 27.1174 23.7261C27.7231 23.2152 28.3156 22.6857 28.9187 22.1695C29.8921 21.3409 30.8707 20.5176 31.8494 19.6943C32.5635 19.0934 33.2777 18.4951 34.0024 17.9074C34.4045 17.5792 34.825 17.2774 35.2297 16.9544C35.6106 16.6526 35.9809 16.3402 36.3538 16.0279C36.4332 15.9617 36.4808 15.8611 36.5575 15.7923C36.7109 15.6572 36.8723 15.5328 37.0283 15.4005C37.0812 15.3581 37.1288 15.3105 37.1791 15.2655C37.2928 15.1622 37.4039 15.0537 37.5229 14.9584C37.8827 14.6751 38.2583 14.4077 38.6047 14.1112C39.0676 13.7142 39.4935 13.2721 39.9669 12.8909C40.6493 12.3429 41.3688 11.8373 42.0591 11.2999C42.7892 10.7334 43.4954 10.1351 44.2281 9.57386C45.1406 8.87498 46.0663 8.19729 46.9895 7.51429C47.7962 6.91866 48.6082 6.33097 49.4149 5.73269C50.137 5.19795 50.8538 4.65791 51.5653 4.11522C51.7373 3.9855 51.8827 3.81873 52.0547 3.68901C52.2028 3.57783 52.3827 3.50635 52.5281 3.39252C52.9037 3.08809 53.2502 2.7413 53.6443 2.46333C54.1099 2.13772 54.414 1.74328 54.4696 1.17147C54.4775 1.1 54.5172 1.00999 54.5727 0.970283C54.9219 0.713499 55.2816 0.467305 55.6387 0.22111C55.7207 0.165518 55.8159 0.128456 55.9032 0.0808059C55.89 0.0516861 55.8767 0.0252135 55.8609 -0.00390625C55.7498 0.0358026 55.6334 0.0649223 55.5302 0.120515C55.0462 0.374651 54.5648 0.634082 54.0834 0.893513C53.6946 1.10529 53.3031 1.31443 52.9196 1.53415C52.7318 1.64269 52.5731 1.84388 52.3747 1.88359C51.8616 1.98683 51.4939 2.33891 51.076 2.5957C50.1159 3.18339 49.1954 3.82932 48.2538 4.44613C47.8385 4.71879 47.4074 4.96499 47 5.2456C46.7673 5.40708 46.5927 5.67445 46.3441 5.79358C45.8653 6.02389 45.4606 6.34156 45.0454 6.66188C44.236 7.28663 43.3896 7.86373 42.5749 8.48054C41.8608 9.02058 41.1678 9.58974 40.4668 10.1483C40.3293 10.2568 40.1997 10.3733 40.0648 10.4819C39.2025 11.1622 38.3429 11.8399 37.4806 12.5202C37.3907 12.5891 37.3008 12.6579 37.2108 12.7241C36.9331 12.9279 36.6369 13.1159 36.375 13.3383C35.9597 13.693 35.5656 14.0742 35.1583 14.4422C35.1213 14.4766 35.0657 14.4872 35.0207 14.5136C34.8726 14.5983 34.706 14.6619 34.5843 14.7757C34.3277 15.0166 34.1373 15.3316 33.7644 15.4269C33.7035 15.4428 33.6533 15.509 33.6004 15.5566C32.9894 16.1258 32.3784 16.695 31.7674 17.2615C31.7383 17.2906 31.6907 17.3012 31.6563 17.3224C31.5134 17.4044 31.3627 17.4733 31.2304 17.5712C30.7596 17.9286 30.2888 18.2886 29.8286 18.6592C29.0774 19.2655 28.3315 19.8796 27.5882 20.4938C26.8344 21.1159 26.0806 21.7406 25.332 22.3654C25.2051 22.4713 25.1046 22.6089 24.975 22.7069C24.5518 23.0246 24.1153 23.3263 23.6921 23.644C23.0811 24.1073 22.5019 24.6156 21.8618 25.0365C21.3619 25.3647 20.7747 25.558 20.2589 25.8677C19.7643 26.1642 19.2141 26.0954 18.693 26.2039C18.5555 26.233 18.5105 26.1457 18.5264 26.0133C18.5767 25.5897 18.6058 25.1635 18.6719 24.7426C18.7195 24.4329 18.8121 24.1311 18.8835 23.8267C19.0528 23.1146 19.1797 22.3866 19.5606 21.7486C19.9018 21.1768 20.2748 20.6208 20.6318 20.057C20.6609 20.0093 20.6953 19.9432 20.6847 19.8955C20.5922 19.509 20.5631 19.0934 20.2245 18.8128C20.1663 18.7625 20.0658 18.7016 20.0103 18.7201C19.8304 18.7784 19.6373 18.8419 19.4945 18.9584C18.2064 20.0014 17.3679 21.3568 16.7886 22.8895C16.6908 23.149 16.6299 23.4243 16.5612 23.6943C16.2517 24.8882 16.0295 26.0927 16.0665 27.3369C16.0877 28.0517 16.4606 28.5203 17.1616 28.6738V28.6764Z" fill="#111111"/>
<path d="M61.9414 27.7457C61.3833 28.3439 60.8701 28.9846 60.3438 29.6146C60.0819 29.927 59.828 30.2473 59.5794 30.5729C59.5106 30.6603 59.4577 30.7662 59.426 30.8747C59.344 31.1474 59.5344 31.3115 59.6905 31.4889C59.8201 31.6345 59.9523 31.571 60.0899 31.4995C60.2459 31.4201 60.3914 31.3962 60.5422 31.5418C60.685 31.6768 60.8516 31.6689 61.0209 31.5604C61.2404 31.4201 61.4811 31.3089 61.6901 31.1527C61.8964 31.0018 62.1027 30.835 62.2561 30.6338C62.5471 30.2526 62.7666 29.8132 63.0761 29.4479C63.5284 28.9184 64.0257 28.426 64.5176 27.9336C65.1471 27.3036 65.7952 26.6947 66.4273 26.07C67.0225 25.4823 67.6017 24.8787 68.2021 24.2963C68.4825 24.0236 68.8026 23.7933 69.0909 23.5286C69.5061 23.1447 69.9055 22.7424 70.3208 22.3585C70.9609 21.7655 71.6195 21.1911 72.2437 20.5848C72.7622 20.0819 73.1959 19.4862 73.7488 19.0309C74.6719 18.2711 75.386 17.3208 76.2298 16.4922C76.5445 16.1825 76.7482 15.8198 76.7456 15.3592C76.7456 15.1077 76.8381 14.8906 77.018 14.7027C77.2164 14.4962 77.3909 14.2685 77.5734 14.0514C77.5682 14.0382 77.5602 14.025 77.5549 14.0117C77.51 14.0329 77.4624 14.0488 77.4227 14.0753C77.0339 14.3532 76.6318 14.6206 76.2562 14.9171C75.4283 15.5736 74.6057 16.2354 73.799 16.9158C72.5453 17.972 71.3048 19.0415 70.0642 20.1083C69.5643 20.5372 69.0724 20.9793 68.5751 21.4134C67.5303 22.3267 66.4987 23.2533 65.5042 24.2222C65.0678 24.6484 64.6102 25.0508 64.1791 25.4796C63.4252 26.2288 62.6635 26.9753 61.9387 27.7536L61.9414 27.7457Z" fill="#111111"/>
</g>
<defs>
<clipPath id="clip0_590_161549">
<rect width="116" height="64" fill="white"/>
</clipPath>
</defs>
</svg>
