<svg width="100" height="48" viewBox="0 0 100 48" fill="none" xmlns="http://www.w3.org/2000/svg">
<path fill-rule="evenodd" clip-rule="evenodd" d="M55.4723 23.9997C55.4722 24.0286 55.4721 24.0575 55.4719 24.0863H53.9358C54.1155 23.2793 54.5774 22.8782 55.3186 22.8782V22.8774C55.3487 22.8758 55.3788 22.8752 55.4088 22.8756C55.3822 22.5454 55.2538 21.7667 55.2538 21.7667C55.963 21.7358 56.6599 21.9535 57.2168 22.38C58.3517 23.4884 58.022 25.0996 58.022 25.0996H55.4218C55.3793 25.562 55.3101 26.0208 55.2149 26.4738C56.1522 26.6264 57.2231 25.7318 57.2231 25.7318L58.0436 26.6016C57.7336 26.9002 57.3837 27.1571 57.0032 27.3656C56.3433 27.6584 55.6134 27.7709 54.8923 27.6911C54.5287 28.8218 53.998 29.9023 53.3114 30.8976C51.9027 32.9393 49.9007 34.5306 47.5584 35.4701C45.2162 36.4097 42.6389 36.6554 40.1525 36.1761C37.6661 35.6969 35.3822 34.5142 33.5897 32.7776C31.7972 31.0411 30.5765 28.8286 30.0821 26.4201C29.5877 24.0115 29.8416 21.5151 30.8119 19.2463C31.7822 16.9776 33.4252 15.0385 35.5332 13.6743C37.6411 12.3101 40.1194 11.582 42.6545 11.582C46.0542 11.5825 49.3144 12.8909 51.7181 15.2197C53.57 17.0138 54.7967 19.3002 55.2623 21.7614C54.9032 21.7582 54.5467 21.8244 54.2138 21.9566C53.8493 22.1014 53.522 22.3217 53.2548 22.602C52.7203 23.1981 52.4408 23.9694 52.4733 24.7583C52.4537 25.149 52.5158 25.5395 52.656 25.9063C52.7961 26.2731 53.0113 26.6087 53.2887 26.8929C53.5799 27.1636 53.9253 27.3737 54.3034 27.5103C54.4958 27.5798 54.6945 27.6295 54.8965 27.659L55.2091 26.4786C55.1117 26.4652 55.0156 26.4426 54.9221 26.4112C54.7303 26.3465 54.5536 26.2456 54.4024 26.1142C54.1235 25.8384 53.9474 25.4805 53.9019 25.097H55.4133L55.4619 24.0869H56.6146C56.6146 24.0869 56.5805 22.8896 55.4203 22.8821C55.4548 23.2522 55.4723 23.6251 55.4723 23.9997ZM43.4451 27.5149L42.9056 25.9689H39.4306L38.8797 27.5149H37.2956L40.1514 19.7818H42.2191L45.0758 27.5149H43.4451ZM39.8806 24.7062H42.4564L42.1424 23.8121C41.6155 22.3382 41.289 21.3873 41.163 20.9596C41.0056 21.4757 40.6792 22.4335 40.1836 23.8331L39.8806 24.7062ZM47.2913 19.7818V21.1106H45.8293V19.7818H47.2913ZM47.2913 21.9497V27.5149H45.8293V21.9497H47.2913ZM51.3719 21.8844C51.6815 21.9009 51.9876 21.9561 52.2826 22.0486L52.0246 23.2801C51.7861 23.2148 51.5403 23.1781 51.2927 23.1709C51.1148 23.164 50.9379 23.1992 50.7772 23.2735C50.6165 23.3477 50.4769 23.4588 50.3705 23.597C50.1269 23.9421 50.0084 24.3558 50.0336 24.7731V27.5165H48.5716V21.9513H49.9323V22.7686C50.0515 22.4973 50.2529 22.2674 50.51 22.1095C50.7671 21.9515 51.0677 21.8731 51.3719 21.8844ZM62.6713 26.3278C62.4124 26.4436 62.1295 26.4997 61.8445 26.492C61.6415 26.5043 61.4381 26.4774 61.2459 26.413C61.0537 26.3486 60.8766 26.248 60.7249 26.1168C60.4458 25.8413 60.2699 25.4832 60.2252 25.0996H64.3524C64.3668 24.9395 64.3757 24.7535 64.3757 24.543C64.4202 23.8008 64.1706 23.0702 63.6778 22.5003C63.4194 22.247 63.1079 22.0503 62.7642 21.9238C62.4206 21.7972 62.0529 21.7437 61.686 21.7667C61.293 21.7488 60.9008 21.8144 60.5368 21.9589C60.1728 22.1035 59.8459 22.3234 59.5789 22.6033C59.0449 23.1997 58.7659 23.9709 58.7988 24.7597C58.7789 25.1503 58.8407 25.5407 58.9805 25.9075C59.1203 26.2743 59.3353 26.61 59.6124 26.8943C59.9039 27.1651 60.2494 27.3752 60.6278 27.5118C61.0062 27.6484 61.4094 27.7086 61.8127 27.6886C62.2719 27.6933 62.7275 27.6103 63.1536 27.4444C63.6149 27.2447 64.0303 26.9576 64.3753 26.6L63.5528 25.7281C63.283 25.9592 62.9873 26.1604 62.6713 26.3278ZM60.2583 24.0877C60.4388 23.2807 60.8995 22.8796 61.6419 22.8796L61.6436 22.8788C61.8115 22.8699 61.9796 22.8938 62.1378 22.9489C62.2961 23.004 62.4413 23.0893 62.5649 23.1998C62.8006 23.4402 62.9364 23.7563 62.9463 24.0877H60.2583ZM69.305 21.8814C69.0439 21.7896 68.7662 21.7506 68.489 21.7667C68.1523 21.748 67.8163 21.8133 67.5131 21.9562C67.2099 22.0992 66.9495 22.3151 66.757 22.5832V21.9511H65.3971V27.5162H66.8591V24.1628C66.8524 24.0071 66.8778 23.8517 66.9337 23.7056C66.9897 23.5595 67.0751 23.4257 67.185 23.3119C67.2927 23.2044 67.4225 23.12 67.5659 23.064C67.7093 23.008 67.8632 22.9817 68.0177 22.9867C68.1638 22.978 68.31 22.9996 68.4467 23.0502C68.5834 23.1007 68.7074 23.179 68.8102 23.2798C69.0089 23.5199 69.1069 23.8235 69.0848 24.1304V27.5174H70.5469V23.7059C70.5588 23.4486 70.5171 23.1915 70.4244 22.95C70.3316 22.7086 70.1897 22.4876 70.007 22.3004C69.805 22.1158 69.5661 21.9732 69.305 21.8814Z" fill="#111111"/>
</svg>
