<svg width="100" height="48" viewBox="0 0 100 48" fill="none" xmlns="http://www.w3.org/2000/svg">
<path fill-rule="evenodd" clip-rule="evenodd" d="M46.4146 13.1669L68.7457 9.93359L70.499 21.2366L75.315 20.659L78.6515 21.0852L77.7467 33.3358L59.6647 34.3088L27.6109 38.0543L27.714 28.9315L27.647 28.8558L23.3065 28.6129L21.418 16.7328L36.173 15.3882L46.4146 13.1669ZM67.4522 19.4161L65.1242 19.7531L64.5918 16.3792L66.5181 16.1011L66.3085 14.7712L64.3839 15.0497L64.2183 13.9988L66.5468 13.6618L66.3372 12.334L62.1641 12.9392L63.487 21.3486L67.6601 20.7439L67.4522 19.4161ZM59.7229 13.2921L61.5692 13.0243L62.892 21.4348L61.0469 21.702L59.7229 13.2921ZM56.8398 16.8051L56.6094 16.8386L56.3395 15.1246L56.6843 15.0743C57.1779 15.0024 57.4415 15.2366 57.5351 15.8342C57.6466 16.5379 57.2173 16.7521 56.8398 16.8051ZM56.837 18.2806C57.3136 18.2357 57.8573 18.4807 58.0218 19.3071L58.3126 20.7805C58.3926 21.2034 58.5943 21.8113 58.7486 21.9904L58.7689 22.0147L60.6338 21.7448L60.5667 21.668C60.4298 21.5041 60.2321 20.9016 60.1588 20.5106L59.8698 19.047C59.6918 18.1583 59.1785 17.5434 58.4506 17.3362C58.9227 17.0912 59.5368 16.5601 59.3706 15.5005C59.0348 13.3755 56.9536 13.6767 56.2691 13.7768L54.2853 14.0634L55.6093 22.4734L57.4539 22.2067L56.837 18.2806ZM52.5581 21.5745L54.8878 21.2375L55.0974 22.5648L50.922 23.1701L49.5991 14.7607L53.7734 14.1544L53.983 15.4838L51.6544 15.8219L51.8189 16.8711L53.7441 16.5921L53.9525 17.9215L52.0285 18.2017L52.5581 21.5745ZM45.1592 16.746L46.3334 16.5756L47.4478 23.6572L49.2935 23.3895L48.1785 16.3074L49.3549 16.1375L49.147 14.8097L44.9508 15.4176L45.1592 16.746ZM43.3384 22.8977L45.668 22.558L45.8771 23.8875L41.7017 24.4932L40.3782 16.0833L44.5519 15.4775L44.7615 16.8059L42.4324 17.1434L42.5975 18.1932L44.5232 17.9152L44.7334 19.2441L42.8076 19.5243L43.3384 22.8977ZM38.8353 25.0253C40.3345 24.8068 40.9695 23.8965 40.7199 22.3177L40.45 20.601L38.1209 20.938L38.3305 22.268L39.0449 22.1658L39.1249 22.672C39.2686 23.5861 39.0066 23.7527 38.7024 23.7975C38.4116 23.8408 38.0956 23.7586 37.9519 22.8418L37.304 18.7286C37.1558 17.7961 37.4414 17.6447 37.6674 17.6111C38.006 17.5619 38.286 17.7155 38.5598 18.6215L38.5761 18.6793L40.0202 18.1633L40.0714 18.1444L40.0562 18.0936C39.6449 16.7555 38.8004 16.2011 37.4764 16.3936C35.9225 16.6181 35.2318 17.5597 35.4774 19.1164L36.0853 22.9906C36.331 24.5466 37.282 25.2498 38.8353 25.0253ZM32.3074 23.1715L33.3361 23.0239L32.4696 20.8599L32.3074 23.1715ZM30.6881 26.0197L31.3811 17.3891L32.904 17.1685L36.2472 25.2842L34.352 25.56L33.8483 24.3084L32.2127 24.5464L32.1164 25.8829L30.6825 26.0906L30.6881 26.0197ZM27.1629 21.1313L26.8305 21.1789L26.5584 19.4525L26.8919 19.4044C27.3032 19.3449 27.5477 19.6029 27.639 20.1908C27.7303 20.7706 27.5787 21.0697 27.1629 21.1313ZM28.3714 23.7178C28.5551 24.8844 28.1371 25.1083 27.6598 25.177L27.4643 25.2051L27.039 22.5089L27.3263 22.4667C27.6829 22.4143 28.1776 22.4889 28.3714 23.7178ZM30.2836 23.4966C30.0881 22.2488 29.3811 21.7539 28.7765 21.5651C29.1444 21.3131 29.6211 20.7922 29.4695 19.8225C29.1384 17.7249 27.1601 18.0082 26.502 18.1024L26.4975 18.103L24.5048 18.3929L25.8265 26.8018L27.9376 26.4957C28.7613 26.3767 30.6927 26.0954 30.2836 23.4966ZM73.0602 24.5618L72.5255 24.6116L73.1115 30.3999L73.6433 30.3512C73.9515 30.3226 74.2231 30.1673 74.1301 29.25L73.7566 25.5527C73.6636 24.6343 73.365 24.5337 73.0602 24.5618ZM70.5333 23.446L72.9244 23.2226C74.5267 23.0728 75.4547 23.823 75.6152 25.3899L75.986 29.0656C76.1448 30.633 75.3809 31.5411 73.7802 31.6899L71.388 31.9127L70.5333 23.446ZM68.3277 25.8662C68.3992 26.5736 67.9592 26.7662 67.5789 26.8013L67.3479 26.8241L67.1738 25.0982L67.5203 25.0662C68.0178 25.0203 68.2668 25.2675 68.3277 25.8662ZM70.6867 30.6696L70.4799 29.1936C70.3531 28.2985 69.8737 27.6592 69.1604 27.4158C69.7137 27.1643 70.2816 26.6548 70.1779 25.626C69.9617 23.4876 67.8682 23.6814 67.1773 23.7453L67.1761 23.7455L65.1805 23.9321L66.0363 32.3998L67.8933 32.2268L67.4944 28.2752C67.9733 28.2541 68.5035 28.5278 68.6201 29.3602L68.8291 30.8449C68.8849 31.2711 69.0528 31.8871 69.1964 32.0775L69.2167 32.1035L71.0929 31.9293L71.0326 31.8487C70.903 31.6762 70.7391 31.0634 70.6867 30.6696ZM61.9542 30.1191L62.988 30.0223L62.2432 27.8177L61.9542 30.1191ZM60.1778 32.8808L61.3463 24.294L62.8799 24.1512L65.769 32.4292L63.8613 32.6076L63.4286 31.3323L61.7818 31.4859L61.6116 32.8159L60.1688 32.9516L60.1778 32.8808ZM60.3047 24.3953L58.8613 24.5305L58.2314 29.5292L56.6274 24.7826L56.6133 24.7393L54.7045 24.9183L57.5925 33.1958L59.1272 33.0519L60.2934 24.4656L60.3047 24.3953ZM55.3563 33.4016L51.1533 33.7932L50.2991 25.326L54.5004 24.9344L54.6345 26.2736L52.2913 26.491L52.3989 27.5479L54.3376 27.3672L54.4723 28.7053L52.5347 28.886L52.8767 32.2794L55.221 32.0614L55.3563 33.4016ZM47.554 25.5815L45.6976 25.7546L46.5523 34.2213L50.7542 33.8297L50.6178 32.4911L48.2746 32.7085L47.554 25.5815ZM43.5025 33.3845C43.796 33.358 44.0828 33.206 43.9893 32.2843L43.3509 25.9778L45.2102 25.8048L45.8344 31.9874C45.9933 33.5543 45.2316 34.4613 43.6276 34.6106C42.0247 34.7599 41.0956 34.0113 40.9356 32.4444L40.3113 26.2618L42.17 26.0882L42.8061 32.3936C42.9002 33.3169 43.2106 33.412 43.5025 33.3845ZM37.0203 28.7464C36.9268 27.8232 37.213 27.6739 37.5054 27.6458C37.7978 27.6171 38.1088 27.7139 38.2012 28.6361L38.621 32.7802C38.7134 33.7018 38.4288 33.8527 38.1353 33.8809C37.8423 33.9074 37.5319 33.8122 37.4395 32.89L37.0203 28.7464ZM37.3826 26.4191C35.7791 26.5678 35.0169 27.4749 35.1752 29.0423L35.569 32.9398C35.7279 34.5077 36.6569 35.2579 38.2593 35.1075C39.8638 34.9583 40.6244 34.0507 40.4672 32.4838L40.0723 28.5847C39.9151 27.0184 38.9844 26.2682 37.3826 26.4191ZM32.2059 30.1165L31.8707 30.1478L31.6943 28.4133L32.0312 28.3808C32.4453 28.3419 32.6746 28.6123 32.7338 29.2024C32.7924 29.7876 32.6245 30.0781 32.2059 30.1165ZM32.0047 31.4854L32.2955 31.4589C32.6538 31.4254 33.1451 31.5238 33.2702 32.7618C33.3879 33.935 32.958 34.1378 32.4774 34.1827L32.2808 34.2016L32.0047 31.4854ZM33.7941 30.633C34.2302 30.3696 34.677 29.8687 34.5823 28.9293C34.3665 26.8123 32.3659 26.9984 31.7095 27.06L29.7015 27.2455L30.5579 35.7139L32.6814 35.5154C33.5119 35.438 35.4562 35.2568 35.1914 32.638C35.0646 31.381 34.3863 30.8526 33.7941 30.633Z" fill="#111111"/>
</svg>
