<svg width="100" height="48" viewBox="0 0 100 48" fill="none" xmlns="http://www.w3.org/2000/svg">
<path fill-rule="evenodd" clip-rule="evenodd" d="M39.8254 18.1042C39.7339 16.7465 39.1957 15.5883 38.2109 14.6297C37.2549 13.699 36.0922 13.1694 34.7228 13.0409C34.5745 13.0268 34.3921 13.0189 34.1757 13.0169C33.9758 13.015 33.7247 13.014 33.4225 13.014H23.034L22.4864 13.0119C22.1349 13.0105 21.8791 13.0156 21.7191 13.0272C20.2935 13.131 19.0854 13.6586 18.0949 14.61C17.2802 15.3922 16.7641 16.3298 16.5464 17.4226C16.5132 17.5897 16.4885 17.7633 16.4724 17.9433C16.4544 18.1447 16.4453 18.3468 16.4453 18.5494C16.4459 22.3668 16.4467 26.1841 16.4478 30.0015C16.448 31.0141 16.7105 31.9492 17.2353 32.8068C17.3277 32.9579 17.4282 33.1042 17.5369 33.2457C17.9848 33.8288 18.5258 34.3049 19.1596 34.6741C20.0648 35.2013 21.0595 35.4644 22.1437 35.4635C26.1247 35.4598 30.1058 35.458 34.087 35.458C34.3125 35.458 34.4949 35.4522 34.634 35.4406C36.0498 35.323 37.2513 34.7828 38.2386 33.82C38.3682 33.6936 38.4893 33.5626 38.6018 33.4269C39.3001 32.5849 39.7034 31.6247 39.8117 30.5464C39.8258 30.4077 39.8338 30.2327 39.8358 30.0215C39.838 29.8045 39.8391 29.5283 39.8391 29.1929C39.84 25.672 39.8395 22.151 39.8374 18.6299C39.8373 18.3983 39.8332 18.2231 39.8254 18.1042ZM27.6958 29.2962C26.2764 29.2734 25.0581 28.7962 24.0409 27.8647C23.5159 27.3836 23.114 26.8271 22.8354 26.1951C22.6045 25.6716 22.4691 25.1236 22.4291 24.5511C22.4173 24.3796 22.4153 24.2045 22.4231 24.0257C22.4728 22.8858 22.8689 21.8772 23.6114 20.9997C23.7284 20.8614 23.8508 20.7313 23.9784 20.6095C24.519 20.0943 25.1501 19.7072 25.8718 19.4482C26.451 19.2405 27.0571 19.1337 27.6901 19.1277C27.6957 19.1277 27.701 19.1298 27.705 19.1335C27.709 19.1373 27.7112 19.1424 27.7112 19.1477L27.7095 29.2833L27.7094 29.2853C27.7092 29.2863 27.7089 29.2873 27.7085 29.2883C27.7078 29.2899 27.7068 29.2914 27.7055 29.2926L27.704 29.2938C27.7031 29.2944 27.7021 29.2949 27.7011 29.2953C27.6994 29.296 27.6976 29.2963 27.6958 29.2962ZM33.512 20.8583C33.2025 21.6755 32.707 22.3697 32.0255 22.9407C31.0368 23.769 29.8774 24.1926 28.5472 24.2116L28.5443 24.2113L28.5418 24.2106C28.54 24.21 28.5385 24.209 28.5371 24.2077C28.5358 24.2065 28.5348 24.205 28.534 24.2033L28.5333 24.2011L28.533 24.1997L28.5329 24.1982V19.1411C28.5329 19.1376 28.5344 19.1343 28.537 19.1318C28.5395 19.1293 28.543 19.128 28.5466 19.128H33.8142C33.8179 19.128 33.8214 19.1294 33.824 19.1319C33.8267 19.1344 33.8281 19.1378 33.8281 19.1414C33.8263 19.7344 33.7209 20.3067 33.512 20.8583ZM58.7908 19.6354C58.7908 20.24 58.2803 20.7301 57.6505 20.7301C57.0207 20.7301 56.5102 20.24 56.5102 19.6354C56.5102 19.0308 57.0207 18.5407 57.6505 18.5407C58.2803 18.5407 58.7908 19.0308 58.7908 19.6354ZM65.0075 22.4088L65.0092 18.7205C65.0092 18.7181 65.0097 18.7157 65.0106 18.7135C65.0116 18.7113 65.013 18.7093 65.0147 18.7076C65.0165 18.7059 65.0186 18.7046 65.0209 18.7037C65.0231 18.7028 65.0256 18.7023 65.0281 18.7023H66.8154L66.8183 18.7026L66.8198 18.7029L66.8213 18.7034C66.8232 18.7042 66.8248 18.7053 66.8263 18.7066L66.8281 18.7087L66.829 18.7102L66.8296 18.7114L66.8301 18.7126L66.8305 18.7143L66.8308 18.717V25.1844C66.8308 26.2781 66.833 27.0692 66.8376 27.5576C66.8385 27.654 66.8537 27.9208 66.8831 28.3581L66.883 28.3607L66.8823 28.363L66.8816 28.3647C66.8811 28.3656 66.8804 28.3665 66.8796 28.3673C66.8784 28.3686 66.877 28.3695 66.8753 28.3702C66.8737 28.3709 66.872 28.3712 66.8702 28.3712L65.1349 28.3728C65.1317 28.3728 65.1285 28.3721 65.1256 28.3707C65.124 28.3699 65.1226 28.369 65.1213 28.3679C65.1193 28.3663 65.1177 28.3643 65.1165 28.3621C65.1154 28.3601 65.1147 28.3579 65.1144 28.3557C65.0782 28.1206 65.0568 27.8896 65.0503 27.6625C65.049 27.6208 65.0384 27.6185 65.0185 27.6557C64.9922 27.7046 64.954 27.7568 64.904 27.8122C64.5983 28.1517 64.2157 28.3698 63.7563 28.4664C63.4254 28.5362 63.0912 28.5534 62.7537 28.5182C62.0037 28.4398 61.3659 28.1542 60.8404 27.6612C60.5779 27.4149 60.3622 27.1288 60.1931 26.8029C60.1153 26.653 60.0473 26.4905 59.989 26.3154C59.7682 25.6522 59.7288 24.9721 59.8707 24.2753C59.9821 23.7289 60.2115 23.2397 60.559 22.8077C60.6721 22.6673 60.796 22.5389 60.9308 22.4225C61.5398 21.8956 62.2715 21.6339 63.126 21.6372C63.5164 21.6388 63.8924 21.7088 64.254 21.8471C64.5577 21.9633 64.8006 22.1529 64.9829 22.4159C64.9993 22.4395 65.0075 22.4372 65.0075 22.4088ZM62.282 26.5796C62.5348 26.7879 62.832 26.907 63.1736 26.937C63.5971 26.974 63.9705 26.8824 64.2937 26.6622C64.4422 26.5612 64.5694 26.437 64.6755 26.2896C64.8319 26.072 64.9362 25.8241 64.9886 25.5459C65.0617 25.1578 65.0482 24.7838 64.9481 24.4239C64.8968 24.2391 64.8263 24.078 64.7366 23.9405C64.5708 23.6867 64.3456 23.4979 64.0609 23.3741C63.8989 23.3036 63.7233 23.2588 63.5341 23.2395C63.3219 23.2177 63.1197 23.2305 62.9274 23.2779C62.4803 23.388 62.146 23.6295 61.9243 24.0026C61.8403 24.1439 61.7749 24.3069 61.7281 24.4917C61.6136 24.9445 61.6328 25.3991 61.7857 25.8554C61.8828 26.1458 62.0483 26.3872 62.282 26.5796ZM73.3391 27.6368L73.3435 27.6362C73.3445 27.6361 73.3456 27.6363 73.3466 27.6368C73.3477 27.6372 73.3486 27.638 73.3494 27.639C73.3502 27.6399 73.3509 27.6411 73.3513 27.6424C73.3517 27.6437 73.352 27.6451 73.352 27.6465C73.3532 27.8837 73.3742 28.1186 73.415 28.3512C73.4161 28.3573 73.4193 28.3628 73.4242 28.3667C73.4268 28.3688 73.4298 28.3704 73.4329 28.3715C73.4343 28.3719 73.4358 28.3722 73.4372 28.3725C73.4386 28.3727 73.4401 28.3728 73.4415 28.3728H75.1708C75.1728 28.3728 75.1747 28.3724 75.1765 28.3717C75.1783 28.3709 75.1799 28.3698 75.1812 28.3685C75.1825 28.3671 75.1835 28.3655 75.1841 28.3638C75.1847 28.362 75.185 28.3602 75.1848 28.3583C75.1641 28.1022 75.1495 27.8484 75.1409 27.5968C75.1364 27.4643 75.1341 27.2891 75.1341 27.0714V18.7205C75.1341 18.7156 75.1321 18.711 75.1286 18.7076C75.125 18.7042 75.1202 18.7023 75.1152 18.7023H73.3295C73.3266 18.7023 73.3237 18.7029 73.321 18.7039C73.3196 18.7045 73.3182 18.7052 73.3169 18.7061C73.3158 18.7068 73.3148 18.7076 73.3138 18.7085C73.3118 18.7105 73.3101 18.7129 73.309 18.7155C73.3085 18.7167 73.308 18.718 73.3078 18.7193C73.3075 18.7207 73.3073 18.7222 73.3073 18.7236L73.3076 22.4235C73.3076 22.4389 73.3031 22.4402 73.2942 22.4274C73.1694 22.2465 73.0173 22.1013 72.8378 21.9917C72.6475 21.8757 72.4429 21.7914 72.2239 21.739C71.8479 21.6489 71.4666 21.6202 71.0801 21.6528C70.6131 21.692 70.1799 21.8199 69.7803 22.0364C69.6243 22.1211 69.4748 22.2211 69.3316 22.3365C68.918 22.6692 68.6088 23.0712 68.4041 23.5424C68.0723 24.3061 67.9977 25.1056 68.1803 25.9409C68.2442 26.2337 68.3497 26.5211 68.4967 26.8032C68.7912 27.3687 69.214 27.8063 69.7649 28.1159C69.9227 28.2046 70.0879 28.2789 70.2605 28.3389C70.7309 28.5028 71.2209 28.562 71.7306 28.5166C72.1747 28.4772 72.5691 28.3345 72.9137 28.0885C73.0757 27.9728 73.2152 27.824 73.3322 27.642C73.3332 27.6405 73.3344 27.6392 73.3356 27.6383L73.3373 27.6372C73.3379 27.637 73.3385 27.6368 73.3391 27.6368ZM71.1124 26.8634C70.904 26.8015 70.7192 26.7003 70.558 26.5597C70.3085 26.3423 70.139 26.0769 70.0496 25.7637C69.921 25.3144 69.9192 24.8719 70.0441 24.4362C70.0958 24.2565 70.1676 24.0962 70.2597 23.9553C70.5303 23.5415 70.9226 23.3053 71.4367 23.2466C71.6215 23.2254 71.8033 23.2305 71.9821 23.2618C72.4448 23.3434 72.7975 23.574 73.0402 23.9537C73.1308 24.0952 73.2009 24.2563 73.2506 24.437C73.3505 24.7994 73.362 25.1734 73.2851 25.5591C73.2442 25.7644 73.1779 25.9505 73.0863 26.1176C72.9274 26.4067 72.704 26.6231 72.4162 26.7669C72.2555 26.847 72.0822 26.8998 71.8963 26.9254C71.6347 26.9616 71.3733 26.9409 71.1124 26.8634ZM51.2302 22.9823C51.2297 22.9832 51.2293 22.9842 51.2291 22.9853C51.2289 22.9862 51.2288 22.9872 51.2289 22.9881C51.229 22.9902 51.2297 22.9921 51.2308 22.9939C51.2319 22.9956 51.2335 22.997 51.2353 22.998C51.2372 22.9989 51.2393 22.9994 51.2414 22.9994H55.0547C55.0576 22.9994 55.0605 22.9999 55.0632 23.001C55.0659 23.0021 55.0683 23.0036 55.0704 23.0056C55.0724 23.0076 55.0741 23.0099 55.0752 23.0125C55.0763 23.0151 55.0769 23.0179 55.0769 23.0207V24.6823C55.0769 24.6858 55.0754 24.6892 55.0728 24.6916C55.0703 24.6941 55.0668 24.6955 55.0632 24.6955L51.268 24.6971C51.2629 24.6971 51.258 24.699 51.2544 24.7025C51.2508 24.706 51.2488 24.7108 51.2488 24.7157V28.3612C51.2488 28.3671 51.2463 28.3728 51.242 28.377C51.2376 28.3812 51.2317 28.3836 51.2255 28.3836H49.336C49.3327 28.3836 49.3294 28.3829 49.3264 28.3817C49.3235 28.3806 49.3209 28.3789 49.3186 28.3769L49.3182 28.3765C49.3158 28.3742 49.314 28.3716 49.3127 28.3686C49.3115 28.3657 49.3108 28.3625 49.3108 28.3594L49.3092 18.935C49.3091 18.9312 49.3105 18.9276 49.313 18.9248C49.3155 18.922 49.3189 18.9203 49.3226 18.92C49.3454 18.9179 49.3894 18.9169 49.4546 18.9169C51.4833 18.919 53.5087 18.9173 55.531 18.9119L55.5328 18.912L55.5347 18.9122C55.5359 18.9125 55.537 18.9128 55.538 18.9132L55.5393 18.9138L55.5418 18.9152L55.544 18.917C55.545 18.918 55.5458 18.919 55.5465 18.9201L55.548 18.9227C55.5489 18.9249 55.5494 18.9272 55.5494 18.9295V20.644C55.5494 20.6468 55.5488 20.6496 55.5477 20.6523C55.5465 20.6549 55.5449 20.6573 55.5428 20.6593C55.5407 20.6613 55.5382 20.6629 55.5355 20.6639L55.5335 20.6646L55.5314 20.6651C55.5299 20.6654 55.5284 20.6656 55.5269 20.6656H51.2589C51.2558 20.6656 51.2527 20.6662 51.2498 20.6673C51.2469 20.6685 51.2443 20.6702 51.2421 20.6723C51.2399 20.6744 51.2381 20.6769 51.2369 20.6797C51.2357 20.6825 51.2351 20.6854 51.2351 20.6885C51.2351 21.4358 51.2365 22.1864 51.2392 22.9402C51.2392 22.9565 51.2362 22.9705 51.2302 22.9823ZM30.208 20.3595C30.208 20.6924 29.9269 20.9622 29.5802 20.9622C29.2334 20.9622 28.9523 20.6924 28.9523 20.3595C28.9523 20.0267 29.2334 19.7568 29.5802 19.7568C29.9269 19.7568 30.208 20.0267 30.208 20.3595ZM77.5272 27.6926C76.9661 27.2028 76.6101 26.5866 76.4592 25.844C76.2872 24.997 76.3909 24.1976 76.7704 23.4457C77.0007 22.9896 77.33 22.6059 77.7584 22.2947C77.9038 22.189 78.0576 22.095 78.2197 22.0126C78.6954 21.7708 79.2116 21.6366 79.7682 21.61C80.2404 21.5874 80.6936 21.642 81.1277 21.7738C81.9071 22.0106 82.5171 22.4452 82.9578 23.0776C83.2958 23.5628 83.4926 24.1123 83.5483 24.7261C83.5958 25.2499 83.5411 25.7518 83.3843 26.2318C83.3293 26.3998 83.2616 26.5623 83.1813 26.7194C82.8343 27.3969 82.3061 27.9005 81.5966 28.2301C81.0501 28.4839 80.4566 28.5988 79.8161 28.5748C78.9259 28.5415 78.1629 28.2474 77.5272 27.6926ZM79.0765 26.717C79.4202 26.923 79.8066 26.9967 80.2358 26.9381C80.6821 26.8773 81.042 26.6769 81.3156 26.337C81.4529 26.1666 81.5512 25.9846 81.6103 25.7911C81.7363 25.3784 81.7489 24.957 81.6481 24.5268C81.5784 24.2298 81.4476 23.9758 81.2559 23.7647C81.0539 23.5421 80.8066 23.387 80.5141 23.2995C80.3466 23.2494 80.1667 23.224 79.9742 23.2233C79.4621 23.2215 79.0394 23.3997 78.7059 23.7579C78.5828 23.8902 78.4855 24.0375 78.4139 24.1996C78.327 24.3972 78.2717 24.6121 78.2479 24.8444C78.2165 25.1526 78.2422 25.4523 78.3249 25.7435C78.3923 25.98 78.5057 26.19 78.6651 26.3736C78.7824 26.5085 78.9195 26.623 79.0765 26.717ZM56.746 21.8045H58.5758C58.5829 21.8045 58.5887 21.8101 58.5887 21.8169V28.3663C58.5887 28.3731 58.5829 28.3786 58.5758 28.3786H56.746C56.7389 28.3786 56.7331 28.3731 56.7331 28.3663V21.8169C56.7331 21.8101 56.7389 21.8045 56.746 21.8045Z" fill="#111111"/>
</svg>
