<svg width="98" height="48" viewBox="0 0 98 48" fill="none" xmlns="http://www.w3.org/2000/svg">
<path d="M27.3662 29.8271V17.418H24.9509V25.6265L19.7877 17.418H16.7773V29.8271H19.1926V21.0234L24.8283 29.8271H27.3662Z" fill="#111111"/>
<path d="M30.9659 24.5414C31.0184 23.7538 31.6835 22.8437 32.8911 22.8437C34.2213 22.8437 34.7813 23.6838 34.8163 24.5414H30.9659ZM35.0439 26.7817C34.7638 27.5518 34.1688 28.0943 33.0836 28.0943C31.9285 28.0943 30.9659 27.2717 30.9134 26.1341H37.0741C37.0741 26.0991 37.1091 25.749 37.1091 25.4165C37.1091 22.6511 35.5164 20.9534 32.8561 20.9534C30.6508 20.9534 28.6206 22.7387 28.6206 25.4865C28.6206 28.3919 30.7033 30.0896 33.0661 30.0896C35.1839 30.0896 36.5491 28.8469 36.9866 27.3592L35.0439 26.7817Z" fill="#111111"/>
<path d="M43.7753 29.8271H45.998C45.963 29.5295 45.9105 28.9345 45.9105 28.2694V21.216H43.5827V26.2216C43.5827 27.2192 42.9877 27.9193 41.955 27.9193C40.8699 27.9193 40.3798 27.1492 40.3798 26.1866V21.216H38.0521V26.6592C38.0521 28.5319 39.2422 30.0546 41.325 30.0546C42.2351 30.0546 43.2327 29.7046 43.7053 28.8994C43.7053 29.2495 43.7403 29.652 43.7753 29.8271Z" fill="#111111"/>
<path d="M50.0225 21.216H47.6947V29.8271H50.0225V22.7212C50.0575 23.5613 50.7225 24.2088 51.5801 24.2088C52.4553 24.2088 53.1378 23.5263 53.1378 22.6511C53.1378 21.776 52.4553 21.0934 51.5801 21.0934C50.7225 21.0934 50.0575 21.7585 50.0225 22.5986V21.216Z" fill="#111111"/>
<path d="M57.7506 27.9718C56.613 27.9718 55.5628 27.1317 55.5628 25.5215C55.5628 23.8938 56.613 23.0712 57.7506 23.0712C58.8883 23.0712 59.9384 23.8938 59.9384 25.5215C59.9384 27.1492 58.8883 27.9718 57.7506 27.9718ZM57.7506 20.9534C55.1778 20.9534 53.2351 22.8612 53.2351 25.5215C53.2351 28.1644 55.1778 30.0896 57.7506 30.0896C60.3234 30.0896 62.2662 28.1644 62.2662 25.5215C62.2662 22.8612 60.3234 20.9534 57.7506 20.9534Z" fill="#111111"/>
<path d="M65.7313 24.8739C65.7313 23.8763 66.3264 23.0887 67.3415 23.0887C68.4617 23.0887 68.9342 23.8413 68.9342 24.8039V29.8271H71.262V24.4014C71.262 22.5111 70.2819 20.9884 68.1466 20.9884C67.219 20.9884 66.1864 21.391 65.6613 22.2836V21.216H63.4036V29.8271H65.7313V24.8739Z" fill="#111111"/>
<path d="M72.3994 27.4818C72.3994 28.8294 73.5195 30.0721 75.3573 30.0721C76.6349 30.0721 77.4575 29.477 77.8951 28.7944C77.8951 29.127 77.9301 29.5995 77.9826 29.8271H80.1179C80.0654 29.5295 80.0128 28.917 80.0128 28.4619V24.2263C80.0128 22.4936 78.9977 20.9534 76.2674 20.9534C73.9571 20.9534 72.7144 22.4411 72.5744 23.7888L74.6397 24.2263C74.7097 23.4737 75.2698 22.8262 76.2849 22.8262C77.265 22.8262 77.7376 23.3337 77.7376 23.9463C77.7376 24.2438 77.58 24.4889 77.09 24.5589L74.9722 24.8739C73.537 25.084 72.3994 25.9416 72.3994 27.4818ZM75.8473 28.3394C75.0947 28.3394 74.7272 27.8493 74.7272 27.3417C74.7272 26.6767 75.1997 26.3441 75.7948 26.2566L77.7376 25.9591V26.3441C77.7376 27.8668 76.8274 28.3394 75.8473 28.3394Z" fill="#111111"/>
</svg>
