<svg width="100" height="48" viewBox="0 0 100 48" fill="none" xmlns="http://www.w3.org/2000/svg">
<path fill-rule="evenodd" clip-rule="evenodd" d="M13.9307 25.999C13.937 25.999 13.943 26.0014 13.9474 26.0057C13.9518 26.0099 13.9543 26.0157 13.9543 26.0217C13.9596 26.3503 13.9642 26.6809 13.9684 27.0134C13.971 27.2104 14.0131 27.3826 14.0948 27.5301C14.1765 27.6771 14.3047 27.7927 14.4793 27.8768C14.7378 28.0016 15.0312 28.0373 15.3594 27.9841C15.612 27.9431 15.8093 27.8443 15.9513 27.6875C16.0716 27.5549 16.1506 27.3699 16.1885 27.1326C16.2514 26.7371 16.1536 26.3965 15.8951 26.1107C15.7842 25.9881 15.5622 25.8142 15.229 25.5892C14.9945 25.4306 14.7504 25.2856 14.4967 25.154C14.1643 24.9814 13.8331 24.8069 13.503 24.6303C13.123 24.4268 12.757 24.2027 12.4047 23.9578C12.0544 23.7137 11.7533 23.4229 11.5015 23.0853C11.3022 22.8182 11.1705 22.523 11.1064 22.1998C11.0071 21.7011 11.0084 21.2106 11.1103 20.7281C11.1917 20.343 11.3292 20.0114 11.5229 19.7331C11.799 19.3358 12.1775 19.0337 12.6582 18.8266C12.8688 18.7356 13.0863 18.6637 13.3108 18.6109C14.1464 18.4124 15.0166 18.364 15.9215 18.4658C16.3374 18.5125 16.7084 18.5909 17.0343 18.7009C17.8287 18.9688 18.3531 19.4609 18.6075 20.1775C18.6855 20.3971 18.7334 20.6711 18.7514 20.9993C18.7664 21.2704 18.7685 21.5496 18.7576 21.8368C18.7571 21.8512 18.7509 21.8647 18.7402 21.8747C18.7295 21.8847 18.7152 21.8902 18.7003 21.8902H16.0148C16.0097 21.8902 16.0048 21.8893 16.0001 21.8874C15.9955 21.8855 15.9913 21.8827 15.9878 21.8793C15.9842 21.8758 15.9815 21.8717 15.9797 21.8672C15.9778 21.8627 15.977 21.8579 15.9771 21.853C15.9828 21.5855 15.9754 21.3285 15.9552 21.0818C15.9387 20.8841 15.8711 20.7151 15.7523 20.5749C15.644 20.4466 15.4936 20.3533 15.301 20.295C15.0185 20.2095 14.7335 20.2199 14.4461 20.3263C14.2411 20.4022 14.092 20.5456 13.9987 20.7567C13.8792 21.0267 13.8612 21.2904 13.9448 21.5478C13.9942 21.6991 14.0924 21.8478 14.2393 21.9938C14.3764 22.13 14.5214 22.2427 14.6743 22.3319C15.2277 22.6544 15.7903 22.9611 16.3621 23.2519C16.7859 23.4676 17.1578 23.6799 17.4778 23.8888C17.7764 24.084 18.062 24.3224 18.3344 24.6039C18.5468 24.8232 18.7102 25.0673 18.8245 25.3362C18.9196 25.5599 18.9811 25.8387 19.0088 26.1727C19.0497 26.6616 19.0242 27.1497 18.9324 27.6368C18.8204 28.2311 18.5391 28.7165 18.0887 29.0929C17.7695 29.36 17.3836 29.5585 16.9309 29.6883C16.1133 29.923 15.2289 29.9976 14.2775 29.9121C13.6158 29.8527 13.0352 29.703 12.5357 29.4628C11.9175 29.1662 11.4791 28.7316 11.2205 28.1589C11.0957 27.8827 11.015 27.5338 10.9783 27.1121C10.9472 26.7483 10.9449 26.3843 10.9715 26.0201C10.9719 26.0145 10.9745 26.0093 10.9787 26.0055C10.9828 26.0017 10.9883 25.9996 10.994 25.9996L13.9307 25.999ZM82.04 28.8634C81.5484 28.4428 81.2589 27.9163 81.1716 27.2839C81.1124 26.8564 81.0843 26.4271 81.0873 25.996L81.0895 25.6261C81.082 23.7458 81.0869 22.4053 81.1042 21.6047C81.1072 21.4713 81.1386 21.23 81.1986 20.8809C81.338 20.0731 81.7526 19.4616 82.4424 19.0463C82.81 18.8256 83.2461 18.6706 83.7508 18.5814C84.6868 18.4168 85.6079 18.4224 86.5139 18.5982C86.9054 18.674 87.2874 18.816 87.6599 19.0242C88.1729 19.3107 88.5298 19.6866 88.7306 20.1518C88.8973 20.5387 88.9876 20.9421 89.0015 21.362C89.0094 21.6 89.0084 21.8603 88.9987 22.1429C88.9982 22.1576 88.9918 22.1716 88.9808 22.1819C88.9698 22.1921 88.955 22.1979 88.9397 22.1979H86.252C86.2439 22.1979 86.2359 22.1964 86.2285 22.1934C86.2211 22.1904 86.2143 22.1861 86.2086 22.1807C86.2029 22.1752 86.1984 22.1687 86.1954 22.1616C86.1923 22.1545 86.1907 22.1468 86.1907 22.1391V21.6839C86.1907 21.4776 86.1813 21.3266 86.1626 21.2309C86.0536 20.6697 85.6648 20.3938 84.9963 20.4031C84.4478 20.4111 84.0965 20.6633 83.9425 21.1598C83.8938 21.3169 83.8704 21.5551 83.8722 21.8743C83.8816 23.3081 83.882 24.7417 83.8734 26.1751C83.8711 26.5465 83.8859 26.8285 83.9178 27.0212C83.9612 27.2812 84.1158 27.4879 84.3815 27.6414C84.6078 27.7723 84.8783 27.8222 85.1931 27.7913C85.8795 27.7244 86.222 27.3565 86.2205 26.6874C86.2194 26.1481 86.2188 25.6137 86.2188 25.0841C86.2188 25.0755 86.2152 25.0673 86.2089 25.0612C86.2026 25.0552 86.194 25.0518 86.1851 25.0518L85.1324 25.0561C85.1186 25.0561 85.1055 25.0508 85.0958 25.0414C85.0861 25.032 85.0806 25.0192 85.0806 25.0059L85.084 23.5164C85.084 23.5064 85.0882 23.4968 85.0957 23.4897C85.1032 23.4827 85.1133 23.4787 85.1239 23.4787H88.997C89.0054 23.4787 89.0135 23.4818 89.0195 23.4875C89.0255 23.4931 89.0289 23.5008 89.029 23.5089C89.0347 24.4199 89.0324 25.3221 89.0223 26.2155C89.0163 26.7354 88.9964 27.094 88.9627 27.2914C88.7716 28.4038 88.0818 29.1372 86.8933 29.4917C86.3057 29.6668 85.6871 29.7491 85.0374 29.7387C84.6177 29.7318 84.2445 29.7025 83.9178 29.6508C83.4325 29.5738 82.9735 29.4253 82.5408 29.2053C82.3733 29.1201 82.2063 29.0061 82.04 28.8634ZM47.4813 27.9741C47.6364 28.3958 47.8923 28.75 48.249 29.0365C48.6372 29.3486 49.0822 29.5693 49.5839 29.6988C49.8807 29.7753 50.2505 29.8323 50.6934 29.8697C51.3461 29.9251 51.9947 29.8931 52.6392 29.7737C52.9659 29.7133 53.2498 29.6357 53.4907 29.5407C53.786 29.4246 54.0434 29.2813 54.263 29.1109C54.7381 28.7421 55.0388 28.2686 55.1651 27.6905C55.2089 27.4888 55.2392 27.2328 55.2561 26.9225C55.2692 26.6755 55.2672 26.4174 55.2499 26.1481C55.2065 25.474 54.938 24.9092 54.4445 24.4537C54.1346 24.1679 53.8259 23.9338 53.5183 23.7515C52.9513 23.4157 52.2752 23.0481 51.4898 22.6487C51.1001 22.4506 50.7833 22.243 50.5394 22.0258C50.2752 21.7911 50.1639 21.4889 50.2055 21.1193C50.2404 20.8087 50.3745 20.5806 50.608 20.435C50.7417 20.3515 50.9049 20.301 51.0975 20.2834C51.2845 20.2662 51.4591 20.2852 51.6213 20.3406C52.0211 20.4776 52.2261 20.7641 52.2362 21.2002C52.2407 21.4022 52.243 21.6207 52.243 21.8554C52.243 21.868 52.2481 21.88 52.2574 21.889C52.2666 21.898 52.2792 21.9031 52.2924 21.9034C53.1969 21.9225 54.0844 21.9219 54.9548 21.9018C54.9626 21.9017 54.97 21.8988 54.9756 21.8937C54.9812 21.8886 54.9846 21.8817 54.9852 21.8743C55.0294 21.3293 55.0099 20.8574 54.9267 20.4587C54.7915 19.8108 54.4046 19.3159 53.7661 18.974C53.4098 18.7828 53.0203 18.6519 52.5976 18.5814C51.7459 18.4387 50.9042 18.4342 50.0723 18.568C49.7358 18.6219 49.4449 18.6933 49.1995 18.7821C48.8952 18.8928 48.6299 19.0326 48.4036 19.2016C48.0428 19.4705 47.7827 19.7873 47.6235 20.1518C47.408 20.6455 47.3226 21.1837 47.3672 21.7664C47.4002 22.1954 47.5137 22.5781 47.7078 22.9146C47.8562 23.1713 48.0994 23.4418 48.4373 23.7262C48.803 24.0339 49.2021 24.3002 49.6345 24.5249C50.3093 24.8758 50.9692 25.2506 51.614 25.6493C51.8718 25.8085 52.071 25.9714 52.2115 26.1379C52.4959 26.4758 52.5676 26.8681 52.4268 27.3146C52.3147 27.6705 52.0665 27.8816 51.682 27.9477C51.3931 27.9977 51.1316 27.981 50.8974 27.8975C50.4317 27.7315 50.2198 27.3955 50.2617 26.8896C50.2775 26.6994 50.2722 26.4037 50.246 26.0025C50.2456 25.9954 50.2422 25.9886 50.2367 25.9837C50.2312 25.9788 50.2238 25.9761 50.2162 25.9761L47.3323 25.9728C47.3203 25.9728 47.3086 25.9774 47.2999 25.9855C47.2912 25.9937 47.2861 26.0048 47.2857 26.0165C47.2733 26.3581 47.2788 26.6876 47.302 27.005C47.3312 27.4063 47.391 27.7293 47.4813 27.9741ZM25.4171 19.6623C25.386 19.6839 25.3702 19.7139 25.3699 19.7524C25.3695 19.8031 25.3691 19.8306 25.3687 19.8349C24.8685 23.0494 24.3649 26.2696 23.8579 29.4956C23.857 29.5017 23.8539 29.5072 23.8491 29.5111C23.8444 29.5151 23.8383 29.5172 23.8321 29.5172L20.8982 29.5269C20.8904 29.527 20.8827 29.5254 20.8757 29.5222C20.8686 29.519 20.8624 29.5144 20.8574 29.5086C20.8524 29.5029 20.8488 29.4961 20.8468 29.4888C20.8448 29.4815 20.8445 29.4739 20.8459 29.4665L22.8985 18.7817C22.9005 18.7705 22.9066 18.7604 22.9156 18.753C22.9247 18.7457 22.9362 18.7418 22.948 18.7418L27.8249 18.745C27.8379 18.7451 27.8504 18.7495 27.8604 18.7574C27.8703 18.7654 27.877 18.7765 27.8794 18.7887L29.918 29.4751C29.9192 29.4815 29.9189 29.4881 29.9172 29.4944C29.9155 29.5007 29.9124 29.5066 29.908 29.5116C29.9037 29.5166 29.8982 29.5206 29.8921 29.5233C29.8859 29.5261 29.8792 29.5275 29.8724 29.5274H26.9869C26.9719 29.5275 26.9574 29.5223 26.946 29.5129C26.9346 29.5035 26.9272 29.4905 26.925 29.4762C26.4428 26.3243 25.9636 23.1821 25.4873 20.0495C25.4633 19.8921 25.4485 19.7673 25.4429 19.6753C25.4418 19.6555 25.4332 19.6512 25.4171 19.6623ZM35.0044 19.8743C35.0044 19.8193 35.0082 19.7821 35.0157 19.7626C35.0355 19.7098 35.0507 19.7109 35.0612 19.7659L36.9345 29.4832C36.937 29.4956 36.9439 29.5069 36.9541 29.5149C36.9642 29.523 36.977 29.5274 36.9902 29.5274H39.7015C39.7211 29.5274 39.7401 29.5208 39.7551 29.5088C39.7702 29.4968 39.7805 29.4801 39.7841 29.4616C40.411 26.2162 41.0362 22.9619 41.6597 19.6985C41.6608 19.6913 41.6612 19.6827 41.6608 19.6726C41.6593 19.6517 41.664 19.6435 41.6748 19.6478C41.6793 19.6495 41.6831 19.6533 41.6858 19.6586C41.6886 19.6639 41.69 19.6705 41.69 19.6774L41.7608 29.4697C41.7608 29.4773 41.7624 29.4848 41.7654 29.4918C41.7684 29.4988 41.7729 29.5052 41.7785 29.5105C41.784 29.5159 41.7907 29.5201 41.798 29.523C41.8053 29.5259 41.8131 29.5274 41.821 29.5274H44.5289C44.534 29.5274 44.539 29.5265 44.5437 29.5246C44.5484 29.5227 44.5526 29.52 44.5562 29.5165C44.5597 29.513 44.5625 29.5089 44.5644 29.5044L44.5653 29.5022C44.5659 29.5003 44.5664 29.4984 44.5667 29.4965C44.567 29.4944 44.5672 29.4923 44.5672 29.4902L44.3176 18.7774C44.3175 18.7679 44.3134 18.7588 44.3064 18.7522C44.2993 18.7455 44.2898 18.7418 44.2799 18.7418L39.8139 18.745C39.8013 18.745 39.7892 18.7494 39.7796 18.7573C39.77 18.7652 39.7636 18.7761 39.7616 18.7882C39.2936 21.5396 38.8369 24.2716 38.3914 26.9842C38.3899 26.9943 38.3885 27.0088 38.3874 27.0279C38.3848 27.0724 38.3721 27.0832 38.3492 27.0602C38.3402 27.0509 38.3344 27.0385 38.3318 27.023C37.8784 24.2788 37.4201 21.5331 36.957 18.786C36.955 18.7737 36.9484 18.7624 36.9386 18.7543C36.9287 18.7462 36.9161 18.7418 36.9031 18.7418H32.4432C32.4324 18.7418 32.4219 18.7458 32.4142 18.7531C32.4064 18.7603 32.4019 18.7702 32.4016 18.7806L32.1594 29.4784C32.1592 29.4848 32.1604 29.4911 32.1628 29.4971C32.1653 29.503 32.1689 29.5084 32.1736 29.513C32.1783 29.5176 32.1838 29.5212 32.19 29.5237C32.1961 29.5262 32.2027 29.5274 32.2094 29.5274H34.896C34.9091 29.5274 34.9217 29.5225 34.9309 29.5137C34.9402 29.5049 34.9454 29.493 34.9454 29.4805C34.9743 26.2851 34.994 23.083 35.0044 19.8743ZM58.8397 29.0351C58.2806 28.5756 57.9696 27.9847 57.9067 27.2625C57.8786 26.9418 57.8645 26.6676 57.8645 26.44V18.779C57.8645 18.7741 57.8655 18.7693 57.8675 18.7648C57.8694 18.7602 57.8723 18.7561 57.8759 18.7527C57.8795 18.7492 57.8838 18.7465 57.8885 18.7446C57.8932 18.7427 57.8982 18.7418 57.9033 18.7418H60.641C60.6537 18.7418 60.6659 18.7466 60.6748 18.7552C60.6838 18.7638 60.6888 18.7755 60.6888 18.7876C60.6888 21.4355 60.6877 24.0897 60.6854 26.7501C60.6851 26.8555 60.6948 26.9599 60.7147 27.0635C60.781 27.4151 60.9554 27.6569 61.2379 27.7888C61.4867 27.9049 61.7631 27.9349 62.067 27.8789C62.4911 27.8001 62.7577 27.5227 62.8668 27.0467C62.8829 26.9759 62.8907 26.8051 62.8904 26.5344C62.884 23.9459 62.8808 21.3636 62.8808 18.7876C62.8808 18.7755 62.8858 18.7638 62.8948 18.7552C62.9038 18.7466 62.9159 18.7418 62.9286 18.7418H65.6663C65.6766 18.7418 65.6865 18.7457 65.6937 18.7527C65.701 18.7597 65.7051 18.7691 65.7051 18.779C65.7051 21.4326 65.7053 24.0762 65.7057 26.7097C65.706 27.1231 65.6408 27.5263 65.5101 27.9193C65.3096 28.5229 64.9332 28.9815 64.3809 29.295C63.9834 29.5204 63.5401 29.6725 63.0511 29.7512C62.0001 29.9206 60.9831 29.8819 60.0003 29.6353C59.5863 29.5314 59.1994 29.3313 58.8397 29.0351ZM75.559 27.3428L75.5534 27.3433C75.5511 27.3436 75.5485 27.3424 75.5461 27.3402C75.5454 27.3395 75.5447 27.3387 75.544 27.3378C75.5426 27.3358 75.5414 27.3335 75.5405 27.3309L72.9523 18.7828C72.949 18.7719 72.9421 18.7623 72.9327 18.7555C72.9233 18.7487 72.9118 18.745 72.9 18.745L68.8443 18.7418C68.8383 18.7418 68.8324 18.7429 68.8268 18.7451C68.8213 18.7473 68.8163 18.7505 68.8121 18.7546C68.8078 18.7586 68.8045 18.7635 68.8022 18.7688C68.7999 18.7741 68.7987 18.7797 68.7987 18.7855L68.7954 29.3689C68.7954 29.3738 68.7964 29.3786 68.7983 29.3831C68.8003 29.3876 68.8031 29.3917 68.8067 29.3952C68.8103 29.3987 68.8146 29.4014 68.8193 29.4033C68.824 29.4051 68.829 29.4061 68.8341 29.4061H71.4915C71.4975 29.4061 71.5033 29.405 71.5088 29.4028C71.5143 29.4006 71.5193 29.3973 71.5235 29.3933C71.5277 29.3892 71.531 29.3844 71.5332 29.3791C71.5354 29.3738 71.5365 29.3681 71.5365 29.3624C71.4848 26.4442 71.433 23.5427 71.3813 20.6579C71.3813 20.655 71.3802 20.6357 71.378 20.6002C71.3746 20.5502 71.3858 20.5329 71.4117 20.5484C71.4181 20.552 71.4235 20.5579 71.4274 20.5656C71.4313 20.5732 71.4337 20.5823 71.4342 20.5921C71.4375 20.646 71.4475 20.699 71.464 20.7512C72.3726 23.6205 73.279 26.4934 74.1832 29.37C74.1864 29.3804 74.1931 29.3896 74.2022 29.3961C74.2113 29.4026 74.2224 29.4061 74.2337 29.4061H78.1344C78.1441 29.4061 78.1533 29.4024 78.1602 29.3957C78.167 29.389 78.1709 29.3799 78.1709 29.3705L78.1675 18.7785C78.1675 18.7736 78.1665 18.7689 78.1646 18.7644C78.1627 18.76 78.1599 18.7559 78.1563 18.7525C78.1528 18.7491 78.1486 18.7464 78.1439 18.7446C78.1393 18.7427 78.1343 18.7418 78.1293 18.7418H75.4629C75.4563 18.7418 75.4498 18.743 75.4437 18.7455C75.4376 18.7479 75.432 18.7515 75.4274 18.756C75.4227 18.7605 75.419 18.7659 75.4166 18.7718C75.4141 18.7777 75.4128 18.784 75.4129 18.7903L75.5647 27.3347C75.5647 27.3367 75.5641 27.3386 75.5631 27.3401C75.562 27.3416 75.5606 27.3426 75.559 27.3428Z" fill="#111111"/>
</svg>
