<svg width="140" height="67" viewBox="0 0 140 67" fill="none" xmlns="http://www.w3.org/2000/svg">
<path fill-rule="evenodd" clip-rule="evenodd" d="M79.0868 27.5V39.6328V39.6483H81.2322V32.7374C81.2322 32.2261 81.1819 31.9317 81.1651 31.8542C81.316 32.0711 81.5339 32.288 81.735 32.474L90.0484 39.9737V27.8409H87.903V34.7363C87.903 35.1156 87.9399 35.3841 87.959 35.5227C87.9656 35.571 87.9701 35.6035 87.9701 35.6195C87.8192 35.4181 87.6013 35.1857 87.4002 34.9997L79.0868 27.5ZM39.1841 39.6367H37.0387V29.6113H33.3346V27.8448H42.8548V29.6113H39.1841V39.6367ZM22.9789 27.8712L24.0349 29.7771L18.7384 39.9576L15.3359 35.6034L16.2913 33.7439L18.4199 36.3781C19.1999 34.9151 19.8532 33.7019 20.4943 32.5114L20.4943 32.5114C21.2724 31.0666 22.0325 29.6552 22.9789 27.8712ZM23.8136 33.3822L24.8695 31.3523L29.5123 39.6423H27.2328L25.959 37.2715H21.7855L22.6906 35.567H25.0036L23.8136 33.3822ZM52.1071 39.6367H54.2525V29.6113H57.9232V27.8448H48.403V29.6113H52.1071V39.6367ZM72.3258 39.6367H64.4147V27.8448H72.0744V29.6113H66.5601V32.6483H71.7895V34.4148H66.5601V37.8703H72.3258V39.6367ZM102.07 27.8448C105.54 27.8448 108.339 30.448 108.339 33.64C108.339 36.956 105.439 39.6367 101.852 39.6367H97.3602V27.8448H102.07ZM99.5223 37.8703H101.852C104.266 37.8703 106.193 35.9798 106.193 33.64C106.193 31.4087 104.349 29.6113 102.07 29.6113H99.5223V37.8703ZM119.325 39.9001C123.03 39.9001 124.655 38.1182 124.655 35.7629V27.8448H122.476V35.7629C122.476 37.08 121.521 38.1182 119.309 38.1182C117.113 38.1182 116.141 37.08 116.141 35.7629V27.8448H113.995V35.7629C113.995 38.1337 115.638 39.9001 119.325 39.9001Z" fill="#111111"/>
</svg>
