<svg width="72" height="48" viewBox="0 0 72 48" fill="none" xmlns="http://www.w3.org/2000/svg">
<path fill-rule="evenodd" clip-rule="evenodd" d="M32.2047 11.8318L57.0006 8.26758L58.9474 20.7273L64.295 20.0906L67.9997 20.5604L66.995 34.0647L46.9173 35.1373L11.3257 39.2661L11.4402 29.2097L11.3657 29.1263L6.54619 28.8585L4.44922 15.7626L20.8328 14.2804L32.2047 11.8318ZM55.5641 18.7173L52.9791 19.0888L52.388 15.3696L54.5269 15.0631L54.2941 13.597L52.1571 13.9041L51.9732 12.7456L54.5588 12.3742L54.326 10.9105L49.6923 11.5776L51.1612 20.8476L55.7949 20.1811L55.5641 18.7173ZM46.979 11.9684L49.029 11.6733L50.4979 20.9445L48.4491 21.239L46.979 11.9684ZM43.7818 15.8394L43.526 15.8764L43.2263 13.9869L43.6092 13.9315C44.1572 13.8522 44.45 14.1104 44.5538 14.7692C44.6777 15.5449 44.201 15.781 43.7818 15.8394ZM43.7787 17.4659C44.308 17.4164 44.9117 17.6865 45.0943 18.5975L45.4171 20.2216C45.506 20.6878 45.7299 21.358 45.9013 21.5553L45.9239 21.5822L47.9946 21.2847L47.9201 21.2C47.7681 21.0193 47.5485 20.3551 47.4672 19.9241L47.1463 18.3107C46.9486 17.3311 46.3787 16.6532 45.5704 16.4249C46.0946 16.1548 46.7765 15.5693 46.592 14.4013C46.2191 12.0588 43.9082 12.3909 43.1481 12.5012L40.9454 12.8172L42.4156 22.0878L44.4637 21.7938L43.7787 17.4659ZM39.0242 21.0985L41.611 20.7271L41.8438 22.1902L37.2075 22.8573L35.7386 13.5874L40.3736 12.919L40.6063 14.3845L38.0208 14.7571L38.2034 15.9138L40.3411 15.6061L40.5726 17.0716L38.4362 17.3805L39.0242 21.0985ZM30.8073 15.7754L32.111 15.5876L33.3484 23.3939L35.3978 23.0987L34.1598 15.2919L35.466 15.1046L35.2352 13.6409L30.5758 14.3111L30.8073 15.7754ZM28.7878 22.5585L31.3746 22.1841L31.6067 23.6496L26.9705 24.3174L25.5009 15.0468L30.1353 14.379L30.368 15.8433L27.7818 16.2154L27.9651 17.3726L30.1034 17.0662L30.3367 18.5311L28.1985 18.8399L28.7878 22.5585ZM23.7907 24.9034C25.4554 24.6625 26.1604 23.6591 25.8833 21.9187L25.5836 20.0263L22.9974 20.3977L23.2301 21.8638L24.0234 21.7512L24.1122 22.3092C24.2717 23.3168 23.9808 23.5005 23.643 23.5499C23.3202 23.5976 22.9693 23.507 22.8097 22.4964L22.0903 17.9622C21.9258 16.9343 22.243 16.7674 22.4938 16.7304C22.8698 16.6762 23.1807 16.8455 23.4848 17.8441L23.5029 17.9079L25.1063 17.3392L25.1632 17.3183L25.1463 17.2622C24.6896 15.7872 23.7519 15.1761 22.2817 15.3883C20.5564 15.6358 19.7894 16.6738 20.0622 18.3897L20.7372 22.6604C21.0099 24.3757 22.0659 25.1508 23.7907 24.9034ZM16.5353 22.8586L17.6777 22.6959L16.7155 20.3104L16.5353 22.8586ZM14.7374 25.9983L15.5069 16.4845L17.1978 16.2412L20.9101 25.1874L18.8056 25.4915L18.2463 24.1119L16.4302 24.3742L16.3233 25.8475L14.7311 26.0764L14.7374 25.9983ZM10.8268 20.6084L10.4577 20.6609L10.1555 18.7578L10.5259 18.7047C10.9825 18.6391 11.2541 18.9235 11.3554 19.5716C11.4567 20.2108 11.2885 20.5405 10.8268 20.6084ZM12.1687 23.4596C12.3726 24.7456 11.9084 24.9924 11.3785 25.0681L11.1615 25.0991L10.6891 22.127L11.0082 22.0805C11.4042 22.0227 11.9535 22.1049 12.1687 23.4596ZM14.2919 23.2157C14.0748 21.8402 13.2897 21.2947 12.6185 21.0866C13.027 20.8088 13.5562 20.2346 13.3879 19.1656C13.0203 16.8534 10.8237 17.1656 10.0929 17.2695L10.088 17.2702L7.87524 17.5898L9.34288 26.8592L11.687 26.5217C12.6016 26.3906 14.7461 26.0805 14.2919 23.2157ZM61.7903 24.3916L61.1966 24.4464L61.8472 30.8271L62.4378 30.7735C62.7799 30.7419 63.0815 30.5708 62.9783 29.5596L62.5635 25.4838C62.4603 24.4714 62.1287 24.3605 61.7903 24.3916ZM58.9845 23.1616L61.6395 22.9153C63.4187 22.7502 64.449 23.5771 64.6273 25.3044L65.0389 29.3563C65.2154 31.0841 64.3671 32.0851 62.5898 32.2491L59.9335 32.4947L58.9845 23.1616ZM56.5334 25.8311C56.6129 26.611 56.1243 26.8233 55.702 26.862L55.4455 26.887L55.2522 24.9845L55.637 24.9493C56.1894 24.8987 56.4659 25.1711 56.5334 25.8311ZM59.1528 31.1262L58.9232 29.4991C58.7824 28.5123 58.2501 27.8076 57.4581 27.5393C58.0724 27.2621 58.703 26.7004 58.5879 25.5664C58.3478 23.2092 56.0232 23.4228 55.2561 23.4933L55.2547 23.4934L53.0389 23.6991L53.9892 33.0335L56.0511 32.8427L55.6082 28.4867C56.1399 28.4634 56.7286 28.7651 56.8581 29.6827L57.0902 31.3193C57.1522 31.7892 57.3386 32.4682 57.4981 32.6781L57.5206 32.7067L59.6038 32.5147L59.5369 32.4259C59.393 32.2357 59.211 31.5602 59.1528 31.1262ZM49.4584 30.5179L50.6063 30.4112L49.7793 27.981L49.4584 30.5179ZM47.4859 33.5622L48.7834 24.0967L50.4862 23.9393L53.6943 33.0644L51.576 33.2611L51.0956 31.8553L49.267 32.0246L49.078 33.4907L47.4759 33.6403L47.4859 33.5622ZM47.6255 24.2075L46.0228 24.3566L45.3234 29.8668L43.5423 24.6344L43.5267 24.5867L41.4072 24.7841L44.6139 33.9086L46.318 33.75L47.613 24.285L47.6255 24.2075ZM42.1323 34.1366L37.4654 34.5682L36.517 25.2344L41.182 24.8028L41.3309 26.279L38.7291 26.5187L38.8486 27.6837L41.0012 27.4846L41.1507 28.9596L38.9993 29.1587L39.3791 32.8994L41.9821 32.6591L42.1323 34.1366ZM33.4683 25.5148L31.407 25.7056L32.356 35.0388L37.0216 34.6071L36.8702 33.1315L34.2684 33.3712L33.4683 25.5148ZM28.9695 34.1173C29.2955 34.0881 29.6139 33.9206 29.51 32.9046L28.8012 25.9527L30.8657 25.7619L31.5588 32.5773C31.7353 34.3045 30.8895 35.3044 29.1084 35.469C27.3286 35.6335 26.297 34.8084 26.1193 33.0811L25.4262 26.2657L27.49 26.0744L28.1963 33.0251C28.3008 34.0428 28.6455 34.1477 28.9695 34.1173ZM21.772 29.0063C21.6682 27.9886 21.986 27.824 22.3106 27.793C22.6353 27.7614 22.9806 27.8681 23.0832 28.8847L23.5493 33.4529C23.6519 34.4689 23.336 34.6352 23.01 34.6662C22.6847 34.6954 22.34 34.5905 22.2374 33.5739L21.772 29.0063ZM22.1743 26.4408C20.3938 26.6047 19.5474 27.6046 19.7232 29.3324L20.1605 33.6288C20.3369 35.3572 21.3685 36.1842 23.1477 36.0184C24.9294 35.8539 25.7739 34.8534 25.5994 33.1262L25.1608 28.828C24.9863 27.1014 23.9528 26.2744 22.1743 26.4408ZM16.4257 30.5154L16.0535 30.55L15.8576 28.6379L16.2317 28.6022C16.6916 28.5592 16.9462 28.8573 17.0119 29.5078C17.0769 30.1529 16.8905 30.4731 16.4257 30.5154ZM16.2023 32.0245L16.5251 31.9952C16.923 31.9583 17.4685 32.0668 17.6074 33.4315C17.7382 34.7247 17.2608 34.9483 16.7272 34.9978L16.5089 35.0187L16.2023 32.0245ZM18.1892 31.0848C18.6734 30.7945 19.1695 30.2424 19.0644 29.2067C18.8248 26.8731 16.6033 27.0782 15.8745 27.1462L13.6449 27.3507L14.5958 36.6857L16.9537 36.4669C17.8758 36.3816 20.0347 36.1819 19.7407 33.295C19.5999 31.9094 18.8467 31.3269 18.1892 31.0848Z" fill="#111111"/>
</svg>
