<svg width="140" height="67" viewBox="0 0 140 67" fill="none" xmlns="http://www.w3.org/2000/svg">
<path fill-rule="evenodd" clip-rule="evenodd" d="M64.9842 18.3803L96.2484 13.8672L98.7031 29.6443L105.446 28.838L110.117 29.4329L108.85 46.5327L83.5348 47.8909L38.6586 53.119L38.8029 40.3851L38.7091 40.2794L32.6323 39.9404L29.9883 23.3578L50.6457 21.4809L64.9842 18.3803ZM94.438 27.1032L91.1788 27.5736L90.4334 22.8642L93.1302 22.4761L92.8368 20.6197L90.1423 21.0085L89.9104 19.5416L93.1704 19.0712L92.877 17.2178L87.0345 18.0626L88.8866 29.8007L94.7291 28.9567L94.438 27.1032ZM83.6155 18.5546L86.2003 18.1809L88.0524 29.9205L85.4691 30.2935L83.6155 18.5546ZM79.5823 23.4582L79.2597 23.505L78.8819 21.1126L79.3646 21.0423C80.0556 20.9419 80.4247 21.2688 80.5557 22.1031C80.7119 23.0853 80.1108 23.3842 79.5823 23.4582ZM79.5784 25.5177C80.2457 25.4551 81.0069 25.7971 81.2372 26.9507L81.6442 29.0072C81.7562 29.5975 82.0386 30.4461 82.2547 30.696L82.2831 30.73L84.894 30.3532L84.8001 30.246C84.6085 30.0173 84.3316 29.1763 84.229 28.6304L83.8244 26.5875C83.5751 25.3471 82.8566 24.4887 81.8375 24.1996C82.4985 23.8576 83.3582 23.1162 83.1255 21.6373C82.6554 18.671 79.7417 19.0915 78.7833 19.2312L76.006 19.6313L77.8596 31.3702L80.4421 30.998L79.5784 25.5177ZM73.5881 30.1154L76.8497 29.645L77.1432 31.4977L71.2975 32.3425L69.4454 20.6044L75.2895 19.7581L75.5829 21.6138L72.3229 22.0856L72.5532 23.5503L75.2485 23.1607L75.5404 25.0164L72.8467 25.4075L73.5881 30.1154ZM63.2269 23.376L64.8707 23.1382L66.4309 33.0229L69.015 32.6492L67.454 22.7637L69.101 22.5267L68.8099 20.6733L62.9351 21.5218L63.2269 23.376ZM60.6799 31.9636L63.9416 31.4895L64.2342 33.3452L58.3885 34.1907L56.5357 22.4519L62.379 21.6063L62.6724 23.4605L59.4116 23.9316L59.6427 25.397L62.3387 25.0089L62.633 26.8638L59.9369 27.2549L60.6799 31.9636ZM54.3769 34.9316C56.4758 34.6266 57.3648 33.356 57.0154 31.1523L56.6375 28.7561L53.3767 29.2264L53.6701 31.0828L54.6703 30.9401L54.7823 31.6468C54.9835 32.9227 54.6167 33.1552 54.1907 33.2179C53.7837 33.2783 53.3412 33.1635 53.1401 31.8838L52.233 26.1424C52.0255 24.8408 52.4254 24.6294 52.7417 24.5826C53.2158 24.5139 53.6078 24.7283 53.9912 25.9929L54.014 26.0737L56.0357 25.3535L56.1075 25.327L56.0862 25.2561C55.5104 23.3883 54.328 22.6145 52.4743 22.8832C50.2989 23.1965 49.3318 24.5109 49.6757 26.6837L50.5268 32.0915C50.8707 34.2635 52.2022 35.2449 54.3769 34.9316ZM45.2349 32.3449L46.6752 32.1388L45.4621 29.1182L45.2349 32.3449ZM42.968 36.3205L43.9382 24.2736L46.0703 23.9656L50.7509 35.2938L48.0974 35.6788L47.3923 33.9318L45.1024 34.264L44.9675 36.1295L42.9601 36.4194L42.968 36.3205ZM38.031 29.4979L37.5656 29.5643L37.1847 27.1545L37.6516 27.0873C38.2274 27.0043 38.5698 27.3644 38.6975 28.185C38.8253 28.9943 38.6131 29.4118 38.031 29.4979ZM39.723 33.1081C39.9801 34.7365 39.3948 35.0491 38.7267 35.145L38.453 35.1842L37.8575 31.4208L38.2598 31.3619C38.7591 31.2886 39.4516 31.3928 39.723 33.1081ZM42.4001 32.7993C42.1264 31.0576 41.1365 30.3668 40.2901 30.1034C40.8052 29.7516 41.4725 29.0245 41.2603 27.6709C40.7968 24.743 38.0271 25.1384 37.1058 25.27L37.0995 25.2709L34.3095 25.6755L36.16 37.4129L39.1156 36.9856C40.2688 36.8195 42.9727 36.4269 42.4001 32.7993ZM102.29 34.2848L101.542 34.3543L102.362 42.4339L103.107 42.3659C103.538 42.3259 103.918 42.1092 103.788 40.8288L103.265 35.6679C103.135 34.386 102.717 34.2456 102.29 34.2848ZM98.7526 32.7273L102.1 32.4156C104.344 32.2064 105.643 33.2536 105.867 35.4407L106.386 40.5714C106.609 42.7592 105.539 44.0268 103.298 44.2344L99.9492 44.5455L98.7526 32.7273ZM95.6629 36.1059C95.763 37.0934 95.147 37.3622 94.6146 37.4113L94.2912 37.443L94.0474 35.0339L94.5325 34.9894C95.229 34.9252 95.5777 35.2702 95.6629 36.1059ZM98.9655 42.8107L98.676 40.7504C98.4985 39.501 97.8273 38.6086 96.8287 38.2689C97.6033 37.9178 98.3984 37.2067 98.2532 35.7707C97.9505 32.7859 95.0195 33.0563 94.0523 33.1456L94.0506 33.1457L91.2567 33.4062L92.4549 45.2258L95.0547 44.9842L94.4963 39.4685C95.1667 39.4391 95.909 39.8211 96.0722 40.983L96.3649 43.0553C96.443 43.6502 96.678 44.5101 96.8792 44.7759L96.9076 44.8121L99.5342 44.569L99.4498 44.4565C99.2684 44.2157 99.0389 43.3603 98.9655 42.8107ZM86.7414 42.0436L88.1888 41.9085L87.146 38.8313L86.7414 42.0436ZM84.2543 45.8985L85.8903 33.9127L88.0373 33.7134L92.0822 45.2681L89.4114 45.5172L88.8056 43.737L86.5 43.9514L86.2618 45.8079L84.2417 45.9974L84.2543 45.8985ZM84.4331 34.0529L82.4122 34.2417L81.5303 41.219L79.2847 34.5935L79.2649 34.5331L76.5926 34.783L80.6359 46.3369L82.7845 46.1361L84.4173 34.1511L84.4331 34.0529ZM77.5058 46.6239L71.6215 47.1705L70.4257 35.3516L76.3076 34.805L76.4954 36.6743L73.2148 36.9778L73.3655 38.453L76.0797 38.2008L76.2682 40.0686L73.5556 40.3208L74.0344 45.0574L77.3165 44.7531L77.5058 46.6239ZM66.5804 35.7079L63.9814 35.9495L65.178 47.7676L71.0607 47.221L70.8698 45.3525L67.5893 45.656L66.5804 35.7079ZM60.9109 46.5995C61.3218 46.5625 61.7233 46.3503 61.5924 45.0639L60.6987 36.2611L63.3017 36.0195L64.1756 44.6494C64.3981 46.8365 63.3316 48.1026 61.086 48.311C58.8419 48.5193 57.5412 47.4745 57.3172 45.2874L56.4432 36.6574L59.0454 36.4151L59.9359 45.2164C60.0676 46.5051 60.5023 46.638 60.9109 46.5995ZM51.834 40.1265C51.7031 38.8378 52.1038 38.6294 52.5131 38.5902C52.9225 38.5501 53.3579 38.6853 53.4873 39.9725L54.0749 45.757C54.2043 47.0434 53.806 47.2541 53.395 47.2933C52.9848 47.3303 52.5502 47.1974 52.4209 45.9102L51.834 40.1265ZM52.3412 36.8779C50.0963 37.0855 49.0291 38.3516 49.2507 40.5395L49.8021 45.9797C50.0245 48.1683 51.3252 49.2154 53.5685 49.0056C55.815 48.7972 56.8798 47.5304 56.6598 45.3433L56.1068 39.9008C55.8868 37.7144 54.5837 36.6673 52.3412 36.8779ZM45.0949 42.0379L44.6256 42.0817L44.3787 39.6606L44.8504 39.6153C45.4302 39.5609 45.7512 39.9384 45.834 40.762C45.916 41.5789 45.681 41.9843 45.0949 42.0379ZM44.8133 43.9487L45.2203 43.9117C45.722 43.8649 46.4098 44.0023 46.5849 45.7304C46.7498 47.3679 46.148 47.651 45.4751 47.7137L45.1998 47.7401L44.8133 43.9487ZM47.3185 42.7589C47.929 42.3912 48.5545 41.6922 48.422 40.3808C48.1199 37.4259 45.3189 37.6856 44.4 37.7717L41.5888 38.0306L42.7877 49.851L45.7607 49.5739C46.9233 49.466 49.6454 49.2131 49.2747 45.5575C49.0972 43.803 48.1475 43.0654 47.3185 42.7589Z" fill="white"/>
</svg>
