<svg width="72" height="48" viewBox="0 0 72 48" fill="none" xmlns="http://www.w3.org/2000/svg">
<g clip-path="url(#clip0_869_44576)">
<path fill-rule="evenodd" clip-rule="evenodd" d="M12.8063 15H5.34265C2.39192 15 0 17.3919 0 20.3425V27.8063C0 30.7568 2.39192 33.1487 5.34265 33.1487H18.1487V20.3425C18.1487 17.3919 15.7568 15 12.8063 15M7.24159 20.2283V25.9562C7.27659 26.6475 7.384 27.0631 7.66904 27.5354C7.95387 28.008 8.33607 28.2729 8.81582 28.5108C9.29537 28.749 9.81656 28.8228 10.379 28.8228C10.9416 28.8228 11.468 28.749 11.9587 28.5108C12.4491 28.2729 12.8457 28.008 13.1487 27.5354C13.4516 27.0631 13.5779 26.6327 13.6031 25.9562V20.6797L10.9074 19.7769V25.0532C10.8823 25.7297 10.7559 26.1604 10.453 26.6327C10.1501 27.1052 9.7532 27.3699 9.26278 27.6081C8.77237 27.846 8.24595 27.9198 7.68332 27.9198C7.12069 27.9198 6.5995 27.846 6.11995 27.6081C5.6402 27.3699 5.258 27.1052 4.97317 26.6327C4.68814 26.1604 4.58072 25.7446 4.54572 25.0532V19.3253L7.24159 20.2283Z" fill="#111111"/>
<path fill-rule="evenodd" clip-rule="evenodd" d="M29.2479 26.8131C28.9104 27.388 28.1981 27.638 27.5481 27.638C26.0608 27.638 25.2109 26.5505 25.2109 25.2133V21.3262H26.8733V24.8757C26.8733 25.5633 27.2231 26.1132 27.9981 26.1132C28.7356 26.1132 29.1604 25.6132 29.1604 24.9009V21.3262H30.8227V26.3631C30.8227 26.8382 30.8601 27.263 30.8853 27.4755H29.298C29.2728 27.3505 29.2479 27.0631 29.2479 26.8131" fill="#111111"/>
<path fill-rule="evenodd" clip-rule="evenodd" d="M33.798 18.7246L34.6728 19.662L35.5478 18.7246H36.8602L35.4977 20.5744H33.8354L32.4607 18.7246H33.798ZM33.2092 24.3992C33.2092 25.5115 33.934 26.1363 34.784 26.1363C35.6339 26.1363 36.0588 25.5739 36.1964 25.099L37.6585 25.5866C37.3836 26.6113 36.4212 27.6613 34.784 27.6613C32.9716 27.6613 31.5469 26.2864 31.5469 24.3992C31.5469 22.4993 32.9467 21.137 34.734 21.137C36.4088 21.137 37.3586 22.1744 37.6211 23.2117L36.1338 23.7116C35.9837 23.1993 35.5963 22.6743 34.7714 22.6743C33.9215 22.6743 33.2092 23.2868 33.2092 24.3992V24.3992Z" fill="#111111"/>
<path fill-rule="evenodd" clip-rule="evenodd" d="M39.7457 20.5876H38.4085L39.5458 18.7129H41.4455L39.7457 20.5876ZM38.3203 27.4744H39.9827V21.3251H38.3203V27.4744Z" fill="#111111"/>
<path fill-rule="evenodd" clip-rule="evenodd" d="M41.1953 27.4747V21.3254H42.7826V22.0753C43.1202 21.4755 43.9075 21.1504 44.5823 21.1504C45.4198 21.1504 46.0946 21.5129 46.4072 22.1753C46.8946 21.4254 47.5445 21.1504 48.357 21.1504C49.4943 21.1504 50.5816 21.8379 50.5816 23.4876V27.4747H48.9693V23.8251C48.9693 23.1627 48.6445 22.6627 47.8821 22.6627C47.1696 22.6627 46.7446 23.2126 46.7446 23.875V27.4747H45.0949V23.8251C45.0949 23.1627 44.7573 22.6627 44.0074 22.6627C43.2825 22.6627 42.8577 23.2002 42.8577 23.875V27.4747H41.1953Z" fill="#111111"/>
<path fill-rule="evenodd" clip-rule="evenodd" d="M55.6667 23.6993C55.6417 23.087 55.2416 22.4869 54.2918 22.4869C53.4294 22.4869 52.9545 23.1368 52.9171 23.6993H55.6667ZM57.2165 25.711C56.9039 26.7735 55.9291 27.6608 54.4168 27.6608C52.7295 27.6608 51.2422 26.4484 51.2422 24.3737C51.2422 22.4114 52.6919 21.1367 54.2667 21.1367C56.1664 21.1367 57.304 22.3491 57.304 24.3238C57.304 24.5612 57.2788 24.8112 57.2788 24.8361H52.8794C52.917 25.6486 53.6043 26.236 54.4293 26.236C55.2041 26.236 55.6292 25.8486 55.8291 25.2986L57.2165 25.711Z" fill="#111111"/>
<path fill-rule="evenodd" clip-rule="evenodd" d="M58.9576 25.2871C59.5951 25.2871 60.1074 25.7994 60.1074 26.4244C60.1074 27.0494 59.5951 27.5618 58.9576 27.5618C58.3327 27.5618 57.8203 27.0494 57.8203 26.4244C57.8203 25.7994 58.3327 25.2871 58.9576 25.2871" fill="#111111"/>
<path fill-rule="evenodd" clip-rule="evenodd" d="M62.1279 25.4487C62.1653 25.9361 62.5278 26.386 63.2528 26.386C63.8027 26.386 64.0652 26.0986 64.0652 25.7735C64.0652 25.4987 63.8777 25.2737 63.4028 25.1737L62.5904 24.9862C61.4029 24.7237 60.8655 24.0112 60.8655 23.1489C60.8655 22.0492 61.8405 21.1367 63.1653 21.1367C64.9151 21.1367 65.5025 22.2491 65.5775 22.9115L64.1901 23.2239C64.1402 22.8614 63.8777 22.399 63.1777 22.399C62.7404 22.399 62.3904 22.6615 62.3904 23.0115C62.3904 23.3114 62.6153 23.4989 62.9528 23.5614L63.8277 23.7489C65.04 23.9987 65.6525 24.7362 65.6525 25.6361C65.6525 26.6361 64.8775 27.661 63.2652 27.661C61.4154 27.661 60.7782 26.4611 60.7031 25.7611L62.1279 25.4487Z" fill="#111111"/>
<mask id="mask0_869_44576" style="mask-type:luminance" maskUnits="userSpaceOnUse" x="65" y="21" width="8" height="7">
<path fill-rule="evenodd" clip-rule="evenodd" d="M65.9414 21.1367H72.0031V27.6608H65.9414V21.1367Z" fill="white"/>
</mask>
<g mask="url(#mask0_869_44576)">
<path fill-rule="evenodd" clip-rule="evenodd" d="M70.3659 23.6993C70.3409 23.087 69.9408 22.4869 68.991 22.4869C68.1286 22.4869 67.6537 23.1368 67.6163 23.6993H70.3659ZM71.9157 25.711C71.6031 26.7735 70.6283 27.6608 69.116 27.6608C67.4287 27.6608 65.9414 26.4484 65.9414 24.3737C65.9414 22.4114 67.3911 21.1367 68.966 21.1367C70.8657 21.1367 72.0032 22.3491 72.0032 24.3238C72.0032 24.5612 71.978 24.8112 71.978 24.8361H67.5786C67.6162 25.6486 68.3036 26.236 69.1285 26.236C69.9033 26.236 70.3284 25.8486 70.5283 25.2986L71.9157 25.711Z" fill="#111111"/>
</g>
</g>
<defs>
<clipPath id="clip0_869_44576">
<rect width="72" height="48" fill="white"/>
</clipPath>
</defs>
</svg>
