<svg width="72" height="48" viewBox="0 0 72 48" fill="none" xmlns="http://www.w3.org/2000/svg">
<g clip-path="url(#clip0_869_44684)">
<path fill-rule="evenodd" clip-rule="evenodd" d="M11.3471 18.0964L11.3824 18.0925V18.0964H11.3471ZM11.3824 18.0925V12H13.3205V18.0964C13.0033 18.0612 12.6509 18.0259 12.3338 18.0259C11.9945 18.0259 11.6878 18.0586 11.3824 18.0925ZM9.48095 18.73L7.57805 12.9155L9.41045 12.3165L11.3133 18.131C10.6791 18.2367 10.0448 18.4481 9.48095 18.73ZM45.5159 27.8646C44.4658 29.7113 42.4018 30.9063 40.0662 30.9063C36.2098 30.9063 33.4398 28.0095 33.4398 24.3341C33.4398 20.6587 36.2098 17.7619 40.0662 17.7619C42.3837 17.7619 44.4477 18.9388 45.5159 20.7855L43.7054 21.8356C43.0355 20.5863 41.6595 19.7897 40.0662 19.7897C37.3324 19.7897 35.5219 21.727 35.5219 24.3341C35.5219 26.9413 37.3324 28.8785 40.0662 28.8785C41.6595 28.8785 43.0536 28.0819 43.7054 26.8327L45.5159 27.8646ZM29.6099 26.0356L32.9956 30.6705H30.7325L28.4874 27.5745L26.2242 30.6705H23.943L27.3468 26.0175L24.1241 21.618H26.3872L28.4693 24.4786L30.5514 21.618H32.8327L29.6099 26.0356ZM53.9089 21.6181V22.9036C53.221 21.9621 52.1527 21.3828 50.7405 21.3828C48.2782 21.3828 46.2324 23.4467 46.2324 26.1444C46.2324 28.8239 48.2782 30.9061 50.7405 30.9061C52.1527 30.9061 53.221 30.3267 53.9089 29.3671V30.6707H55.8643V21.6181H53.9089ZM51.0484 29.0412C49.4189 29.0412 48.1877 27.8282 48.1877 26.1444C48.1877 24.4606 49.4189 23.2476 51.0484 23.2476C52.6778 23.2476 53.9089 24.4606 53.9089 26.1444C53.9089 27.8282 52.6778 29.0412 51.0484 29.0412ZM59.7373 21.6184V23.1393C60.2804 21.9081 61.3849 21.4555 62.5255 21.4555V23.5737C61.24 23.4832 59.7373 24.0807 59.7373 26.1085V30.671H57.7819V21.6184H59.7373ZM64.723 26.9772H71.9289C71.9651 26.7238 72.0013 26.4341 72.0013 26.1625C72.0013 23.5553 70.1546 21.3828 67.4569 21.3828C64.6144 21.3828 62.6771 23.4648 62.6771 26.1444C62.6771 28.8602 64.6144 30.9061 67.6017 30.9061C69.376 30.9061 70.7339 30.1638 71.5668 28.9326L69.9554 27.9912C69.5209 28.6248 68.7062 29.1136 67.6198 29.1136C66.1714 29.1136 65.0309 28.3895 64.723 26.9772ZM64.7049 25.384C64.9765 24.0261 65.9723 23.1571 67.4388 23.1571C68.6157 23.1571 69.7563 23.8269 70.0279 25.384H64.7049ZM9.44351 18.7311L5.81384 13.7976L4.22808 14.9605L7.78162 19.8379L2.92484 16.2994L1.76194 17.8851L6.58139 21.4309L0.91553 19.5766L0.316465 21.409L6.13095 23.312C6.23667 22.6777 6.41286 22.0433 6.73002 21.4795L6.71741 21.4754C7.06253 20.8585 7.40976 20.3424 7.85831 19.8938L7.83834 19.8792C8.36163 19.3935 8.88533 19.0451 9.44351 18.7311ZM20.3323 14.9605L16.7732 19.8587C16.2798 19.4006 15.7513 19.013 15.1875 18.7311L15.1968 18.7182C14.6061 18.4422 14.0144 18.2352 13.3542 18.131L15.222 12.3165L17.0544 12.9155L15.2481 18.647L18.7466 13.7976L20.3323 14.9605ZM6.72966 27.1875L1.79615 30.7819L2.95905 32.3677L7.8573 28.7732C7.39917 28.2799 7.01157 27.7513 6.72966 27.1875ZM11.3471 36.668V30.5716C11.6642 30.6069 12.0166 30.6421 12.2986 30.6421C12.6509 30.6421 12.9679 30.6069 13.285 30.5717L13.2853 30.5716V36.668H11.3471ZM13.32 30.5364L15.1877 36.3508L17.0554 35.7517L15.1879 29.9379L18.7818 34.8709L20.3676 33.7431L16.7732 28.8097C16.3151 29.2678 15.7865 29.6554 15.1875 29.9373L15.1875 29.9374C14.5885 30.2544 13.9895 30.4306 13.32 30.5364ZM6.0964 23.3471C6.06116 23.6642 6.02592 24.0167 6.02592 24.3338C6.02592 24.6509 6.06116 25.0033 6.0964 25.2853H0V23.3471H6.0964ZM0.316465 27.1878L6.13095 25.32C6.20143 25.9896 6.41286 26.5887 6.69478 27.1525L0.91553 29.0202L0.316465 27.1878ZM7.85958 28.7741L4.26515 33.7076L5.85092 34.8352L9.44529 29.9018C8.84629 29.6198 8.31765 29.2322 7.85958 28.7741ZM9.41045 36.3508L7.57805 35.7517L9.48095 29.9373C10.0448 30.2192 10.6438 30.4306 11.3133 30.5364L9.41045 36.3508Z" fill="white"/>
</g>
<defs>
<clipPath id="clip0_869_44684">
<rect width="72" height="48" fill="white"/>
</clipPath>
</defs>
</svg>
