<svg width="72" height="48" viewBox="0 0 72 48" fill="none" xmlns="http://www.w3.org/2000/svg">
<path d="M14.0156 30.1307V17.4355H11.544V25.8333L6.26032 17.4355H3.17969V30.1307H5.65135V21.1241L11.4186 30.1307H14.0156Z" fill="#111111"/>
<path d="M17.6993 24.7232C17.7531 23.9174 18.4337 22.9863 19.6695 22.9863C21.0307 22.9863 21.6038 23.8458 21.6397 24.7232H17.6993ZM21.8725 27.0151C21.5859 27.803 20.977 28.358 19.8665 28.358C18.6844 28.358 17.6993 27.5165 17.6456 26.3526H23.9501C23.9501 26.3168 23.986 25.9587 23.986 25.6185C23.986 22.7894 22.3561 21.0525 19.6337 21.0525C17.3769 21.0525 15.2993 22.8789 15.2993 25.6901C15.2993 28.6624 17.4307 30.3993 19.8486 30.3993C22.0158 30.3993 23.4128 29.128 23.8606 27.606L21.8725 27.0151Z" fill="#111111"/>
<path d="M30.8077 30.1307H33.0823C33.0465 29.8263 32.9928 29.2175 32.9928 28.5371V21.3211H30.6107V26.4421C30.6107 27.4628 30.0017 28.179 28.945 28.179C27.8345 28.179 27.333 27.3911 27.333 26.4063V21.3211H24.9509V26.8898C24.9509 28.8057 26.1688 30.3635 28.3002 30.3635C29.2315 30.3635 30.2524 30.0054 30.736 29.1817C30.736 29.5398 30.7719 29.9516 30.8077 30.1307Z" fill="#111111"/>
<path d="M37.2006 21.3211H34.8185V30.1307H37.2006V22.861C37.2365 23.7205 37.9171 24.383 38.7947 24.383C39.6902 24.383 40.3887 23.6846 40.3887 22.7894C40.3887 21.8941 39.6902 21.1957 38.7947 21.1957C37.9171 21.1957 37.2365 21.8762 37.2006 22.7356V21.3211Z" fill="#111111"/>
<path d="M45.1092 28.2327C43.945 28.2327 42.8703 27.3732 42.8703 25.7259C42.8703 24.0607 43.945 23.2191 45.1092 23.2191C46.2734 23.2191 47.348 24.0607 47.348 25.7259C47.348 27.3911 46.2734 28.2327 45.1092 28.2327ZM45.1092 21.0525C42.4763 21.0525 40.4882 23.0042 40.4882 25.7259C40.4882 28.4297 42.4763 30.3993 45.1092 30.3993C47.742 30.3993 49.7301 28.4297 49.7301 25.7259C49.7301 23.0042 47.742 21.0525 45.1092 21.0525Z" fill="#111111"/>
<path d="M53.2761 25.0634C53.2761 24.0428 53.8851 23.237 54.9239 23.237C56.0702 23.237 56.5538 24.0069 56.5538 24.9918V30.1307H58.9359V24.5799C58.9359 22.6461 57.9329 21.0883 55.7478 21.0883C54.7985 21.0883 53.7418 21.5001 53.2045 22.4133V21.3211H50.894V30.1307H53.2761V25.0634Z" fill="#111111"/>
<path d="M60.0998 27.7313C60.0998 29.1101 61.2461 30.3814 63.1267 30.3814C64.4342 30.3814 65.276 29.7726 65.7237 29.0743C65.7237 29.4145 65.7596 29.8979 65.8133 30.1307H67.9984C67.9447 29.8263 67.8909 29.1996 67.8909 28.7341V24.4009C67.8909 22.6282 66.8521 21.0525 64.0581 21.0525C61.6939 21.0525 60.4222 22.5745 60.2789 23.9532L62.3924 24.4009C62.464 23.6309 63.0372 22.9684 64.076 22.9684C65.079 22.9684 65.5626 23.4877 65.5626 24.1144C65.5626 24.4188 65.4014 24.6695 64.8999 24.7411L62.7327 25.0634C61.264 25.2783 60.0998 26.1556 60.0998 27.7313ZM63.6282 28.6087C62.858 28.6087 62.4819 28.1074 62.4819 27.5881C62.4819 26.9077 62.9655 26.5675 63.5745 26.4779L65.5626 26.1735V26.5675C65.5626 28.1253 64.6312 28.6087 63.6282 28.6087Z" fill="#111111"/>
</svg>
