<svg width="72" height="48" viewBox="0 0 72 48" fill="none" xmlns="http://www.w3.org/2000/svg">
<path fill-rule="evenodd" clip-rule="evenodd" d="M13.8182 35.2691C13.9277 35.2786 14.1601 35.307 14.3327 35.3324C14.7011 35.383 16.5401 35.3766 16.789 35.3197C16.872 35.3007 17.0811 35.2722 17.2571 35.2564C17.433 35.2374 17.6654 35.2026 17.7716 35.1773C17.8811 35.152 18.0438 35.1172 18.1334 35.0982C18.5251 35.0223 18.7608 34.9622 18.8504 34.921C18.9002 34.8957 18.9765 34.8736 19.013 34.8736C19.0529 34.8736 19.1525 34.8483 19.2388 34.8166C19.3251 34.7818 19.4479 34.7375 19.511 34.7154C19.8329 34.6046 19.9026 34.5793 20.0421 34.5192C20.0609 34.5113 20.0816 34.5026 20.1031 34.4935C20.1764 34.4627 20.2589 34.428 20.3076 34.4085C20.3335 34.3968 20.3638 34.3835 20.3938 34.3704C20.4369 34.3515 20.4794 34.3329 20.5068 34.3199C20.5532 34.2977 20.6727 34.2408 20.7723 34.1901C20.9748 34.0952 21.6055 33.7535 21.735 33.6712C21.7541 33.6595 21.7829 33.6413 21.8159 33.6204C21.8629 33.5906 21.9186 33.5554 21.9673 33.5257C22.047 33.4751 22.1366 33.4181 22.1665 33.396C22.2561 33.3295 22.588 33.0891 22.6843 33.0226C23.0893 32.7442 23.8494 32.0386 24.3573 31.4691C24.5 31.3109 25.1075 30.5262 25.1672 30.4281C25.1971 30.3775 25.2469 30.2952 25.2801 30.2478C25.5722 29.8143 26.2128 28.5993 26.2162 28.4696C26.2195 28.4506 26.246 28.3779 26.2825 28.3082C26.3191 28.2386 26.3489 28.1595 26.3489 28.1342C26.3489 28.1089 26.3722 28.0456 26.402 27.9918C26.4286 27.9412 26.4651 27.84 26.4817 27.7704C26.4983 27.7008 26.5315 27.5805 26.5614 27.5014C26.6278 27.3116 26.6776 27.1217 26.734 26.8433C26.7572 26.7136 26.7971 26.5522 26.817 26.4794C26.8369 26.4067 26.8668 26.2263 26.88 26.0776C26.8933 25.9289 26.9265 25.6948 26.9498 25.5556C27.0195 25.1601 27.0095 23.5875 26.9365 23.192C26.9066 23.0212 26.88 22.8155 26.88 22.7333C26.88 22.6478 26.8502 22.4801 26.8137 22.3599C26.7771 22.2397 26.7473 22.0941 26.7473 22.0403C26.7473 21.9866 26.724 21.879 26.6942 21.803C26.6676 21.7271 26.6278 21.5847 26.6079 21.4898C26.5913 21.3949 26.5614 21.3 26.5448 21.281C26.5282 21.262 26.5016 21.1829 26.485 21.107C26.4485 20.9424 26.3622 20.702 26.2792 20.5216C26.2427 20.4488 26.2162 20.3761 26.2162 20.3539C26.2162 20.3349 26.1863 20.2653 26.1498 20.202C26.1133 20.1356 26.0834 20.066 26.0834 20.047C26.0834 20.028 25.9672 19.7939 25.8245 19.5249C25.6021 19.1073 25.4992 18.927 25.3033 18.6169C25.2602 18.5473 24.988 18.1644 24.8519 17.9777C24.2378 17.1456 23.3283 16.2723 22.2827 15.5161C21.9673 15.2883 20.9483 14.7062 20.6727 14.5923C20.6263 14.5733 20.5234 14.529 20.4404 14.491C20.301 14.4277 20.208 14.3866 19.8595 14.2442C19.7865 14.2126 19.6769 14.1714 19.6205 14.1525C19.3981 14.0797 19.2919 14.0417 19.1392 13.9848C19.0529 13.9531 18.95 13.9278 18.9068 13.9278C18.8637 13.9278 18.7873 13.9057 18.7342 13.8804C18.6811 13.855 18.5616 13.8202 18.4687 13.8044C18.3757 13.7886 18.2031 13.7538 18.0836 13.7285C17.6023 13.6177 17.3533 13.5734 17.0048 13.545L16.9673 13.542C16.7671 13.5261 16.472 13.5027 16.2911 13.4849C16.0986 13.469 15.7567 13.4532 15.5277 13.4532C15.0032 13.45 13.8945 13.5355 13.5692 13.6019C13.4331 13.6304 13.2472 13.6652 13.1543 13.6779C12.8887 13.7095 12.1883 13.8867 11.8929 13.9943C11.8 14.0259 11.7037 14.0544 11.6771 14.0544C11.6506 14.0575 11.5676 14.0828 11.4946 14.1177C11.4216 14.1525 11.3419 14.1778 11.322 14.1809C11.2987 14.1809 11.2091 14.2126 11.1228 14.2474C10.678 14.4372 10.5784 14.4815 10.3494 14.5859C10.1303 14.6872 9.65894 14.934 9.47306 15.0447C9.29713 15.1491 8.96851 15.3548 8.93863 15.3769C8.92512 15.3872 8.82805 15.4541 8.70827 15.5367C8.68089 15.5555 8.65232 15.5752 8.62329 15.5952C8.46728 15.7028 8.29799 15.8294 8.24156 15.8737C8.18845 15.918 8.06895 16.0161 7.976 16.0888C7.67726 16.3261 7.05985 16.9115 6.82085 17.1867C6.69139 17.3355 6.56857 17.4715 6.54534 17.4873C6.44244 17.5759 5.87482 18.3353 5.83166 18.4429C5.81507 18.484 5.78851 18.5156 5.77191 18.5156C5.75532 18.5156 5.72876 18.5473 5.71548 18.5884C5.70553 18.6264 5.67565 18.677 5.65573 18.7023C5.56611 18.8067 5.1877 19.4996 4.9653 19.9711C4.92878 20.0502 4.86903 20.1672 4.83584 20.2305C4.79933 20.2938 4.77277 20.3697 4.77277 20.3982C4.77277 20.4235 4.7429 20.4995 4.70638 20.5627C4.66987 20.6292 4.64 20.7146 4.64 20.7526C4.64 20.7937 4.61012 20.8791 4.57361 20.9424C4.53709 21.0089 4.50722 21.0943 4.50722 21.1354C4.50722 21.1766 4.48398 21.2493 4.45743 21.2968C4.43087 21.3474 4.39768 21.4645 4.37776 21.5562C4.36117 21.6512 4.32465 21.8189 4.2981 21.9328C4.15536 22.4865 4.10889 22.7301 4.10889 22.8883C4.10889 22.9832 4.08565 23.2079 4.05578 23.3914C3.98607 23.828 3.98607 24.9765 4.0591 25.4575C4.08565 25.6473 4.10889 25.872 4.10889 25.9574C4.10889 26.0396 4.13876 26.2358 4.17196 26.3877C4.20847 26.5396 4.25162 26.7421 4.27154 26.837C4.32133 27.0869 4.37112 27.2736 4.42755 27.4381C4.45743 27.5172 4.49062 27.6311 4.50722 27.6913C4.54041 27.8305 4.63004 28.0773 4.7097 28.2545C4.74622 28.3272 4.77277 28.4127 4.77277 28.4443C4.77277 28.4759 4.79269 28.5266 4.81924 28.5614C4.84248 28.5962 4.87567 28.6595 4.88895 28.7037C4.92546 28.8208 5.45325 29.8238 5.61258 30.0801C5.80511 30.3902 6.12377 30.8395 6.18352 30.8869C6.21008 30.9091 6.23331 30.9407 6.23331 30.9565C6.23331 31.0008 6.7611 31.6115 7.04325 31.8931C7.65734 32.5132 8.46064 33.1682 9.03821 33.5289C9.21746 33.6396 9.24402 33.6554 9.37347 33.7282C9.4465 33.7662 9.54276 33.8231 9.59256 33.8548C9.93114 34.0636 11.1095 34.6173 11.2191 34.6204C11.2423 34.6236 11.322 34.6489 11.395 34.6837C11.468 34.7185 11.5477 34.7438 11.5709 34.747C11.5975 34.747 11.6639 34.7692 11.7203 34.7945C11.78 34.8198 11.8863 34.8546 11.9593 34.8704C12.0323 34.8862 12.1585 34.921 12.2414 34.9495C12.3244 34.9748 12.4506 35.0096 12.5236 35.0254C12.5966 35.0413 12.7228 35.0697 12.8057 35.0887C13.0945 35.1583 13.6223 35.2501 13.8182 35.2691ZM19.969 28.6848C20.0089 28.7196 20.0421 28.7575 20.0421 28.7734C20.0421 28.786 18.0338 28.7987 15.5775 28.7987C11.1992 28.7987 11.1162 28.7987 11.0797 28.7386C11.0332 28.6531 11.0332 20.1799 11.0797 20.0945C11.1162 20.0344 11.1992 20.0344 15.5675 20.0344H20.0188L19.8562 20.1989C19.6935 20.3697 18.9035 21.1766 18.8139 21.2652C18.7983 21.2818 18.7157 21.3667 18.6007 21.4851C18.5191 21.5689 18.4212 21.6696 18.3193 21.7746C18.0736 22.0277 17.6786 22.4327 17.4396 22.6763C17.3102 22.8065 17.1632 22.9563 17.0351 23.0868C16.9267 23.1972 16.8318 23.2939 16.7724 23.3534C16.6463 23.4863 16.4272 23.7078 16.2878 23.847C15.926 24.214 15.8928 24.2615 15.8928 24.4228C15.8928 24.5557 15.9094 24.581 16.1517 24.8215C16.2649 24.9371 16.435 25.1112 16.5679 25.2471L16.6529 25.3341C16.767 25.4537 16.9718 25.6598 17.1388 25.8278C17.1661 25.8553 17.1925 25.8818 17.2172 25.9068C17.5392 26.2295 18.2529 26.9509 18.5815 27.2926C18.6351 27.3487 18.6991 27.414 18.7568 27.4727C18.8063 27.5232 18.8511 27.5688 18.8803 27.5995C18.8916 27.6108 18.909 27.6284 18.9315 27.6509C19.0345 27.7543 19.2429 27.9633 19.4446 28.1659C19.6902 28.4158 19.9259 28.65 19.969 28.6848ZM48.6119 24.7913C48.5231 23.4239 48.9545 22.2479 49.9061 21.2633C50.5151 20.6326 51.2349 20.1844 52.0656 19.9187C52.5727 19.7563 53.1079 19.6712 53.6711 19.6633C55.1603 19.643 56.4684 20.1625 57.5954 21.2218C57.6075 21.2333 57.6144 21.2489 57.6147 21.2651C57.615 21.2814 57.6087 21.297 57.5971 21.3087L56.1125 22.8139C56.109 22.8176 56.1047 22.8206 56.1001 22.8228L56.098 22.8237C56.0925 22.8259 56.0866 22.827 56.0806 22.8269C56.0747 22.8267 56.0688 22.8253 56.0635 22.8228C56.0581 22.8203 56.0534 22.8167 56.0496 22.8123C55.6552 22.3597 55.175 22.0608 54.6091 21.9156C54.1368 21.795 53.6608 21.7987 53.1809 21.9266C52.6803 22.0602 52.2579 22.3075 51.9136 22.6682C51.535 23.065 51.2984 23.5273 51.2036 24.0551C51.0887 24.6963 51.2314 25.3123 51.6317 25.9033C51.8403 26.2108 52.1062 26.4635 52.4292 26.6614C52.7277 26.8436 53.0695 26.965 53.4546 27.0256C54.4519 27.1822 55.3109 26.8846 56.0316 26.1328C56.0347 26.1295 56.0385 26.1268 56.0426 26.1249L56.0444 26.1241C56.0486 26.1223 56.0532 26.1213 56.0578 26.121L56.0598 26.121C56.0651 26.121 56.0703 26.122 56.0752 26.1241C56.0778 26.1252 56.0803 26.1265 56.0826 26.1282C56.0845 26.1295 56.0863 26.1311 56.088 26.1328L57.5636 27.6411C57.5711 27.6489 57.5752 27.6592 57.5751 27.6698C57.5749 27.6805 57.5705 27.6907 57.5628 27.6983C56.9854 28.2752 56.3413 28.6834 55.6304 28.9231C54.1908 29.4086 52.817 29.3548 51.5092 28.7618C50.3174 28.2209 49.4662 27.379 48.9559 26.2362C48.7603 25.7981 48.6457 25.3165 48.6119 24.7913ZM65.2935 25.6847C65.2847 25.6803 65.2749 25.6781 65.265 25.6782L63.8895 25.6688C63.8728 25.6686 63.8567 25.6623 63.845 25.6512C63.8333 25.6401 63.8268 25.6252 63.8271 25.6098L63.841 23.9006C63.841 23.8903 63.8455 23.8804 63.8533 23.8731C63.8612 23.8658 63.8718 23.8617 63.883 23.8617L67.9353 23.8485C67.9512 23.8483 67.9666 23.8542 67.978 23.8648C67.9894 23.8755 67.9959 23.89 67.9962 23.9053C68.006 24.2688 68.0008 24.6058 67.9805 24.916C67.9444 25.4707 67.821 26.0001 67.6106 26.504C67.4007 27.0074 67.1181 27.4477 66.7629 27.8247C66.1693 28.4551 65.4302 28.858 64.5456 29.0336C63.6336 29.2144 62.7429 29.2208 61.8736 29.053C61.2894 28.9401 60.7426 28.7368 60.2335 28.4432C59.7654 28.1733 59.353 27.8359 58.9961 27.4309C58.2902 26.6296 57.9131 25.7002 57.8649 24.6425C57.8408 24.1132 57.9065 23.602 58.0622 23.1089C58.277 22.4309 58.6328 21.8288 59.1293 21.3026C59.4916 20.9193 59.915 20.5943 60.3995 20.3276C61.3702 19.7926 62.4302 19.5805 63.5796 19.6913C64.8879 19.8177 65.989 20.3172 66.883 21.19C66.8946 21.2014 66.9013 21.2165 66.9016 21.2322C66.9019 21.2479 66.8958 21.2631 66.8846 21.2746L65.3941 22.8052C65.3884 22.811 65.3815 22.8156 65.3738 22.8186C65.366 22.8215 65.3576 22.8229 65.3492 22.8224C65.3408 22.822 65.3326 22.8198 65.3251 22.816C65.3177 22.8122 65.3112 22.8069 65.3061 22.8005C65.1384 22.5871 64.9216 22.4045 64.6558 22.2528C63.8901 21.8141 63.1285 21.7113 62.371 21.9443C61.841 22.1075 61.3965 22.397 61.0375 22.8129C60.4916 23.4458 60.3234 24.2132 60.5327 25.1149C60.6089 25.4433 60.7569 25.746 60.9767 26.0231C61.1822 26.2826 61.4401 26.498 61.7503 26.6695C62.1981 26.9171 62.6824 27.0408 63.2031 27.0408C63.6974 27.0403 64.1154 26.945 64.4568 26.7549C64.8427 26.5395 65.1307 26.2067 65.3209 25.7566C65.3247 25.748 65.3262 25.7386 65.3252 25.7292C65.3242 25.7199 65.3208 25.711 65.3153 25.7032C65.3097 25.6954 65.3022 25.6891 65.2935 25.6847ZM32.9087 23.4583L32.9039 20.0109C32.9039 20.0057 32.9028 20.0007 32.9008 19.9959C32.8987 19.9912 32.8957 19.9869 32.8919 19.9832C32.8881 19.9796 32.8836 19.9767 32.8787 19.9747C32.8738 19.9728 32.8685 19.9718 32.8631 19.9718L30.3007 19.9765C30.2899 19.9765 30.2796 19.9806 30.2719 19.9879C30.2643 19.9953 30.26 20.0052 30.26 20.0156L30.2551 28.8923C30.2551 28.9066 30.261 28.9204 30.2716 28.9305C30.2821 28.9406 30.2964 28.9463 30.3113 28.9463H32.8541C32.8686 28.9463 32.8825 28.9407 32.8928 28.9307C32.903 28.9207 32.9087 28.9072 32.9087 28.8931V25.5293C32.9087 25.4621 32.9321 25.4537 32.9788 25.5043L36.0604 28.8587C36.0857 28.8862 36.1169 28.9083 36.1517 28.9234C36.1866 28.9385 36.2243 28.9463 36.2625 28.9463H39.5298C39.5988 28.9463 39.6097 28.922 39.5624 28.8735L35.269 24.4782C35.2612 24.4701 35.2569 24.4595 35.2569 24.4485C35.2569 24.4375 35.2612 24.4268 35.269 24.4187L39.5315 20.0343C39.5722 19.9926 39.563 19.9718 39.5037 19.9718L36.2918 19.9765C36.2788 19.9765 36.2659 19.979 36.2541 19.984C36.2423 19.989 36.2318 19.9963 36.2234 20.0054L32.9992 23.4904C32.9389 23.5556 32.9087 23.5449 32.9087 23.4583ZM42.8196 20.0148L42.8245 23.438C42.8245 23.5251 42.8547 23.536 42.9151 23.4709L46.1256 20.0054C46.1341 19.9963 46.1446 19.989 46.1564 19.984C46.1682 19.979 46.1811 19.9765 46.1942 19.9765L49.4398 19.9718C49.4812 19.9718 49.4877 19.9864 49.4594 20.0156L45.1692 24.4203C45.1615 24.4283 45.1572 24.4388 45.1572 24.4496C45.1572 24.4605 45.1615 24.471 45.1692 24.479L49.4659 28.8696C49.516 28.9207 49.5046 28.9463 49.4316 28.9463H46.1329C46.105 28.9463 46.0774 28.9406 46.052 28.9297C46.0267 28.9188 46.0042 28.9028 45.9859 28.8829L42.8849 25.4988C42.8446 25.4555 42.8245 25.4628 42.8245 25.5207L42.8188 28.8735C42.8188 28.883 42.8168 28.8924 42.8131 28.9011C42.8094 28.9098 42.8039 28.9177 42.797 28.9244C42.7901 28.9311 42.7819 28.9364 42.7729 28.94C42.7639 28.9436 42.7542 28.9455 42.7444 28.9455L40.2012 28.9322C40.1904 28.9322 40.18 28.928 40.1723 28.9205C40.1647 28.913 40.1604 28.9029 40.1604 28.8923L40.1702 20.0164C40.1702 20.0058 40.1744 19.9956 40.1819 19.9881C40.1894 19.9807 40.1996 19.9765 40.2102 19.9765L42.7755 19.9718C42.7872 19.9718 42.7984 19.9763 42.8067 19.9844C42.8149 19.9924 42.8196 20.0034 42.8196 20.0148Z" fill="#111111"/>
</svg>
