<svg width="72" height="48" viewBox="0 0 72 48" fill="none" xmlns="http://www.w3.org/2000/svg">
<g clip-path="url(#clip0_869_44683)">
<path fill-rule="evenodd" clip-rule="evenodd" d="M14.7318 24.5048C14.6857 24.6784 14.6422 24.8432 14.6127 25.0579C14.5831 25.2805 14.5753 25.4666 14.5683 25.6314C14.558 25.8888 14.5501 26.0909 14.4588 26.3368C14.3058 26.7483 14.0467 26.8828 13.6545 27.0858C13.5867 27.1214 13.5145 27.1588 13.4397 27.1998C12.8928 27.4954 12.7276 27.7663 12.5537 28.053C12.4486 28.2276 12.339 28.4075 12.1277 28.607C12.0164 28.7129 11.3921 29.2411 10.0279 29.3088C9.3949 29.3391 8.12722 29.3168 6.74555 28.8269C4.35094 27.9746 2.74674 25.7739 2.65894 23.2196C2.60414 21.5844 3.17453 20.0222 4.26747 18.8217C5.35955 17.6211 6.84116 16.9291 8.43755 16.8721C8.50883 16.8696 8.58015 16.8684 8.65147 16.8686C11.0435 16.8686 13.2068 18.3363 14.164 20.6092C14.6927 21.8658 14.9257 22.7796 14.8944 23.4832C14.8727 23.9641 14.8014 24.2384 14.7318 24.5048ZM8.42974 16.6325C6.76812 16.6922 5.22738 17.4109 4.09448 18.6569C2.95975 19.902 2.3677 21.5248 2.42591 23.2267C2.51549 25.8817 4.18137 28.1679 6.66989 29.0523C7.84111 29.4691 8.93233 29.5573 9.64184 29.5573C9.77748 29.5573 9.9105 29.5537 10.0392 29.5475C11.4852 29.4763 12.1651 28.8982 12.2859 28.7833C12.5216 28.5616 12.6389 28.3674 12.7528 28.1795C12.9164 27.9096 13.0581 27.6781 13.5493 27.4118C13.6215 27.3726 13.691 27.3369 13.7606 27.3004C14.1849 27.0796 14.4927 26.9201 14.6779 26.4214C14.7823 26.1399 14.7909 25.9084 14.8022 25.6403C14.8083 25.4844 14.8161 25.3054 14.8457 25.0908C14.8727 24.8922 14.9135 24.7336 14.9579 24.5662C15.0309 24.2883 15.1066 24.0007 15.1283 23.4931C15.1605 22.752 14.9231 21.8053 14.3788 20.5148C13.3467 18.0638 11.0104 16.5426 8.42974 16.6325ZM16.3917 25.0747C16.1586 25.6189 16.2169 26.0678 16.2691 26.4641C16.3134 26.8008 16.3517 27.092 16.183 27.3708C15.9256 27.7956 15.6135 27.9996 15.31 28.1964C15.0579 28.3603 14.797 28.5304 14.5762 28.8189C14.2553 29.2393 14.0753 29.5947 13.9163 29.9091C13.6919 30.3508 13.5293 30.6706 13.0876 30.9458C12.6311 31.1907 12.206 31.1524 11.7129 31.1079C11.3191 31.0713 10.873 31.0313 10.3531 31.1364C9.45311 31.3189 7.08114 31.5291 4.50574 29.5261C1.99983 27.5765 0.9191 24.3614 1.75204 21.335C2.28942 19.3828 3.53801 17.7609 5.26564 16.7688C6.37432 16.1337 7.6237 15.7971 8.87925 15.7971C9.55922 15.7971 10.24 15.8942 10.9026 16.0857C13.8432 16.9344 16.0534 19.6535 16.276 22.6959C16.2978 23.2971 16.3978 23.6382 16.4786 23.9134C16.5864 24.2812 16.6455 24.4834 16.3917 25.0747ZM16.5881 22.6754C16.3552 19.4995 14.052 16.662 10.9861 15.7776C8.99933 15.204 6.91426 15.4569 5.11267 16.491C3.312 17.5241 2.0121 19.2136 1.453 21.2487C0.584361 24.4024 1.70866 27.7512 4.31713 29.7799C6.21519 31.2566 8.01598 31.5674 9.19239 31.5674C9.72537 31.5674 10.1505 31.5034 10.4139 31.4499C10.8887 31.3537 11.2948 31.3903 11.686 31.4259C12.2052 31.4731 12.6946 31.5176 13.2416 31.2246C13.7668 30.8978 13.9546 30.5263 14.1928 30.0553C14.3458 29.7551 14.518 29.414 14.8223 29.0149C15.0093 28.77 15.2362 28.6231 15.477 28.4654C15.8092 28.2508 16.1527 28.0273 16.4491 27.5383C16.6752 27.1624 16.6291 26.8027 16.5778 26.4197C16.5291 26.0492 16.4796 25.6653 16.6769 25.2022C16.9778 24.5039 16.8978 24.2323 16.7778 23.8208C16.7021 23.5626 16.6072 23.2427 16.5881 22.6754ZM16.3665 29.5226C16.1196 29.7051 15.9074 29.8637 15.7501 30.0214C15.2666 30.5085 14.9797 30.952 14.7258 31.3439C14.3032 31.9959 13.9972 32.467 12.9912 32.6933C12.4964 32.7992 12.1512 32.7796 11.7852 32.7582C11.2983 32.7306 10.7949 32.7013 9.91928 32.947C9.05065 33.1911 8.47068 32.9604 7.50643 32.5774C7.19512 32.4546 6.84122 32.3138 6.42216 32.1678C4.74926 31.5835 3.2998 30.5148 2.22944 29.0755C1.13217 27.5998 0.519134 25.8372 0.455676 23.9803C0.374829 21.5916 1.20783 19.3116 2.8033 17.5597C4.3989 15.807 6.56213 14.7961 8.89322 14.7133C8.99329 14.7088 9.09763 14.7071 9.20014 14.7071C10.9079 14.7071 12.5651 15.2174 13.9911 16.1837C15.4205 17.1518 16.55 18.5306 17.2543 20.1711C17.6708 21.1373 17.7612 21.6388 17.942 22.6389C18.0386 23.1743 18.1585 23.8404 18.3681 24.7854C18.9854 27.5748 17.4108 28.746 16.3665 29.5226ZM18.7733 24.6919C18.5672 23.7567 18.4472 23.0941 18.3507 22.5615C18.1707 21.5613 18.0707 21.0109 17.636 19.9982C16.8969 18.2829 15.7161 16.8401 14.2189 15.8266C12.725 14.8156 10.9904 14.2812 9.2027 14.2812C9.09665 14.2812 8.98707 14.2831 8.87839 14.2866C3.82839 14.4674 -0.136493 18.8226 0.0408832 23.9954C0.106965 25.9404 0.749534 27.7867 1.89812 29.3329C3.01888 30.8407 4.53618 31.9602 6.28816 32.5703C6.70125 32.7146 7.05161 32.8535 7.36023 32.9773C8.06107 33.2551 8.61413 33.4751 9.22882 33.4751C9.48875 33.4751 9.75051 33.4368 10.0296 33.3576C10.8408 33.1304 11.3095 33.1572 11.7634 33.1839C12.139 33.2053 12.5268 33.2276 13.0789 33.11C14.2501 32.8464 14.6127 32.2871 15.0717 31.579C15.3144 31.2059 15.5882 30.7828 16.0421 30.325C16.1769 30.1896 16.3795 30.0391 16.6134 29.8654C17.6751 29.0754 19.4515 27.7547 18.7733 24.6919Z" fill="white"/>
<path fill-rule="evenodd" clip-rule="evenodd" d="M70.0432 18.5899L71.1666 17.5025L71.3101 17.3644H70.4701L70.4484 17.4072L69.8919 18.4947L69.832 18.6113H70.0206L70.0432 18.5899ZM71.7265 21.4809L71.6866 21.4747L71.624 21.4658L71.6022 21.5254L71.5736 21.6012C71.3396 22.205 71.044 22.6093 70.3571 22.6191L69.8119 22.5942V21L69.9337 21.0071C70.5493 21.0419 70.6536 21.1069 70.6771 21.472L70.6832 21.5602L70.6875 21.6243L70.7501 21.6341L70.7892 21.6394L70.8701 21.6519L70.8788 21.5691L71.0153 20.2608L71.0231 20.1833L70.9484 20.1726L70.9083 20.1673L70.8466 20.1584L70.824 20.218L70.7901 20.3116C70.6788 20.6571 70.5206 20.7488 69.9797 20.7764L69.8119 20.7809V19.2633H70.258C70.9327 19.2633 71.1414 19.5634 71.3509 20.2368L71.3727 20.3116L71.3936 20.3766L71.4596 20.3668L71.4987 20.3605L71.5701 20.3508L71.5657 20.2768L71.4979 19.1199L71.4935 19.0442H68.4773L68.5355 19.1609L68.552 19.1956L68.5712 19.2348L68.6129 19.2392L68.7598 19.2561C68.8294 19.2633 68.9598 19.2766 69.0146 19.2891V22.5764C68.9902 22.5862 68.932 22.6049 68.7998 22.6201L68.6076 22.6432L68.5651 22.6486L68.4721 22.8382H71.6005L71.6109 22.7697L71.7926 21.5727L71.804 21.4925L71.7265 21.4809ZM65.5775 22.6432L65.4645 22.6316C65.2706 22.6165 65.2366 22.6147 64.9671 22.1524L63.9064 20.3427C64.015 20.2296 64.1159 20.1245 64.2046 20.0301C64.8323 19.3693 64.9141 19.2837 65.2767 19.2507L65.3749 19.2392L65.4175 19.2339L65.4358 19.1956L65.5096 19.0442H63.8046L63.8385 19.1502L63.8498 19.1849L63.8663 19.2348L63.9176 19.2392L64.1167 19.2571C64.3376 19.2766 64.395 19.3105 64.4037 19.3346C64.4481 19.4601 63.9281 20.0034 63.7325 20.2073L62.9977 20.9751V19.3034C63.0203 19.2927 63.0751 19.274 63.1995 19.2624L63.4664 19.2392L63.509 19.2357L63.6029 19.0442H61.6692L61.743 19.1956L61.7622 19.2348L61.8048 19.2392L61.97 19.2561C62.0273 19.2624 62.1517 19.2758 62.2056 19.2873V22.5817C62.1865 22.5906 62.1378 22.6067 62.0248 22.6201L61.8004 22.6432L61.757 22.6476L61.737 22.6877L61.6639 22.8382H63.5968L63.5038 22.6468L63.4603 22.6432L63.2551 22.6254C63.1864 22.6183 63.0534 22.6058 62.9977 22.5924V21.2849L63.3577 20.9172L64.0046 22.0545C64.0768 22.1819 64.2689 22.5239 64.2324 22.5942C64.2289 22.6013 64.2106 22.6218 64.0994 22.6316L63.9628 22.6432L63.9116 22.6476L63.8959 22.6966L63.8837 22.7323L63.8489 22.8382H65.714L65.621 22.6476L65.5775 22.6432ZM57.7573 20.438C57.2617 20.2607 56.9922 20.0951 56.9922 19.7344C56.9922 19.4201 57.2417 19.1813 57.5721 19.1813C57.7694 19.1813 57.9277 19.2348 58.0851 19.3523L58.4973 20.1281L58.519 20.1691H58.6729L58.672 20.0889L58.6607 19.1065L58.659 18.9952L58.5572 19.0308L58.365 19.0985C58.1286 19.0273 57.8686 18.9631 57.5782 18.9631C56.7826 18.9631 56.3539 19.5367 56.3539 20.0782C56.3539 20.7274 56.8557 21.0017 57.3982 21.2004C57.9008 21.3812 58.1921 21.5682 58.1921 21.985C58.1921 22.4099 57.9112 22.6949 57.4921 22.6949C57.0878 22.6949 56.8061 22.5025 56.6104 22.0893L56.4226 21.6938L56.4018 21.6493H56.2357L56.2401 21.733L56.2852 22.6342L56.2878 22.6886L56.3374 22.7055C56.6218 22.8061 57.0713 22.913 57.4817 22.913C58.332 22.913 58.8598 22.2656 58.8598 21.6653C58.8598 20.9359 58.3295 20.6446 57.7573 20.438ZM52.2056 19.1546L52.223 19.1894L52.2421 19.2294L52.2856 19.2339L52.3986 19.2446C52.5899 19.2651 52.7238 19.29 52.7595 19.3488C52.8126 19.4352 52.716 19.7068 52.5942 20.0506L51.9804 21.7446L51.1744 19.6079C51.1292 19.4868 51.0605 19.3042 51.0796 19.2731C51.0848 19.2651 51.1152 19.2454 51.2857 19.2392L51.4892 19.2339L51.5448 19.233L51.5613 19.1796L51.5735 19.1439L51.6074 19.0388H49.7223L49.7562 19.1439L49.7676 19.1787L49.7832 19.2303L49.8363 19.2339L50.0006 19.2446C50.2275 19.2633 50.2318 19.2642 50.457 19.8537L50.4779 19.909L51.6073 22.8569L51.6265 22.9077H51.7856L51.8047 22.8552L52.7864 20.1699C53.1056 19.2801 53.169 19.2739 53.4359 19.2445L53.529 19.2338L53.5707 19.2285L53.589 19.1893L53.6063 19.1546L53.662 19.0387H52.15L52.2056 19.1546ZM45.2418 21.0445L45.6088 19.9864L45.9374 21.0446L45.2418 21.0445ZM47.7486 22.6877L47.7295 22.6468L47.6843 22.6432L47.526 22.6307C47.3277 22.6174 47.2608 22.5853 47.0555 21.9529L46.1018 19.0067L46.0835 18.9516H45.8966L45.8766 18.9997C45.7809 19.2259 45.6696 19.3426 45.4922 19.4031L45.414 19.4289L45.4435 19.5082L45.5009 19.6605L44.8819 21.4399C44.4854 22.5559 44.4471 22.5916 44.1393 22.6316L44.0437 22.6432L44.002 22.6486L43.9828 22.6868L43.9654 22.7216L43.908 22.8382H45.4279L45.3349 22.6476L45.2923 22.6432L45.1784 22.6316C44.9854 22.6111 44.8575 22.5862 44.8219 22.5292C44.768 22.4428 44.8532 22.1783 44.9723 21.8123L45.1636 21.2628H46.0053L46.2878 22.1712C46.3348 22.3226 46.3826 22.5051 46.3365 22.5755C46.3148 22.6076 46.2618 22.6254 46.1765 22.6307L46.0104 22.6432L45.9661 22.6468L45.9461 22.6877L45.9297 22.7224L45.8722 22.8382H47.8225L47.766 22.7224L47.7486 22.6877ZM41.0239 19.2392L41.0683 19.2366L41.1613 19.0442H39.7893L39.7701 19.0949L38.7971 21.6724L37.8677 19.0968L37.8494 19.0442H36.5043L36.5782 19.1956L36.5974 19.2366L36.6425 19.2392L36.8017 19.2508C36.919 19.2651 37.0121 19.2846 37.0851 19.3372L37.0121 22.4704C37.0121 22.5221 37.0121 22.6156 36.6434 22.6369L36.5356 22.6432L36.4905 22.6459L36.3965 22.8382H37.9555L37.8607 22.6459L37.8164 22.6432L37.7129 22.6369C37.3617 22.6182 37.2373 22.5497 37.2373 22.4963L37.2869 19.7362L38.4137 22.7866L38.4329 22.8382H38.5911L38.6111 22.7866L39.7501 19.7727L39.8101 22.5862C39.7928 22.5951 39.7493 22.6111 39.6484 22.6191L39.3763 22.6432L39.3337 22.6468L39.3128 22.6877L39.2398 22.8382H41.1552L41.0822 22.6877L41.0631 22.6476L41.0205 22.6432L40.8561 22.6254C40.7883 22.6183 40.6613 22.6058 40.6075 22.5933L40.5457 19.3033C40.5683 19.2927 40.6222 19.2739 40.7413 19.2624L41.0239 19.2392ZM32.2794 19.1546L32.2968 19.1894L32.3151 19.2286L32.3577 19.2339L32.4594 19.2446C32.8003 19.2713 32.8899 19.3523 32.8899 19.3915L32.895 21.293C32.895 22.1035 32.5533 22.5328 31.9073 22.5328C31.243 22.5328 30.9465 22.1765 30.9465 21.3802V19.2954C30.9674 19.2856 31.0204 19.2678 31.1421 19.2571L31.4082 19.2339L31.4517 19.2304L31.4717 19.1894L31.4882 19.1547L31.5456 19.0389H29.5562L29.6119 19.1547L29.6293 19.1894L29.6484 19.2304L29.6928 19.2339L29.8971 19.2508C30.0258 19.2616 30.1102 19.2714 30.1484 19.2803V21.5255C30.1484 22.5061 30.6067 22.9247 31.6796 22.9247C32.6247 22.9247 33.0899 22.3948 33.1038 21.3056L33.1142 19.4156C33.1142 19.3444 33.2168 19.2642 33.4455 19.2446L33.5602 19.2339L33.6029 19.2295L33.622 19.1903L33.6403 19.1547L33.6968 19.0389H32.223L32.2794 19.1546ZM25.4513 18.5383L25.4748 18.5713H25.5765L25.6009 18.5383L26.4234 17.3929L26.5147 17.2656H26.3061L26.2852 17.2807L25.5261 17.8552L24.7671 17.2807L24.7453 17.2656H24.5366L24.6288 17.3929L25.4513 18.5383ZM25.6817 20.438C25.1862 20.2607 24.9175 20.0951 24.9175 19.7344C24.9175 19.4201 25.1671 19.1813 25.4983 19.1813C25.6948 19.1813 25.8539 19.2348 26.0096 19.3523L26.4217 20.1281L26.4434 20.1691H26.5982L26.5974 20.0889L26.586 19.1065L26.5852 18.9952L26.4817 19.0308L26.2904 19.0985C26.053 19.0273 25.7939 18.9631 25.5027 18.9631C24.7079 18.9631 24.2784 19.5367 24.2784 20.0782C24.2784 20.7274 24.7809 21.0009 25.3235 21.2004C25.8261 21.3812 26.1173 21.5682 26.1173 21.985C26.1173 22.4099 25.8365 22.6949 25.4183 22.6949C25.0123 22.6949 24.7323 22.5025 24.5349 22.0893L24.348 21.6938L24.3262 21.6493H24.1602L24.1645 21.733L24.2106 22.6342L24.2132 22.6886L24.2636 22.7055C24.5471 22.8061 24.9966 22.913 25.407 22.913C26.2582 22.913 26.7842 22.2656 26.7842 21.6653C26.7842 20.9359 26.2547 20.6446 25.6817 20.438Z" fill="white"/>
<path fill-rule="evenodd" clip-rule="evenodd" d="M57.8156 26.0294L57.839 26.0624H57.9416L57.9651 26.0294L58.7876 24.8841L58.8798 24.7559H58.6702L58.6503 24.7719L57.8903 25.3454L57.1313 24.7719L57.1096 24.7559H56.9009L56.993 24.8841L57.8156 26.0294ZM59.4676 29.0585L59.4276 29.054L59.3658 29.0442L59.3441 29.1039L59.3163 29.1796C59.0824 29.7825 58.7859 30.1869 58.099 30.1975L57.5538 30.1717V28.5775L57.6765 28.5847C58.2921 28.6194 58.3955 28.6844 58.419 29.0514L58.4251 29.1377L58.4294 29.2027L58.492 29.2117L58.532 29.2179L58.612 29.2295L58.6216 29.1466L58.7572 27.8383L58.7651 27.7617L58.6903 27.751L58.6503 27.7457L58.5885 27.7359L58.566 27.7965L58.532 27.89C58.4207 28.2364 58.2625 28.3264 57.7225 28.3549L57.5538 28.3584V26.8408H57.9991C58.6755 26.8408 58.8833 27.1409 59.0928 27.8142L59.1146 27.889L59.1354 27.954L59.2015 27.9443L59.2415 27.9389L59.3128 27.9283L59.3085 27.8552L59.2398 26.6983L59.2354 26.6226H56.2192L56.2765 26.7393L56.2939 26.774L56.3122 26.8123L56.3548 26.8177L56.5026 26.8345C56.5713 26.8417 56.7017 26.855 56.7565 26.8666V30.1548C56.733 30.1646 56.6747 30.1824 56.5417 30.1985L56.3487 30.2216L56.307 30.227L56.2878 30.2652L56.2714 30.3L56.2148 30.4167H59.3424L59.3528 30.349L59.5345 29.1511L59.5458 29.0709L59.4676 29.0585ZM52.0117 26.7393L52.0291 26.774L52.0491 26.815L52.0943 26.8177L52.196 26.8239C52.5274 26.8542 52.616 26.9308 52.616 26.9708L52.6212 29.1226L50.6552 26.6457L50.6318 26.6164H49.3041L49.3606 26.733L49.3789 26.7678L49.3963 26.8043L49.4354 26.8114L49.5032 26.823C49.7519 26.8586 49.9032 27.0269 50.0058 27.1507L49.9884 30.0453C49.9884 30.1165 49.8867 30.1967 49.6571 30.2154L49.5458 30.2207L49.5006 30.2234L49.4806 30.2653L49.4641 30.3L49.4059 30.4167H50.8805L50.8232 30.3L50.8057 30.2652L50.7857 30.2234L50.7405 30.2207L50.6327 30.2145C50.3066 30.1842 50.2197 30.112 50.2197 30.0747L50.2136 27.4028L52.6334 30.4158L52.6568 30.4452H52.8238V30.365L52.8403 26.994C52.8403 26.9254 52.9455 26.8426 53.1777 26.8239L53.2881 26.8176L53.3342 26.8159L53.3542 26.774L53.3716 26.7393L53.4289 26.6226H51.9543L52.0117 26.7393ZM44.5463 26.1675L45.6705 25.0819L45.8131 24.942H44.9732L44.9514 24.9856L44.395 26.0731L44.335 26.1906H44.5245L44.5463 26.1675ZM44.0594 28.622L44.4271 27.5649L44.7549 28.622H44.0594ZM46.5661 30.2652L46.5461 30.2243L46.5018 30.2207L46.3435 30.2092C46.1444 30.1967 46.0783 30.1646 45.873 29.5323L44.9193 26.5843L44.901 26.5299H44.7141L44.6932 26.578C44.5984 26.8034 44.4871 26.921 44.3097 26.9806L44.2315 27.0082L44.261 27.0866L44.3193 27.238L43.6985 29.0184C43.3037 30.1344 43.2638 30.169 42.9559 30.2092L42.8612 30.2217L42.8186 30.227L42.7994 30.2652L42.783 30.3L42.7264 30.4167H44.2463L44.188 30.3L44.1515 30.226L44.1089 30.2217L43.995 30.2092C43.8028 30.1887 43.675 30.1646 43.6385 30.1076C43.5846 30.0204 43.6707 29.7567 43.7898 29.3898L43.9811 28.8402H44.8219L45.1053 29.7505C45.1523 29.9019 45.2001 30.0845 45.1532 30.153C45.1314 30.186 45.0801 30.2038 44.9932 30.2092L44.8279 30.2207L44.7836 30.2243L44.7636 30.2652L44.7472 30.3L44.6888 30.4167H46.6409L46.5835 30.3L46.5661 30.2652ZM37.7416 28.3486C37.652 28.3486 37.5642 28.3308 37.4512 28.2987V26.8488L37.6095 26.8408C37.6225 26.8408 37.6381 26.8399 37.6529 26.8399C38.1981 26.8399 38.4972 27.116 38.4972 27.6147C38.4972 28.0885 38.2294 28.3486 37.7416 28.3486ZM39.9518 30.2564L39.9319 30.2243L39.8936 30.2207L39.8258 30.2154C39.5606 30.1895 39.4615 30.1067 39.2041 29.6935L38.499 28.5811C38.9962 28.4475 39.3241 28.0824 39.3241 27.6442C39.3241 27.1757 39.0598 26.6164 37.799 26.6164H37.7981L36.187 26.6226H36.0609L36.1165 26.7384L36.133 26.7731L36.153 26.8141L36.1974 26.8177L36.4017 26.8345C36.4687 26.8417 36.5991 26.855 36.653 26.8666V30.1512C36.6217 30.1655 36.5513 30.186 36.4556 30.1985L36.1913 30.2207L36.1479 30.2252L36.1287 30.2652L36.1113 30.3L36.0548 30.4167H38.0563L37.999 30.3L37.9816 30.2652L37.9616 30.2243L37.9181 30.2207L37.7025 30.2039C37.5495 30.1878 37.4816 30.1735 37.4512 30.1646V28.5285C37.5251 28.5552 37.5982 28.5784 37.6686 28.5971L38.645 30.2893L38.6885 30.3739L38.7102 30.4167H40.0553L39.9745 30.291L39.9518 30.2564ZM33.109 26.6929L33.1002 26.6225H29.8727L29.8614 26.6884L29.6744 27.7528L29.6571 27.8462H29.8371L29.8605 27.8044L29.8997 27.7287C30.0596 27.409 30.4074 26.8692 30.9369 26.8345H31.0683V30.1583C31.0474 30.1672 30.9917 30.1868 30.8683 30.1984L30.6013 30.2207L30.557 30.2251L30.5379 30.2652L30.5205 30.2999L30.4649 30.4166H32.4612L32.4029 30.2999L32.3865 30.2652L32.3655 30.2252L32.3229 30.2207L32.1186 30.2038C32.0499 30.1975 31.9169 30.1842 31.8604 30.1708V26.8345H32.0038C32.5281 26.8532 32.8473 27.3288 33.022 27.7233L33.0568 27.7999L33.0777 27.8462H33.2507L33.2394 27.7563L33.109 26.6929ZM25.6817 28.0154C25.1974 27.8427 24.9175 27.6726 24.9175 27.3128C24.9175 26.9975 25.1661 26.7597 25.4974 26.7597C25.6948 26.7597 25.8531 26.8122 26.0096 26.9307L26.4217 27.7064L26.4443 27.7483H26.5982L26.5974 27.6664L26.586 26.684L26.5843 26.5727L26.4826 26.6092L26.2895 26.6769C26.053 26.6047 25.7939 26.5406 25.5035 26.5406C24.7079 26.5406 24.2784 27.1159 24.2784 27.6556C24.2784 28.3067 24.7809 28.5792 25.3235 28.7779C25.8261 28.9595 26.1173 29.1457 26.1173 29.5625C26.1173 29.9873 25.8365 30.2732 25.4175 30.2732C25.0114 30.2732 24.7314 30.0809 24.5349 29.6667L24.348 29.2722L24.3262 29.2267H24.1602L24.1645 29.3114L24.2106 30.2117L24.2132 30.2661L24.2627 30.283C24.5462 30.3845 24.9966 30.4914 25.407 30.4914C26.2574 30.4914 26.7852 29.843 26.7852 29.2427C26.7852 28.5134 26.2547 28.222 25.6817 28.0154Z" fill="white"/>
</g>
<defs>
<clipPath id="clip0_869_44683">
<rect width="72" height="20" fill="white" transform="translate(0 14)"/>
</clipPath>
</defs>
</svg>
