<svg width="72" height="48" viewBox="0 0 72 48" fill="none" xmlns="http://www.w3.org/2000/svg">
<g clip-path="url(#clip0_869_44676)">
<path fill-rule="evenodd" clip-rule="evenodd" d="M6.45054 16.4603C37.4112 15.8404 39.3257 15.802 72.0002 16.6203C66.0433 16.6514 61.1086 16.6804 56.8327 16.7056C36.1761 16.8271 30.8933 16.8582 0 16.589C2.2849 16.5437 4.42943 16.5007 6.45022 16.4603L6.45054 16.4603ZM36.6827 31.4186H36.6836C45.1598 31.4163 54.2059 31.4138 71.5274 31.393C36.3955 32.3585 35.2716 32.3296 4.189 31.5311L0.994708 31.4491C18.8743 31.4234 27.4399 31.4211 36.6827 31.4186ZM8.5293 28.7414C9.9643 27.8664 10.2641 24.6622 9.00977 23.6067C8.53452 23.2068 8.53307 23.2008 8.85562 22.9749C9.54501 22.4921 9.68001 20.9817 9.129 19.9161C8.73574 19.1557 8.06201 18.966 5.75423 18.966H3.69015V24.0084V29.0509L5.85684 29.0503C7.72967 29.0498 8.09212 29.0079 8.5293 28.7414ZM5.58108 24.0084V20.3842H6.41624C6.87557 20.3842 7.33649 20.4693 7.44049 20.5733C7.54449 20.6773 7.62958 21.0656 7.62958 21.4363C7.62958 21.9808 7.55412 22.1597 7.23679 22.3676C6.99065 22.5289 6.69647 22.588 6.4489 22.5258C6.06647 22.4298 6.05381 22.452 6.05381 23.2176V24.0084H6.67286C7.69859 24.0084 8.03962 24.5955 7.91149 26.1406C7.81355 27.3216 7.50324 27.6327 6.42333 27.6327H5.58108V24.0084ZM16.04 27.2853C16.0826 27.3542 16.0774 27.7087 16.0286 28.0732L15.9397 28.7358H13.5968H11.2539V24.0084V19.2811H13.63H16.0062L15.9032 19.7932C15.8924 19.8467 15.8823 19.8975 15.8728 19.9457C15.7899 20.3643 15.745 20.5911 15.6073 20.7138C15.4444 20.859 15.1517 20.8584 14.5128 20.8571L14.316 20.8569H12.9872V21.7236V22.5902H14.1721H15.3569L15.2604 23.0236L15.2358 23.1348C15.1402 23.5675 15.0919 23.7863 14.9557 23.8967C14.8165 24.0096 14.5855 24.0092 14.1183 24.0086L14.0009 24.0084H12.9872V25.5842V27.16H14.4749C15.2931 27.16 15.9974 27.2164 16.04 27.2853ZM21.4371 28.5009C22.1207 28.0531 22.4404 27.3373 22.4411 26.2539L22.4417 25.269H21.575H20.7083V25.9885C20.7083 26.9391 20.4914 27.3175 19.9464 27.3175C19.1703 27.3175 19.1325 27.164 19.1325 24.0084C19.1325 20.9392 19.1839 20.6968 19.8338 20.7017C20.3788 20.7058 20.5655 20.9345 20.6798 21.7388L20.7897 22.5114L21.6157 22.559L22.4417 22.6067V21.7687C22.4417 20.0598 21.3065 19.0214 19.6145 19.1828C18.7119 19.2688 18.1856 19.5639 17.6453 20.2867C17.3493 20.6827 17.3159 20.9827 17.2694 23.6649C17.2038 27.4538 17.42 28.1716 18.7792 28.6784C19.5028 28.9482 20.8965 28.8551 21.4371 28.5009ZM25.9085 24.0084V26.3721V28.7358H25.0622H24.2159L24.138 27.5145C24.0951 26.8429 24.0742 25.9742 24.0914 25.5842C24.1086 25.1942 24.1345 23.6165 24.1489 22.0781L24.1752 19.2811H25.0419H25.9085V20.9357V22.5902H26.7752H27.6419V20.9357V19.2811H28.5086H29.3753V24.0084V28.7358H28.5086H27.6419V26.3721V24.0084H26.7752H25.9085ZM35.9173 28.0904C35.9796 27.7213 35.9601 27.3787 35.8717 27.2903C35.786 27.2046 35.1116 27.1587 34.358 27.1873L32.9988 27.2388L32.9992 25.6236L32.9996 24.0084H33.9357C34.4506 24.0084 34.9022 23.9553 34.9393 23.8903C34.9764 23.8253 35.0547 23.5062 35.1133 23.1812L35.2199 22.5902H34.136C33.5399 22.5902 33.0225 22.5607 32.9864 22.5247C32.9503 22.4886 32.9453 22.0986 32.9754 21.658L33.03 20.8569H34.2661C34.946 20.8569 35.5337 20.8037 35.5721 20.7387C35.6106 20.6737 35.6919 20.3192 35.7528 19.9508L35.8637 19.2811H33.4861H31.1086V24.0084V28.7358H33.4584H35.8083L35.9173 28.0904ZM39.3027 24.166V26.4509V28.7358H38.3572H37.4117V24.0084V19.2811L39.2633 19.29C40.2816 19.2949 41.363 19.3835 41.6663 19.487C42.3947 19.7354 42.7688 20.4833 42.7691 21.692C42.7694 22.6741 42.4956 23.3785 41.9707 23.7462L41.6429 23.9757L42.3437 26.3164L43.0444 28.657L42.1799 28.7048C41.7045 28.7311 41.2912 28.7283 41.2615 28.6986C41.2318 28.6689 40.9445 27.6369 40.6231 26.4053C40.0817 24.3305 40.0118 24.166 39.6707 24.166H39.3027ZM39.3027 20.6993V21.7236V22.7478H39.8542C40.6463 22.7478 41.0995 22.2545 40.9806 21.5216C40.8719 20.8522 40.6767 20.7049 39.8936 20.7017L39.3027 20.6993ZM48.5745 28.4631C48.7942 28.2991 49.1202 27.9691 49.2989 27.7297C49.6027 27.3228 49.6238 27.0816 49.6238 24.0085C49.6238 20.3948 49.6068 20.3247 48.5388 19.5273C47.9172 19.0632 46.1303 19.0632 45.5087 19.5273C44.461 20.3095 44.4283 20.432 44.375 23.7788C44.3313 26.5205 44.3576 26.907 44.6301 27.5229C45.0577 28.4896 45.9587 28.9425 47.2448 28.8374C47.8111 28.7911 48.3313 28.6447 48.5745 28.4631ZM46.3315 27.0684C46.1424 26.5755 46.2253 21.0881 46.4249 20.8885C46.6687 20.6447 47.3788 20.6447 47.6225 20.8885C47.8891 21.1551 47.8891 26.862 47.6225 27.1286C47.3427 27.4084 46.4459 27.3666 46.3315 27.0684ZM56.311 20.5811C56.1509 21.2961 55.68 23.4234 55.2645 25.3085L54.509 28.7358H53.6199C52.8292 28.7358 52.7212 28.6966 52.6427 28.3812C52.4925 27.7771 50.6482 19.4151 50.6482 19.3381C50.6482 19.2981 51.0518 19.2867 51.545 19.3127L52.4417 19.3599L53.0156 22.4327C53.3379 24.1584 53.6302 25.3673 53.6823 25.1903C53.7334 25.0169 54.0081 23.6165 54.2927 22.0781L54.8103 19.2811H55.7062H56.602L56.311 20.5811ZM59.6302 27.0734C59.6302 25.8338 59.6966 25.2827 59.8912 24.9067L60.1523 24.4024L60.8413 26.5691L61.5304 28.7358H62.3924C62.8665 28.7358 63.2557 28.6826 63.2572 28.6176C63.2588 28.5526 62.8214 27.232 62.2855 25.6829L61.311 22.8665L62.1617 21.192C62.6296 20.271 63.0373 19.4643 63.0678 19.3993C63.0982 19.3343 62.7095 19.2821 62.2039 19.2833L61.2847 19.2855L60.4968 20.8632L59.709 22.4409L59.664 20.861L59.6191 19.2811H58.6792H57.7392V24.0084V28.7358H58.6847H59.6302V27.0734ZM66.1276 26.6873L66.0179 27.7115L65.9082 28.7358H65.054C64.4091 28.7358 64.1999 28.6793 64.1999 28.505C64.1999 28.3165 64.9152 24.544 65.7921 20.1084L65.9556 19.2811H67.0369C67.9303 19.2811 68.1324 19.329 68.2001 19.5569C68.2452 19.7085 68.6433 21.7118 69.0848 24.0084C69.5263 26.3051 69.9256 28.3121 69.9721 28.4683C70.0479 28.7227 69.9608 28.7473 69.1375 28.7046L68.2181 28.657L68.0862 27.6721L67.9543 26.6873H67.0409H66.1276ZM66.7269 23.4468C66.6193 24.1346 66.4955 24.7905 66.4518 24.9044C66.3938 25.0553 66.5525 25.1115 67.0365 25.1115C67.6456 25.1115 67.6937 25.082 67.6155 24.7569C67.5686 24.5619 67.4417 23.8137 67.3335 23.0941C67.2253 22.3746 67.0886 21.8782 67.0297 21.9911C66.9708 22.104 66.8345 22.759 66.7269 23.4468ZM70.0579 19.062C69.6177 19.062 69.2609 19.4188 69.2609 19.859C69.2609 20.1175 69.3839 20.3472 69.5745 20.4928V19.5813H70.0568C70.1491 19.5813 70.2279 19.5979 70.2932 19.6309C70.3588 19.6635 70.4088 19.7099 70.443 19.77C70.4776 19.8297 70.4949 19.8999 70.4949 19.9807C70.4949 20.0618 70.4774 20.1317 70.4424 20.1902C70.4074 20.2483 70.3567 20.2928 70.2902 20.3239C70.2866 20.3256 70.2829 20.3273 70.2792 20.3289L70.4125 20.573C70.6747 20.4425 70.8549 20.1718 70.8549 19.859C70.8549 19.4188 70.4981 19.062 70.0579 19.062ZM70.4881 20.7114C70.7992 20.5541 71.0125 20.2315 71.0125 19.859C71.0125 19.3318 70.5851 18.9044 70.0579 18.9044C69.5307 18.9044 69.1033 19.3318 69.1033 19.859C69.1033 20.2099 69.2925 20.5165 69.5745 20.6824V20.8038H69.833V20.787C69.9051 20.8044 69.9804 20.8136 70.0579 20.8136C70.1231 20.8136 70.1868 20.8071 70.2483 20.7946L70.2532 20.8038H70.5385L70.4881 20.7114ZM70.1701 20.6482L70.0217 20.3704H69.833V20.6239C69.9043 20.6448 69.9798 20.6561 70.0579 20.6561C70.096 20.6561 70.1334 20.6534 70.1701 20.6482ZM69.833 20.1627H70.0085C70.0578 20.1627 70.0988 20.156 70.1314 20.1424C70.1641 20.1289 70.1883 20.1086 70.2043 20.0815C70.2206 20.0545 70.2287 20.0209 70.2287 19.9807C70.2287 19.9401 70.2206 19.9059 70.2043 19.878C70.1883 19.8501 70.1639 19.8291 70.1308 19.8147C70.0982 19.8 70.057 19.7926 70.0073 19.7926H69.833V20.1627Z" fill="white"/>
</g>
<defs>
<clipPath id="clip0_869_44676">
<rect width="72" height="48" fill="white"/>
</clipPath>
</defs>
</svg>
