<svg width="140" height="67" viewBox="0 0 140 67" fill="none" xmlns="http://www.w3.org/2000/svg">
<path d="M43.6603 40.0931V24.9863H40.7199V34.9794L34.4343 24.9863H30.7695V40.0931H33.7099V29.3756L40.5708 40.0931H43.6603Z" fill="white"/>
<path d="M48.0425 33.6583C48.1064 32.6995 48.9161 31.5915 50.3863 31.5915C52.0056 31.5915 52.6874 32.6143 52.7301 33.6583H48.0425ZM53.007 36.3856C52.6661 37.3231 51.9417 37.9837 50.6207 37.9837C49.2144 37.9837 48.0425 36.9822 47.9786 35.5973H55.4787C55.4787 35.5546 55.5213 35.1285 55.5213 34.7237C55.5213 31.3571 53.5823 29.2904 50.3437 29.2904C47.659 29.2904 45.1874 31.4637 45.1874 34.8089C45.1874 38.3459 47.7229 40.4127 50.5994 40.4127C53.1775 40.4127 54.8394 38.8999 55.3721 37.0888L53.007 36.3856Z" fill="white"/>
<path d="M63.6366 40.0931H66.3426C66.2999 39.7308 66.236 39.0064 66.236 38.1967V29.61H63.4022V35.7038C63.4022 36.9183 62.6778 37.7706 61.4206 37.7706C60.0996 37.7706 59.503 36.8331 59.503 35.6612V29.61H56.6692V36.2365C56.6692 38.5163 58.1181 40.37 60.6536 40.37C61.7616 40.37 62.9761 39.9439 63.5513 38.9638C63.5513 39.3899 63.594 39.88 63.6366 40.0931Z" fill="white"/>
<path d="M71.2418 29.61H68.408V40.0931H71.2418V31.4424C71.2845 32.4651 72.0941 33.2535 73.1382 33.2535C74.2035 33.2535 75.0345 32.4225 75.0345 31.3571C75.0345 30.2918 74.2035 29.4608 73.1382 29.4608C72.0941 29.4608 71.2845 30.2705 71.2418 31.2932V29.61Z" fill="white"/>
<path d="M80.65 37.8345C79.2651 37.8345 77.9867 36.8118 77.9867 34.8515C77.9867 32.87 79.2651 31.8685 80.65 31.8685C82.035 31.8685 83.3134 32.87 83.3134 34.8515C83.3134 36.8331 82.035 37.8345 80.65 37.8345ZM80.65 29.2904C77.5179 29.2904 75.1528 31.6128 75.1528 34.8515C75.1528 38.0689 77.5179 40.4127 80.65 40.4127C83.7822 40.4127 86.1472 38.0689 86.1472 34.8515C86.1472 31.6128 83.7822 29.2904 80.65 29.2904Z" fill="white"/>
<path d="M90.3657 34.0631C90.3657 32.8486 91.0901 31.8898 92.326 31.8898C93.6896 31.8898 94.2649 32.806 94.2649 33.9779V40.0931H97.0987V33.4879C97.0987 31.1867 95.9055 29.333 93.3061 29.333C92.1768 29.333 90.9197 29.823 90.2805 30.9097V29.61H87.5319V40.0931H90.3657V34.0631Z" fill="white"/>
<path d="M98.4833 37.2379C98.4833 38.8786 99.847 40.3914 102.084 40.3914C103.64 40.3914 104.641 39.6669 105.174 38.8359C105.174 39.2408 105.216 39.8161 105.28 40.0931H107.88C107.816 39.7308 107.752 38.9851 107.752 38.4311V33.2748C107.752 31.1654 106.516 29.2904 103.192 29.2904C100.38 29.2904 98.8669 31.1015 98.6964 32.7421L101.211 33.2748C101.296 32.3586 101.978 31.5702 103.213 31.5702C104.407 31.5702 104.982 32.1881 104.982 32.9339C104.982 33.2961 104.79 33.5944 104.194 33.6796L101.615 34.0631C99.8683 34.3188 98.4833 35.3629 98.4833 37.2379ZM102.681 38.282C101.765 38.282 101.317 37.6854 101.317 37.0674C101.317 36.2578 101.892 35.8529 102.617 35.7464L104.982 35.3842V35.8529C104.982 37.7067 103.874 38.282 102.681 38.282Z" fill="white"/>
</svg>
