<svg width="140" height="67" viewBox="0 0 140 67" fill="none" xmlns="http://www.w3.org/2000/svg">
<path fill-rule="evenodd" clip-rule="evenodd" d="M46.1442 23.0957H23.9609V44.3277H46.1442V23.0957ZM39.7557 33.9239C40.5715 33.1275 40.6178 32.1631 40.6178 31.7487C40.6178 30.7075 40.1698 29.2382 38.6653 28.6259C37.9786 28.3507 36.9554 28.2876 35.8839 28.2876H28.4064L28.4051 28.3644L30.2546 29.6327V39.1158H33.8375V35.3021H34.8933L37.0845 39.1158H41.0495L38.3007 34.7497L38.3534 34.73C38.8596 34.5409 39.3207 34.3686 39.7557 33.9239ZM35.325 33.0819H33.8375V30.5546H35.3087C35.9302 30.5546 37.0512 30.5852 37.0512 31.8261C37.0512 33.0501 35.9165 33.0819 35.325 33.0819ZM54.5281 34.8553H52.9715V38.166H51.2426V29.2483H54.2112L54.2623 29.2489C55.4752 29.2616 56.2956 29.2702 57.1015 29.8925C57.6825 30.3475 58.1299 31.0541 58.1299 32.0902C58.1299 33.7955 56.8237 34.3897 56.2967 34.5407L58.3679 38.166H56.3756L54.5281 34.8553ZM53.7755 30.6883H52.9715L52.9708 33.4803H53.5773C54.0931 33.4803 54.3303 33.4709 54.599 33.4602C54.6401 33.4586 54.682 33.457 54.7257 33.4553C55.1092 33.4428 56.3619 33.3791 56.3619 32.0784C56.3619 31.888 56.3502 31.2314 55.6237 30.8774C55.2546 30.7014 54.8053 30.6883 53.7755 30.6883ZM62.8253 36.6623H68.0627V38.166H61.1089V29.249H67.7327V30.7395H62.8253V32.8361H67.3101V34.2761H62.8253V36.6623ZM76.4642 38.166L72.389 31.9148L72.4933 38.166H70.7906V29.249H72.361L76.4766 35.5513L76.2666 29.249H77.9824V38.166H76.4642ZM81.7394 37.0287C80.8147 36.0057 80.4991 34.8441 80.4991 33.7199C80.4991 30.9917 82.4255 29.0218 84.9715 29.0218C87.2807 29.0218 89.4445 30.6633 89.4308 33.7075C89.4184 36.2591 87.8083 38.3932 84.9434 38.3932C83.7709 38.3932 82.6896 38.0767 81.7394 37.0287ZM87.6902 33.8966C87.7287 32.1539 86.7922 30.5498 84.9597 30.5498C83.3626 30.5498 82.2924 31.7862 82.2931 33.6438C82.2931 35.6518 83.4546 36.8521 84.9969 36.8521C86.159 36.8521 87.6498 36.0431 87.6902 33.8966ZM94.4027 29.249L96.2235 35.8659L98.0058 29.249H100.539V38.166H98.838L98.9958 30.84L96.9891 38.166H95.4194L93.3991 30.84L93.5713 38.166H91.8698V29.249H94.4027ZM105.714 29.249H104V38.1666H105.714V29.249ZM116.017 38.166H114.156L113.614 36.4233H110.119L109.576 38.166H107.717L110.858 29.2483H112.836L116.017 38.166ZM111.873 30.8656L110.578 34.9702H113.153L111.873 30.8656Z" fill="white"/>
</svg>
