<svg width="72" height="48" viewBox="0 0 72 48" fill="none" xmlns="http://www.w3.org/2000/svg">
<path fill-rule="evenodd" clip-rule="evenodd" d="M2.74578 25.7196C2.75155 25.7196 2.75709 25.7218 2.76117 25.7257C2.76525 25.7296 2.76755 25.7349 2.76755 25.7404C2.77238 26.0425 2.7767 26.3465 2.7805 26.6522C2.78292 26.8334 2.82179 26.9917 2.89712 27.1272C2.97244 27.2624 3.09062 27.3687 3.25163 27.446C3.49005 27.5607 3.7606 27.5936 4.06328 27.5447C4.29616 27.507 4.47809 27.4161 4.60904 27.272C4.71996 27.15 4.79286 26.98 4.82776 26.7618C4.88581 26.3982 4.79563 26.085 4.55721 25.8222C4.45494 25.7095 4.25021 25.5497 3.94303 25.3428C3.72673 25.197 3.50162 25.0637 3.2677 24.9427C2.96121 24.784 2.65577 24.6235 2.35136 24.4612C2.00099 24.2742 1.66341 24.0681 1.33861 23.843C1.01554 23.6185 0.737911 23.3511 0.505716 23.0408C0.321895 22.7952 0.200441 22.5238 0.141356 22.2266C0.0497909 21.7682 0.0510002 21.3172 0.144984 20.8736C0.219964 20.5196 0.346773 20.2146 0.525411 19.9588C0.780065 19.5936 1.12905 19.3157 1.57236 19.1253C1.76655 19.0417 1.96713 18.9756 2.1741 18.927C2.94463 18.7446 3.74712 18.7001 4.58157 18.7936C4.96511 18.8366 5.30718 18.9087 5.60779 19.0098C6.34031 19.2561 6.82388 19.7086 7.05849 20.3673C7.13036 20.5693 7.17459 20.8212 7.19118 21.123C7.205 21.3722 7.2069 21.6289 7.19688 21.893C7.19647 21.9061 7.19072 21.9186 7.18085 21.9278C7.17098 21.9369 7.15777 21.942 7.14401 21.942H4.66761C4.66296 21.942 4.65836 21.9411 4.65408 21.9394C4.64979 21.9377 4.64592 21.9352 4.64268 21.932C4.63944 21.9288 4.6369 21.925 4.63522 21.9208C4.63354 21.9167 4.63274 21.9123 4.63288 21.9078C4.63807 21.6619 4.63133 21.4256 4.61267 21.1988C4.59747 21.017 4.5351 20.8617 4.42557 20.7328C4.32571 20.6148 4.18698 20.529 4.00938 20.4754C3.74885 20.3968 3.48607 20.4064 3.22105 20.5042C3.03205 20.5739 2.89453 20.7058 2.80849 20.8998C2.69827 21.1481 2.68168 21.3905 2.75873 21.6272C2.80434 21.7664 2.89487 21.903 3.03032 22.0372C3.15678 22.1625 3.2905 22.2661 3.43148 22.3481C3.94182 22.6446 4.46064 22.9265 4.98791 23.194C5.37871 23.3923 5.72164 23.5875 6.01672 23.7795C6.29211 23.959 6.5554 24.1781 6.8066 24.437C7.00252 24.6386 7.15317 24.863 7.25855 25.1103C7.34632 25.3159 7.40298 25.5722 7.42855 25.8793C7.46622 26.3288 7.44272 26.7775 7.35807 27.2254C7.25475 27.7718 6.99543 28.218 6.58011 28.5641C6.28572 28.8097 5.92982 28.9921 5.51243 29.1114C4.75848 29.3273 3.94286 29.3959 3.06556 29.3172C2.45536 29.2627 1.91996 29.125 1.45937 28.9042C0.889252 28.6315 0.484984 28.2319 0.246569 27.7053C0.131508 27.4515 0.0570471 27.1307 0.0231853 26.743C-0.0054936 26.4085 -0.00756691 26.0738 0.0169656 25.7389C0.0173591 25.7338 0.019716 25.729 0.0235621 25.7255C0.0274082 25.722 0.0324584 25.7201 0.0376974 25.7201L2.74578 25.7196ZM65.5515 28.352C65.0981 27.9653 64.8312 27.4812 64.7507 26.8998C64.6961 26.5067 64.6702 26.1121 64.6729 25.7158L64.675 25.3756C64.6681 23.6469 64.6726 22.4145 64.6885 21.6784C64.6913 21.5558 64.7203 21.334 64.7756 21.013C64.9041 20.2703 65.2864 19.708 65.9226 19.3263C66.2615 19.1233 66.6637 18.9809 67.1291 18.8989C67.9923 18.7475 68.8416 18.7526 69.6771 18.9143C70.0381 18.984 70.3904 19.1146 70.7339 19.3059C71.2069 19.5694 71.536 19.915 71.7212 20.3427C71.875 20.6983 71.9582 21.0692 71.971 21.4553C71.9783 21.6741 71.9774 21.9134 71.9684 22.1732C71.968 22.1868 71.9621 22.1996 71.952 22.2091C71.9418 22.2185 71.9282 22.2238 71.914 22.2238H69.4355C69.4281 22.2238 69.4208 22.2224 69.4139 22.2197C69.4071 22.217 69.4008 22.213 69.3956 22.208C69.3903 22.2029 69.3862 22.197 69.3833 22.1904C69.3805 22.1839 69.379 22.1768 69.379 22.1697V21.7513C69.379 21.5615 69.3704 21.4227 69.3531 21.3348C69.2526 20.8188 68.8941 20.5651 68.2777 20.5737C67.7718 20.581 67.4479 20.8129 67.3059 21.2693C67.261 21.4138 67.2394 21.6328 67.2411 21.9263C67.2497 23.2445 67.2501 24.5625 67.2421 25.8804C67.2401 26.2218 67.2537 26.4811 67.2831 26.6583C67.3232 26.8973 67.4657 27.0873 67.7107 27.2285C67.9194 27.3488 68.1688 27.3947 68.4591 27.3663C69.0921 27.3048 69.4079 26.9665 69.4065 26.3514C69.4055 25.8556 69.405 25.3642 69.405 24.8774C69.405 24.8695 69.4017 24.8619 69.3958 24.8563C69.39 24.8507 69.3821 24.8476 69.3739 24.8476L68.4031 24.8516C68.3905 24.8516 68.3783 24.8467 68.3694 24.8381C68.3604 24.8294 68.3554 24.8177 68.3554 24.8055L68.3585 23.436C68.3585 23.4268 68.3624 23.418 68.3693 23.4115C68.3762 23.405 68.3856 23.4013 68.3953 23.4013H71.9669C71.9746 23.4013 71.9821 23.4042 71.9876 23.4094C71.9931 23.4146 71.9963 23.4217 71.9964 23.4291C72.0016 24.2667 71.9995 25.0962 71.9902 25.9176C71.9847 26.3955 71.9664 26.7252 71.9353 26.9067C71.759 27.9294 71.1229 28.6037 70.0269 28.9296C69.4851 29.0906 68.9146 29.1663 68.3155 29.1567C67.9285 29.1504 67.5844 29.1235 67.2831 29.0759C66.8356 29.0051 66.4123 28.8686 66.0133 28.6663C65.8588 28.588 65.7049 28.4832 65.5515 28.352ZM33.6824 27.536C33.8255 27.9237 34.0614 28.2493 34.3904 28.5127C34.7484 28.7996 35.1587 29.0026 35.6213 29.1216C35.895 29.192 36.236 29.2443 36.6444 29.2787C37.2464 29.3296 37.8445 29.3002 38.4388 29.1905C38.7401 29.1349 39.0018 29.0635 39.224 28.9763C39.4963 28.8695 39.7336 28.7378 39.9361 28.5811C40.3743 28.242 40.6515 27.8067 40.768 27.2752C40.8084 27.0897 40.8364 26.8544 40.8519 26.5691C40.864 26.342 40.8621 26.1047 40.8462 25.8571C40.8062 25.2374 40.5586 24.7181 40.1035 24.2993C39.8178 24.0365 39.5331 23.8214 39.2494 23.6538C38.7266 23.345 38.1031 23.0071 37.3789 22.6398C37.0195 22.4577 36.7274 22.2668 36.5024 22.0672C36.2588 21.8513 36.1562 21.5735 36.1946 21.2337C36.2267 20.9481 36.3504 20.7384 36.5657 20.6045C36.689 20.5279 36.8395 20.4814 37.0171 20.4652C37.1895 20.4494 37.3505 20.4669 37.5001 20.5178C37.8688 20.6437 38.0578 20.9072 38.0672 21.3081C38.0713 21.4939 38.0734 21.6947 38.0734 21.9105C38.0734 21.922 38.0782 21.9331 38.0867 21.9414C38.0952 21.9496 38.1068 21.9544 38.119 21.9546C38.9531 21.9721 39.7715 21.9717 40.5741 21.9531C40.5813 21.953 40.5881 21.9504 40.5933 21.9457C40.5985 21.941 40.6016 21.9347 40.6021 21.9279C40.6429 21.4268 40.6249 20.9929 40.5482 20.6264C40.4235 20.0307 40.0667 19.5757 39.478 19.2614C39.1494 19.0855 38.7902 18.9652 38.4004 18.9004C37.615 18.7692 36.8388 18.7651 36.0717 18.8881C35.7614 18.9376 35.4931 19.0032 35.2668 19.0849C34.9863 19.1867 34.7416 19.3153 34.5329 19.4706C34.2002 19.7179 33.9604 20.0091 33.8135 20.3442C33.6148 20.7981 33.5361 21.2929 33.5772 21.8287C33.6076 22.223 33.7123 22.5749 33.8913 22.8843C34.0281 23.1203 34.2523 23.369 34.564 23.6305C34.9013 23.9134 35.2692 24.1582 35.668 24.3648C36.2903 24.6874 36.8988 25.032 37.4934 25.3985C37.7311 25.545 37.9148 25.6947 38.0444 25.8477C38.3066 26.1584 38.3728 26.5191 38.2429 26.9296C38.1395 27.2568 37.9106 27.4508 37.5561 27.5117C37.2897 27.5576 37.0485 27.5422 36.8326 27.4655C36.4031 27.3128 36.2077 27.004 36.2464 26.5389C36.2609 26.364 36.2561 26.0922 36.2319 25.7233C36.2315 25.7167 36.2284 25.7105 36.2233 25.706C36.2182 25.7015 36.2114 25.699 36.2044 25.699L33.5451 25.696C33.5339 25.696 33.5232 25.7002 33.5152 25.7077C33.5071 25.7152 33.5024 25.7254 33.502 25.7362C33.4906 26.0502 33.4956 26.3531 33.5171 26.645C33.544 27.0139 33.5991 27.3109 33.6824 27.536ZM13.3372 19.8932C13.3085 19.9131 13.294 19.9407 13.2936 19.976C13.2933 20.0226 13.2929 20.0479 13.2926 20.0519C12.8313 23.0072 12.3669 25.9679 11.8994 28.9338C11.8986 28.9394 11.8957 28.9444 11.8913 28.9481C11.8869 28.9517 11.8813 28.9537 11.8756 28.9536L9.1701 28.9626C9.16293 28.9626 9.15584 28.9611 9.14934 28.9582C9.14283 28.9553 9.13707 28.9511 9.13247 28.9458C9.12786 28.9405 9.12453 28.9343 9.1227 28.9276C9.12087 28.9209 9.1206 28.9138 9.1219 28.907L11.0147 19.0836C11.0165 19.0733 11.0221 19.0639 11.0305 19.0572C11.0388 19.0505 11.0494 19.0468 11.0603 19.0469L15.5575 19.0498C15.5695 19.0499 15.5811 19.0539 15.5902 19.0613C15.5994 19.0686 15.6056 19.0788 15.6078 19.09L17.4877 28.915C17.4888 28.9208 17.4886 28.9269 17.487 28.9327C17.4854 28.9385 17.4825 28.9439 17.4785 28.9485C17.4745 28.9531 17.4695 28.9567 17.4638 28.9593C17.4581 28.9618 17.4519 28.9631 17.4457 28.9631H14.7848C14.7709 28.9631 14.7576 28.9583 14.7471 28.9497C14.7366 28.941 14.7297 28.9291 14.7278 28.916C14.2831 26.0181 13.8411 23.1292 13.402 20.2492C13.3798 20.1044 13.3662 19.9897 13.361 19.9051C13.36 19.8869 13.352 19.883 13.3372 19.8932ZM22.1822 20.0881C22.1822 20.0375 22.1857 20.0033 22.1926 19.9854C22.2109 19.9369 22.2249 19.9378 22.2346 19.9884L23.962 28.9224C23.9643 28.9338 23.9707 28.9441 23.98 28.9515C23.9894 28.959 24.0012 28.963 24.0133 28.9631H26.5136C26.5316 28.963 26.5491 28.957 26.563 28.9459C26.5769 28.9349 26.5864 28.9196 26.5898 28.9026C27.1678 25.9188 27.7444 22.9267 28.3193 19.9264C28.3204 19.9198 28.3207 19.9119 28.3203 19.9026C28.319 19.8835 28.3233 19.8759 28.3333 19.8798C28.3374 19.8814 28.3409 19.8849 28.3434 19.8898C28.3459 19.8946 28.3473 19.9007 28.3473 19.9071L28.4126 28.91C28.4126 28.917 28.414 28.9239 28.4168 28.9303C28.4196 28.9367 28.4237 28.9426 28.4289 28.9475C28.434 28.9524 28.4401 28.9564 28.4468 28.959C28.4536 28.9617 28.4608 28.9631 28.4681 28.9631H30.9652C30.9699 28.9631 30.9745 28.9622 30.9788 28.9604C30.9831 28.9587 30.987 28.9562 30.9903 28.953C30.9936 28.9498 30.9962 28.9461 30.9979 28.9419C30.9996 28.9378 31.0005 28.9333 31.0004 28.9288L30.7703 19.0796C30.7702 19.0709 30.7665 19.0626 30.76 19.0564C30.7535 19.0503 30.7447 19.0469 30.7356 19.0469L26.6172 19.0498C26.6056 19.0498 26.5944 19.0538 26.5856 19.0611C26.5768 19.0684 26.5709 19.0784 26.569 19.0895C26.1375 21.6191 25.7163 24.1309 25.3054 26.6248C25.3041 26.6341 25.3028 26.6475 25.3018 26.665C25.2994 26.706 25.2876 26.7159 25.2666 26.6947C25.2583 26.6861 25.2529 26.6747 25.2505 26.6605C24.8324 24.1375 24.4098 21.6132 23.9828 19.0875C23.9809 19.0762 23.9749 19.0659 23.9657 19.0584C23.9566 19.0509 23.945 19.0469 23.933 19.0469H19.8203C19.8103 19.0469 19.8007 19.0506 19.7936 19.0573C19.7864 19.0639 19.7823 19.073 19.782 19.0826L19.5586 28.9179C19.5585 28.9238 19.5596 28.9297 19.5618 28.9351C19.5641 28.9406 19.5674 28.9456 19.5717 28.9498C19.576 28.954 19.5812 28.9573 19.5868 28.9596C19.5925 28.9619 19.5986 28.9631 19.6047 28.9631H22.0822C22.0943 28.9631 22.1059 28.9585 22.1144 28.9504C22.123 28.9423 22.1278 28.9314 22.1278 28.9199C22.1544 25.9821 22.1725 23.0381 22.1822 20.0881ZM44.161 28.5104C43.6454 28.088 43.3586 27.5447 43.3006 26.8807C43.2747 26.5858 43.2617 26.3338 43.2617 26.1246V19.0811C43.2617 19.0766 43.2626 19.0721 43.2644 19.068C43.2662 19.0638 43.2689 19.0601 43.2722 19.0569C43.2755 19.0537 43.2795 19.0512 43.2838 19.0495C43.2881 19.0478 43.2928 19.0469 43.2975 19.0469H45.8221C45.8338 19.0469 45.845 19.0513 45.8532 19.0592C45.8615 19.0671 45.8661 19.0778 45.8661 19.089C45.8661 21.5234 45.8651 23.9637 45.863 26.4096C45.8627 26.5065 45.8717 26.6025 45.89 26.6977C45.9511 27.021 46.112 27.2433 46.3725 27.3646C46.6019 27.4713 46.8568 27.4989 47.137 27.4474C47.5281 27.375 47.774 27.12 47.8745 26.6823C47.8894 26.6172 47.8966 26.4602 47.8963 26.2113C47.8904 23.8314 47.8875 21.4573 47.8875 19.089C47.8875 19.0778 47.8921 19.0671 47.9004 19.0592C47.9086 19.0513 47.9198 19.0469 47.9315 19.0469H50.4561C50.4656 19.0469 50.4747 19.0505 50.4814 19.0569C50.4881 19.0633 50.4919 19.072 50.4919 19.0811C50.4919 21.5208 50.4921 23.9513 50.4924 26.3725C50.4928 26.7526 50.4326 27.1233 50.3121 27.4846C50.1272 28.0395 49.7801 28.4611 49.2708 28.7494C48.9042 28.9566 48.4954 29.0964 48.0445 29.1688C47.0753 29.3245 46.1376 29.289 45.2312 29.0622C44.8494 28.9667 44.4927 28.7828 44.161 28.5104ZM59.577 26.9545L59.5718 26.955C59.5696 26.9552 59.5672 26.9542 59.565 26.9521C59.5629 26.95 59.561 26.947 59.5599 26.9436L57.1731 19.0846C57.1701 19.0746 57.1638 19.0658 57.1551 19.0595C57.1464 19.0533 57.1358 19.0499 57.1249 19.0498L53.3849 19.0469C53.3794 19.0469 53.374 19.0479 53.3689 19.0499C53.3638 19.052 53.3591 19.0549 53.3553 19.0586C53.3514 19.0624 53.3483 19.0668 53.3462 19.0717C53.344 19.0765 53.343 19.0818 53.343 19.087L53.3398 28.8173C53.3398 28.8218 53.3408 28.8262 53.3426 28.8304C53.3444 28.8345 53.347 28.8383 53.3503 28.8415C53.3524 28.8435 53.3547 28.8452 53.3572 28.8466C53.3587 28.8475 53.3603 28.8483 53.3619 28.8489C53.3649 28.8501 53.3681 28.8509 53.3713 28.8512C53.3727 28.8514 53.3741 28.8515 53.3756 28.8515H55.8261C55.8316 28.8515 55.837 28.8505 55.8421 28.8484C55.8471 28.8464 55.8517 28.8434 55.8556 28.8397C55.8595 28.836 55.8625 28.8315 55.8646 28.8267C55.8666 28.8218 55.8676 28.8166 55.8676 28.8113C55.8199 26.1284 55.7722 23.4607 55.7245 20.8085C55.7245 20.8058 55.7235 20.7882 55.7214 20.7554C55.7183 20.7095 55.7287 20.6936 55.7525 20.7078C55.7584 20.7112 55.7634 20.7166 55.767 20.7236C55.7706 20.7307 55.7728 20.739 55.7732 20.748C55.7763 20.7976 55.7855 20.8463 55.8007 20.8943C56.6386 23.5323 57.4744 26.1736 58.3082 28.8183C58.3112 28.8279 58.3174 28.8363 58.3258 28.8423C58.3342 28.8483 58.3444 28.8515 58.3548 28.8515H61.9518C61.9607 28.8515 61.9693 28.8481 61.9756 28.8419C61.9819 28.8358 61.9855 28.8275 61.9855 28.8188L61.9824 19.0806C61.9824 19.0762 61.9815 19.0718 61.9797 19.0677C61.9779 19.0636 61.9753 19.0599 61.9721 19.0567C61.9688 19.0536 61.9649 19.0511 61.9606 19.0494C61.9563 19.0477 61.9518 19.0469 61.9471 19.0469H59.4884C59.4823 19.0469 59.4762 19.048 59.4706 19.0503C59.465 19.0525 59.4598 19.0558 59.4556 19.06C59.4513 19.0641 59.4479 19.069 59.4456 19.0745C59.4433 19.0799 59.4422 19.0857 59.4422 19.0915L59.5822 26.9471C59.5821 26.949 59.5816 26.9507 59.5807 26.9521C59.5797 26.9534 59.5784 26.9543 59.577 26.9545Z" fill="white"/>
</svg>
