<svg width="72" height="48" viewBox="0 0 72 48" fill="none" xmlns="http://www.w3.org/2000/svg">
<g clip-path="url(#clip0_869_44286)">
<path fill-rule="evenodd" clip-rule="evenodd" d="M36.5004 33.2763C41.9041 33.2763 46.2782 28.9021 46.2782 23.4985H36.5004V13.7207C31.0968 13.7207 26.7227 18.0948 26.7227 23.4985H36.5004V33.2763Z" fill="#111111"/>
<path d="M36.5 13.7222V14.2583C41.5954 14.2583 45.7417 18.4037 45.7417 23.5H46.2778C46.2778 18.1002 41.8998 13.7222 36.5 13.7222ZM36.5 32.7417C31.4046 32.7417 27.2583 28.5963 27.2583 23.5H26.7222C26.7222 28.8998 31.1002 33.2778 36.5 33.2778M36.5 7C27.3876 7 20 14.3876 20 23.5C20 32.6124 27.3876 40 36.5 40C45.6124 40 53 32.6124 53 23.5C53 14.3876 45.6124 7 36.5 7ZM51.927 23.5C51.927 32.0197 45.0207 38.927 36.5 38.927C27.9793 38.927 21.073 32.0197 21.073 23.5C21.073 14.9803 27.9803 8.07297 36.5 8.07297C45.0197 8.07297 51.927 14.9803 51.927 23.5Z" fill="#111111"/>
<path d="M29.4452 15.5421C29.9725 14.9905 30.271 14.3533 29.7437 13.745C29.4568 13.4148 28.9751 13.3427 28.5758 13.5053L28.5361 13.5207L28.5487 13.4861C28.6078 13.3292 28.6456 12.8286 28.2162 12.4831C28.0069 12.3146 27.7442 12.2521 27.4786 12.279C26.9834 12.3291 26.6024 12.665 25.5654 13.8133C25.2523 14.1599 24.7968 14.7066 24.5234 15.0608L27.372 17.7444C28.3161 16.7068 28.7008 16.3208 29.4452 15.5421ZM25.7282 14.8856C26.302 14.1887 26.9116 13.5563 27.1879 13.3061C27.2751 13.2271 27.3701 13.1482 27.4854 13.1174C27.6725 13.0664 27.8654 13.1983 27.909 13.3889C27.9526 13.5804 27.8314 13.7623 27.6967 13.9125C27.3933 14.2523 26.2807 15.4083 26.2807 15.4083L25.7282 14.8856ZM26.8438 15.9367C26.8438 15.9367 27.9274 14.799 28.2812 14.4352C28.4217 14.2908 28.5118 14.2032 28.6088 14.156C28.7338 14.0954 28.8705 14.0829 28.9926 14.1637C29.1128 14.2436 29.168 14.3812 29.138 14.5179C29.1021 14.6806 28.9684 14.8356 28.8579 14.954C28.7086 15.1128 27.4234 16.4787 27.4215 16.4806L26.8438 15.9367ZM36.8221 12.3416L37.7341 10.3125L37.7923 10.1325L37.7758 10.3202L37.8718 13.0317C38.1916 13.0616 38.5221 13.1059 38.8478 13.1598L38.6995 9.14398C38.2439 9.09393 37.7903 9.05831 37.3367 9.03906L36.4382 11.2539L36.4063 11.4185L36.3743 11.2539L35.4768 9.03906C35.0232 9.05831 34.5696 9.09393 34.114 9.14398L33.9657 13.1598C34.2914 13.1059 34.6219 13.0625 34.9417 13.0317L35.0377 10.3202L35.0212 10.1325L35.0794 10.3125L35.9914 12.3416H36.8221ZM44.3966 16.5393C44.6205 16.778 44.9433 17.163 45.1245 17.3969L48.4626 15.2928C48.2959 15.0762 48.0303 14.747 47.8316 14.515L45.7177 15.903L45.5733 16.0263L45.6809 15.8703L46.6143 14.0203L45.9542 13.3648L44.0904 14.2917L43.9333 14.3986L44.0584 14.2552L45.457 12.1568C45.2108 11.9489 44.9743 11.7583 44.6729 11.5273L42.5541 14.8394C42.8226 15.0444 43.1764 15.3457 43.4022 15.5508L45.3969 14.5227L45.5248 14.4294L45.4308 14.5564L44.3966 16.5393Z" fill="#111111"/>
</g>
<defs>
<clipPath id="clip0_869_44286">
<rect width="33" height="33" fill="white" transform="translate(20 7)"/>
</clipPath>
</defs>
</svg>
