<svg width="140" height="67" viewBox="0 0 140 67" fill="none" xmlns="http://www.w3.org/2000/svg">
<path fill-rule="evenodd" clip-rule="evenodd" d="M77.6572 33.499C77.6572 33.539 77.657 33.5791 77.6567 33.6191H75.507C75.7586 32.4926 76.4053 31.9327 77.443 31.9327V31.9316C77.4854 31.9293 77.5278 31.9284 77.5701 31.9291C77.5329 31.4684 77.353 30.381 77.353 30.381C78.3459 30.3378 79.3216 30.6417 80.1012 31.237C81.6901 32.7841 81.2285 35.0331 81.2285 35.0331H77.5866C77.5271 35.6785 77.4304 36.3188 77.2972 36.9511C78.6097 37.1651 80.1101 35.9155 80.1101 35.9155L81.2588 37.1297C80.8248 37.5464 80.3349 37.905 79.8022 38.196C78.8779 38.6049 77.8556 38.762 76.8456 38.6503C76.3365 40.229 75.5935 41.7377 74.6319 43.1273C72.6597 45.9772 69.8568 48.1984 66.5776 49.5098C63.2984 50.8213 59.6901 51.1643 56.209 50.4953C52.728 49.8263 49.5305 48.1755 47.021 45.7515C44.5114 43.3276 42.8025 40.2394 42.1103 36.8775C41.418 33.5155 41.7736 30.0309 43.132 26.8641C44.4904 23.6973 46.7907 20.9907 49.7419 19.0865C52.6931 17.1822 56.1627 16.1659 59.712 16.166C64.4716 16.1666 69.036 17.993 72.4013 21.2435C74.9938 23.7476 76.7111 26.9387 77.3631 30.3738C76.8607 30.3694 76.3619 30.4619 75.8962 30.6464C75.3859 30.8484 74.9277 31.1558 74.5536 31.5471C73.8053 32.3793 73.414 33.4558 73.4595 34.557C73.432 35.1024 73.519 35.6474 73.7152 36.1594C73.9113 36.6714 74.2127 37.1399 74.601 37.5366C75.0088 37.9144 75.4922 38.2077 76.0217 38.3984C76.2912 38.4954 76.5697 38.5649 76.8527 38.606L77.2904 36.9584C77.1537 36.9396 77.0189 36.9081 76.8879 36.8641C76.6193 36.7739 76.3719 36.633 76.1603 36.4496C75.7698 36.0647 75.5233 35.5651 75.4596 35.0298H77.5763L77.6444 33.6195H79.2582C79.2582 33.6195 79.2104 31.947 77.5843 31.9378C77.6327 32.4548 77.6572 32.9757 77.6572 33.499ZM60.8197 38.4047L60.0644 36.2468H55.1993L54.428 38.4047H52.2102L56.2085 27.6107H59.1033L63.1027 38.4047H60.8197ZM55.8294 34.4843H59.4355L58.9959 33.2363C58.2582 31.1789 57.8011 29.8516 57.6247 29.2546C57.4044 29.975 56.9474 31.312 56.2536 33.2655L55.8294 34.4843ZM66.2046 27.6107V29.4654H64.1576V27.6107H66.2046ZM66.2046 30.6366V38.4047H64.1576V30.6366H66.2046ZM71.9175 30.5455C72.351 30.5686 72.7795 30.6456 73.1925 30.7747L72.8312 32.4937C72.4974 32.4026 72.1533 32.3514 71.8066 32.3413C71.5575 32.3317 71.3098 32.3808 71.0849 32.4844C70.8599 32.588 70.6645 32.7431 70.5155 32.9361C70.1745 33.4178 70.0086 33.9951 70.0438 34.5777V38.407H67.9969V30.6389H69.902V31.7798C70.0688 31.401 70.3509 31.0801 70.7108 30.8596C71.0708 30.6392 71.4916 30.5297 71.9175 30.5455ZM87.7377 36.7475C87.3753 36.909 86.9791 36.9875 86.5802 36.9767C86.296 36.9938 86.0112 36.9563 85.7421 36.8665C85.473 36.7766 85.2251 36.636 85.0126 36.453C84.6219 36.0683 84.3757 35.5685 84.3131 35.0331H90.0914C90.1115 34.8096 90.124 34.5501 90.124 34.2561C90.1862 33.2202 89.8367 32.2004 89.1468 31.4049C88.7851 31.0513 88.3489 30.7768 87.8678 30.6002C87.3867 30.4235 86.8719 30.3488 86.3583 30.381C85.8081 30.356 85.259 30.4475 84.7494 30.6493C84.2397 30.851 83.782 31.158 83.4083 31.5487C82.6607 32.3811 82.27 33.4576 82.3161 34.5587C82.2882 35.1038 82.3748 35.6488 82.5705 36.1608C82.7663 36.6728 83.0672 37.1414 83.4552 37.5382C83.8632 37.9162 84.347 38.2095 84.8767 38.4002C85.4065 38.5909 85.971 38.6748 86.5357 38.647C87.1785 38.6535 87.8164 38.5376 88.4129 38.306C89.0588 38.0273 89.6403 37.6265 90.1234 37.1274L88.9718 35.9103C88.594 36.233 88.1801 36.5138 87.7377 36.7475ZM84.3594 33.6207C84.6122 32.4942 85.2571 31.9344 86.2966 31.9344L86.2989 31.9332C86.534 31.9208 86.7693 31.9541 86.9909 32.0311C87.2124 32.108 87.4157 32.2271 87.5888 32.3813C87.9188 32.7168 88.1089 33.1581 88.1228 33.6207H84.3594ZM97.0251 30.541C96.6596 30.4129 96.2708 30.3584 95.8826 30.381C95.4113 30.3549 94.9409 30.446 94.5163 30.6455C94.0918 30.845 93.7274 31.1463 93.4578 31.5207V30.6383H91.5539V38.4063H93.6008V33.7255C93.5914 33.5082 93.6269 33.2913 93.7052 33.0873C93.7836 32.8834 93.9032 32.6966 94.057 32.5377C94.2078 32.3877 94.3895 32.2699 94.5902 32.1917C94.791 32.1136 95.0065 32.0769 95.2229 32.0839C95.4273 32.0717 95.6321 32.1019 95.8235 32.1724C96.0149 32.243 96.1884 32.3523 96.3324 32.493C96.6105 32.828 96.7477 33.2519 96.7168 33.6803V38.408H98.7637V33.0878C98.7804 32.7285 98.7221 32.3697 98.5922 32.0327C98.4624 31.6956 98.2636 31.3872 98.0079 31.1259C97.725 30.8682 97.3906 30.6691 97.0251 30.541Z" fill="white"/>
</svg>
