<svg width="72" height="48" viewBox="0 0 72 48" fill="none" xmlns="http://www.w3.org/2000/svg">
<g clip-path="url(#clip0_869_44675)">
<path fill-rule="evenodd" clip-rule="evenodd" d="M12.0703 28.7361C13.0963 27.351 13.7038 25.6371 13.7038 23.7839C13.7038 22.0222 13.1549 20.3865 12.2194 19.0394C12.4797 18.9968 12.7469 18.9746 13.0192 18.9746C15.7356 18.9746 17.9376 21.1803 17.9376 23.9012C17.9376 26.622 15.7356 28.8277 13.0192 28.8277C12.6946 28.8277 12.3774 28.7962 12.0703 28.7361Z" fill="white"/>
<path fill-rule="evenodd" clip-rule="evenodd" d="M26.9027 27.2076C24.8123 27.2076 23.0703 25.6954 23.0703 23.3054C23.0703 20.9154 24.8756 19.3926 26.8816 19.3926C28.9508 19.3926 30.0171 20.6616 30.3127 21.8777L28.9403 22.3113C28.7608 21.5922 28.1801 20.7991 26.8816 20.7991C25.7625 20.7991 24.58 21.6028 24.58 23.3054C24.58 24.9022 25.6991 25.78 26.9027 25.78C28.1801 25.78 28.803 24.9445 29.0036 24.2466L30.3655 24.659C30.0805 25.8117 29.0036 27.2076 26.9027 27.2076ZM32.8782 23.9928V27.049H31.4741V19.3926H32.8782V22.2796C33.216 21.8777 33.7861 21.7085 34.2823 21.7085C35.602 21.7085 36.2143 22.6286 36.2143 23.7707V27.049H34.8102V24.0139C34.8102 23.4323 34.5252 22.9776 33.8495 22.9776C33.2583 22.9776 32.9099 23.4217 32.8782 23.9928ZM37.3229 25.6319C37.3229 24.7013 38.0091 24.1831 38.8748 24.0562L40.1523 23.8659C40.4479 23.8236 40.5429 23.6755 40.5429 23.4957C40.5429 23.1256 40.2579 22.8189 39.6666 22.8189C39.0543 22.8189 38.7165 23.2102 38.6742 23.6649L37.4285 23.4006C37.5129 22.5863 38.2625 21.6874 39.6561 21.6874C41.303 21.6874 41.9154 22.618 41.9154 23.6649V26.2241C41.9154 26.4991 41.9471 26.8692 41.9787 27.049H40.6907C40.659 26.9115 40.6379 26.626 40.6379 26.4251C40.374 26.8375 39.8778 27.197 39.1071 27.197C37.9986 27.197 37.3229 26.4462 37.3229 25.6319ZM39.4027 26.1501C39.9939 26.1501 40.5429 25.8646 40.5429 24.9445V24.7119L39.371 24.8917C39.0121 24.9445 38.727 25.1455 38.727 25.5473C38.727 25.854 38.9487 26.1501 39.4027 26.1501ZM44.7342 24.0562V27.049H43.3301V21.846H44.692V22.4911C45.0087 21.9518 45.6316 21.7085 46.1911 21.7085C47.4792 21.7085 48.0704 22.6286 48.0704 23.7707V27.049H46.6662V24.0139C46.6662 23.4323 46.3812 22.9776 45.7055 22.9776C45.0932 22.9776 44.7342 23.4534 44.7342 24.0562ZM50.8998 24.0562V27.049H49.4956V21.846H50.8575V22.4911C51.1743 21.9518 51.7972 21.7085 52.3567 21.7085C53.6447 21.7085 54.2359 22.6286 54.2359 23.7707V27.049H52.8318V24.0139C52.8318 23.4323 52.5467 22.9776 51.8711 22.9776C51.2587 22.9776 50.8998 23.4534 50.8998 24.0562ZM56.6853 23.8553H59.0079C58.9868 23.3371 58.649 22.8295 57.8466 22.8295C57.1181 22.8295 56.7169 23.3794 56.6853 23.8553ZM59.1452 25.2089L60.317 25.5579C60.0531 26.4568 59.2296 27.2076 57.9522 27.2076C56.5269 27.2076 55.2706 26.1818 55.2706 24.4264C55.2706 22.7661 56.4952 21.6874 57.8255 21.6874C59.4302 21.6874 60.3909 22.7132 60.3909 24.3841C60.3909 24.585 60.3698 24.7965 60.3698 24.8176H56.6536C56.6853 25.505 57.2659 26.0021 57.9627 26.0021C58.6173 26.0021 58.9762 25.6742 59.1452 25.2089ZM62.9036 27.049H61.4995V19.3926H62.9036V27.049ZM66.7782 23.3583H68.7736V21.2961H69.956V23.3583H71.9619V24.511H69.956V26.5837H68.7736V24.511H66.7782V23.3583Z" fill="white"/>
<path fill-rule="evenodd" clip-rule="evenodd" d="M5.39071 18.5059C8.30118 18.5059 10.6603 20.8692 10.6603 23.7843C10.6603 26.6994 8.30118 29.0628 5.39071 29.0628C2.48024 29.0628 0.121094 26.6994 0.121094 23.7843C0.121094 20.8692 2.48024 18.5059 5.39071 18.5059Z" fill="white"/>
<path fill-rule="evenodd" clip-rule="evenodd" d="M5.39071 18.5059C8.30118 18.5059 10.6603 20.8692 10.6603 23.7843C10.6603 26.6994 8.30118 29.0628 5.39071 29.0628C2.48024 29.0628 0.121094 26.6994 0.121094 23.7843C0.121094 20.8692 2.48024 18.5059 5.39071 18.5059Z" fill="white"/>
</g>
<defs>
<clipPath id="clip0_869_44675">
<rect width="72" height="10.9831" fill="white" transform="translate(0 18.5078)"/>
</clipPath>
</defs>
</svg>
