<svg width="140" height="67" viewBox="0 0 140 67" fill="none" xmlns="http://www.w3.org/2000/svg">
<path fill-rule="evenodd" clip-rule="evenodd" d="M123.348 28.9648L129.456 24.9668V27.3159L125.801 29.6475L129.456 31.9912V34.3403L123.348 30.3572V28.9648ZM120.022 29.6475L116.365 27.3159V24.9668L122.475 28.9648V30.3572L116.365 34.3403V31.9912L120.022 29.6475ZM107.795 39.43H105.868V42.3903H107.795V39.43ZM101.176 33.9599C101.176 33.9599 105.06 36.7624 106.901 36.7624C108.738 36.7624 112.509 33.9384 112.509 33.9384V36.0298C112.509 36.0298 109.167 38.6015 106.901 38.6015C104.649 38.6015 101.176 36.0203 101.176 36.0203V33.9599ZM60.7349 42.3903L52.5767 39.0158V37.6827L60.7349 34.3431V36.2753L55.2313 38.36L60.7349 40.4568V42.3903ZM67.6596 34.3431H69.8334L75.127 42.389H72.8728L68.7423 36.2403L64.6117 42.389H62.3575L67.6596 34.3431ZM94.3912 34.3431H96.565L101.86 42.3917H99.6059L95.4739 36.2403L91.3419 42.3917H89.0877L94.3912 34.3431ZM84.7697 40.2045L88.287 34.3431H90.513L85.5972 42.3903H83.9154L82.1067 39.4205L80.2923 42.3903H78.6091L73.7116 34.3431H76.025L79.4634 40.2045L81.0127 37.6246L79.0165 34.3431H81.3299L82.1461 35.7356L82.9821 34.3431H85.2081L83.2302 37.5815L84.7697 40.2045ZM34.5475 42.3903H24.0406V34.3431H34.5475V42.3903ZM32.6218 40.5459L32.6246 36.1863L25.9692 36.1782V40.5459H32.6218ZM47.2747 42.3849H37.4713V34.3391H47.2747V36.1809H39.3998V40.5418H47.2747V42.3849ZM49.784 42.3903V34.3431H51.7097L51.7125 42.3903H49.784ZM19.5562 42.3876C17.9632 41.0775 17.8688 39.3963 17.8688 39.3963H12.4779V42.3903H10.5508V34.3431H21.0379V39.3963H19.8452C20.2371 41.2718 22.2023 42.3876 22.2023 42.3876H19.5562ZM19.1319 36.1849L12.4779 36.1863V37.7555H19.1319V36.1849Z" fill="white"/>
</svg>
