<svg width="72" height="48" viewBox="0 0 72 48" fill="none" xmlns="http://www.w3.org/2000/svg">
<g clip-path="url(#clip0_869_44413)">
<path d="M9.37344 16.1768C9.32365 16.1693 9.27635 16.1344 9.1917 16.0971C9.33112 16.0573 9.42822 16.0274 9.52282 16H6.65975C6.79668 16.0349 6.93361 16.0672 7.06805 16.1021C5.24564 16.3012 3.71701 17.0954 2.44481 18.3826C1.17759 19.6672 0.318672 21.171 0.144398 23.0506C0.0846473 22.966 0.0423236 22.9062 0 22.8465V25.3983C0.0298755 25.3461 0.059751 25.2963 0.126971 25.1768C0.328631 26.9768 1.09544 28.4531 2.29793 29.6979C3.5029 30.9452 4.93444 31.8066 6.75685 32.0382C6.62241 32.1054 6.54772 32.1452 6.47303 32.1826H9.46058C9.5751 32.1253 9.68216 32.0456 9.80166 32.0108C9.99834 31.9535 10.21 31.9436 10.4066 31.8838C15.1344 30.4199 17.6116 25.1693 15.3958 20.6332C14.1734 18.1261 12.1793 16.5826 9.37344 16.1768ZM8.17593 31.8365C3.97095 31.8614 0.420747 28.5801 0.40083 24.1361C0.383402 19.8564 3.81162 16.4008 8.14606 16.4133C12.2041 16.3859 15.7967 19.6946 15.834 24.0763C15.8714 28.3137 12.4506 31.8116 8.17344 31.8365H8.17593Z" fill="#111111"/>
<path d="M40.0618 23.2004H37.1191V20.4966H36.3672V26.6933H37.1215V23.9846H40.0767V26.6809H40.8137V20.4941H40.0643V23.1979L40.0618 23.2004Z" fill="#111111"/>
<path d="M71.865 26.4122C71.2576 25.3516 70.6501 24.291 70.0327 23.2379C69.9032 23.0188 69.9057 22.8595 70.0775 22.6603C70.6153 22.0304 71.1381 21.3831 71.6634 20.7433C71.7182 20.6761 71.758 20.6014 71.8053 20.5292C71.4592 20.5665 71.1082 20.3325 70.8269 20.691C70.0526 21.6794 69.2584 22.6479 68.4692 23.6238C68.4219 23.6811 68.3572 23.7259 68.2476 23.8255V20.5068H67.4883V26.6935H68.2402C68.2402 26.3051 68.2601 25.9217 68.2352 25.5433C68.2053 25.0927 68.3148 24.7192 68.6435 24.3931C68.8974 24.1416 69.1041 23.8454 69.353 23.5466C69.4177 23.6387 69.4476 23.6786 69.4725 23.7209C70.0003 24.6346 70.5256 25.5533 71.0609 26.462C71.1206 26.5641 71.2377 26.6761 71.3472 26.6985C71.5414 26.7358 71.7505 26.7085 72.0045 26.7085C71.9447 26.5765 71.9148 26.4919 71.87 26.4147L71.865 26.4122Z" fill="#111111"/>
<path d="M55.0145 20.8224C54.9274 20.5734 54.7979 20.4739 54.5191 20.4689C54.2402 20.4639 54.168 20.6108 54.0958 20.8174C53.4187 22.717 52.739 24.6166 52.0618 26.5187C52.0444 26.5709 52.0519 26.6307 52.0469 26.7054C52.1813 26.7054 52.2983 26.6929 52.4079 26.7079C52.6643 26.7452 52.7987 26.6531 52.866 26.3917C52.9506 26.0631 53.0651 25.7369 53.1971 25.4232C53.2369 25.3311 53.3763 25.2241 53.4709 25.2216C54.1855 25.2041 54.9025 25.2166 55.617 25.2091C55.7763 25.2091 55.856 25.2564 55.9033 25.4183C56.0079 25.7768 56.1199 26.1328 56.2618 26.4763C56.3041 26.5784 56.4485 26.668 56.5655 26.6979C56.7099 26.7353 56.8718 26.7079 57.0585 26.7079C57.0361 26.6133 57.0311 26.5734 57.0162 26.5336C56.3465 24.6315 55.6743 22.7295 55.0095 20.8249L55.0145 20.8224ZM53.5456 24.5195C53.8792 23.5336 54.2004 22.5826 54.5465 21.5618C54.8925 22.5826 55.2162 23.5336 55.5498 24.5195H53.5456Z" fill="#111111"/>
<path d="M61.5639 25.9404H58.5988C58.6536 25.8433 58.6834 25.791 58.7158 25.7387C59.637 24.3122 60.5556 22.8806 61.4843 21.459C61.6834 21.1553 61.6934 20.8466 61.6212 20.498H57.8693V21.235H60.7772C60.6602 21.4341 60.5805 21.5835 60.4884 21.7279C59.6345 23.0624 58.7731 24.3943 57.9316 25.7362C57.8121 25.9279 57.7473 26.1694 57.7125 26.396C57.6801 26.6076 57.7921 26.7171 58.0436 26.7122C59.0494 26.6947 60.0552 26.7047 61.061 26.7047C61.7208 26.7047 61.7357 26.6873 61.6311 26.025C61.6287 26.0076 61.6063 25.9927 61.5664 25.9404H61.5639Z" fill="#111111"/>
<path d="M34.6027 25.2417C34.3413 25.5678 34.0774 25.8815 33.6268 25.9562C32.7056 26.1056 32.011 25.5927 31.9413 24.6342C31.8915 23.9247 31.8965 23.2052 31.9413 22.4931C31.9786 21.9255 32.2351 21.4549 32.845 21.2881C33.4375 21.1263 33.9728 21.191 34.3936 21.6964C34.5031 21.8284 34.6226 21.9529 34.7321 22.0749C34.9263 21.9579 35.0907 21.8608 35.2375 21.7711C35.2375 21.7188 35.245 21.694 35.2375 21.679C34.8218 20.8126 33.9728 20.4466 33.1487 20.5014C32.123 20.5711 31.4384 21.196 31.2492 22.1321C31.0724 23.0159 31.0699 23.9047 31.2043 24.791C31.3736 25.9089 31.9761 26.5114 33.0417 26.6782C33.9479 26.8201 34.9637 26.2549 35.2749 25.4209C35.0931 25.3213 34.9064 25.2193 34.7172 25.1147C34.6699 25.167 34.635 25.2043 34.6027 25.2417Z" fill="#111111"/>
<path d="M28.4064 20.4728C27.1417 20.4953 25.8769 20.4803 24.6097 20.4828C24.54 20.4828 24.4703 20.4953 24.3906 20.5002V21.2372H26.1533V26.6944H26.9051V21.2272C27.428 21.2272 27.9134 21.2172 28.3964 21.2322C28.6429 21.2396 28.7674 21.1799 28.745 20.9085C28.7251 20.682 28.7798 20.4654 28.4039 20.4728H28.4064Z" fill="#111111"/>
<path d="M44.8798 20.9692C44.8151 21.0987 44.7578 21.2306 44.6931 21.3601C44.3844 21.975 44.0756 22.59 43.7395 23.2597C43.6425 23.1178 43.5703 23.0331 43.5205 22.936C43.1719 22.2663 42.8333 21.5916 42.4848 20.9219C42.2283 20.429 42.1387 20.3941 41.5312 20.5286C41.5636 20.6057 41.5935 20.6804 41.6283 20.7501C42.0815 21.634 42.5321 22.5178 42.9927 23.3966C43.2167 23.8248 43.3586 24.258 43.3312 24.7559C43.2964 25.3933 43.3238 26.0356 43.3238 26.6854H44.0707C44.0707 25.8912 44.0657 25.1169 44.0756 24.3427C44.0756 24.1833 44.118 24.014 44.1877 23.8721C44.6931 22.8638 45.2109 21.863 45.7213 20.8572C45.7761 20.7501 45.8134 20.6356 45.8607 20.5161C45.2059 20.4091 45.1512 20.434 44.8848 20.9667L44.8798 20.9692Z" fill="#111111"/>
<path d="M65.7924 20.9713C65.5161 21.5265 65.2422 22.0842 64.9659 22.6393C64.8713 22.8286 64.7717 23.0178 64.6497 23.2568C64.5526 23.1149 64.4829 23.0302 64.4331 22.9331C64.0846 22.2634 63.746 21.5887 63.3974 20.919C63.1435 20.431 63.0464 20.3937 62.4414 20.5281C62.4688 20.5954 62.4937 20.6601 62.5261 20.7223C62.9941 21.6335 63.4547 22.5472 63.9352 23.451C64.1493 23.8543 64.2663 24.2626 64.2439 24.7256C64.2165 25.3057 64.2364 25.8858 64.2389 26.4659C64.2389 26.5431 64.2538 26.6227 64.2613 26.6875H64.9858C64.9858 25.8958 64.9808 25.119 64.9908 24.3447C64.9908 24.1854 65.0331 24.0161 65.1028 23.8742C65.6082 22.8659 66.1261 21.8651 66.6364 20.8593C66.6912 20.7522 66.7261 20.6352 66.7734 20.5182C66.1186 20.4111 66.0663 20.436 65.7999 20.9713H65.7924Z" fill="#111111"/>
<path d="M51.5359 20.4941H50.7616C50.7616 20.636 50.7616 20.768 50.7616 20.8999C50.7666 22.09 50.784 23.2825 50.7641 24.4726C50.7591 24.8037 50.7044 25.1697 50.555 25.4585C50.2463 26.051 49.5019 26.1481 48.8222 25.7124C48.633 25.5904 48.511 25.6103 48.3666 25.7473C48.2795 25.8294 48.1874 25.9091 48.043 26.0435C48.3094 26.2103 48.5185 26.3721 48.755 26.4842C49.7807 26.9721 51.2845 26.519 51.4637 25.1224C51.5011 24.8261 51.5309 24.5248 51.5334 24.2261C51.5409 23.0858 51.5359 21.9481 51.5359 20.8078V20.4941Z" fill="#111111"/>
<path d="M29.3945 26.6922H30.1364V20.498H29.3945V26.6922Z" fill="#111111"/>
<path d="M44.9693 18.798C44.2822 18.6884 43.8216 18.9747 43.4258 19.7216C44.2025 19.8287 44.464 19.1141 44.9693 18.798Z" fill="#111111"/>
<path d="M12.2996 22.1385C12.205 21.8572 12.1254 21.5709 12.0606 21.2796C12.0183 21.0879 12.0332 20.8838 11.981 20.6945C11.8839 20.3311 11.6523 20.2688 11.4009 20.5452C11.2092 20.7568 11.0573 21.0033 10.8606 21.2696C10.8009 21.18 10.7411 21.0804 10.6739 20.9883C10.1038 20.2265 9.55358 19.4497 8.95358 18.7128C8.68221 18.3767 8.4432 18.4041 8.07723 18.6356C8.00752 18.6779 7.87806 18.6979 7.81333 18.663C7.40752 18.4389 7.36022 18.4389 7.01914 18.7701C6.92951 18.8572 6.8349 18.9394 6.73781 19.0116C6.1652 19.4398 6.11291 19.6389 6.39175 20.3062C6.40669 20.3435 6.42412 20.3833 6.44154 20.4207C6.5237 20.6024 6.52121 20.7319 6.30212 20.8414C5.93366 21.0257 5.8988 21.1452 6.02827 21.5435C6.14528 21.907 6.27474 22.2655 6.40171 22.6265C6.50876 22.9302 6.61831 23.2315 6.75275 23.6049C6.58594 23.5252 6.50378 23.4804 6.41914 23.4431C5.8515 23.1941 5.28636 22.9427 4.71623 22.7012C4.4847 22.6016 4.28055 22.6613 4.08138 22.8157C3.86478 22.9825 3.61084 23.0995 3.39424 23.2688C3.25482 23.3784 3.14279 23.5302 3.04818 23.6846C2.98096 23.7941 2.971 23.941 2.91872 24.063C2.66229 24.6605 2.69964 24.8373 3.18262 25.2705C3.26727 25.3477 3.35939 25.4149 3.44403 25.4921C3.55607 25.5916 3.59092 25.7037 3.44403 25.7958C3.19258 25.9551 3.24984 26.1244 3.41167 26.3037C3.50876 26.4107 3.59341 26.5352 3.70544 26.6248C4.51955 27.2821 5.31374 27.9667 6.16271 28.5767C7.09134 29.2414 8.16934 29.6024 9.29217 29.7817C10.4623 29.9684 11.2465 28.8904 11.2042 28.0613C11.1942 27.8746 11.2092 27.6879 11.1942 27.5012C11.1793 27.3194 11.2291 27.2348 11.4283 27.18C11.9063 27.053 12.2075 26.7294 12.322 26.2414C12.4615 25.6489 12.6158 25.0564 12.7328 24.4589C12.7901 24.1601 12.8474 23.829 12.7826 23.5427C12.6731 23.0647 12.4565 22.6091 12.2971 22.141L12.2996 22.1385ZM10.6988 28.4522C10.6391 28.9875 10.1984 29.3584 9.65814 29.3858C8.69963 29.4356 7.81333 29.1169 7.04652 28.6165C5.95607 27.907 4.95275 27.063 3.91706 26.2713C3.83242 26.2066 3.78013 26.1045 3.71291 26.0174C3.73034 25.9825 3.74777 25.9477 3.7652 25.9128C3.91457 25.9601 4.08387 25.9775 4.21333 26.0597C4.64901 26.3385 5.06976 26.6423 5.50046 26.9286C5.64237 27.0232 5.79922 27.1004 5.97847 27.2024C6.11789 26.9236 5.98345 26.7916 5.8291 26.6821C5.29383 26.3087 4.75109 25.9452 4.21582 25.5717C3.94445 25.3825 3.68055 25.1809 3.42163 24.9742C3.33449 24.9045 3.25233 24.8099 3.2125 24.7103C3.17266 24.6132 3.19009 24.4962 3.18262 24.3867C3.28221 24.4041 3.39922 24.3941 3.48138 24.4414C3.79507 24.6207 4.09632 24.8248 4.40752 25.0116C4.99507 25.3626 5.58262 25.7111 6.17764 26.0472C6.27972 26.1045 6.50378 26.1394 6.53117 26.0945C6.66063 25.8954 6.47142 25.8033 6.332 25.7236C5.58262 25.2804 4.83076 24.8448 4.08138 24.4041C3.91955 24.3095 3.74279 24.2273 3.61582 24.0979C3.52619 24.0057 3.50876 23.8389 3.46146 23.707C3.58345 23.6696 3.73034 23.5726 3.82495 23.6099C4.18096 23.7443 4.53449 23.9012 4.86312 24.0904C5.60005 24.5136 6.31706 24.9667 7.05399 25.39C7.15607 25.4472 7.31042 25.4149 7.43988 25.4223C7.37515 25.3053 7.3403 25.1385 7.2432 25.0788C6.61582 24.6979 5.971 24.3443 5.33366 23.9759C5.01997 23.7941 4.70627 23.6099 4.40503 23.4107C4.32785 23.3609 4.293 23.2439 4.24071 23.1568C4.34279 23.1269 4.45731 23.0497 4.54694 23.0721C4.81582 23.1394 5.08221 23.234 5.34113 23.336C6.44652 23.7692 7.44984 24.3891 8.42827 25.0564C8.68719 25.2331 8.95358 25.4024 9.24984 25.5394C8.82412 24.8672 7.95524 24.4862 7.97017 23.4406C8.15192 23.585 8.28138 23.6721 8.39341 23.7767C8.72204 24.0879 9.00586 24.4564 9.37183 24.7103C10.2507 25.3178 10.6241 26.1717 10.7038 27.1875C10.7361 27.6082 10.7486 28.0365 10.7038 28.4547L10.6988 28.4522ZM12.1876 24.9842C12.083 25.3501 12.0009 25.7261 11.9312 26.102C11.8664 26.4555 11.6747 26.6771 11.3486 26.8091C11.1619 26.8862 11.0523 26.8365 11.0025 26.6398C10.9503 26.4282 10.8855 26.2215 10.8332 26.0124C10.659 25.3277 10.1909 24.8622 9.65814 24.4539C9.19507 24.1004 8.74445 23.7443 8.40586 23.2589C8.30627 23.117 8.18926 22.8705 7.94279 22.9974C7.70876 23.1194 7.65399 23.3634 7.67391 23.6149C7.68636 23.7792 7.70876 23.941 7.7237 24.1028C7.68885 24.1277 7.6515 24.1501 7.61665 24.175C7.47225 24.0157 7.2681 23.8788 7.19341 23.6896C6.91457 22.9999 6.67806 22.2929 6.43159 21.5908C6.40171 21.5062 6.38926 21.4041 6.39922 21.317C6.42412 21.1228 6.59341 21.058 6.73034 21.2024C6.82744 21.3045 6.88968 21.4414 6.96188 21.5659C7.13366 21.8597 7.29051 22.1634 7.47723 22.4472C7.53698 22.5394 7.66893 22.5842 7.76851 22.6514C7.80088 22.624 7.83076 22.5941 7.86312 22.5667C7.77349 22.3676 7.68387 22.1684 7.59424 21.9717C7.28802 21.3045 6.98179 20.6398 6.67806 19.9701C6.64818 19.9053 6.61333 19.8282 6.62329 19.7609C6.63573 19.6663 6.68304 19.5767 6.7154 19.4846C6.79756 19.5294 6.91706 19.5493 6.95939 19.619C7.4349 20.3709 7.89798 21.1302 8.36603 21.8871C8.43076 21.9916 8.48553 22.1136 8.57515 22.1933C8.65731 22.263 8.78179 22.2829 8.88885 22.3252C8.88138 22.2157 8.90876 22.0813 8.85648 21.9966C8.35607 21.1626 7.83822 20.3385 7.33532 19.5045C7.25067 19.3651 7.21582 19.1958 7.15607 19.034C7.49466 18.917 7.72868 18.9717 7.89549 19.2182C8.19673 19.6638 8.49797 20.107 8.78677 20.5626C9.07557 21.0182 9.34694 21.4838 9.62329 21.9443C9.64569 21.9792 9.66063 22.024 9.69051 22.0464C9.79258 22.1211 9.89963 22.1858 10.0042 22.2555C10.0042 22.1236 10.0515 21.9643 9.99424 21.8672C9.46893 20.9883 8.9237 20.1194 8.38594 19.2456C8.33366 19.1584 8.28138 19.0738 8.22412 18.9792C8.45316 18.8024 8.65233 18.8896 8.78677 19.0489C9.57847 19.995 10.3727 20.941 10.8581 22.0937C11.0025 22.4348 11.0075 22.7584 10.659 23.0373C10.3826 23.2564 10.1337 23.5377 10.1884 24.0157C10.2905 23.9211 10.3577 23.8688 10.415 23.8041C10.5793 23.6174 10.7038 23.3734 10.9054 23.2464C11.2465 23.0323 11.2988 22.7485 11.259 22.3974C11.2316 22.141 11.1868 21.8771 11.2092 21.6232C11.2241 21.4414 11.3287 21.2622 11.4108 21.0904C11.4332 21.0456 11.5303 21.0107 11.5876 21.0157C11.6249 21.0207 11.6872 21.1078 11.6822 21.1551C11.6349 21.8199 11.9411 22.385 12.205 22.9551C12.5237 23.6448 12.3768 24.307 12.1826 24.9817L12.1876 24.9842Z" fill="#111111"/>
</g>
<defs>
<clipPath id="clip0_869_44413">
<rect width="72" height="16.1826" fill="white" transform="translate(0 16)"/>
</clipPath>
</defs>
</svg>
