<svg width="72" height="48" viewBox="0 0 72 48" fill="none" xmlns="http://www.w3.org/2000/svg">
<g clip-path="url(#clip0_869_44620)">
<path fill-rule="evenodd" clip-rule="evenodd" d="M71.0843 25.5137C71.2381 25.5137 71.3882 25.5541 71.5349 25.6346C71.6809 25.7158 71.7953 25.831 71.877 25.9818C71.9587 26.132 71.9998 26.2889 71.9998 26.4522C71.9998 26.6139 71.9594 26.7692 71.8786 26.9181C71.7984 27.0677 71.6853 27.1835 71.5402 27.2656C71.3948 27.3484 71.2431 27.3897 71.0843 27.3897C70.9259 27.3897 70.7736 27.3484 70.6288 27.2656C70.4834 27.1835 70.3703 27.0677 70.2895 26.9181C70.2081 26.7692 70.168 26.6139 70.168 26.4522C70.168 26.2889 70.209 26.132 70.291 25.9818C70.3731 25.831 70.4874 25.7158 70.6341 25.6346C70.7804 25.5541 70.9308 25.5137 71.0843 25.5137ZM71.0843 25.669C70.9557 25.669 70.8305 25.703 70.7086 25.7705C70.5868 25.838 70.4914 25.9347 70.4228 26.0598C70.3541 26.1855 70.3196 26.316 70.3196 26.4522C70.3196 26.5871 70.3535 26.7166 70.4212 26.8404C70.4886 26.9646 70.5831 27.0613 70.7046 27.1304C70.8258 27.1994 70.9523 27.2344 71.0843 27.2344C71.2161 27.2344 71.3429 27.1994 71.4644 27.1304C71.5859 27.0613 71.6797 26.9646 71.7468 26.8404C71.8139 26.7166 71.8475 26.5871 71.8475 26.4522C71.8475 26.316 71.8136 26.1855 71.7453 26.0598C71.6769 25.9347 71.5815 25.838 71.4594 25.7705C71.3373 25.703 71.212 25.669 71.0843 25.669ZM70.6825 26.9703V25.9614H71.0209C71.1372 25.9614 71.2207 25.9704 71.2726 25.9888C71.3242 26.0076 71.3652 26.0404 71.3963 26.0865C71.4271 26.1333 71.4423 26.1823 71.4423 26.2345C71.4423 26.3083 71.4168 26.3726 71.3652 26.4274C71.314 26.4821 71.2456 26.5126 71.1608 26.5193C71.1956 26.5343 71.2235 26.5521 71.2444 26.5728C71.2841 26.6126 71.3326 26.6794 71.3901 26.773L71.5103 26.9703H71.3161L71.2285 26.8112C71.1598 26.6864 71.1048 26.6081 71.0626 26.5766C71.0334 26.5534 70.9908 26.5419 70.9349 26.5419H70.8416V26.9703H70.6825ZM70.8416 26.4025H71.0346C71.1266 26.4025 71.1897 26.3882 71.2232 26.3602C71.2568 26.3322 71.2739 26.295 71.2739 26.2482C71.2739 26.2186 71.2655 26.1919 71.2493 26.168C71.2332 26.1448 71.2108 26.1269 71.1822 26.1155C71.1533 26.1034 71.1002 26.098 71.0222 26.098H70.8416V26.4025Z" fill="#111111"/>
<path fill-rule="evenodd" clip-rule="evenodd" d="M18.2132 29.0255V30.9828C18.2132 31.3058 18.2303 31.5079 18.2645 31.589C18.3002 31.6702 18.3686 31.7402 18.4695 31.8007C18.5721 31.8627 18.7088 31.8929 18.8813 31.8929H19.0864V32.0648H15.8594V31.8929H16.0645C16.2431 31.8929 16.3876 31.8595 16.4964 31.7943C16.5756 31.7513 16.6362 31.6765 16.6782 31.5699C16.7123 31.4967 16.7294 31.301 16.7294 30.9828V26.8249C16.7294 26.5018 16.7123 26.2998 16.6782 26.2186C16.6455 26.1374 16.5772 26.0674 16.4762 26.007C16.3752 25.9465 16.2369 25.9163 16.0645 25.9163H15.8594V25.7428H19.0864V25.9163H18.8813C18.7026 25.9163 18.5581 25.9481 18.4493 26.0133C18.3701 26.0579 18.308 26.1311 18.2629 26.2377C18.2287 26.3125 18.2132 26.5082 18.2132 26.8249V28.615H20.393V26.8249C20.393 26.5018 20.3759 26.2998 20.3433 26.2186C20.3091 26.1374 20.2407 26.0674 20.1382 26.007C20.0341 25.9465 19.8974 25.9163 19.7234 25.9163H19.5229V25.7428H22.7468V25.9163H22.5464C22.3646 25.9163 22.2201 25.9481 22.1129 26.0133C22.0352 26.0579 21.9731 26.1311 21.9265 26.2377C21.8938 26.3125 21.8768 26.5082 21.8768 26.8249V30.9828C21.8768 31.3058 21.8938 31.5079 21.9265 31.589C21.9606 31.6702 22.029 31.7402 22.1316 31.8007C22.2356 31.8627 22.3724 31.8929 22.5464 31.8929H22.7468V32.0648H19.5229V31.8929H19.7234C19.9051 31.8929 20.0496 31.8595 20.1568 31.7943C20.2345 31.7513 20.2967 31.6765 20.3433 31.5699C20.3759 31.4967 20.393 31.301 20.393 30.9828V29.0255H18.2132ZM23.1337 25.7428H26.3187V25.9163H26.1602C25.921 25.9163 25.7563 25.9417 25.6662 25.9926C25.576 26.0436 25.5123 26.1152 25.4751 26.2043C25.4378 26.295 25.4176 26.5209 25.4176 26.8806V29.9755C25.4176 30.542 25.4595 30.9159 25.5434 31.1005C25.6273 31.2835 25.764 31.4347 25.9551 31.5572C26.1462 31.6781 26.3871 31.7386 26.6792 31.7386C27.0132 31.7386 27.2975 31.6622 27.5321 31.5079C27.7683 31.3535 27.9438 31.1419 28.0604 30.8714C28.1769 30.6009 28.2359 30.1299 28.2359 29.4584V26.8806C28.2359 26.5973 28.2064 26.3952 28.1489 26.2743C28.0914 26.1534 28.0184 26.069 27.9314 26.0229C27.7947 25.9513 27.602 25.9163 27.3519 25.9163V25.7428H29.4866V25.9163H29.3592C29.1868 25.9163 29.0423 25.9513 28.9273 26.0229C28.8123 26.0945 28.7284 26.2011 28.6772 26.3443C28.6383 26.4446 28.6181 26.6228 28.6181 26.8806V29.2817C28.6181 30.0248 28.57 30.5611 28.4752 30.8905C28.3789 31.2198 28.1458 31.5222 27.776 31.7991C27.4063 32.0759 26.8998 32.2144 26.2597 32.2144C25.7268 32.2144 25.3135 32.1412 25.0214 31.9948C24.6252 31.7959 24.344 31.5413 24.1793 31.231C24.0162 30.9191 23.9338 30.5022 23.9338 29.9755V26.8806C23.9338 26.5178 23.9152 26.2918 23.8748 26.2027C23.8359 26.1136 23.7676 26.0436 23.6697 25.9911C23.5734 25.937 23.3947 25.9131 23.1337 25.9163V25.7428ZM34.0886 29.9103L35.765 25.7428H38.2773V25.9163H38.0769C37.8951 25.9163 37.7491 25.9481 37.6403 26.0133C37.5642 26.0579 37.5036 26.1311 37.457 26.2329C37.4244 26.3077 37.4073 26.5018 37.4073 26.8153V30.9828C37.4073 31.3058 37.4244 31.5079 37.457 31.589C37.4912 31.6702 37.5595 31.7402 37.6621 31.8007C37.7662 31.8627 37.9029 31.8929 38.0769 31.8929H38.2773V32.0648H35.0535V31.8929H35.2539C35.4372 31.8929 35.5817 31.8595 35.692 31.7943C35.7666 31.7513 35.8287 31.6765 35.8738 31.5699C35.9064 31.4967 35.9235 31.301 35.9235 30.9828V26.2982L33.5573 32.0648H33.447L31.0434 26.3395V30.7918C31.0434 31.1021 31.0512 31.2946 31.0667 31.3662C31.1056 31.5206 31.1926 31.6479 31.3246 31.745C31.4567 31.8436 31.6633 31.8929 31.9461 31.8929V32.0648H29.8331V31.8929H29.8968C30.0335 31.8961 30.1609 31.8723 30.279 31.8245C30.3971 31.7768 30.4872 31.7115 30.5478 31.632C30.6084 31.5508 30.655 31.4363 30.6892 31.2915C30.6954 31.2564 30.6985 31.0989 30.6985 30.8157V26.8153C30.6985 26.4955 30.6814 26.2966 30.6488 26.217C30.6146 26.1374 30.5462 26.0674 30.4437 26.007C30.3396 25.9465 30.2013 25.9163 30.0289 25.9163H29.8331V25.7428H32.3547L34.0886 29.9103ZM38.6642 25.7428H41.8492V25.9163H41.6907C41.4515 25.9163 41.2868 25.9417 41.1967 25.9926C41.1066 26.0436 41.0429 26.1152 41.0056 26.2043C40.9683 26.295 40.9481 26.5209 40.9481 26.8806V29.9755C40.9481 30.542 40.99 30.9159 41.0739 31.1005C41.1578 31.2835 41.2946 31.4347 41.4857 31.5572C41.6768 31.6781 41.9176 31.7386 42.2097 31.7386C42.5437 31.7386 42.828 31.6622 43.0626 31.5079C43.2988 31.3535 43.4744 31.1419 43.5909 30.8714C43.7074 30.6009 43.7665 30.1299 43.7665 29.4584V26.8806C43.7665 26.5973 43.7369 26.3952 43.6794 26.2743C43.622 26.1534 43.5489 26.069 43.4619 26.0229C43.3252 25.9513 43.1326 25.9163 42.8824 25.9163V25.7428H45.0172V25.9163H44.8898C44.7173 25.9163 44.5728 25.9513 44.4578 26.0229C44.3429 26.0945 44.259 26.2011 44.2077 26.3443C44.1689 26.4446 44.1487 26.6228 44.1487 26.8806V29.2817C44.1487 30.0248 44.1005 30.5611 44.0057 30.8905C43.9094 31.2198 43.6763 31.5222 43.3066 31.7991C42.9368 32.0759 42.4303 32.2144 41.7902 32.2144C41.2573 32.2144 40.844 32.1412 40.5519 31.9948C40.1557 31.7959 39.8745 31.5413 39.7098 31.231C39.5467 30.9191 39.4643 30.5022 39.4643 29.9755V26.8806C39.4643 26.5178 39.4457 26.2918 39.4053 26.2027C39.3665 26.1136 39.2981 26.0436 39.2002 25.9911C39.1039 25.937 38.9252 25.9131 38.6642 25.9163V25.7428ZM49.5554 25.5996L49.6064 27.7064H49.4187C49.3317 27.1781 49.1154 26.7533 48.7708 26.4302C48.4259 26.1088 48.0546 25.9481 47.6534 25.9481C47.3446 25.9481 47.0991 26.0324 46.9189 26.2027C46.7368 26.3714 46.647 26.5671 46.647 26.7883C46.647 26.9267 46.6796 27.0524 46.7433 27.1606C46.8303 27.307 46.9717 27.4518 47.1659 27.5934C47.3085 27.6969 47.6382 27.8783 48.154 28.1392C48.8765 28.5036 49.3628 28.8473 49.6145 29.1703C49.8643 29.4934 49.9886 29.8625 49.9886 30.2794C49.9886 30.8077 49.7866 31.2628 49.3861 31.6431C48.9837 32.0234 48.4725 32.2144 47.8542 32.2144C47.66 32.2144 47.4751 32.1937 47.3026 32.1539C47.1302 32.1125 46.9126 32.0362 46.6516 31.9248C46.5056 31.8627 46.3859 31.8325 46.2927 31.8325C46.2135 31.8325 46.1296 31.8627 46.0426 31.9248C45.954 31.9868 45.8826 32.0823 45.8282 32.2096H45.6604V29.8227H45.8282C45.9618 30.4942 46.2181 31.005 46.6003 31.3583C46.981 31.7115 47.3912 31.8882 47.8309 31.8882C48.1711 31.8882 48.4415 31.7927 48.6434 31.6033C48.8451 31.414 48.9464 31.1928 48.9464 30.9414C48.9464 30.7918 48.9076 30.647 48.8299 30.507C48.7522 30.3685 48.6357 30.2349 48.4772 30.1092C48.3187 29.9835 48.0403 29.8196 47.6398 29.6175C47.0789 29.3342 46.6749 29.094 46.4294 28.8951C46.1824 28.6962 45.9944 28.4734 45.8624 28.2283C45.7303 27.9833 45.6635 27.7128 45.6635 27.4168C45.6635 26.914 45.8453 26.4843 46.2057 26.1295C46.5677 25.7762 47.023 25.5996 47.5711 25.5996C47.7718 25.5996 47.966 25.6235 48.154 25.6728C48.297 25.711 48.4707 25.7794 48.6745 25.8813C48.8793 25.9815 49.0241 26.0324 49.1049 26.0324C49.1841 26.0324 49.2463 26.007 49.2913 25.9576C49.3379 25.9083 49.3799 25.789 49.4187 25.5996H49.5554ZM53.9617 25.6553C54.9451 25.6171 55.7437 25.9115 56.359 26.5353C56.9724 27.1606 57.2803 27.9419 57.2803 28.8807C57.2803 29.6827 57.0519 30.3876 56.5933 30.9971C55.9861 31.8054 55.1285 32.2096 54.0204 32.2096C52.9114 32.2096 52.0522 31.8245 51.4447 31.0528C50.9662 30.4433 50.725 29.7209 50.725 28.8855C50.725 27.9467 51.0376 27.1638 51.6607 26.5384C52.2852 25.9115 53.0512 25.6171 53.9617 25.6553ZM54.0176 25.9529C53.4521 25.9529 53.0229 26.2488 52.728 26.8392C52.4888 27.3229 52.3688 28.0199 52.3688 28.9269C52.3688 30.0057 52.5537 30.8029 52.9235 31.3185C53.1814 31.6797 53.5437 31.8595 54.0083 31.8595C54.3206 31.8595 54.5816 31.7816 54.7913 31.6272C55.057 31.4283 55.2652 31.1101 55.414 30.6725C55.5635 30.2365 55.6378 29.6668 55.6378 28.9651C55.6378 28.1281 55.5619 27.5027 55.4097 27.089C55.2574 26.6737 55.0648 26.3809 54.8286 26.2091C54.594 26.0388 54.3237 25.9529 54.0176 25.9529ZM60.1745 26.1072V28.7041H60.3532C60.625 28.7041 60.8488 28.6611 61.0215 28.5784C61.1952 28.4941 61.3413 28.3524 61.4609 28.1535C61.5809 27.9546 61.6598 27.6857 61.6955 27.3468H61.854V30.5213H61.6955C61.638 29.9214 61.4811 29.5268 61.2248 29.3358C60.9684 29.1449 60.6779 29.0478 60.3532 29.0478H60.1745V30.9828C60.1745 31.3058 60.1931 31.5079 60.2273 31.589C60.263 31.6702 60.3314 31.7402 60.4324 31.8007C60.5334 31.8627 60.6717 31.8929 60.8441 31.8929H61.0492V32.0648H57.8222V31.8929H58.0276C58.206 31.8929 58.3505 31.8595 58.4592 31.7943C58.5388 31.7513 58.5994 31.6765 58.641 31.5699C58.6752 31.4967 58.6907 31.301 58.6907 30.9828V26.8249C58.6907 26.5018 58.6752 26.2998 58.641 26.2186C58.6084 26.1374 58.54 26.0674 58.439 26.007C58.3368 25.9465 58.1998 25.9163 58.0276 25.9163H57.8222V25.7428H63.0286V27.5568H62.8421C62.8002 27.1304 62.6914 26.8153 62.5174 26.61C62.3419 26.4048 62.0902 26.2616 61.7592 26.1772C61.5775 26.1311 61.2403 26.1072 60.7493 26.1072H60.1745ZM69.1873 25.7428V27.455H69.0242C68.9263 27.0588 68.8191 26.7755 68.701 26.6037C68.583 26.4302 68.4198 26.2934 68.2132 26.1915C68.0982 26.1343 67.8962 26.1072 67.6088 26.1072H67.1489V30.9828C67.1489 31.3058 67.166 31.5079 67.2002 31.589C67.2359 31.6702 67.3043 31.7402 67.4053 31.8007C67.5078 31.8627 67.6461 31.8929 67.8217 31.8929H68.0267V32.0648H64.7951V31.8929H65.0002C65.1789 31.8929 65.3234 31.8595 65.4321 31.7943C65.5113 31.7513 65.5735 31.6765 65.6186 31.5699C65.6527 31.4967 65.6698 31.301 65.6698 30.9828V26.1072H65.2224C64.8075 26.1072 64.5046 26.1963 64.3166 26.3777C64.0525 26.6291 63.8862 26.9888 63.8163 27.455H63.6438V25.7428H69.1873Z" fill="#111111"/>
<path fill-rule="evenodd" clip-rule="evenodd" d="M9.17188 18.4635C9.17188 18.5952 9.21072 18.635 9.33967 18.635H9.39561C9.50188 18.635 9.78713 18.4183 9.78713 18.2916V18.2344C9.78713 18.1023 9.74829 18.0625 9.61933 18.0625H9.5634C9.42792 18.0625 9.17188 18.3247 9.17188 18.4635Z" fill="#111111"/>
<path fill-rule="evenodd" clip-rule="evenodd" d="M12.9766 19.0931L13.0325 19.1503C13.1475 19.0714 13.1776 18.9785 13.3122 18.9785L13.4234 18.9833L13.7593 18.9785C13.6763 18.8627 13.631 18.8066 13.424 18.8066H13.3122C13.1574 18.8066 13.0418 18.9935 12.9766 19.0931Z" fill="#111111"/>
<path fill-rule="evenodd" clip-rule="evenodd" d="M11.4971 20.2635C11.3992 20.2005 11.4076 20.1824 11.2997 20.1824C11.0956 20.1824 10.3812 20.6775 10.293 20.8125C10.5465 20.9197 11.0655 20.3542 11.1879 20.3542C11.3734 20.3542 11.3044 20.4688 11.4116 20.4688C11.5639 20.4688 12.0269 19.9077 12.0269 19.7814C12.0269 19.6522 12.0483 19.8081 11.9597 19.6582L11.4971 20.2635Z" fill="#111111"/>
<path fill-rule="evenodd" clip-rule="evenodd" d="M12.2237 31.4283L12.4443 31.323L12.9803 31.9088L12.3557 31.7494L12.3949 31.6549L12.2237 31.4283ZM5.98475 31.3516C5.79023 31.3516 5.8993 31.237 5.70509 31.237C5.57054 31.237 5.5404 31.3296 5.42543 31.4086C5.47515 31.2176 5.74828 30.8933 5.92882 30.8933H6.09662C6.24763 30.8933 6.25074 30.9207 6.37597 30.9506C6.32967 31.0655 6.3452 31.3516 5.98475 31.3516ZM14.0943 30.7788L14.5977 31.0652H13.9265V30.9506C14.1509 30.9315 14.1571 30.9341 14.0943 30.7788ZM13.7028 30.6642L13.5319 30.6613L13.7028 30.3778C13.7541 30.4128 13.8706 30.471 13.8706 30.5496C13.8706 30.6298 13.7944 30.6642 13.7028 30.6642ZM13.3218 30.5067L13.3709 30.6534L12.6404 30.3778H12.976C13.1702 30.3778 13.0611 30.2632 13.2556 30.2632L13.6086 30.2874L13.3218 30.5067ZM10.5709 30.1486L11.2421 30.2059C11.2753 30.3335 11.2551 30.3778 11.4099 30.3778L11.5705 30.3771L11.5889 30.6184L11.6895 30.4923C11.6905 30.493 11.7936 30.5496 11.8014 30.5496C12.0152 30.5496 11.8216 30.5671 11.9608 30.5181L12.0811 30.5496C12.0574 30.6079 11.9968 30.7215 12.137 30.7215C12.2187 30.7215 12.219 30.6508 12.2489 30.6069C12.2498 30.6075 12.3529 30.6642 12.3607 30.6642C12.4866 30.6642 12.3346 30.6861 12.4726 30.6069C12.5005 30.6578 12.5089 30.7215 12.5844 30.7215C12.7355 30.7215 12.7386 30.6941 12.8641 30.6642C12.8405 30.7224 12.7799 30.836 12.92 30.836C13.0633 30.836 13.0552 30.822 13.1422 30.7998L13.8146 30.836C13.7764 30.9057 13.7587 30.8971 13.7587 31.0079V31.1797C13.6015 31.2173 13.4747 31.2943 13.3116 31.2943C12.9244 31.2943 12.9561 31.0696 12.6652 30.9821C12.3458 30.886 12.2137 30.9818 11.8753 30.8176C11.3999 30.5865 10.9727 30.4344 10.5709 30.1486ZM11.3421 30.1267L11.7455 30.0913C11.931 30.0913 11.862 30.2059 11.9692 30.2059C12.0972 30.2059 12.0341 30.1865 12.1929 30.1486C12.192 30.1496 12.137 30.2556 12.137 30.2632C12.137 30.3924 12.1155 30.2365 12.1796 30.4175L11.3421 30.1267ZM4.41865 29.5185C4.47738 29.2925 4.64673 29.1936 4.53051 28.9456C4.44257 29.0115 4.25085 29.3606 4.25085 29.4612V29.9195C4.25085 30.0662 4.26421 30.0579 4.31113 30.1508L4.19492 30.3205C4.18498 29.8673 3.84348 29.2582 3.57562 29.0586L3.35594 29.5758L3.36153 29.8498L2.64435 29.9255L3.07627 28.8311C3.07534 28.8301 2.97187 28.7738 2.96441 28.7738C2.67294 28.7738 2.76647 29.874 2.19379 30.0391L2.51695 29.2894C2.51695 28.896 2.62882 28.9838 2.62882 28.7165C2.62882 28.5552 2.60458 28.6105 2.50732 28.5421L2.33331 29.2824L2.12543 29.8431L1.96291 29.8603L2.07011 30.2078L1.51017 30.3205C1.64814 30.0538 1.61893 29.9278 1.82277 29.6668C2.00393 29.4348 2.09373 29.4224 2.30534 29.1159L2.22859 28.7079L2.74068 28.1437C3.06819 28.2146 3.32424 28.0326 3.5691 27.8614L3.63435 28.0259L3.80339 27.9718C3.81209 28.3693 4.14023 28.2048 4.45749 28.0692C4.66972 27.9785 5.14235 27.8541 5.3695 27.8V28.2582C5.3695 28.651 4.87419 29.4797 4.41865 29.5185ZM0.671187 28.4301C1.05215 27.693 1.37314 27.5517 2.01263 27.1157L2.18136 27.1698C2.06483 27.3955 0.941526 28.3655 0.671187 28.4301ZM12.4726 26.597L12.6733 26.5566L12.976 26.998C12.7302 26.9394 12.5782 26.8032 12.4726 26.597ZM5.70509 26.5397C5.70509 26.5626 5.89495 27.0782 5.92882 27.2271C5.55718 27.4286 5.50467 27.5266 5.05597 27.708C4.7704 27.8232 4.1741 27.9295 3.97119 28.0291V27.7427C3.90065 27.7045 3.7863 27.6281 3.69153 27.6281C3.60981 27.6281 3.27546 27.911 3.02034 27.9718C3.04271 27.8728 3.12661 27.6854 2.96441 27.6854C2.80283 27.6854 1.46356 29.4364 1.44026 29.8441L1.11865 30.1486C1.11057 30.5207 1.0624 30.4408 0.883108 30.5945C0.746696 30.7116 0.741724 30.8589 0.615255 31.0079C0.624888 30.5662 0.899888 29.9933 1.17458 29.8049V29.5758C1.40235 29.2276 1.72955 28.9189 1.88274 28.6398C2.06017 28.3168 2.62384 28.046 2.45543 27.6771L1.96447 27.9775L2.40509 27.4563C2.27613 27.2211 2.77424 27.1775 3.04209 27.0203C3.12288 26.9728 3.91091 26.6632 3.97243 26.6555C4.42921 26.5999 4.64517 26.5534 5.05503 26.4471C5.34308 26.372 5.92074 26.1492 6.04068 26.1387C5.94156 26.2269 5.70509 26.3764 5.70509 26.5397ZM10.4031 25.1652L10.1794 25.5659V25.394C10.1794 25.1598 9.99509 25.1744 10.4031 25.1652ZM4.64238 25.2225C4.51094 25.4233 3.18503 26.1779 2.90848 26.2533C3.16608 25.7546 3.2391 25.8965 3.69277 25.682C4.01842 25.528 4.18995 25.261 4.64238 25.2225ZM6.48814 26.1387H6.26441C6.39119 25.9449 6.94461 25.6881 7.26063 25.6588L8.55732 25.0503C8.01665 25.8771 7.16181 25.6769 6.48814 26.1387ZM17.674 25.0503C17.5242 25.0503 17.5083 24.9679 17.4502 24.8785C17.4565 24.8673 17.5326 24.8215 17.5621 24.8215C17.7349 24.8215 17.8284 24.945 17.8977 25.0503H17.674ZM8.35628 24.9685C8.41594 24.8097 8.66919 24.6353 8.66919 24.592C8.66919 24.5147 8.60891 24.5602 8.56416 24.3782L8.83792 24.2506L8.83699 24.4202C8.83699 24.5309 8.8547 24.5223 8.89292 24.592L8.35628 24.9685ZM16.835 23.3894C17.0792 23.3894 17.0379 23.2748 17.2824 23.2748H17.3943C17.5438 23.2748 17.5596 23.3572 17.618 23.4467C17.3558 23.4689 17.3415 23.5612 17.0587 23.5612H16.5553C16.4637 23.5612 16.3875 23.5269 16.3875 23.4467C16.3875 23.2544 16.6666 23.3894 16.835 23.3894ZM14.2609 23.2579C14.9535 23.214 15.4513 23.7194 16.0519 23.7331C16.0609 23.8442 16.0491 23.9622 16.1638 23.9622C16.3642 23.9622 16.1026 23.777 16.3835 23.7324C16.4901 23.7156 16.8182 23.7328 16.9472 23.7334C17.4602 23.7363 17.4717 23.5927 17.8418 23.5612L17.7734 23.7869L17.3943 23.7904C17.2688 23.7904 17.2716 23.8356 17.1706 23.9049C16.7607 23.9049 16.4867 24.0217 16.2197 24.0221C16.134 24.0221 15.4385 23.8954 15.3369 23.8795C14.8174 23.7993 14.4768 23.4467 13.7028 23.4467C13.553 23.4467 13.4878 23.5281 13.4234 23.6185L13.7037 23.6306C14.3106 23.5797 15.4056 24.0542 15.7723 24.3059H15.996C16.2458 24.4771 16.6632 24.8215 17.0587 24.8215H17.2265L17.3825 25.1168C16.3179 25.1079 15.8987 24.2486 15.1011 24.2486H14.8214C14.1776 24.2486 13.7046 24.4771 13.3513 24.8053C13.1954 24.9504 12.8082 26.0388 12.8082 26.3106C12.8082 26.3265 12.8464 26.4153 12.8641 26.4824L12.7028 26.3596L12.4698 26.4153L12.8576 25.5901L12.7998 25.5592L12.9281 25.401L13.1127 24.368L13.3663 24.5367C13.4446 24.3938 13.4234 24.5494 13.4234 24.4202C13.4234 24.27 13.1217 24.2136 13.0198 24.1462C12.8933 24.0631 12.7653 23.7904 12.6963 23.7904C12.6885 23.7904 12.5854 23.8467 12.5844 23.8477L12.6991 24.0749C12.2414 24.185 11.7305 24.916 11.4543 25.268C11.1069 25.711 10.9484 26.3106 10.1234 26.3106C9.94755 26.4312 9.71326 26.8834 9.39631 26.8834H9.17258C9.1356 26.7208 9.11665 26.7854 9.11665 26.6543C9.11665 26.5066 9.22851 26.4659 9.22851 26.0814L9.82326 25.3679L10.0116 25.3367V25.5659C10.0116 25.6979 10.0504 25.738 10.1794 25.738C10.4161 25.738 10.5982 25.1754 10.7399 24.9946C10.7474 24.9851 11.4363 24.5402 11.5227 24.4787C12.1208 24.0539 12.4375 23.8114 12.9791 23.3703L14.2609 23.2579ZM15.996 23.2748C16.1793 23.2748 16.2057 23.3903 16.2197 23.5612L15.3817 23.3388L15.8823 23.2621L15.996 23.2748ZM4.64238 25.2225C5.09916 24.8154 5.908 24.8224 6.20848 24.3629C6.0932 24.3142 4.93758 24.8823 4.69893 24.994C4.33568 25.1646 3.46656 25.6521 3.13221 25.6808C3.35469 25.2502 4.07715 25.0054 4.47458 24.7069C4.69676 24.5395 5.79458 23.8426 5.87289 23.7331C6.04969 23.4043 7.61052 22.758 8.10987 22.4155H8.3336C8.20029 22.5104 7.71834 22.7487 7.71834 22.9311C7.71834 22.982 7.78049 23.0457 7.8302 23.0457C7.96196 23.0457 8.16611 22.8795 8.35286 22.8363C8.46006 22.8111 8.91218 22.7672 9.00478 22.7592C8.74097 22.9941 8.60021 23.208 8.31122 23.4237C8.03964 23.6262 7.75656 23.8397 7.49461 24.0195C7.15125 24.0271 6.5708 24.4946 6.43097 24.7098L6.60001 24.7642C6.52201 25.063 5.88873 25.5337 5.58142 25.6114C5.25266 25.6944 4.34252 26.0184 4.07435 26.0146L3.85933 26.196L3.64057 26.2052L2.84136 26.6657L2.74068 26.5397C3.00884 26.4665 4.67967 25.4793 4.81142 25.2766L4.64238 25.2225ZM8.22173 22.2437C8.74097 21.8742 10.6949 21.098 11.5777 21.098C11.7278 21.098 11.8573 21.4185 11.8573 21.499V21.7281C11.8573 22.2886 9.77727 24.4202 9.00478 24.4202L9.15704 24.0115L8.72636 23.9501L9.05667 23.6707L9.22851 23.6758C9.44789 23.5253 9.77509 23.2481 9.96402 23.0543C10.1368 22.8776 10.5479 22.5218 10.459 22.301C10.0361 22.5909 9.75956 23.1396 9.22851 23.5039H9.06071C8.93456 23.5905 8.50139 23.8585 8.50139 24.0195C8.50139 24.0911 8.60487 24.1341 8.66919 24.1914L7.4654 25.0681L7.08071 25.2963L7.10029 25.3523L7.38057 25.4071C7.18543 25.57 7.00551 25.4978 6.7445 25.6569C6.51735 25.795 6.42382 25.8192 6.20848 25.9669C6.1395 25.9669 4.61099 26.3494 4.45563 26.4057C4.11506 26.5289 3.93359 26.4802 3.56226 26.6364C3.36401 26.7198 2.96441 26.9006 2.79661 26.9407L3.69681 26.3777L4.02712 26.3678L4.09331 26.2001L6.55712 25.4984L6.54656 25.4319L6.21003 25.3816C6.2495 25.3364 7.01111 24.642 7.10309 24.592L7.05026 24.4192L7.1671 24.2553L7.32029 24.3715C7.47721 24.1529 8.27362 23.6828 8.54241 23.4314C8.75961 23.2287 8.86837 23.0928 9.10049 22.9146C9.38077 22.6991 9.53179 22.8359 9.7319 22.5301C9.62004 22.4731 9.72755 22.4483 9.5641 22.4728L8.33888 22.6803C8.45385 22.5591 8.61326 22.5619 8.61326 22.3583C8.61326 22.2065 8.37399 22.2437 8.22173 22.2437ZM5.2017 21.9573C5.2017 21.6829 5.21786 21.5216 5.48136 21.499C5.41797 21.7421 5.3695 21.5992 5.3695 21.7854V22.2437C5.24489 22.2096 5.2017 22.2303 5.2017 22.0718V21.9573ZM6.4319 20.9834C6.4319 20.8593 6.57888 20.6976 6.65563 20.6397C6.65563 21.3115 6.39461 21.3844 7.27088 21.3844L7.01794 21.6381L6.76749 21.6708C6.59597 21.6708 6.4319 21.6177 6.4319 21.4417V20.9834ZM7.70591 19.988C7.67297 20.2098 7.60648 20.2025 7.60648 20.4106C7.60648 20.6124 7.8302 20.6413 7.8302 20.7543C7.8302 20.8049 7.50891 21.1553 7.38275 21.1553H7.10309C6.92131 21.1553 7.06114 21.1056 6.82342 21.0407V20.8116C6.82342 20.5159 7.18605 20.5964 7.23297 20.2702L7.70591 19.988ZM13.9768 18.9909L13.9824 19.4367C13.8815 19.3677 13.8843 19.3222 13.7587 19.3222H13.5909C13.4415 19.3222 13.4256 19.4049 13.3687 19.5173L13.7587 19.494C14.0446 19.6901 13.9824 19.8371 13.9824 20.296C14.0502 20.3994 14.0943 20.3969 14.0943 20.5252L14.0813 20.8093L13.9824 21.6136C13.7224 22.0117 13.8383 22.1918 13.4387 22.6606C13.2982 22.8258 12.7902 23.327 12.6183 23.4817C12.3638 23.7111 10.9543 24.7979 10.7387 24.7069C10.6044 24.9119 9.93419 25.2346 9.67597 25.1079C9.4597 25.5264 9.39973 25.7492 8.96905 25.9875C8.6956 26.1387 8.15119 26.3593 7.78639 26.3647L7.71834 26.1387C7.40854 26.3714 7.68012 26.3984 7.15902 26.6543C7.11955 26.6329 6.88464 26.4824 6.87936 26.4824C6.66557 26.4824 6.85916 26.4649 6.71156 26.5397C6.88122 26.7768 7.27088 26.7539 7.27088 26.998C7.27088 27.1265 7.22676 27.1237 7.15902 27.2271C7.30786 27.3388 7.43153 27.5953 7.57229 27.7207C7.75905 27.8868 7.89359 28.0202 8.08811 28.1659C8.383 28.3868 8.74314 28.9733 9.06071 29.0602C9.08775 29.3915 9.28444 29.331 9.28444 29.4612C9.28444 29.4953 9.20707 29.5799 9.17258 29.6331C9.17351 29.634 9.27699 29.6903 9.28444 29.6903C9.38699 29.6903 9.3497 29.5758 9.45224 29.5758C9.82637 29.5758 9.96837 29.8539 10.1225 30.0799L9.62004 30.1486C9.82668 30.4373 10.2598 30.0786 10.5137 30.423L10.065 30.4669L10.0585 30.5528L11.2421 30.7215L11.2085 30.8246L11.247 30.8666L11.4658 30.836C11.3617 31.0935 11.6339 31.0327 11.7812 30.9821L12.1121 31.1772L12.0832 31.6336L12.2489 31.7523C11.6 31.6972 11.5792 31.3331 11.2063 31.1015C11.0053 30.9764 10.1918 30.6642 9.8997 30.6642L9.67597 30.66L8.55732 30.6642C8.43054 30.8414 8.32521 30.8157 8.05362 30.8354C7.71399 30.8602 7.80472 30.9745 7.59778 31.0563C7.33458 31.16 6.53724 31.2119 6.4319 31.0652C6.44246 31.0598 7.64407 30.844 7.76402 30.8252C8.1717 30.7609 8.6347 30.5728 8.83699 30.2632C9.03865 30.3485 9.17165 30.3001 9.12877 30.0461L9.28444 29.8622C9.28351 29.8612 9.18004 29.8049 9.17258 29.8049C9.13933 29.8049 9.05668 29.8838 9.00478 29.9195C8.78571 29.4953 8.56323 28.8219 7.998 28.7738C8.05735 28.6271 7.72207 28.3859 7.59467 28.2134C7.25006 27.7465 7.48467 27.9928 7.03535 27.6405C6.71467 27.3888 6.66992 27.434 6.28492 27.2631C6.1106 27.1857 5.87289 26.5448 5.87289 26.5397C5.87289 26.4452 6.03354 26.3538 6.09662 26.3106H6.54407C6.99464 26.0015 7.46136 26.0486 7.97843 25.6932L8.10987 25.8523C8.45944 25.1757 9.01721 25.1165 9.21795 24.7769L8.78105 24.8785C8.93207 24.6675 9.44634 24.4994 9.74495 24.262C9.89131 24.1455 10.0106 24.1236 10.2244 23.9508C10.3779 23.8266 10.5087 23.7318 10.661 23.5962C10.899 23.3843 12.0251 22.0524 12.0251 21.7281V21.4417C12.0251 21.2393 11.8048 20.9261 11.5217 20.9261C10.7244 20.9261 10.2185 21.3185 9.84159 21.3255L10.0675 20.9834C10.0663 20.9825 9.96309 20.9261 9.95563 20.9261C9.80151 20.9261 9.92145 21.1215 9.6999 21.2126V20.9834L9.63371 20.9634L9.40035 21.4742L9.45224 21.499C9.1269 21.5766 8.63874 21.8169 8.35286 21.977C8.21179 22.0559 7.38772 22.6447 7.38275 22.6447C7.3495 22.6447 7.26684 22.5654 7.21495 22.5301L7.23142 22.5874L6.54221 22.7573L6.93809 22.4591L7.56266 22.4276L7.70715 22.2551L7.60648 22.1291L7.31874 22.1062L7.55054 22.0145C7.51947 21.9684 7.43868 21.8732 7.43868 21.8427C7.43868 21.6253 7.65464 21.5983 7.8302 21.5563C7.72393 21.7189 7.62015 21.8618 7.71834 22.0718C8.03498 21.8344 7.66023 21.625 8.16891 21.6148L8.22857 21.4334L8.38953 21.5563C8.82207 21.1712 8.97153 21.3255 9.45131 20.9825C9.56504 20.9013 10.4394 20.1814 10.459 20.1814C10.4923 20.1814 10.5749 20.2607 10.6268 20.296C11.4636 19.8425 12.4524 18.5775 13.5909 18.5775C13.6919 18.5084 13.6894 18.4632 13.8146 18.4632H13.9824C14.1422 18.4632 14.6232 18.8006 14.7061 18.8948L13.9768 18.9909ZM8.72512 21.098C8.7332 21.0856 9.82139 20.0755 9.90063 20.0109C10.1682 19.7935 10.7247 19.1962 11.0047 18.9072C11.197 18.7086 11.3629 18.5208 11.5621 18.3328C11.7772 18.13 11.926 18.1351 12.2069 17.8474C12.5748 17.4703 12.9017 17.0544 13.4794 16.9166C13.3333 17.1396 13.0658 17.2361 12.8293 17.3965C12.4139 17.6781 12.5925 17.7908 12.3399 17.984C11.8949 18.3242 11.7063 18.7732 11.2878 19.1401C10.8872 19.4915 10.5728 19.8727 10.1654 20.2247C9.76391 20.5713 9.2167 20.8673 8.89292 21.1553L8.72512 21.098ZM5.70509 20.9261C5.79241 20.7397 6.15845 20.1859 6.30512 20.0513C6.51083 19.8622 6.91758 19.6067 7.1904 19.4689C7.47224 19.3263 7.84046 19.0892 8.11049 18.9218C8.24006 18.8413 8.42557 18.6994 8.493 18.5692C8.62009 18.3242 8.66142 18.4168 8.87893 18.2198C9.34317 17.7987 10.0333 17.2625 10.6374 17.0419C11.3502 16.7816 11.7113 16.1719 12.6404 16.1719H13.1438C13.4992 16.1719 13.9607 16.3685 14.0943 16.5728C13.4943 16.5728 12.5528 17.1317 12.3045 17.4891C11.9679 17.9741 11.8803 17.8283 11.569 18.1106C11.3229 18.334 11.156 18.5864 10.8959 18.7961C10.5202 19.0994 9.86676 19.7674 9.52122 20.1378C9.19433 20.4886 8.43925 21.1203 8.05393 21.3844L7.43557 21.4821C7.63693 21.196 8.44546 20.5153 8.44546 20.1814V19.8377C8.44546 19.6742 8.31868 19.6379 8.22173 19.5513C8.45167 19.5319 8.34665 19.494 8.55732 19.494C8.61232 19.494 8.83699 19.7139 8.83699 19.8377V19.9523C8.83699 20.3272 8.56136 20.2581 8.66919 20.5252C8.83108 20.4144 9.00478 20.2858 9.00478 20.0096V19.7805C9.00478 19.6127 8.72139 19.3222 8.55732 19.3222C8.41594 19.3222 8.10054 19.4438 7.998 19.494L8.17326 19.6554L7.94207 19.6659C7.71399 19.8225 7.44334 19.8352 7.38275 20.0669L6.67986 20.4014C6.55246 20.5532 6.26441 20.8039 6.26441 20.9261V21.499C6.26441 21.6845 6.50741 21.8427 6.71156 21.8427H6.93529C7.10619 21.8427 7.16119 21.7876 7.27088 21.7281C7.14783 22.201 6.49933 21.7854 6.76749 22.3583L6.44246 22.6558C5.95834 22.3879 5.94187 21.864 5.76102 21.7281C5.68769 21.8793 5.70509 21.681 5.70509 21.9V21.9573C5.70509 22.0317 6.08791 22.6036 6.15255 22.702L6.12831 22.9311L5.53791 22.5858L5.53729 22.3583L5.58577 22.3293L5.72591 22.575L5.86605 22.4646C5.79241 22.3497 5.53729 22.0925 5.53729 22.0145V21.7854C5.53729 21.7749 5.77904 21.2068 5.81695 21.0407L5.70509 20.9261ZM14.4877 16.717C14.2876 16.3841 13.6503 16 13.1438 16H12.6404C11.623 16 11.2557 16.7234 10.5936 16.8825C10.3472 16.942 9.83103 17.2689 9.66105 17.4168C9.47555 17.5785 8.93331 17.9346 8.82487 18.0498C8.6117 18.2764 8.54272 18.2182 8.40258 18.362C8.2584 18.51 8.28108 18.6096 8.05424 18.7497C7.75998 18.9311 7.45391 19.1755 7.15125 19.3142C6.93871 19.4119 6.39337 19.7432 6.2641 19.895C6.12458 20.0589 5.7489 20.5554 5.59323 20.6397C5.57769 21.3469 5.0339 21.2673 5.0339 22.0145V22.0718C5.0339 22.2001 5.07803 22.1975 5.14577 22.301V22.6447L5.56371 23.2401L5.73243 22.884C5.73275 22.8929 6.09413 23.103 6.09662 23.103C6.17181 23.103 6.18051 23.0393 6.20848 22.9884L6.37224 23.0562L6.47664 22.9196L6.82342 22.9311L4.58209 24.0679L4.74181 24.2114L4.7356 24.3629C4.66382 24.3877 3.73814 24.9975 3.52373 25.1076C3.17602 25.2868 2.78636 25.7552 2.57288 26.0814L2.63938 26.2491C2.22548 26.3637 1.40514 27.1791 1.08384 27.4779C0.806667 27.7357 0.705057 27.9397 0.551554 28.3076C0.490339 28.4549 0.450876 28.6478 0.323475 28.7614C0.205085 28.867 0 28.9148 0 29.1175C0 29.2279 0.0177119 29.2193 0.0559323 29.2894C0.122119 29.2442 0.484125 28.8928 0.54565 28.8168C0.758193 28.5548 0.807289 28.5628 1.06302 28.3731C1.23486 28.2458 2.02723 27.5403 2.12543 27.5135C2.05893 27.6421 1.45797 28.2582 1.78983 28.2582C1.90822 28.2582 1.86348 28.2379 2.01356 28.201C1.77243 28.5698 1.57978 28.7926 1.27712 29.1076C1.13294 29.2578 1.07763 29.4679 0.996526 29.6798C0.965142 29.7616 0.748871 30.0299 0.671187 30.1486V30.3205C0.53291 30.5324 0.325961 31.139 0.447458 31.4086C0.759746 31.1947 0.82904 30.8058 1.28644 30.4923C1.89206 30.4923 1.82898 30.4911 2.20218 30.2272C2.48028 30.0306 2.75901 30.0913 3.18814 30.0913L3.53678 29.7607L3.52373 29.5185L3.68469 29.3957C3.75212 29.6359 3.84938 29.6436 3.95006 29.9981C4.01314 30.2196 4.02153 30.4923 4.25085 30.4923C4.57122 30.4923 4.41865 30.0261 4.41865 29.8049C4.41865 29.6767 4.88102 29.6073 5.03452 29.3473C5.18678 29.0905 5.26198 28.9336 5.40616 28.6395C5.62119 28.2019 5.48633 28.2353 5.55687 27.7271C5.57272 27.6131 5.84865 27.3417 6.09662 27.3417C6.15131 27.3417 6.91758 27.7439 6.99153 27.7996C7.41351 28.1169 7.33489 28.2321 7.61922 28.5316C7.99179 28.9234 8.83699 29.3842 8.83699 30.0341C8.83699 30.2629 8.26585 30.5178 8.03311 30.5853C7.90478 30.6225 6.93933 30.836 6.93529 30.836H6.54407C6.29953 30.836 6.34085 30.7215 6.09662 30.7215H5.87289C5.73492 30.7215 5.25763 31.2103 5.25763 31.3516V31.4086C5.25763 31.5989 5.46707 31.6842 5.59323 31.7523L5.65289 31.4006L5.79303 31.596C6.21842 31.4849 6.45862 31.3074 6.93311 31.2918C7.64998 31.2682 7.53967 31.3223 7.998 31.0079L9.67193 30.8017L9.95563 30.836C10.1943 30.836 10.5283 31.0123 10.8167 31.0995C11.1805 31.2097 11.2492 31.365 11.4608 31.5855C11.5916 31.722 11.9925 31.9197 12.247 31.926C12.7426 31.9384 12.9204 32.1533 13.0878 32.1533C13.1376 32.1533 13.1997 32.0896 13.1997 32.0387C13.1997 31.68 12.5916 31.2889 12.4726 31.1225C12.9328 31.1616 12.7463 31.4658 13.3116 31.4658H13.3675C13.6285 31.4658 13.7873 31.237 14.2621 31.237H14.4299C14.6577 31.237 14.7307 31.3274 14.8214 31.4658L14.8553 31.8697C14.9644 31.8073 15.0452 31.7911 15.0452 31.6377V31.3516C15.0452 31.0614 14.4383 30.6158 14.0384 30.6069C13.9943 30.437 13.8491 30.0913 13.6468 30.0913H13.3116C13.067 30.0913 13.1083 30.2059 12.8641 30.2059H12.8082C12.5431 30.2059 12.1587 29.9195 11.5217 29.9195H11.0183C10.8875 29.9195 10.8735 29.9367 10.7946 29.9768C10.7061 29.9332 10.7141 29.9195 10.5709 29.9195H10.1794C10.0498 29.4224 9.56566 29.5093 9.35032 29.3365C9.20427 29.2193 9.26394 29.1223 9.07563 28.9304C8.94916 28.8018 8.86464 28.7162 8.7391 28.5876C8.26865 28.1058 7.82057 27.7427 7.38275 27.2271C7.45608 27.0763 7.43868 27.2742 7.43868 27.0553V26.9407C7.43868 26.3825 7.54122 27.005 7.66241 26.5397C8.19439 26.5397 8.69374 26.3192 9.06071 26.1387V26.3678C8.99329 26.4713 8.94885 26.4687 8.94885 26.597V26.6543C8.94885 26.8474 9.04766 27.0553 9.22851 27.0553H9.45224C9.67814 27.0553 10.0582 26.7332 10.1234 26.4824H10.2912C10.89 26.4824 11.3651 25.7762 11.5845 25.344C11.7091 25.098 11.9204 24.9017 12.114 24.6834C12.3433 24.4243 12.6046 24.3594 12.7522 24.1341L12.9673 24.3155C12.8041 24.6722 12.9169 25.0856 12.6404 25.5086C12.6404 26.0486 12.1929 26.4086 12.1929 26.597C12.1929 26.8083 12.9828 27.2844 13.3675 27.2844C13.375 27.2844 13.4781 27.2281 13.4794 27.2271C13.3364 27.0279 13.1248 27.1253 13.0319 26.7688C13.127 26.7427 13.2556 26.7023 13.2556 26.597C13.2556 26.4538 13.1447 26.5158 13.0878 26.5397L12.9778 26.2523C13.1898 25.7966 13.1916 25.169 13.5198 24.8629C13.8004 24.6016 14.4001 24.4202 14.9333 24.4202H15.157C15.62 24.4202 16.6653 25.3288 17.1146 25.2798L17.8402 25.2091L18.1668 25.52C18.2547 25.3676 18.2333 25.5232 18.2333 25.394C18.2333 24.9956 17.7768 24.592 17.3943 24.592C16.8608 24.592 16.4515 24.5936 16.1638 24.1914L17.5087 23.9775L18.2333 23.9622C18.4275 23.9622 18.7215 24.276 18.8482 24.3629C19.0331 23.9689 18.6326 23.7372 18.3902 23.572C18.1606 23.4158 18.191 23.4638 17.9185 23.3677C17.6789 23.2834 17.6939 23.103 17.5062 23.103H17.3384C17.0463 23.103 17.0146 23.2175 16.7791 23.2175C16.6302 23.2175 16.4522 23.103 16.1638 23.103H15.9401L15.2695 23.1656L15.1458 23.2634C15.0374 23.1927 14.8143 23.103 14.5418 23.103H14.0384L13.2003 23.1698C13.3361 22.8958 13.5863 22.7793 13.76 22.4738C13.9172 22.1972 14.0197 21.8134 14.1502 21.6136L14.2969 19.9555C14.3246 19.9953 14.4504 20.1242 14.4858 20.1242C14.5644 20.1242 14.5977 20.0462 14.5977 19.9523C14.5977 19.7286 14.1502 19.6347 14.1502 19.3222V19.2649C14.1502 19.1331 14.1894 19.093 14.318 19.093H14.6536C14.9345 19.093 14.9783 19.2569 15.157 19.3795C15.3438 18.9661 14.2674 18.2914 13.9265 18.2914H13.8146C13.6894 18.2914 13.6919 18.3366 13.5909 18.4059C12.4098 18.4059 11.56 19.6334 10.7946 20.0096C10.8164 19.7419 12.0407 18.5409 12.2899 18.2761C12.5139 18.0377 12.7811 17.6157 13.0422 17.4426C13.2354 17.3144 13.3582 17.2965 13.5222 17.1326C13.667 16.9878 13.7665 16.8545 13.9274 16.7555L14.4877 16.717Z" fill="#111111"/>
<path fill-rule="evenodd" clip-rule="evenodd" d="M3.35547 28.83L3.43657 28.9064L3.7936 28.3813L3.74699 28.3145C3.4925 28.4889 3.4953 28.5592 3.35547 28.83Z" fill="#111111"/>
<path fill-rule="evenodd" clip-rule="evenodd" d="M4.13846 28.83V29.0591C4.13846 29.2781 4.12137 29.0798 4.19439 29.231C4.3684 29.1005 4.30625 29.0779 4.30625 28.7727C4.44173 28.5652 4.36001 28.6209 4.44111 28.4529C4.52097 28.2877 4.57317 28.3739 4.69778 28.1999C4.69654 28.1989 4.59337 28.1426 4.58591 28.1426C4.36436 28.1426 4.13846 28.6973 4.13846 28.83Z" fill="#111111"/>
</g>
<defs>
<clipPath id="clip0_869_44620">
<rect width="72" height="48" fill="white"/>
</clipPath>
</defs>
</svg>
