<svg width="140" height="67" viewBox="0 0 140 67" fill="none" xmlns="http://www.w3.org/2000/svg">
<path fill-rule="evenodd" clip-rule="evenodd" d="M55.7484 25.2704C55.6203 23.3752 54.8668 21.7586 53.488 20.4205C52.1496 19.1214 50.5218 18.3822 48.6046 18.2028C48.397 18.1832 48.1417 18.1721 47.8387 18.1694C47.5588 18.1667 47.2072 18.1654 46.7841 18.1654H32.2399L31.4733 18.1624C30.9811 18.1605 30.6231 18.1676 30.3991 18.1837C28.4031 18.3286 26.7118 19.065 25.3251 20.393C24.1845 21.4849 23.4619 22.7935 23.1571 24.319C23.1106 24.5522 23.0761 24.7945 23.0536 25.0458C23.0283 25.3269 23.0156 25.609 23.0156 25.8918C23.0164 31.2202 23.0175 36.5486 23.0191 41.877C23.0193 43.2904 23.3869 44.5957 24.1216 45.7927C24.251 46.0037 24.3917 46.2079 24.5439 46.4054C25.171 47.2192 25.9283 47.8838 26.8157 48.3992C28.083 49.135 29.4757 49.5023 30.9935 49.5011C36.5671 49.4959 42.1407 49.4934 47.7145 49.4934C48.0302 49.4934 48.2855 49.4853 48.4803 49.4691C50.4625 49.305 52.1446 48.5509 53.5268 47.207C53.7083 47.0306 53.8778 46.8477 54.0353 46.6583C55.013 45.4829 55.5776 44.1427 55.7292 42.6375C55.7489 42.444 55.7601 42.1998 55.7629 41.9049C55.766 41.602 55.7675 41.2164 55.7675 40.7483C55.7688 35.8337 55.7681 30.919 55.7652 26.0042C55.765 25.6809 55.7594 25.4363 55.7484 25.2704ZM38.7667 40.8926C36.7794 40.8608 35.0737 40.1947 33.6497 38.8943C32.9146 38.2229 32.352 37.4461 31.9619 36.5639C31.6387 35.8332 31.4491 35.0683 31.3932 34.2691C31.3765 34.0298 31.3737 33.7853 31.3847 33.5357C31.4543 31.9447 32.0088 30.5368 33.0483 29.312C33.2122 29.119 33.3835 28.9374 33.5622 28.7673C34.319 28.0482 35.2026 27.5079 36.213 27.1464C37.0239 26.8565 37.8725 26.7073 38.7586 26.699C38.7665 26.699 38.774 26.7019 38.7795 26.7072C38.785 26.7124 38.7882 26.7195 38.7882 26.7269L38.7859 40.8746C38.7859 40.877 38.7854 40.8794 38.7844 40.8816C38.7834 40.8838 38.782 40.8858 38.7802 40.8874C38.7784 40.8891 38.7763 40.8904 38.774 40.8913L38.7707 40.8922C38.7694 40.8925 38.768 40.8926 38.7667 40.8926ZM46.9095 29.1146C46.4761 30.2554 45.7824 31.2243 44.8283 32.0213C43.4441 33.1775 41.8209 33.7688 39.9586 33.7952C39.956 33.7953 39.9534 33.7948 39.951 33.7939C39.9486 33.793 39.9464 33.7916 39.9445 33.7899C39.9427 33.7881 39.9412 33.7861 39.9402 33.7838C39.9392 33.7815 39.9386 33.779 39.9386 33.7765V26.7177C39.9386 26.7128 39.9407 26.7082 39.9443 26.7047C39.9479 26.7013 39.9527 26.6994 39.9578 26.6994H47.3325C47.3377 26.6994 47.3427 26.7013 47.3463 26.7048C47.35 26.7083 47.3521 26.7131 47.3521 26.7181C47.3495 27.5459 47.202 28.3447 46.9095 29.1146ZM82.2997 27.408C82.2997 28.2519 81.585 28.936 80.7032 28.936C79.8215 28.936 79.1067 28.2519 79.1067 27.408C79.1067 26.5641 79.8215 25.88 80.7032 25.88C81.585 25.88 82.2997 26.5641 82.2997 27.408ZM91.0045 31.2795L91.0068 26.1312C91.0068 26.1279 91.0075 26.1246 91.0089 26.1215C91.0102 26.1184 91.0121 26.1156 91.0146 26.1133C91.0171 26.1109 91.02 26.1091 91.0232 26.1078C91.0264 26.1065 91.0298 26.1059 91.0333 26.1059H93.5356C93.5373 26.1059 93.539 26.106 93.5406 26.1064L93.5438 26.1074C93.5465 26.1085 93.5488 26.11 93.5508 26.1119C93.5528 26.1138 93.5544 26.1161 93.5555 26.1186C93.5566 26.121 93.5571 26.1237 93.5571 26.1264V35.1537C93.5571 36.6804 93.5603 37.7846 93.5667 38.4664C93.568 38.601 93.5892 38.9734 93.6304 39.5837L93.6304 39.5856L93.6303 39.5869C93.6301 39.5882 93.6298 39.5894 93.6293 39.5906C93.6285 39.5929 93.6272 39.5949 93.6255 39.5966C93.6238 39.5983 93.6218 39.5997 93.6195 39.6006C93.6172 39.6016 93.6148 39.6021 93.6123 39.602L91.1829 39.6042C91.1758 39.6042 91.169 39.6018 91.1637 39.5974C91.1585 39.593 91.155 39.587 91.1541 39.5804C91.1035 39.2522 91.0736 38.9297 91.0644 38.6128C91.0626 38.5546 91.0477 38.5514 91.0199 38.6033C90.9831 38.6716 90.9296 38.7444 90.8596 38.8217C90.4316 39.2957 89.896 39.6001 89.2527 39.7349C88.7895 39.8323 88.3216 39.8564 87.8491 39.8072C86.7991 39.6978 85.9062 39.2991 85.1704 38.611C84.803 38.2672 84.5009 37.8678 84.2642 37.4129C84.1553 37.2037 84.06 36.9769 83.9785 36.7324C83.6694 35.8067 83.6142 34.8575 83.8128 33.8848C83.9688 33.1221 84.29 32.4392 84.7765 31.8363C84.9348 31.6403 85.1083 31.461 85.2969 31.2986C86.1496 30.5632 87.174 30.1979 88.3703 30.2025C88.9169 30.2047 89.4433 30.3024 89.9495 30.4955C90.3747 30.6577 90.7149 30.9223 90.97 31.2894C90.993 31.3224 91.0045 31.3191 91.0045 31.2795ZM87.1887 37.1013C87.5426 37.392 87.9587 37.5583 88.437 37.6001C89.0299 37.6518 89.5526 37.5239 90.0051 37.2166C90.213 37.0756 90.3912 36.9022 90.5397 36.6965C90.7586 36.3928 90.9047 36.0468 90.9781 35.6584C91.0803 35.1167 91.0614 34.5946 90.9213 34.0922C90.8495 33.8343 90.7508 33.6094 90.6253 33.4176C90.3931 33.0632 90.0778 32.7997 89.6792 32.6269C89.4524 32.5286 89.2066 32.4659 88.9417 32.439C88.6446 32.4087 88.3615 32.4265 88.0923 32.4926C87.4664 32.6463 86.9983 32.9835 86.6879 33.5042C86.5703 33.7014 86.4788 33.929 86.4133 34.1869C86.253 34.819 86.2798 35.4535 86.4938 36.0904C86.6298 36.4957 86.8615 36.8326 87.1887 37.1013ZM102.67 38.5769L102.676 38.5761C102.677 38.576 102.679 38.5762 102.68 38.5769C102.682 38.5775 102.683 38.5786 102.684 38.5799C102.685 38.5813 102.686 38.5829 102.687 38.5847L102.688 38.5875L102.688 38.5904C102.69 38.9215 102.719 39.2494 102.776 39.5742C102.778 39.5826 102.782 39.5903 102.789 39.5958C102.79 39.5969 102.792 39.5979 102.793 39.5988C102.795 39.5999 102.797 39.6008 102.799 39.6016L102.803 39.6028C102.806 39.6038 102.81 39.6043 102.813 39.6042H105.234C105.236 39.6043 105.237 39.6041 105.238 39.6038C105.24 39.6036 105.241 39.6032 105.242 39.6027C105.245 39.6017 105.247 39.6001 105.249 39.5982C105.251 39.5963 105.252 39.5941 105.253 39.5916C105.254 39.5892 105.254 39.5866 105.254 39.5841C105.225 39.2266 105.205 38.8722 105.193 38.5211C105.186 38.3361 105.183 38.0916 105.183 37.7877V26.1312C105.183 26.1245 105.18 26.118 105.175 26.1133C105.17 26.1085 105.163 26.1059 105.156 26.1059H102.656C102.652 26.1059 102.648 26.1066 102.645 26.1081C102.641 26.1096 102.637 26.1118 102.634 26.1146C102.632 26.1173 102.629 26.1206 102.628 26.1242C102.627 26.126 102.626 26.1279 102.626 26.1298C102.626 26.1317 102.625 26.1337 102.625 26.1356L102.626 31.3C102.626 31.3216 102.619 31.3234 102.607 31.3055C102.432 31.053 102.219 30.8503 101.968 30.6973C101.702 30.5353 101.415 30.4178 101.109 30.3446C100.582 30.2188 100.048 30.1787 99.5072 30.2242C98.8534 30.279 98.2468 30.4575 97.6875 30.7597C97.4691 30.8779 97.2597 31.0175 97.0593 31.1785C96.4802 31.643 96.0474 32.2041 95.7608 32.8618C95.2962 33.9278 95.1918 35.0437 95.4474 36.2097C95.5369 36.6184 95.6846 37.0196 95.8904 37.4133C96.3028 38.2027 96.8946 38.8135 97.666 39.2456C97.8869 39.3695 98.1181 39.4732 98.3597 39.5569C99.0183 39.7857 99.7044 39.8684 100.418 39.805C101.04 39.75 101.592 39.5508 102.074 39.2075C102.301 39.046 102.496 38.8382 102.66 38.5842C102.662 38.5821 102.663 38.5803 102.665 38.579C102.667 38.5777 102.668 38.577 102.67 38.5769ZM99.5524 37.4974C99.2607 37.411 99.0019 37.2697 98.7762 37.0734C98.427 36.77 98.1897 36.3996 98.0644 35.9623C97.8844 35.3352 97.8819 34.7175 98.0568 34.1095C98.1291 33.8586 98.2297 33.6349 98.3586 33.4381C98.7375 32.8606 99.2868 32.5309 100.006 32.4489C100.265 32.4193 100.52 32.4264 100.77 32.4702C101.418 32.584 101.912 32.9059 102.251 33.4359C102.378 33.6334 102.476 33.8583 102.546 34.1106C102.686 34.6164 102.702 35.1384 102.594 35.6768C102.537 35.9633 102.444 36.2232 102.316 36.4564C102.093 36.8599 101.781 37.162 101.378 37.3627C101.153 37.4745 100.91 37.5483 100.65 37.584C100.284 37.6344 99.9178 37.6055 99.5524 37.4974ZM71.7162 32.0794L71.7152 32.0819C71.7149 32.083 71.7146 32.0842 71.7145 32.0853L71.7145 32.0876C71.7146 32.0905 71.7155 32.0932 71.7171 32.0956C71.7179 32.0968 71.7189 32.098 71.72 32.099L71.7207 32.0995C71.7216 32.1002 71.7225 32.1008 71.7235 32.1013C71.7261 32.1027 71.729 32.1033 71.732 32.1033H77.0706C77.0747 32.1033 77.0788 32.1041 77.0825 32.1056C77.0863 32.1071 77.0897 32.1092 77.0926 32.112C77.0939 32.1132 77.095 32.1145 77.096 32.1159C77.0974 32.1177 77.0985 32.1196 77.0993 32.1217C77.0998 32.1228 77.1002 32.1239 77.1006 32.125C77.1008 32.126 77.1011 32.1269 77.1012 32.1279C77.1016 32.1296 77.1017 32.1313 77.1017 32.133V34.4524C77.1017 34.4555 77.1009 34.4586 77.0994 34.4613C77.0985 34.4628 77.0974 34.4642 77.0961 34.4654C77.0948 34.4667 77.0933 34.4677 77.0918 34.4685L77.0899 34.4694L77.0875 34.4702C77.0859 34.4706 77.0842 34.4708 77.0825 34.4708L71.7692 34.473C71.762 34.473 71.7552 34.4757 71.7502 34.4806C71.7452 34.4855 71.7423 34.4921 71.7423 34.4991V39.5875C71.7423 39.5958 71.7389 39.6037 71.7328 39.6096C71.7267 39.6154 71.7184 39.6187 71.7097 39.6187H69.0644C69.0624 39.6187 69.0605 39.6186 69.0587 39.6183L69.0547 39.6174L69.0508 39.6161C69.0466 39.6145 69.0427 39.612 69.0394 39.6088C69.0361 39.6057 69.0335 39.602 69.0318 39.5979C69.03 39.5938 69.0291 39.5894 69.0291 39.5849L69.0268 26.4301C69.0267 26.4248 69.0286 26.4197 69.0321 26.4158C69.0356 26.4119 69.0404 26.4096 69.0456 26.4092C69.0775 26.4063 69.1391 26.4048 69.2304 26.4048C72.0706 26.4077 74.9063 26.4054 77.7376 26.3978C77.7409 26.3978 77.7443 26.3985 77.7474 26.3997C77.7505 26.4009 77.7533 26.4027 77.7557 26.405C77.7581 26.4073 77.76 26.41 77.7613 26.413C77.7626 26.416 77.7632 26.4192 77.7632 26.4224V28.8156C77.7632 28.8196 77.7624 28.8235 77.7609 28.8271C77.7593 28.8308 77.757 28.8341 77.754 28.8369L77.752 28.8387L77.7491 28.8407C77.7475 28.8418 77.7457 28.8427 77.7438 28.8434C77.74 28.8449 77.7359 28.8457 77.7318 28.8457H71.7565C71.7521 28.8457 71.7478 28.8465 71.7437 28.8481C71.7397 28.8497 71.736 28.8521 71.7329 28.8551C71.7298 28.858 71.7274 28.8615 71.7257 28.8654C71.724 28.8693 71.7231 28.8734 71.7231 28.8776C71.7231 29.9208 71.7251 30.9685 71.7289 32.0207C71.7289 32.0435 71.7247 32.063 71.7162 32.0794ZM42.2834 28.4188C42.2834 28.8835 41.8899 29.2601 41.4044 29.2601C40.919 29.2601 40.5254 28.8835 40.5254 28.4188C40.5254 27.9542 40.919 27.5776 41.4044 27.5776C41.8899 27.5776 42.2834 27.9542 42.2834 28.4188ZM108.534 38.6549C107.749 37.9712 107.25 37.1111 107.039 36.0745C106.798 34.8924 106.943 33.7765 107.475 32.727C107.797 32.0903 108.258 31.5548 108.858 31.1204C109.062 30.9728 109.277 30.8416 109.504 30.7266C110.17 30.3891 110.892 30.2018 111.672 30.1646C112.333 30.133 112.967 30.2093 113.575 30.3933C114.666 30.7239 115.52 31.3305 116.137 32.2131C116.61 32.8905 116.886 33.6575 116.964 34.5142C117.03 35.2453 116.954 35.9459 116.734 36.6159C116.657 36.8504 116.563 37.0772 116.45 37.2964C115.964 38.2422 115.225 38.9451 114.232 39.4052C113.466 39.7595 112.635 39.9199 111.739 39.8864C110.492 39.8399 109.424 39.4294 108.534 38.6549ZM110.703 37.2931C111.185 37.5807 111.726 37.6836 112.326 37.6018C112.951 37.5169 113.455 37.2372 113.838 36.7627C114.03 36.5249 114.168 36.2709 114.251 36.0007C114.427 35.4247 114.445 34.8365 114.304 34.236C114.206 33.8214 114.023 33.4669 113.755 33.1722C113.472 32.8615 113.126 32.645 112.716 32.5229C112.482 32.4529 112.23 32.4174 111.96 32.4165C111.243 32.414 110.651 32.6628 110.185 33.1627C110.012 33.3474 109.876 33.553 109.776 33.7793C109.654 34.0551 109.577 34.3551 109.543 34.6794C109.499 35.1095 109.535 35.5279 109.651 35.9343C109.745 36.2644 109.904 36.5576 110.127 36.8138C110.292 37.0022 110.484 37.162 110.703 37.2931ZM79.4365 30.4351H81.9983C82.0083 30.4351 82.0163 30.4428 82.0163 30.4523V39.5942C82.0163 39.6037 82.0083 39.6114 81.9983 39.6114H79.4365C79.4266 39.6114 79.4185 39.6037 79.4185 39.5942V30.4523C79.4185 30.4428 79.4266 30.4351 79.4365 30.4351Z" fill="white"/>
</svg>
