<svg width="140" height="67" viewBox="0 0 140 67" fill="none" xmlns="http://www.w3.org/2000/svg">
<path fill-rule="evenodd" clip-rule="evenodd" d="M19.5046 36.2885C19.5134 36.2885 19.5218 36.2918 19.528 36.2978C19.5342 36.3037 19.5377 36.3117 19.5377 36.3201C19.545 36.7788 19.5516 37.2402 19.5574 37.7044C19.561 37.9794 19.62 38.2198 19.7344 38.4256C19.8488 38.6308 20.0282 38.7922 20.2726 38.9096C20.6346 39.0837 21.0454 39.1337 21.5049 39.0594C21.8585 39.0022 22.1347 38.8642 22.3335 38.6454C22.5019 38.4602 22.6126 38.202 22.6656 37.8708C22.7537 37.3188 22.6168 36.8433 22.2548 36.4443C22.0995 36.2732 21.7887 36.0306 21.3223 35.7164C20.9939 35.4951 20.6522 35.2926 20.297 35.109C19.8317 34.8681 19.368 34.6244 18.9058 34.378C18.3739 34.094 17.8614 33.7811 17.3682 33.4394C16.8778 33.0986 16.4563 32.6926 16.1037 32.2214C15.8246 31.8486 15.6403 31.4366 15.5505 30.9854C15.4115 30.2894 15.4134 29.6046 15.5561 28.9312C15.6699 28.3937 15.8624 27.9307 16.1336 27.5423C16.5203 26.9878 17.0501 26.566 17.7231 26.277C18.018 26.15 18.3225 26.0496 18.6367 25.9759C19.8065 25.6988 21.0249 25.6314 22.2918 25.7734C22.8741 25.8386 23.3934 25.948 23.8498 26.1016C24.9619 26.4754 25.6961 27.1624 26.0523 28.1626C26.1614 28.4692 26.2286 28.8516 26.2537 29.3098C26.2747 29.6882 26.2776 30.0778 26.2624 30.4788C26.2618 30.4988 26.2531 30.5177 26.2381 30.5316C26.2231 30.5456 26.203 30.5533 26.1821 30.5533H22.4224C22.4153 30.5533 22.4084 30.552 22.4019 30.5493C22.3954 30.5467 22.3895 30.5429 22.3846 30.538C22.3796 30.5332 22.3758 30.5274 22.3732 30.5211C22.3707 30.5149 22.3695 30.5081 22.3697 30.5014C22.3776 30.128 22.3673 29.7692 22.339 29.425C22.3159 29.1489 22.2212 28.9131 22.0549 28.7174C21.9033 28.5382 21.6927 28.408 21.4231 28.3267C21.0275 28.2073 20.6286 28.2218 20.2262 28.3704C19.9393 28.4762 19.7305 28.6765 19.5999 28.971C19.4325 29.3479 19.4073 29.716 19.5243 30.0753C19.5936 30.2866 19.731 30.4941 19.9366 30.6979C20.1286 30.888 20.3317 31.0454 20.5457 31.1698C21.3205 31.62 22.1082 32.048 22.9087 32.454C23.502 32.7551 24.0227 33.0514 24.4707 33.343C24.8888 33.6155 25.2885 33.9482 25.6699 34.3412C25.9673 34.6473 26.196 34.988 26.356 35.3634C26.4893 35.6755 26.5753 36.0647 26.6141 36.5309C26.6713 37.2134 26.6356 37.8946 26.5071 38.5746C26.3503 39.4041 25.9566 40.0816 25.326 40.607C24.8791 40.9799 24.3387 41.2569 23.705 41.4381C22.5604 41.7658 21.3221 41.8699 19.9901 41.7505C19.0637 41.6677 18.2509 41.4586 17.5516 41.1234C16.686 40.7094 16.0723 40.1027 15.7103 39.3033C15.5356 38.9179 15.4225 38.4308 15.3711 37.8422C15.3276 37.3343 15.3244 36.8262 15.3617 36.3179C15.3623 36.3101 15.3659 36.3028 15.3717 36.2975C15.3775 36.2922 15.3852 36.2893 15.3932 36.2893L19.5046 36.2885ZM114.858 40.2859C114.17 39.6987 113.764 38.9638 113.642 38.0811C113.559 37.4844 113.52 36.8852 113.524 36.2835L113.527 35.7671C113.517 33.1425 113.524 31.2715 113.548 30.1539C113.552 29.9677 113.596 29.631 113.68 29.1437C113.875 28.0161 114.455 27.1624 115.421 26.5828C115.936 26.2747 116.547 26.0584 117.253 25.934C118.564 25.7041 119.853 25.7119 121.121 25.9573C121.67 26.0632 122.204 26.2614 122.726 26.552C123.444 26.9519 123.944 27.4766 124.225 28.126C124.458 28.6659 124.585 29.229 124.604 29.8151C124.615 30.1473 124.614 30.5107 124.6 30.9051C124.6 30.9257 124.591 30.9452 124.575 30.9595C124.56 30.9739 124.539 30.9819 124.518 30.9819H120.755C120.743 30.9819 120.732 30.9798 120.722 30.9756C120.712 30.9715 120.702 30.9655 120.694 30.9579C120.686 30.9502 120.68 30.9412 120.676 30.9312C120.671 30.9213 120.669 30.9106 120.669 30.8998V30.2645C120.669 29.9765 120.656 29.7657 120.63 29.6322C120.477 28.8489 119.933 28.4637 118.997 28.4767C118.229 28.4878 117.737 28.8398 117.521 29.5329C117.453 29.7522 117.42 30.0846 117.423 30.5302C117.436 32.5316 117.437 34.5326 117.425 36.5334C117.422 37.0518 117.442 37.4455 117.487 37.7145C117.548 38.0773 117.764 38.3659 118.136 38.5801C118.453 38.7628 118.832 38.8326 119.272 38.7894C120.233 38.6961 120.713 38.1824 120.711 37.2485C120.709 36.4958 120.708 35.7498 120.708 35.0106C120.708 34.9986 120.703 34.9871 120.695 34.9787C120.686 34.9702 120.674 34.9654 120.661 34.9654L119.187 34.9715C119.168 34.9715 119.15 34.9641 119.136 34.951C119.123 34.9378 119.115 34.92 119.115 34.9015L119.12 32.8224C119.12 32.8084 119.125 32.795 119.136 32.7851C119.146 32.7752 119.161 32.7697 119.175 32.7697H124.598C124.61 32.7697 124.621 32.7741 124.629 32.782C124.638 32.7899 124.643 32.8006 124.643 32.8118C124.651 34.0835 124.647 35.3428 124.633 36.5899C124.625 37.3155 124.597 37.8161 124.55 38.0916C124.282 39.6443 123.317 40.668 121.653 41.1628C120.83 41.4072 119.964 41.5221 119.054 41.5076C118.467 41.498 117.944 41.4571 117.487 41.3849C116.807 41.2775 116.165 41.0702 115.559 40.7631C115.324 40.6442 115.091 40.4851 114.858 40.2859ZM66.4757 39.0453C66.6929 39.634 67.0512 40.1283 67.5506 40.5283C68.0941 40.9638 68.717 41.272 69.4194 41.4526C69.8349 41.5595 70.3527 41.6391 70.9728 41.6913C71.8866 41.7685 72.7947 41.7239 73.6969 41.5573C74.1544 41.473 74.5518 41.3646 74.8891 41.2321C75.3025 41.07 75.6628 40.87 75.9703 40.6321C76.6354 40.1173 77.0564 39.4563 77.2332 38.6494C77.2946 38.3679 77.3371 38.0106 77.3607 37.5775C77.379 37.2327 77.3762 36.8724 77.352 36.4965C77.2912 35.5556 76.9153 34.7672 76.2244 34.1314C75.7906 33.7324 75.3583 33.4057 74.9276 33.1513C74.1339 32.6826 73.1873 32.1695 72.0878 31.6119C71.5422 31.3354 71.0987 31.0456 70.7572 30.7425C70.3873 30.4148 70.2315 29.993 70.2897 29.4772C70.3385 29.0436 70.5263 28.7252 70.8531 28.5219C71.0404 28.4055 71.2689 28.335 71.5385 28.3104C71.8003 28.2863 72.0448 28.3129 72.2719 28.3902C72.8316 28.5814 73.1186 28.9813 73.1328 29.5901C73.139 29.8721 73.1422 30.177 73.1422 30.5047C73.1422 30.5222 73.1494 30.539 73.1624 30.5515C73.1753 30.564 73.1929 30.5713 73.2114 30.5716C74.4778 30.5982 75.7203 30.5975 76.9389 30.5694C76.9497 30.5692 76.9601 30.5652 76.968 30.5581C76.9758 30.551 76.9806 30.5413 76.9814 30.531C77.0433 29.7702 77.016 29.1116 76.8996 28.555C76.7102 27.6507 76.1686 26.96 75.2747 26.4827C74.7758 26.2157 74.2305 26.0331 73.6387 25.9347C72.4463 25.7355 71.2678 25.7292 70.1033 25.9159C69.6322 25.9912 69.2248 26.0908 68.8812 26.2147C68.4552 26.3693 68.0838 26.5645 67.767 26.8004C67.2618 27.1757 66.8977 27.6179 66.6748 28.1267C66.3732 28.8157 66.2536 29.567 66.316 30.3804C66.3621 30.9791 66.5211 31.5133 66.7928 31.9831C67.0006 32.3414 67.341 32.719 67.8142 33.1159C68.3262 33.5455 68.8849 33.9171 69.4903 34.2308C70.4351 34.7205 71.3589 35.2437 72.2617 35.8002C72.6226 36.0226 72.9014 36.2499 73.0981 36.4822C73.4963 36.954 73.5968 37.5015 73.3995 38.1247C73.2427 38.6215 72.8951 38.9161 72.3569 39.0085C71.9524 39.0782 71.5863 39.0549 71.2584 38.9384C70.6063 38.7066 70.3097 38.2376 70.3684 37.5316C70.3905 37.2661 70.3831 36.8533 70.3464 36.2933C70.3458 36.2833 70.3411 36.2739 70.3334 36.267C70.3256 36.2602 70.3154 36.2564 70.3047 36.2564L66.2672 36.2519C66.2503 36.2519 66.234 36.2582 66.2218 36.2696C66.2096 36.281 66.2025 36.2965 66.2019 36.3129C66.1846 36.7896 66.1922 37.2495 66.2247 37.6926C66.2656 38.2527 66.3493 38.7036 66.4757 39.0453ZM35.5846 27.4432C35.5411 27.4733 35.519 27.5152 35.5185 27.5689C35.518 27.6397 35.5175 27.6781 35.5169 27.6841C34.8166 32.171 34.1116 36.6659 33.4018 41.1688C33.4005 41.1773 33.3961 41.1849 33.3894 41.1905C33.3828 41.196 33.3743 41.199 33.3656 41.1989L29.2581 41.2125C29.2472 41.2126 29.2364 41.2103 29.2265 41.2059C29.2167 41.2015 29.2079 41.1951 29.2009 41.187C29.1939 41.179 29.1889 41.1695 29.1861 41.1593C29.1833 41.1492 29.1829 41.1385 29.1849 41.1282L32.0586 26.214C32.0614 26.1984 32.0699 26.1842 32.0825 26.174C32.0952 26.1638 32.1113 26.1582 32.1278 26.1583L38.9556 26.1628C38.9738 26.1628 38.9913 26.169 39.0053 26.1801C39.0192 26.1912 39.0287 26.2067 39.032 26.2238L41.886 41.1402C41.8877 41.1492 41.8874 41.1584 41.885 41.1671C41.8826 41.1759 41.8782 41.1841 41.8721 41.1911C41.866 41.1981 41.8584 41.2037 41.8497 41.2075C41.8411 41.2113 41.8317 41.2133 41.8222 41.2132H37.7824C37.7614 41.2133 37.7411 41.2061 37.7252 41.1929C37.7093 41.1798 37.6989 41.1616 37.6958 41.1417C37.0207 36.7422 36.3497 32.3562 35.683 27.9837C35.6494 27.7639 35.6287 27.5897 35.6208 27.4613C35.6192 27.4337 35.6072 27.4277 35.5846 27.4432ZM49.0095 27.739C49.0095 27.6623 49.0147 27.6103 49.0252 27.5832C49.053 27.5095 49.0743 27.511 49.089 27.5877L51.7116 41.1515C51.7151 41.1689 51.7248 41.1845 51.739 41.1958C51.7532 41.207 51.7711 41.2132 51.7895 41.2132H55.5855C55.6129 41.2132 55.6395 41.204 55.6606 41.1872C55.6817 41.1705 55.696 41.1472 55.7011 41.1214C56.5788 36.5914 57.4541 32.0488 58.327 27.4936C58.3286 27.4836 58.3291 27.4716 58.3285 27.4575C58.3265 27.4284 58.333 27.4169 58.3482 27.4229C58.3544 27.4253 58.3598 27.4306 58.3636 27.438C58.3674 27.4454 58.3695 27.4546 58.3695 27.4643L58.4686 41.1327C58.4686 41.1433 58.4708 41.1538 58.475 41.1635C58.4793 41.1733 58.4855 41.1822 58.4933 41.1897C58.5011 41.1971 58.5104 41.2031 58.5206 41.2071C58.5308 41.2112 58.5418 41.2132 58.5528 41.2132H62.344C62.3511 41.2132 62.3581 41.2119 62.3647 41.2093C62.3712 41.2067 62.3772 41.2028 62.3821 41.198C62.3871 41.1932 62.391 41.1874 62.3937 41.1811L62.3955 41.1762C62.3961 41.1741 62.3966 41.172 62.3969 41.1698C62.3972 41.1681 62.3974 41.1665 62.3975 41.1648C62.3975 41.1636 62.3975 41.1625 62.3975 41.1613L62.0481 26.208C62.0479 26.1947 62.0423 26.1821 62.0324 26.1728C62.0226 26.1635 62.0093 26.1583 61.9954 26.1583L55.7428 26.1628C55.7253 26.1628 55.7082 26.1688 55.6948 26.1799C55.6814 26.1909 55.6725 26.2062 55.6697 26.223C55.0145 30.0635 54.375 33.877 53.7512 37.6633C53.7491 37.6773 53.7473 37.6977 53.7457 37.7243C53.7421 37.7865 53.7242 37.8015 53.6922 37.7694C53.6796 37.7564 53.6715 37.7391 53.6678 37.7175C53.0331 33.887 52.3915 30.0545 51.7431 26.22C51.7403 26.2028 51.7311 26.1871 51.7173 26.1758C51.7034 26.1644 51.6858 26.1582 51.6676 26.1583H45.4237C45.4085 26.1583 45.3939 26.1639 45.383 26.1741C45.3721 26.1842 45.3658 26.198 45.3654 26.2125L45.0263 41.1447C45.0261 41.1537 45.0277 41.1625 45.0311 41.1708C45.0346 41.1791 45.0397 41.1867 45.0462 41.1931C45.0527 41.1995 45.0605 41.2045 45.0691 41.208C45.0777 41.2115 45.087 41.2132 45.0963 41.2132H48.8576C48.876 41.2132 48.8936 41.2063 48.9066 41.1941C48.9196 41.1818 48.9269 41.1651 48.9269 41.1478C48.9673 36.6875 48.9948 32.2179 49.0095 27.739ZM82.3808 40.526C81.5981 39.8846 81.1627 39.0599 81.0746 38.0517C81.0352 37.6041 81.0156 37.2214 81.0156 36.9038V26.2102C81.0156 26.2034 81.017 26.1966 81.0197 26.1903C81.0224 26.184 81.0264 26.1783 81.0315 26.1735C81.0365 26.1687 81.0425 26.1648 81.0491 26.1622C81.0557 26.1596 81.0627 26.1583 81.0699 26.1583H84.9028C84.9205 26.1583 84.9375 26.165 84.9501 26.177C84.9626 26.189 84.9697 26.2053 84.9697 26.2223C84.9697 29.9183 84.9681 33.623 84.9649 37.3366C84.9644 37.4836 84.978 37.6294 85.0058 37.7739C85.0987 38.2647 85.3429 38.6022 85.7384 38.7864C86.0868 38.9485 86.4736 38.9904 86.8991 38.9121C87.4929 38.8022 87.8662 38.415 88.0188 37.7506C88.0414 37.6517 88.0524 37.4134 88.0519 37.0355C88.043 33.4223 88.0385 29.8179 88.0385 26.2223C88.0385 26.2053 88.0455 26.189 88.0581 26.177C88.0706 26.165 88.0876 26.1583 88.1054 26.1583H91.9383C91.9527 26.1583 91.9665 26.1637 91.9767 26.1735C91.9869 26.1832 91.9926 26.1964 91.9926 26.2102C91.9926 29.9142 91.9929 33.6042 91.9934 37.2801C91.9939 37.8572 91.9026 38.42 91.7195 38.9685C91.4389 39.8111 90.9119 40.4512 90.1387 40.8888C89.5821 41.2035 88.9615 41.4157 88.2769 41.5256C86.8055 41.762 85.3817 41.7081 84.0057 41.3638C83.426 41.2188 82.8844 40.9395 82.3808 40.526ZM105.789 38.1639L105.781 38.1646C105.777 38.1649 105.774 38.1634 105.77 38.1602C105.767 38.157 105.764 38.1525 105.763 38.1473L102.139 26.2155C102.134 26.2003 102.125 26.187 102.112 26.1775C102.098 26.168 102.082 26.1628 102.066 26.1628L96.3876 26.1583C96.3792 26.1583 96.3709 26.1598 96.3632 26.1629C96.3555 26.166 96.3484 26.1705 96.3425 26.1761C96.3366 26.1818 96.3319 26.1885 96.3287 26.1959C96.3255 26.2033 96.3239 26.2112 96.3239 26.2192L96.3191 40.9919C96.3191 40.9988 96.3205 41.0055 96.3233 41.0118C96.326 41.0181 96.33 41.0238 96.3351 41.0287C96.3401 41.0335 96.3461 41.0373 96.3527 41.0399C96.3592 41.0425 96.3663 41.0439 96.3734 41.0439H100.094C100.102 41.0439 100.11 41.0423 100.118 41.0392C100.126 41.0361 100.133 41.0316 100.139 41.026C100.144 41.0203 100.149 41.0136 100.152 41.0062C100.155 40.9988 100.157 40.9909 100.157 40.9829C100.084 36.9095 100.012 32.8595 99.9396 28.8328C99.9396 28.8288 99.938 28.8019 99.9349 28.7522C99.9302 28.6825 99.9459 28.6584 99.9821 28.68C99.991 28.685 99.9986 28.6933 100.004 28.7039C100.01 28.7146 100.013 28.7274 100.014 28.741C100.018 28.8162 100.032 28.8902 100.055 28.963C101.327 32.9681 102.596 36.9783 103.862 40.9934C103.867 41.008 103.876 41.0208 103.889 41.0299C103.902 41.039 103.917 41.0439 103.933 41.0439H109.394C109.408 41.0439 109.421 41.0386 109.43 41.0293C109.44 41.02 109.445 41.0074 109.445 40.9942L109.44 26.2095C109.44 26.2027 109.439 26.1961 109.436 26.1899C109.434 26.1837 109.43 26.178 109.425 26.1733C109.42 26.1685 109.414 26.1647 109.407 26.1622C109.401 26.1596 109.394 26.1583 109.387 26.1583H105.654C105.645 26.1583 105.636 26.16 105.627 26.1634C105.618 26.1669 105.611 26.1719 105.604 26.1782C105.598 26.1845 105.592 26.1919 105.589 26.2001C105.586 26.2084 105.584 26.2172 105.584 26.226L105.796 38.1526C105.796 38.1554 105.796 38.1581 105.794 38.1601C105.793 38.1622 105.791 38.1635 105.789 38.1639Z" fill="white"/>
</svg>
