<svg width="72" height="48" viewBox="0 0 72 48" fill="none" xmlns="http://www.w3.org/2000/svg">
<g clip-path="url(#clip0_869_44681)">
<path d="M33.5536 43.819C33.4449 43.7733 33.3362 43.7298 33.234 43.682C32.7457 43.4645 32.5348 43.0295 32.7055 42.5261C32.7729 42.3282 32.7359 42.2064 32.5696 42.1238C32.3639 42.0064 32.1448 41.914 31.9172 41.8487C31.7062 41.803 31.5246 41.9335 31.4094 42.1216C31.3533 42.1993 31.3301 42.2958 31.3448 42.3905C31.3594 42.4851 31.4108 42.5702 31.4877 42.6272C31.6573 42.7577 31.828 42.7425 31.9922 42.5805C32.0205 42.5489 32.0466 42.5163 32.0716 42.4826C32.0831 42.6083 32.0697 42.735 32.0322 42.8555C31.9947 42.976 31.9338 43.0879 31.853 43.1849C31.7722 43.2818 31.6731 43.3619 31.5614 43.4205C31.4496 43.4791 31.3274 43.5151 31.2017 43.5265C31.1388 43.5324 31.0754 43.5324 31.0125 43.5265C30.6811 43.505 30.3643 43.382 30.1052 43.1742C29.8461 42.9665 29.6572 42.684 29.5641 42.3652C29.4824 42.0504 29.5044 41.7177 29.6268 41.4164C29.7493 41.1151 29.9656 40.8614 30.2437 40.6928C31.1788 40.0882 32.1248 40.2024 33.0458 40.732C33.3144 40.8864 33.5417 41.1136 33.7939 41.2996C33.86 41.3596 33.9442 41.396 34.0332 41.4029C34.7943 41.2887 35.4348 41.5747 36.0241 42.014C36.67 42.4967 37.3116 42.9839 37.9814 43.4536C37.7923 43.3729 37.6083 43.281 37.4301 43.1785C36.9495 42.8664 36.4819 42.5348 36.0056 42.2173C35.4402 41.8421 34.8346 41.6105 34.1408 41.7465C33.804 41.801 33.498 41.9746 33.2785 42.2358C32.9067 42.6892 33.0263 43.1524 33.6047 43.4014C33.3731 43.0328 33.4427 42.711 33.7135 42.4337C33.8595 42.2767 34.0488 42.1664 34.2573 42.1167C34.4659 42.067 34.6845 42.08 34.8857 42.1542C35.1255 42.238 35.3506 42.3595 35.5522 42.5141C35.9491 42.8045 36.3242 43.1252 36.6852 43.4145C36.2905 43.2764 35.948 42.9958 35.6142 42.7012C35.325 42.4456 35.0129 42.2456 34.6062 42.2662C34.488 42.2693 34.3717 42.2976 34.2654 42.3494C34.159 42.4012 34.065 42.4752 33.9897 42.5663C33.8461 42.7381 33.7646 42.9371 33.8733 43.1524C33.9821 43.3677 34.1876 43.4471 34.4235 43.4449C34.4863 43.4364 34.5502 43.4479 34.6062 43.4775L34.0734 43.819H33.5536ZM33.2035 41.7802C32.8983 41.4846 32.5248 41.269 32.1162 41.1528C31.355 40.957 30.6395 41.3702 30.5134 42.0585C30.421 42.5707 30.8983 43.0709 31.3517 42.9284C31.0527 42.7795 30.857 42.5555 30.8766 42.2086C30.8845 42.0627 30.936 41.9226 31.0244 41.8063C31.1128 41.69 31.234 41.6029 31.3724 41.5562C31.5023 41.5027 31.64 41.4703 31.7802 41.4605C32.264 41.4279 32.6337 41.6725 32.9599 41.9846L33.2035 41.7802ZM29.9958 42.2967C29.8979 41.2561 30.9744 40.4068 32.4347 40.7744C31.703 40.372 30.571 40.6406 30.1241 41.3267C29.9284 41.6345 29.8577 41.9585 29.9958 42.2967Z" fill="white"/>
<path d="M25.5325 19.2547C25.526 18.9883 25.5325 18.7393 25.277 18.573C25.2412 18.5438 25.2129 18.5065 25.1944 18.4642C24.9627 18.0293 24.3397 17.7031 23.8504 17.7977C23.6916 17.827 23.4959 17.8607 23.3969 17.9662C23.1619 18.1957 22.9674 18.4634 22.8217 18.7578C22.6184 19.2286 22.4955 19.7364 22.3368 20.2236C22.2987 20.3432 22.2661 20.4639 22.228 20.5813C22.1378 20.8477 22.041 21.1119 21.9551 21.3794C21.7913 21.8869 21.63 22.3943 21.4712 22.9017C21.4419 22.9963 21.4005 23.0866 21.3625 23.1779C21.3061 23.1208 21.2682 23.0481 21.2538 22.9692C21.1088 22.345 20.9638 21.7216 20.8188 21.0989C20.7449 20.7727 20.7101 20.4291 20.6013 20.1148C20.4469 19.6799 20.2295 19.258 20.0577 18.8263C19.7238 18.0119 18.8974 17.7281 18.1265 17.802C17.909 17.8227 17.6676 17.9282 17.5915 18.1674C17.4515 18.5928 17.3332 19.025 17.237 19.4624C17.137 19.9137 17.0772 20.3867 17 20.8564V27.2218C17.0196 27.2322 17.0379 27.245 17.0544 27.2599C17.2653 27.4871 17.4893 27.6437 17.8155 27.4774C17.8748 27.4566 17.9377 27.4481 18.0004 27.4523C18.1374 27.4523 18.1874 27.3828 18.1874 27.2436C18.1874 27.0087 18.2102 26.7738 18.22 26.539C18.2363 26.1714 18.2657 25.8028 18.2624 25.4353C18.2537 24.361 18.232 23.2878 18.2146 22.2145C18.2146 22.121 18.2081 22.0275 18.2004 21.9351C18.1841 21.7274 18.1483 21.5197 18.1526 21.3131C18.157 21.1065 18.2015 20.8782 18.2265 20.6607C18.2603 20.3541 18.2929 20.0474 18.3266 19.7408L18.3994 19.7256C18.4547 19.8463 18.5029 19.9701 18.5441 20.0964C18.7072 20.7151 18.8768 21.3327 19.0203 21.9557C19.3465 23.353 19.6445 24.7546 19.9641 26.1508C20.0319 26.425 20.1195 26.6939 20.2262 26.9554C20.2656 27.0635 20.3331 27.159 20.4218 27.2323C20.5105 27.3055 20.6172 27.3537 20.7307 27.3719C21.0069 27.436 21.3136 27.2827 21.5604 27.4969C21.5674 27.5006 21.5753 27.5026 21.5832 27.5026C21.5912 27.5026 21.599 27.5006 21.6061 27.4969C21.7213 27.3577 21.9105 27.2294 21.9323 27.0761C22.0008 26.6086 22.0008 26.1301 22.041 25.6571C22.0507 25.4238 22.0802 25.1917 22.1291 24.9634C22.2041 24.6633 22.3226 24.3729 22.4107 24.0761C22.5303 23.6749 22.6282 23.2693 22.7543 22.868C22.8022 22.7071 22.8924 22.5581 22.937 22.3961C23.149 21.6197 23.3524 20.8401 23.5633 20.0626C23.5917 19.9813 23.6282 19.903 23.672 19.8289C23.7263 19.9478 23.7516 20.0778 23.746 20.2084C23.7123 21.8883 23.6546 23.5672 23.6503 25.2472C23.6503 25.979 23.4731 26.7358 23.8569 27.4426C23.9276 27.572 23.9798 27.66 24.1211 27.6502C24.4473 27.6394 24.7812 27.6318 25.1085 27.6002C25.1956 27.5912 25.2761 27.5495 25.3338 27.4836C25.3915 27.4176 25.4221 27.3323 25.4194 27.2447C25.451 26.739 25.4651 26.2312 25.4858 25.7224C25.5358 24.5458 25.6141 23.3704 25.6239 22.195C25.6369 21.2131 25.5575 20.2344 25.5325 19.2547Z" fill="white"/>
<path d="M25.7004 9.77509C25.7079 9.77345 25.7147 9.76967 25.72 9.76421C25.794 9.69788 25.9375 9.62721 25.9277 9.5674C25.9179 9.44235 25.9984 9.44235 26.0528 9.38364C26.1071 9.32492 26.0962 9.20857 26.1223 9.11723L26.2311 8.57355C26.5442 8.57355 26.8835 8.57899 27.2217 8.57355C27.3041 8.56683 27.3835 8.53913 27.4522 8.49309C28.1545 8.03122 28.9155 7.66551 29.715 7.40573C30.2101 7.24355 30.7412 7.22582 31.246 7.35462C31.7396 7.47858 32.2311 7.61233 32.7226 7.7439C32.7901 7.76449 32.8553 7.79181 32.9173 7.82545C33.2435 7.99073 33.2837 8.11469 33.126 8.43763C33.087 8.5135 33.063 8.59621 33.0554 8.6812C33.1382 8.58115 33.2283 8.48738 33.325 8.40066C33.4555 8.29193 33.5577 8.32129 33.6349 8.48983C33.6897 8.59311 33.7124 8.71042 33.7 8.82669C33.6876 8.94295 33.6407 9.05284 33.5653 9.14224C33.2957 9.51847 33.0564 9.91536 32.8042 10.3025C32.5312 10.72 32.1278 10.9875 31.7375 11.2811C31.4341 11.5116 31.1938 11.8345 30.9557 12.1423C30.6883 12.4906 30.5025 12.8945 30.412 13.3242C30.3718 13.4533 30.3201 13.5785 30.2576 13.6983L30.188 13.6896L30.0379 13.1666C29.9866 13.1902 29.9368 13.217 29.889 13.247C29.4627 13.5558 29.0278 13.8538 28.6157 14.18C28.3471 14.3975 28.1187 14.6562 27.8545 14.8792C27.7289 14.9912 27.5805 15.0746 27.4196 15.1238C27.3605 15.1344 27.3058 15.1621 27.2623 15.2035C27.2188 15.2448 27.1884 15.298 27.1749 15.3565C27.0477 15.7349 26.9052 16.109 26.7639 16.483C26.7273 16.5708 26.6766 16.652 26.6138 16.7233C26.6053 16.5592 26.5643 16.3983 26.4932 16.2501C26.4221 16.1019 26.3223 15.9693 26.1995 15.86C26.019 15.7066 25.8277 15.5783 25.5569 15.6294C25.3895 15.661 25.2079 15.6088 25.035 15.6186C24.8621 15.6284 24.6653 15.674 24.4793 15.6936C24.2934 15.7132 24.1172 15.7088 23.9357 15.7295C23.7758 15.748 23.6192 15.7904 23.4605 15.8132C23.3298 15.8459 23.1941 15.8544 23.0603 15.8382C22.9285 15.8007 22.7893 15.7977 22.656 15.8295C22.5227 15.8613 22.3998 15.9268 22.2992 16.0198C22.1765 16.1203 22.0768 16.246 22.007 16.3884C21.9372 16.5308 21.8989 16.6866 21.8947 16.8451C21.8664 17.3888 21.7859 17.9227 21.7066 18.4577C21.6256 18.9402 21.419 19.3929 21.1074 19.7701C21.1074 19.3667 21.1455 19.0231 21.0987 18.6904C21.0271 18.1399 20.9182 17.595 20.7725 17.0593C20.7397 16.9168 20.6695 16.7856 20.5692 16.6791C20.4688 16.5727 20.342 16.4949 20.2017 16.4537C19.8439 16.3449 19.5145 16.1481 19.1621 16.0187C18.8098 15.8893 18.4456 15.7893 18.0117 15.6555C18.2412 15.5555 18.4271 15.4141 18.6239 15.4C19.0584 15.3706 19.4943 15.3706 19.9287 15.4C20.3833 15.425 20.8334 15.4935 21.2868 15.5283C21.5424 15.5468 21.8979 15.1466 21.986 14.9074C22.1179 14.5429 22.2947 14.1963 22.5123 13.8755C22.8896 13.3318 23.3224 12.8262 23.7084 12.2891C23.8728 12.0506 24.0117 11.7955 24.1227 11.5279C24.2314 11.2789 24.1607 11.044 23.9824 10.8374C23.741 10.5591 23.467 10.3362 23.0973 10.2514C23.0327 10.2297 22.9704 10.2017 22.9114 10.1676V10.0969C23.0788 10.0622 23.2517 9.98821 23.4126 10.0023C23.9103 10.0521 24.4045 10.132 24.8925 10.2416C25.2187 10.3188 25.4591 10.2861 25.6537 10.0089C25.6892 9.94309 25.718 9.87387 25.7396 9.80227L25.7004 9.77509Z" fill="white"/>
<path d="M39.9242 24.32C39.859 24.0156 39.8057 23.7068 39.7263 23.4056C39.4958 22.5357 38.6759 22.0877 37.8941 22.4019C37.6719 22.4836 37.4803 22.6319 37.3454 22.8265C37.2105 23.0211 37.139 23.2525 37.1406 23.4893C37.1382 23.7247 37.1604 23.9598 37.2069 24.1906C37.3928 25.0453 38.0072 25.5194 38.9651 25.5662C39.9829 25.6162 40.6919 25.0975 40.9409 24.0939C41.1233 23.3878 41.0706 22.6415 40.7908 21.9681C40.3863 20.9829 39.5882 20.5295 38.5693 20.4458C37.8237 20.373 37.0712 20.4586 36.3609 20.6969C35.2138 21.0927 34.5537 21.9735 34.4961 23.1827C34.3874 25.3389 35.4747 26.8873 37.6386 27.6408C38.0224 27.7746 38.4215 27.8637 38.8347 27.9812V28.2508C38.291 28.2063 37.7604 28.1791 37.2341 28.1149C36.5077 28.0326 35.8007 27.8275 35.1431 27.5082C33.6893 26.7894 32.9314 25.6031 32.8052 24.0058C32.7172 22.8989 32.914 21.8441 33.4881 20.8807C34.2884 19.5422 35.5247 18.8778 37.0242 18.6451C38.0028 18.4929 38.9815 18.5124 39.9275 18.8626C41.9423 19.6063 42.7687 21.5277 42.5806 23.2979C42.5141 24.086 42.2155 24.8367 41.7227 25.4552C41.0083 26.3251 40.0656 26.6644 38.963 26.5785C38.5953 26.5554 38.231 26.4949 37.8756 26.398C36.6284 26.0337 35.9086 24.9964 35.8509 23.6698C35.7901 22.2258 37.1242 20.9764 38.8792 21.5799C39.6404 21.8409 40.0873 22.614 40.0308 23.4752C40.0123 23.7568 39.9807 24.0373 39.9557 24.3189L39.9242 24.32ZM42.0098 22.9195C42.2675 20.6034 40.4157 18.8854 37.9463 19.142C40.2113 19.4226 41.664 20.5752 42.0098 22.9195ZM33.3576 23.5056C33.2489 24.457 33.4935 25.3008 34.1514 26.0065C33.6658 25.2598 33.3912 24.3957 33.3565 23.5056H33.3576ZM35.4997 20.1696C35.3605 20.0891 35.2746 19.9989 35.2094 20.0119C35.1442 20.025 35.0822 20.1359 35.0202 20.2044C35.0909 20.2653 35.1594 20.3697 35.2322 20.374C35.3051 20.3784 35.3769 20.2729 35.4986 20.1696H35.4997Z" fill="white"/>
<path d="M46.4554 35.6629C46.3386 35.7333 46.2264 35.811 46.1194 35.8956C45.9019 36.0924 45.8824 36.2609 46.0618 36.4915C46.2205 36.6959 46.4065 36.8786 46.5631 37.0841C46.7196 37.2896 46.8447 37.531 47.0143 37.7365C47.105 37.8452 47.2345 37.9142 47.3753 37.929C47.6145 37.929 47.8516 37.8354 48.093 37.8148C48.2937 37.8101 48.4946 37.8184 48.6943 37.8398L48.6845 37.9007C48.4116 38.0344 48.1408 38.1801 47.8635 38.2987C47.779 38.3307 47.7055 38.3866 47.652 38.4595C47.5986 38.5325 47.5674 38.6194 47.5623 38.7097C47.5275 39.0359 47.5091 39.3621 47.4536 39.7155C47.3688 39.56 47.2961 39.3983 47.2361 39.2316C47.1676 38.9913 47.135 38.7412 47.0872 38.4944C47.0774 38.3992 47.0339 38.3107 46.9644 38.2449C46.895 38.179 46.8043 38.1403 46.7088 38.1356C46.3347 38.1138 45.9585 38.1171 45.5833 38.116C45.2571 38.116 45.1147 38.3237 45.056 38.614C45.0408 38.6042 45.0299 38.6009 45.0277 38.5955C44.7743 37.8485 44.0491 37.6299 43.4923 37.2102L43.4162 37.4549C43.3155 37.2461 43.1988 37.0455 43.0672 36.8546C42.928 36.6818 42.729 36.5589 42.5735 36.398C42.2984 36.112 42.0298 35.8195 41.7743 35.515C41.7297 35.4617 41.7678 35.3389 41.7678 35.1888C41.2459 35.0355 40.7011 34.8322 40.1368 34.7202C39.4019 34.5583 38.6555 34.4547 37.9044 34.4103C36.6974 34.3668 35.5622 34.7006 34.5031 35.2867C33.608 35.7793 32.7669 36.3642 31.9935 37.0319C31.6673 37.3113 31.3955 37.6473 31.091 37.9507C30.8996 38.141 30.693 38.315 30.382 38.2552L30.3418 38.3248C30.475 38.4528 30.6159 38.5726 30.7637 38.6836C30.8289 38.7271 30.9388 38.7042 31.029 38.7119C31.3215 38.738 31.6619 38.6803 31.8989 38.8097C32.4143 39.0903 32.9449 39.1 33.4952 39.0881C34.0997 39.0761 34.7043 39.0696 35.3089 39.0652C36.4397 39.0558 37.5709 39.0479 38.7025 39.0413C38.771 39.0413 38.8395 39.0478 38.9548 39.0533C38.5525 39.597 38.2339 40.158 37.6913 40.5288C37.3651 40.7539 36.9725 40.8039 36.5887 40.817C35.9625 40.8538 35.3345 40.8509 34.7086 40.8083C34.3516 40.7639 34.0107 40.6329 33.7159 40.4266C32.6285 39.6655 31.4748 39.5633 30.2439 39.9917C29.3175 40.3179 28.3856 40.6267 27.3972 40.6919C26.4251 40.7561 25.49 40.6332 24.6201 40.1483C24.1852 39.9014 24.0199 39.5382 24.0319 39.0609C24.0319 38.9065 24.0949 38.8532 24.2493 38.8902C25.3258 39.1381 26.424 39.1892 27.5223 39.2305C28.0214 39.249 28.5216 39.2305 29.0642 39.2305C28.975 38.7956 29.1305 38.4074 28.9489 38.0138C28.8756 37.8596 28.8478 37.6877 28.8686 37.5183C28.8893 37.3488 28.9579 37.1888 29.0663 37.0569C29.129 36.9859 29.1684 36.8973 29.1791 36.8032C29.1898 36.709 29.1713 36.6139 29.1261 36.5306C29.0816 36.4505 29.0643 36.3581 29.0769 36.2673C29.0894 36.1765 29.1311 36.0922 29.1957 36.0272C29.2504 35.9645 29.3232 35.9204 29.404 35.9009C29.4849 35.8814 29.5698 35.8876 29.647 35.9184C29.7374 35.9456 29.8172 35.9999 29.8755 36.074C29.9339 36.1482 29.968 36.2385 29.9732 36.3327C30.0026 36.5665 30.0819 36.8035 29.797 36.9753C30.2472 37.145 30.6669 37.332 31.1291 37.1461C31.1584 37.1352 31.2073 37.1384 31.2171 37.12C31.3824 36.8111 31.7456 36.8035 31.987 36.61C33.2918 35.5618 34.7184 34.7691 36.3701 34.4266C37.2719 34.2406 38.202 34.2406 39.1038 34.4266C40.0454 34.6136 40.974 34.8289 41.8222 35.1671C42.3735 34.8311 42.9095 34.569 43.5435 34.7582C43.7635 34.8158 43.9767 34.8967 44.1796 34.9996C44.2879 35.0648 44.408 35.108 44.533 35.1266C44.658 35.1453 44.7855 35.1391 44.9081 35.1083C45.0168 35.2997 45.1256 35.4726 45.2256 35.652C45.3256 35.8314 45.43 35.8369 45.5975 35.7792C45.7834 35.7176 45.9734 35.6692 46.1662 35.6346C46.2634 35.6315 46.3606 35.641 46.4554 35.6629Z" fill="white"/>
<path d="M30.313 26.8435C30.1723 26.9328 30.0411 27.0363 29.9215 27.1524C29.6964 27.422 29.3876 27.5014 29.0723 27.5569C28.6254 27.6351 28.1926 27.5666 27.7468 27.4709C27.3146 27.3775 26.9348 27.1218 26.6855 26.7566C26.4126 26.3955 26.3909 25.9541 26.2919 25.5365C26.1245 24.8211 26.2158 24.1164 26.3843 23.4173C26.5137 22.8736 26.8606 22.4887 27.2608 22.1244C28.0458 21.41 28.9636 21.5524 29.8835 21.6895C30.0607 21.7155 30.2358 21.7547 30.4391 21.7917C30.4522 21.6373 30.4717 21.5079 30.475 21.3785C30.4837 21.0099 30.5033 20.6391 30.4859 20.2715C30.4749 20.0611 30.4305 19.8537 30.3543 19.6572C30.2205 19.3049 29.9454 19.2331 29.5931 19.3679C28.9614 19.6126 28.5862 20.1193 28.222 20.6391C28.0458 20.8913 27.5837 20.9587 27.3804 20.725C27.3551 20.6953 27.3367 20.6604 27.3266 20.6228C27.3164 20.5852 27.3147 20.5458 27.3216 20.5075C27.5665 19.9208 27.9627 19.4097 28.4699 19.0265C28.9048 18.6938 29.3898 18.6209 29.9117 18.6231C30.7077 18.6231 31.4079 18.8406 31.9201 19.493C32.1127 19.7355 32.218 20.0358 32.2191 20.3455C32.2397 21.5761 32.1746 22.8067 32.0245 24.0284C31.9364 24.7156 31.9973 25.4234 32.0147 26.1204C32.0234 26.4641 32.0865 26.8066 32.1234 27.1491C32.1397 27.2926 31.9473 27.6014 31.7972 27.6188C31.5434 27.6634 31.2845 27.6711 31.0285 27.6417C30.488 27.5503 30.4 27.4318 30.313 26.8435ZM27.9045 24.7699C28.0273 25.2875 28.135 25.8573 28.3046 26.4075C28.4134 26.7653 28.5819 26.8033 28.8559 26.5489C29.3528 26.0846 29.8215 25.5909 30.301 25.107C30.3208 25.0839 30.3323 25.0548 30.3336 25.0244C30.3521 24.4437 30.3804 23.8631 30.3771 23.2846C30.3566 23.1549 30.2869 23.0381 30.1825 22.9584C30.0077 22.8131 29.8207 22.6833 29.6236 22.5702C29.4389 22.4549 29.2419 22.3605 29.0364 22.2886C28.9809 22.2777 28.9236 22.2801 28.8691 22.2956C28.8147 22.3111 28.7647 22.3392 28.7233 22.3778C28.4645 22.6811 28.2035 22.9943 28.1263 23.4031C28.0447 23.8359 27.9806 24.2698 27.9045 24.7699Z" fill="white"/>
<path d="M50.8146 26.2515C50.879 26.2649 50.9409 26.288 50.9984 26.32C51.4018 26.6462 51.8237 26.4842 52.226 26.3461C52.431 26.2744 52.6183 26.1597 52.7752 26.0097C52.9322 25.8596 53.0553 25.6777 53.1362 25.4762C53.1782 25.3499 53.1952 25.2165 53.1862 25.0837C53.197 23.159 53.2025 21.2344 53.2134 19.3087C53.2134 18.8487 53.3688 18.703 53.831 18.7291C53.9804 18.739 54.1272 18.7728 54.2659 18.8292C54.3905 18.8687 54.4982 18.9487 54.5721 19.0564C54.646 19.1642 54.6817 19.2936 54.6737 19.424C54.6737 20.1384 54.6802 20.8538 54.6867 21.5682C54.6961 22.8491 54.7063 24.1293 54.7172 25.4088C54.7172 25.9731 54.727 26.5364 54.7172 27.1007C54.7178 27.182 54.6862 27.2601 54.6294 27.3182C54.5725 27.3763 54.495 27.4095 54.4138 27.4106H54.3681C53.9582 27.3921 53.5439 27.3617 53.2286 27.0301C53.1851 26.9844 53.0568 26.992 52.9774 27.0137C52.904 27.0431 52.8404 27.0925 52.7936 27.1562C52.2086 27.8401 50.9136 27.7977 50.2688 27.365C49.7425 27.0127 49.3652 26.5799 49.338 25.9014C49.2923 24.7694 49.1836 23.6418 49.1836 22.5055C49.1836 21.5748 49.2858 20.6429 49.3391 19.711C49.351 19.4936 49.3391 19.2706 49.351 19.0521C49.3695 18.7487 49.4674 18.6552 49.7686 18.6171C50.4308 18.5432 50.7679 18.8194 50.7603 19.4794C50.7603 19.947 50.6787 20.4135 50.6602 20.881C50.6124 22.1195 50.5624 23.358 50.5461 24.5965C50.5256 25.0994 50.6135 25.6008 50.8038 26.0667C50.8171 26.1273 50.8208 26.1897 50.8146 26.2515Z" fill="white"/>
<path d="M43.2882 23.2245V19.9983C43.2882 19.7808 43.2882 19.5633 43.2708 19.3393C43.2512 19.0316 43.4611 18.8272 43.7623 18.9044C44.0635 18.9816 44.3255 19.0762 44.6061 19.1643C44.6139 19.1656 44.6213 19.1685 44.6278 19.173C44.7181 19.2339 44.8312 19.3643 44.8942 19.3437C45.0384 19.285 45.1688 19.1968 45.277 19.0849C46.1219 18.314 47.7496 18.5695 48.289 19.5753C48.476 19.9243 48.526 20.3756 48.5369 20.7823C48.5652 21.8022 48.5369 22.8243 48.5282 23.8443V25.2807C48.5217 25.9951 48.5075 26.7095 48.5075 27.4239C48.5075 27.6044 48.4325 27.675 48.2629 27.6968C47.7061 27.7696 47.2984 27.5511 47.2429 27.1161C47.2179 26.8429 47.2092 26.5684 47.2168 26.2941C47.2352 26.0829 47.2389 25.8707 47.2277 25.6591C47.119 24.8697 47.2679 24.0922 47.3071 23.3104C47.3701 22.4024 47.3278 21.4902 47.1809 20.592C47.0918 20.1059 46.6057 19.7775 46.186 19.9026C45.925 19.982 45.6423 20.0287 45.4107 20.157C45.2176 20.2535 45.0559 20.4028 44.9444 20.5876C44.833 20.7724 44.7763 20.9851 44.7811 21.2009C44.7746 23.1096 44.7645 25.0183 44.7507 26.9269C44.7547 27.0364 44.7456 27.1459 44.7235 27.2531C44.6746 27.451 44.5626 27.5989 44.3331 27.5881C44.169 27.5881 44.0053 27.5706 43.8449 27.5359C43.4535 27.4271 43.3154 27.2521 43.3132 26.8432C43.3067 25.6341 43.3132 24.4249 43.3132 23.2169L43.2882 23.2245Z" fill="white"/>
<path d="M30.2291 17.2285C30.6281 16.5076 31.0218 15.7812 31.4252 15.0625C31.7894 14.4275 32.2744 13.9164 33.0225 13.7642C33.4551 13.6617 33.9107 13.734 34.2904 13.9653C34.7982 14.2742 34.9667 14.695 34.809 15.2626C35.4158 14.8515 35.5506 14.0458 34.9613 13.5369C34.3328 12.9932 33.5945 12.9432 32.8311 13.1509C31.7873 13.4347 31.075 14.1469 30.4944 15.0201C29.9333 15.8617 29.3722 16.7044 28.7949 17.5352C28.6317 17.7475 28.4344 17.9312 28.2109 18.0788C28.2664 18.0114 28.3197 17.9418 28.3784 17.8755C29.078 17.0275 29.6755 16.1001 30.1584 15.1125C30.5564 14.3231 31.0381 13.5902 31.7894 13.0987C32.1493 12.8798 32.5322 12.7011 32.9312 12.5659C33.0077 12.5462 33.0787 12.5093 33.1388 12.4581C33.1989 12.4068 33.2465 12.3426 33.278 12.2701C33.6847 11.3057 34.2567 10.4619 35.1266 9.84968C36.1487 9.1255 37.2687 8.8504 38.4974 9.21575C38.9736 9.3482 39.3974 9.62437 39.7109 10.0066C40.0244 10.3888 40.2124 10.8584 40.2491 11.3513C40.2755 11.8485 40.1583 12.3428 39.9115 12.7753C39.6647 13.2077 39.2988 13.5601 38.8573 13.7903C37.8939 14.2763 36.9598 13.9305 36.551 12.9617C36.7326 13.0041 36.9337 13.0889 37.1327 13.0857C37.3633 13.0857 37.5046 12.8986 37.5873 12.692C37.7177 12.3658 37.5209 12.0255 37.1251 11.87C37.1458 12.2375 37.0262 12.4376 36.7619 12.4789C36.4977 12.5202 36.3107 12.3702 36.2183 11.9972C35.9182 12.1527 35.7355 12.3941 35.3919 13.0965C35.7801 13.4641 36.0617 13.8958 36.0301 14.4644C36.0019 14.8282 35.8428 15.1693 35.5822 15.4246C34.8884 16.1531 34.0522 16.3206 33.3596 15.8769C33.4643 15.8637 33.5677 15.8411 33.6684 15.8095C34.0077 15.6703 34.2632 15.4355 34.3034 15.0581C34.3437 14.6808 34.1186 14.4383 33.8185 14.2589C33.2313 13.9088 32.4288 14.0665 31.9297 14.6558C31.7448 14.8976 31.577 15.1519 31.4274 15.417C31.0914 15.9454 30.7597 16.4761 30.4215 17.0023C30.3628 17.0822 30.2985 17.1577 30.2291 17.2285ZM34.9047 12.7703C34.9265 12.7562 34.945 12.7497 34.9515 12.7377C34.9928 12.6529 35.0287 12.567 35.0711 12.4822C35.443 11.7384 35.9867 11.2154 36.8533 11.1154C37.6003 11.0295 38.244 11.5133 38.2908 12.2093C38.319 12.6181 38.1375 12.9465 37.8276 13.2346C38.1453 13.1725 38.4263 12.9892 38.6114 12.7236C38.7964 12.458 38.871 12.1308 38.8192 11.8113C38.6583 10.9838 37.7319 10.3716 36.825 10.5065C35.6006 10.6946 34.97 11.5688 34.4328 12.5724L34.9047 12.7703ZM39.5575 11.8841C39.7163 11.0741 39.3183 10.2977 38.568 9.89644C37.5818 9.37016 36.1759 9.55827 35.2201 10.3575C35.0222 10.5228 34.8504 10.7196 34.6677 10.9012L34.7384 10.9708C34.7896 10.8943 34.8463 10.8216 34.908 10.7533C35.7246 10.0019 36.6826 9.67571 37.7841 9.86491C38.8007 10.0389 39.5054 10.7924 39.5238 11.7363C39.5303 11.7847 39.5401 11.8327 39.5532 11.8798L39.5575 11.8841Z" fill="white"/>
<path d="M45.5598 12.5398L45.4804 12.3126C45.5511 12.2549 45.6087 12.1679 45.6826 12.1516C46.335 12.0048 46.9875 11.7373 47.6573 12.0353C48.013 12.1809 48.3526 12.3631 48.6707 12.579C48.8041 12.6868 48.9575 12.7673 49.1221 12.8158C49.2866 12.8643 49.4592 12.8799 49.6297 12.8617C49.7515 13.1781 49.8472 13.4771 49.982 13.7609C50.0538 13.9164 50.1865 13.986 50.3898 13.949C50.7059 13.9001 51.0248 13.8718 51.3445 13.8642C51.4566 13.8806 51.5662 13.9109 51.6707 13.9545C51.487 14.0241 51.363 14.0632 51.2499 14.1143C50.7943 14.3318 50.6975 14.6352 50.9563 15.0668C51.2467 15.5496 51.5609 16.0172 51.8469 16.5011C51.9632 16.6957 52.0143 16.9295 52.135 17.1209C52.174 17.1656 52.2219 17.2016 52.2756 17.2267C52.3294 17.2518 52.3878 17.2654 52.4471 17.2666C52.8157 17.2666 53.1843 17.2372 53.5529 17.2372C53.8193 17.2372 54.0825 17.2764 54.275 17.4732C53.8552 17.6069 53.4431 17.7526 53.0223 17.8668C52.9145 17.89 52.8154 17.9431 52.7363 18.02C52.6573 18.097 52.6015 18.1946 52.5754 18.3017C52.4471 18.7813 52.3438 19.2673 52.2188 19.8023C52.1245 19.5498 52.0489 19.2906 51.9926 19.027C51.9437 18.6878 51.948 18.3387 51.9328 17.994C51.9165 17.6156 51.6762 17.409 51.2967 17.371C50.9172 17.3329 50.5355 17.2133 50.1441 17.172C49.5297 17.1078 49.3829 17.1078 49.0785 17.7863C48.9893 17.4862 48.9164 17.2274 48.836 16.9697C48.8184 16.9057 48.7852 16.847 48.7392 16.799C48.6 16.6696 48.4489 16.5554 48.3043 16.4304C47.9465 16.1161 47.5899 15.7986 47.2169 15.4692L47.0755 15.8302C47.0385 15.7513 47.0062 15.6704 46.9788 15.5877C46.8692 15.0056 46.5476 14.4849 46.0763 14.1263C45.6337 13.7935 45.4499 13.2705 45.2064 12.8008C45.165 12.7203 45.2509 12.5746 45.2781 12.4594L45.5598 12.5398Z" fill="white"/>
<path d="M52.1149 31.0171C52.4759 31.252 52.7021 31.2346 52.8761 30.9692C53.0262 30.7409 52.9446 30.4875 52.6391 30.2864C52.6108 30.5125 52.5358 30.7148 52.2693 30.6974C52.0421 30.6833 51.9584 30.5136 51.9431 30.2842C51.5963 30.443 51.431 30.7442 51.2418 31.0203C51.7213 31.7717 51.7137 32.2817 51.2233 32.7362C50.6688 33.2483 50.0272 33.3288 49.5401 32.9667C49.712 32.8983 49.8772 32.8143 50.0337 32.7155C50.311 32.4981 50.3273 32.1719 50.1055 31.9065C49.9505 31.7319 49.7417 31.6138 49.512 31.5711C49.2824 31.5284 49.0451 31.5634 48.8376 31.6706C48.5016 31.8337 48.282 32.1153 48.0645 32.41C47.7862 32.7873 47.4773 33.1418 47.1761 33.4974C47.1346 33.5398 47.0874 33.5764 47.0359 33.6061C47.3621 33.1624 47.7111 32.6688 48.071 32.1795C48.4668 31.6358 48.9496 31.2596 49.6673 31.3096C49.8407 31.3193 50.0097 31.3676 50.1621 31.451C50.3144 31.5343 50.4463 31.6506 50.5481 31.7913C50.6308 31.8983 50.6816 32.0266 50.6947 32.1612C50.7077 32.2959 50.6826 32.4315 50.622 32.5524C50.7152 32.5117 50.7994 32.453 50.8699 32.3797C50.9404 32.3064 50.9958 32.2199 51.0329 32.1251C51.0699 32.0304 51.088 31.9293 51.0859 31.8276C51.0839 31.726 51.0619 31.6257 51.0211 31.5325C50.9804 31.4386 50.9212 31.354 50.8471 31.2835C50.3686 30.8029 49.7771 30.7235 49.1443 30.8659C48.3962 31.0345 47.8471 31.5042 47.3675 32.0751C46.9188 32.6101 46.4632 33.1392 46.0007 33.6626C45.8293 33.8312 45.6477 33.9891 45.457 34.1356C45.892 33.6354 46.2889 33.1994 46.6531 32.7395C46.9674 32.348 47.2294 31.9152 47.5459 31.5271C48.0471 30.9105 48.6734 30.4908 49.4846 30.3832C49.5911 30.3489 49.6803 30.2749 49.7336 30.1766C50.1805 29.4437 50.7373 28.8261 51.5343 28.4683C52.3639 28.0953 53.2045 28.0497 54.0276 28.4879C54.7018 28.8456 55.0769 29.5524 54.9867 30.2374C54.8779 31.0638 54.3234 31.7228 53.5644 31.9022C52.8348 32.0881 52.2661 31.6749 52.1149 31.0171ZM50.8917 30.7387C50.9123 30.7289 50.9221 30.7268 50.9254 30.7213C50.97 30.6572 51.0134 30.593 51.0569 30.5278C51.3549 30.0733 51.7507 29.7666 52.3041 29.6905C52.9805 29.6024 53.547 30.0711 53.4524 30.6822C53.4165 30.9181 53.2458 31.1345 53.1501 31.3346C53.5155 31.3009 53.8602 30.9431 53.8895 30.5082C53.9254 29.9863 53.5459 29.4904 52.9761 29.3121C52.041 29.0142 51.0439 29.722 50.5992 30.5789L50.8917 30.7387ZM51.1689 29.1599C51.2342 29.1262 51.3005 29.0935 51.3647 29.0587C51.7981 28.8143 52.2939 28.7031 52.7902 28.7391C53.572 28.7967 54.1798 29.2197 54.368 29.8416C54.4122 30.0183 54.4467 30.1973 54.4713 30.3777C54.534 30.0899 54.503 29.7895 54.3829 29.5205C54.2628 29.2515 54.0598 29.028 53.8036 28.8826C53.3677 28.6226 52.8535 28.5262 52.3531 28.6108C51.9085 28.6577 51.492 28.8508 51.1689 29.1599Z" fill="white"/>
<path d="M36.5593 7.3018C36.1145 7.37357 35.9068 7.28441 35.7883 6.98212C35.7451 6.88829 35.7337 6.78292 35.7559 6.68204C35.7781 6.58115 35.8326 6.49027 35.9112 6.42322C36.2602 6.09701 36.8268 6.04808 37.1714 6.30904C37.5161 6.57001 37.6064 7.07998 37.4009 7.50514C37.0225 8.29348 36.096 8.7219 35.2686 8.44353C34.8815 8.32072 34.5174 8.13481 34.191 7.89333C33.5103 7.36596 33.4494 6.47323 34.0235 5.83278C34.7358 5.03901 35.6546 4.8759 36.6506 5.08033C37.6292 5.27823 38.3599 5.8741 39.0178 6.58306C39.4277 7.0267 39.8246 7.48448 40.2519 7.91073C41.0642 8.71972 42.0831 9.16228 43.1617 9.48631L43.514 9.59505C43.1878 9.64724 42.3843 9.52437 41.8743 9.37757C40.9696 9.10573 40.2846 8.51639 39.6158 7.88572C39.0526 7.35073 38.4872 6.81358 37.8826 6.32644C37.2139 5.7882 36.4418 5.51853 35.5741 5.77297C35.1392 5.90128 34.7684 6.14594 34.664 6.63416C34.5281 7.27027 35.3316 8.04773 35.959 7.89224C36.2765 7.81613 36.4549 7.64432 36.5593 7.3018ZM36.68 6.73964C36.6757 6.66049 36.6403 6.58625 36.5814 6.53324C36.5224 6.48023 36.4449 6.45278 36.3657 6.45692H36.3429C36.2596 6.45484 36.1789 6.48542 36.1179 6.54212C36.057 6.59882 36.0206 6.67713 36.0167 6.7603C36.0271 6.8413 36.0653 6.91616 36.1248 6.97209C36.1843 7.02803 36.2614 7.06155 36.3429 7.06693C36.4304 7.06616 36.5142 7.03173 36.577 6.97078C36.6397 6.90984 36.6766 6.82706 36.68 6.73964Z" fill="white"/>
<path d="M30.9196 34.489C30.3799 34.4913 29.8454 34.3847 29.3478 34.1756C28.8503 33.9666 28.4 33.6593 28.024 33.2722C27.4803 32.7285 26.9268 32.1936 26.3636 31.6673C25.9776 31.3052 25.5198 31.0409 24.9837 31.0203C24.673 31.0039 24.3628 31.0605 24.0779 31.1856C23.4255 31.4955 23.3396 32.1468 23.8474 32.6731C24.1247 32.9601 24.4389 33.0493 24.7391 32.9156C24.8341 32.8793 24.9183 32.8195 24.9837 32.7417C25.0492 32.6639 25.0937 32.5706 25.1131 32.4708C25.0935 32.4567 25.0816 32.4404 25.0707 32.4415C24.726 32.4806 24.5357 32.3795 24.4618 32.1153C24.3878 31.851 24.4966 31.6553 24.788 31.5107C25.0794 31.3661 25.3817 31.3389 25.6503 31.5607C25.9188 31.7825 25.9765 32.112 25.8917 32.4426C25.7155 33.1711 24.8141 33.705 24.1084 33.4723C23.7661 33.3619 23.4442 33.1958 23.1559 32.9808C22.6013 32.5546 22.5034 31.8304 22.9058 31.253C23.3581 30.593 24.0225 30.3603 24.7902 30.4059C25.7286 30.4625 26.4353 30.9746 27.0475 31.6357C27.3357 31.9467 27.6053 32.2751 27.8772 32.6002C28.6003 33.4701 29.5267 34.0138 30.5956 34.34C30.6934 34.3694 30.7902 34.402 30.887 34.4346C30.8951 34.4543 30.9061 34.4726 30.9196 34.489ZM24.888 32.2675H24.9968C25.0718 32.1675 25.1892 32.0772 25.2142 31.9663C25.2469 31.8108 25.1349 31.7032 24.9674 31.6966C24.8 31.6901 24.664 31.7923 24.6847 31.9609C24.6967 32.0761 24.8163 32.1664 24.888 32.2675Z" fill="white"/>
<path d="M36.61 30.0589C36.162 30.2079 35.7836 30.6766 35.7608 31.1039C35.7358 31.5628 35.7184 32.0227 35.7021 32.4838C35.7031 32.5543 35.713 32.6244 35.7314 32.6925C35.7967 32.9676 35.7586 33.0187 35.4846 33.0187C35.1008 33.0187 34.992 32.91 34.9899 32.5338C34.9822 31.3377 34.979 30.1307 34.9648 28.9292C34.9648 28.7606 35.0301 28.7269 35.1725 28.7356C35.5531 28.7606 35.7042 28.8987 35.7358 29.2793C35.7554 29.5283 35.763 29.7784 35.7793 30.0807C35.875 30.0057 35.9424 29.9491 36.0131 29.898C36.2664 29.7143 36.5296 29.5718 36.8634 29.6664C37.1667 29.7534 37.4658 30.1122 37.4549 30.4276C37.4397 30.9125 37.3907 31.3975 37.3831 31.8824C37.3766 32.3283 37.3973 32.7763 37.4245 33.2221C37.4364 33.4287 37.382 33.5918 37.1852 33.657C36.9884 33.7223 36.6709 33.532 36.6176 33.3678C36.5909 33.2861 36.578 33.2004 36.5796 33.1144C36.5959 32.2282 36.6176 31.3431 36.6339 30.4569C36.6361 30.3243 36.6187 30.1938 36.61 30.0589Z" fill="white"/>
<path d="M44.0284 11.9833C44.0298 12.1785 43.9928 12.3721 43.9194 12.553C43.846 12.7338 43.7377 12.8985 43.6007 13.0376C43.4637 13.1766 43.3006 13.2873 43.1208 13.3633C42.941 13.4393 42.748 13.4792 42.5528 13.4806H42.5115C42.1184 13.469 41.7453 13.3043 41.4718 13.0217C41.1982 12.7392 41.0457 12.3609 41.0469 11.9676C41.048 11.5743 41.2026 11.197 41.4778 10.916C41.753 10.635 42.127 10.4725 42.5202 10.4632C42.7154 10.4594 42.9093 10.4942 43.0911 10.5654C43.2728 10.6367 43.4387 10.7431 43.5792 10.8785C43.7198 11.0139 43.8323 11.1757 43.9103 11.3547C43.9883 11.5336 44.0303 11.7262 44.0338 11.9213C44.0295 11.9387 44.0295 11.9583 44.0284 11.9833ZM41.31 11.7658C41.2273 12.3595 41.472 12.8293 41.9624 13.0891C42.2995 13.2696 42.9193 13.2794 43.1802 12.9989C42.2266 13.1011 41.6166 12.6727 41.3132 11.7647L41.31 11.7658Z" fill="white"/>
<path d="M40.3047 17.8533C40.5961 17.6892 40.8592 17.5685 41.0909 17.4054C41.5117 17.1085 41.7726 16.7171 41.7172 16.1701C41.6932 15.9276 41.6813 15.6851 41.6704 15.4416C41.6486 15.2087 41.6976 14.9746 41.8111 14.7701C41.9246 14.5656 42.0973 14.4001 42.3065 14.2955C42.9535 13.941 43.6233 13.8823 44.2844 14.2466C44.9271 14.601 45.0706 15.298 44.6009 15.8591C44.3638 16.1415 44.0852 16.386 43.7745 16.5844C42.8223 17.1978 41.7585 17.6172 40.6439 17.8185C40.5472 17.8316 40.4471 17.8316 40.3047 17.8533ZM43.5048 14.3183C43.2797 14.4151 43.0285 14.4749 42.835 14.6141C42.4664 14.8816 42.5088 15.3198 42.8959 15.5623C43.1019 15.6772 43.3394 15.7226 43.5733 15.6918C43.8071 15.6611 44.0249 15.5558 44.1942 15.3916C44.4486 15.1165 44.4193 14.7391 44.1007 14.5456C43.9332 14.4434 43.7299 14.4021 43.5048 14.3183ZM43.2134 16.3756C43.4069 16.3756 43.5961 16.2299 43.5809 16.0918C43.5624 15.9265 43.4493 15.8559 43.2884 15.8515C43.0992 15.8515 42.9285 15.9679 42.9339 16.1157C42.9405 16.3093 43.0807 16.3528 43.2134 16.3756Z" fill="white"/>
<path d="M39.8281 29.1208C39.9334 28.996 40.0679 28.8993 40.2197 28.8391C40.3715 28.779 40.5358 28.7573 40.698 28.7761C41.1329 28.8207 41.4428 29.0773 41.4863 29.5079C41.5204 29.9383 41.5327 30.3702 41.5233 30.8018C41.5233 31.4379 41.507 32.0741 41.5016 32.7102C41.5016 32.8548 41.5646 33.0211 41.3189 33.0288C41.0731 33.0364 40.9274 32.9309 40.9057 32.7113C40.8981 32.586 40.8981 32.4603 40.9057 32.335C40.9187 31.6609 40.9416 30.9867 40.9459 30.3125C40.9433 30.1006 40.9181 29.8896 40.8709 29.6829C40.8176 29.4285 40.6436 29.3285 40.387 29.3731C39.9434 29.4513 39.7737 29.6569 39.7716 30.1114C39.7672 30.9356 39.7618 31.7602 39.7552 32.5851C39.7552 32.9026 39.7009 32.9744 39.4812 32.9744C39.2007 32.9744 39.0724 32.8657 39.0713 32.5829C39.0648 31.4912 39.0648 30.3999 39.0713 29.3089C39.0713 29.1795 39.1083 28.9414 39.1409 28.9392C39.3133 28.9368 39.4852 28.9599 39.6509 29.0077C39.7154 29.0361 39.7751 29.0743 39.8281 29.1208Z" fill="white"/>
<path d="M43.1133 7.41259C43.6627 7.22445 44.2591 7.22445 44.8085 7.41259C45.6523 7.67791 46.3623 8.12481 46.7657 8.94577C47.08 9.5797 46.9332 10.2256 46.4091 10.5768C45.8654 10.9389 45.0281 10.8302 44.603 10.3376C44.3768 10.0755 44.3344 9.76129 44.3659 9.43073C44.3877 9.19695 44.4301 8.96426 44.442 8.72939C44.4844 7.95519 44.0756 7.49306 43.296 7.42455C43.2383 7.41912 43.1763 7.41694 43.1133 7.41259ZM45.9404 10.2397C46.0788 10.2359 46.2106 10.1795 46.3088 10.0819C46.407 9.98429 46.4642 9.85291 46.4689 9.71454C46.4658 9.58766 46.4139 9.46685 46.324 9.37731C46.234 9.28777 46.113 9.23641 45.9861 9.23392C45.8438 9.23638 45.7079 9.29356 45.6066 9.39359C45.5054 9.49362 45.4466 9.62881 45.4424 9.77108C45.4504 9.89724 45.5061 10.0156 45.5982 10.1023C45.6903 10.1889 45.8118 10.2373 45.9382 10.2376L45.9404 10.2397ZM45.3445 9.45792C45.3475 9.38473 45.3214 9.31334 45.2719 9.25935C45.2224 9.20536 45.1535 9.17316 45.0803 9.16977H45.0705C44.983 9.17075 44.8991 9.20501 44.8359 9.26559C44.7727 9.32618 44.7349 9.40855 44.7302 9.49598C44.727 9.53039 44.7307 9.56509 44.741 9.59808C44.7512 9.63108 44.7679 9.66173 44.79 9.68828C44.8121 9.71484 44.8393 9.73678 44.8699 9.75285C44.9004 9.76892 44.9339 9.77881 44.9683 9.78195H45.0042C45.0912 9.77992 45.1743 9.74525 45.2369 9.68483C45.2996 9.6244 45.3372 9.54263 45.3424 9.45574L45.3445 9.45792Z" fill="white"/>
<path d="M35.8461 37.3541C35.7504 37.4085 35.6656 37.4966 35.5905 37.4901C35.4514 37.4781 35.2795 37.4466 35.1936 37.3552C35.1555 37.3 35.1296 37.2373 35.1178 37.1713C35.106 37.1053 35.1085 37.0375 35.1251 36.9725C35.1727 36.8123 35.2749 36.6738 35.4139 36.581C35.553 36.4882 35.7201 36.4471 35.8863 36.4647C36.1908 36.5038 36.4387 36.7909 36.468 37.1443C36.4938 37.4593 36.4067 37.7731 36.2222 38.0297C36.0377 38.2863 35.7679 38.4689 35.4611 38.5448C35.2255 38.6032 34.9829 38.6288 34.7402 38.6209C33.8866 38.5731 33.4354 37.8761 33.7475 37.0758C34.0791 36.2352 34.7641 35.8536 35.6286 35.759C36.2332 35.6937 36.8149 35.8264 37.3847 36.0221C38.1056 36.2711 38.832 36.519 39.6094 36.4571C40.1074 36.4179 40.6011 36.3266 41.1056 36.257C40.401 36.6484 39.6551 36.855 38.8548 36.7169C38.1132 36.5897 37.3825 36.4016 36.6464 36.2472C36.1288 36.1385 35.6145 36.1385 35.1241 36.369C34.7707 36.5386 34.4999 36.7887 34.3847 37.178C34.3348 37.3124 34.3342 37.4601 34.3829 37.5949C34.4317 37.7297 34.5267 37.8428 34.6511 37.9141C34.7625 37.9951 34.8902 38.0511 35.0254 38.0781C35.1605 38.1051 35.2999 38.1026 35.434 38.0707C35.7014 38.0055 35.9711 37.6586 35.8461 37.3541ZM35.7873 37.0986V36.9986C35.7004 36.9442 35.5992 36.8333 35.5286 36.8496C35.4329 36.8713 35.36 36.992 35.2785 37.0671C35.3535 37.1399 35.4307 37.2704 35.5046 37.2693C35.6014 37.2693 35.6938 37.1606 35.7873 37.0986Z" fill="white"/>
<path d="M41.0297 41.4972C41.0287 41.866 40.8814 42.2193 40.6201 42.4796C40.3587 42.7398 40.0048 42.8857 39.636 42.8852C39.2672 42.8847 38.9137 42.7378 38.6531 42.4769C38.3925 42.2159 38.2461 41.8622 38.2461 41.4934C38.2461 41.1246 38.3925 40.7709 38.6531 40.5099C38.9137 40.2489 39.2672 40.1021 39.636 40.1016C40.0048 40.1011 40.3587 40.247 40.6201 40.5072C40.8814 40.7675 41.0287 41.1208 41.0297 41.4896V41.4972ZM40.2109 42.4617C39.8412 42.5173 39.464 42.4332 39.1529 42.2257C38.8267 42.0083 38.6462 41.6897 38.5299 41.2873C38.4763 41.5039 38.4907 41.7317 38.571 41.9399C38.6514 42.148 38.7938 42.3264 38.979 42.4508C39.1563 42.5818 39.3706 42.6533 39.591 42.6553C39.8115 42.6572 40.0269 42.5895 40.2066 42.4617H40.2109Z" fill="white"/>
<path d="M32.8162 34.7582C32.241 35.1149 31.6201 35.3312 30.9471 35.2421C30.274 35.1529 29.5803 34.9713 28.8974 34.8332C28.3341 34.7191 27.7687 34.6038 27.2044 34.8213C26.7694 34.9898 26.4236 35.2562 26.3138 35.7455C26.2312 36.1054 26.4758 36.4175 26.9162 36.5339C27.3088 36.6372 27.6513 36.4828 27.76 36.1413C27.7817 36.027 27.7927 35.9109 27.7926 35.7945C27.7035 35.8641 27.6719 35.8923 27.6371 35.9173C27.5676 35.9705 27.4815 35.9973 27.3941 35.9929C27.3067 35.9885 27.2236 35.9533 27.1598 35.8934C26.9945 35.7673 26.9934 35.6009 27.0641 35.4269C27.1859 35.1279 27.5164 34.9235 27.7894 34.9702C27.9525 35.0035 28.0991 35.0924 28.204 35.2217C28.3089 35.351 28.3657 35.5127 28.3646 35.6792C28.3793 35.9918 28.2813 36.2992 28.0883 36.5456C27.8952 36.7919 27.6201 36.9606 27.3131 37.021C27.1285 37.0558 26.941 37.0732 26.7531 37.0732C25.8832 37.0732 25.3961 36.3773 25.7158 35.5629C26.0246 34.7745 26.665 34.4059 27.4729 34.295C28.0949 34.2102 28.6843 34.3689 29.2747 34.5462C29.7887 34.7111 30.3124 34.8444 30.8427 34.9452C31.4364 35.0474 32.0301 34.93 32.614 34.7995C32.6814 34.7843 32.7488 34.7723 32.8162 34.7582ZM27.4392 35.2377C27.3305 35.3856 27.2218 35.4726 27.2131 35.5639C27.2131 35.6292 27.3707 35.7727 27.424 35.7575C27.475 35.7371 27.5208 35.7058 27.5584 35.6658C27.596 35.6258 27.6243 35.578 27.6415 35.5259C27.6654 35.4737 27.548 35.378 27.4392 35.2377Z" fill="white"/>
<path d="M43.2649 31.9427C43.0714 31.9427 42.8995 31.9525 42.7288 31.9427C42.3265 31.9133 42.0862 31.7252 41.9949 31.3338C41.8361 30.7054 41.8741 30.0435 42.1036 29.4374C42.3069 28.9177 42.9648 28.6284 43.4932 28.8144C43.6443 28.8636 43.7761 28.9588 43.8703 29.0868C43.9645 29.2147 44.0163 29.3688 44.0184 29.5277C44.05 30.1214 44.0293 30.7183 44.0108 31.3131C43.996 31.641 43.9626 31.9677 43.9108 32.2917C43.8629 32.618 43.6933 32.8583 43.353 32.9442C43.1894 32.9884 43.0173 32.9899 42.853 32.9486C42.6887 32.9072 42.5378 32.8245 42.4146 32.7082C42.3665 32.6724 42.3345 32.6191 42.3255 32.5598C42.3166 32.5006 42.3314 32.4402 42.3667 32.3918C42.3754 32.3799 42.3852 32.369 42.3961 32.3592C42.4363 32.3168 42.6201 32.3592 42.6951 32.4124C42.8039 32.5005 42.8908 32.6941 43.0518 32.5821C43.1605 32.5081 43.2051 32.3352 43.2573 32.1993C43.2734 32.1147 43.276 32.0281 43.2649 31.9427ZM43.3225 29.1156C43.2423 29.1534 43.1575 29.1808 43.0703 29.1971C42.8528 29.1906 42.756 29.3146 42.7267 29.5059C42.6988 29.6821 42.68 29.8596 42.6701 30.0376C42.6362 30.3874 42.6235 30.7389 42.6321 31.0902C42.6701 31.6654 42.7408 31.6959 43.3138 31.5252C43.3831 30.7232 43.386 29.9169 43.3225 29.1145V29.1156Z" fill="white"/>
<path d="M34.5502 29.8241C34.5502 30.0415 34.573 30.259 34.3327 30.3677C34.0729 30.4982 33.8891 30.3808 33.8804 30.0883C33.8757 29.8009 33.8535 29.514 33.8141 29.2293C33.8099 29.153 33.7762 29.0814 33.7202 29.0295C33.6643 28.9775 33.5903 28.9494 33.514 28.9509C33.2552 28.9509 33.1062 29.076 33.079 29.363C33.0537 29.5425 33.0737 29.7254 33.1372 29.8952C33.2006 30.065 33.3054 30.2162 33.4422 30.3351C33.6532 30.5105 33.852 30.7001 34.037 30.9027C34.4719 31.4149 34.5502 31.9346 34.2436 32.5044C34.13 32.6717 33.9674 32.7997 33.7782 32.8708C32.9768 33.2221 32.1602 32.5968 32.2091 31.6747C32.2178 31.5095 32.1776 31.2833 32.4603 31.2822C32.7974 31.2822 33.0127 31.4442 33.0312 31.7085C33.031 31.8883 33.0499 32.0676 33.0877 32.2434C33.1203 32.3522 33.2704 32.5294 33.3052 32.5153C33.4378 32.4674 33.6031 32.3707 33.6499 32.251C33.8271 31.7933 33.7097 31.392 33.377 31.0234C33.0584 30.6907 32.7745 30.3264 32.5299 29.9361C32.2624 29.4826 32.4679 28.8074 32.8866 28.6312C33.1324 28.5278 33.4061 28.5109 33.6629 28.5832C33.9196 28.6555 34.1443 28.8127 34.3001 29.0292C34.5143 29.3304 34.5339 29.4 34.5502 29.8241Z" fill="white"/>
<path d="M38.301 14.7992C39.0641 14.8079 39.7943 15.1114 40.3387 15.6463C40.3908 15.6943 40.4375 15.7479 40.4779 15.8061C40.5736 15.9421 40.6421 16.0932 40.5051 16.2335C40.4449 16.2975 40.3634 16.3373 40.2759 16.3455C40.1885 16.3537 40.101 16.3297 40.0299 16.2781C39.882 16.19 39.7494 16.078 39.6048 15.9834C39.1178 15.6467 38.5508 15.4442 37.9607 15.3962C37.031 15.3375 36.3372 15.7681 35.8381 16.5129C35.5119 16.9935 35.2575 17.5166 34.9628 18.0167C34.7801 18.3277 34.5964 18.6387 34.3865 18.9312C34.2842 19.0695 34.1504 19.1813 33.9962 19.2574C33.708 19.3955 33.3187 19.0845 33.3818 18.7725C33.3967 18.728 33.4223 18.6879 33.4562 18.6555C33.4901 18.6231 33.5313 18.5994 33.5764 18.5865C33.9907 18.5496 34.2289 18.2929 34.4463 17.9787C34.9128 17.31 35.3662 16.6293 35.8708 15.9888C36.153 15.6126 36.5204 15.3087 36.9429 15.1019C37.3653 14.8951 37.8308 14.7914 38.301 14.7992Z" fill="white"/>
<path d="M43.5063 41.4018C43.4911 41.3018 43.4758 41.2029 43.4595 41.1028C43.366 40.4982 43.0246 40.1514 42.4178 40.0655C42.2395 40.0405 42.0579 40.0383 41.8742 40.0209C41.1065 39.948 40.7933 39.5946 40.8553 38.8248C40.8696 38.5559 40.9559 38.2958 41.1051 38.0716C41.2543 37.8474 41.4609 37.6674 41.7034 37.5504C42.2101 37.2873 42.7212 37.4297 43.0409 37.9092C43.3606 38.3888 43.49 38.9564 43.5661 39.5283C43.6542 40.1546 43.6955 40.7733 43.5063 41.4018ZM41.2391 38.6573C41.2544 38.8879 41.3196 39.076 41.5175 39.1869C41.7154 39.2978 41.8981 39.2434 42.071 39.1347C42.1989 39.0567 42.3049 38.9476 42.3793 38.8175C42.4536 38.6875 42.4938 38.5407 42.4961 38.3909C42.5057 38.2885 42.4857 38.1855 42.4385 38.0942C42.3913 38.0028 42.3188 37.9269 42.2297 37.8755C42.1438 37.8272 42.0457 37.8048 41.9473 37.811C41.8489 37.8171 41.7544 37.8517 41.6752 37.9103C41.548 37.9908 41.4419 38.1007 41.3661 38.2307C41.2902 38.3607 41.2466 38.507 41.2391 38.6573ZM43.1105 38.8161C42.968 38.7074 42.8984 38.6149 42.8104 38.5932C42.6723 38.5595 42.4907 38.7519 42.5298 38.8955C42.5527 38.9781 42.6908 39.1129 42.7277 39.0934C42.8664 39.0173 42.995 38.9242 43.1105 38.8161Z" fill="white"/>
<path d="M20.8945 34.5188C20.677 35.84 21.4969 37.0393 23.1703 37.3906C24.0021 37.5656 24.8666 37.5906 25.7158 37.6831C26.316 37.7472 26.9119 37.8059 27.5165 37.8788C27.6315 37.8989 27.742 37.9394 27.8427 37.9984C28.0526 38.1071 28.1134 38.2735 28.0188 38.4333C27.967 38.5174 27.886 38.5794 27.7912 38.6073C27.6965 38.6352 27.5947 38.6271 27.5056 38.5845C27.4979 38.582 27.4905 38.5783 27.4839 38.5736C26.9902 38.0723 26.3302 38.0973 25.706 38.0158C24.5545 37.8657 23.3921 37.782 22.283 37.4025C21.5817 37.1622 20.9477 36.8066 20.4693 36.2249C20.0539 35.7204 19.8386 35.156 20.0528 34.4993C20.0698 34.4238 20.1073 34.3545 20.1614 34.2992C20.2155 34.2439 20.2839 34.2047 20.3589 34.1861C20.434 34.1675 20.5128 34.1701 20.5864 34.1937C20.6601 34.2174 20.7257 34.261 20.7759 34.3199C20.8257 34.3795 20.8657 34.4467 20.8945 34.5188Z" fill="white"/>
<path d="M26.2277 34.0792C26.019 34.1085 25.8123 34.151 25.609 34.2065C25.423 34.2593 25.2537 34.3589 25.1173 34.4957C24.9808 34.6326 24.8816 34.8022 24.8293 34.9883C24.7597 35.2297 24.6978 35.4721 24.6303 35.7135C24.502 36.1789 24.2498 36.5236 23.7354 36.5932C23.4841 36.6202 23.2304 36.5719 23.0064 36.4546C22.7825 36.3373 22.5984 36.1562 22.4774 35.9343C22.1512 35.3264 22.3588 34.6414 22.9786 34.3032C23.5984 33.9651 24.3074 33.8998 25.0098 33.8911C25.4241 33.875 25.8376 33.9388 26.2277 34.0792ZM22.6546 35.4819C22.657 35.6637 22.7293 35.8376 22.8564 35.9676C22.9835 36.0975 23.1558 36.1736 23.3375 36.18C23.4133 36.1816 23.4887 36.1682 23.5594 36.1407C23.63 36.1131 23.6946 36.0719 23.7493 36.0194C23.804 35.9669 23.8479 35.9041 23.8783 35.8347C23.9088 35.7652 23.9253 35.6904 23.9268 35.6146V35.607C23.9195 35.4241 23.8442 35.2505 23.7157 35.1202C23.5872 34.9899 23.4147 34.9122 23.232 34.9024C23.0835 34.8985 22.9395 34.9535 22.8314 35.0554C22.7233 35.1572 22.6597 35.2976 22.6546 35.446V35.4819ZM23.6941 34.948H23.7953C23.8572 34.8632 23.9594 34.7838 23.9692 34.6925C23.9855 34.5522 23.8964 34.4152 23.7365 34.4435C23.6528 34.4587 23.5191 34.5805 23.5267 34.6523C23.5267 34.7501 23.6354 34.848 23.6909 34.948H23.6941Z" fill="white"/>
<path d="M29.4726 30.3154C29.7989 30.4241 30.1816 30.199 30.4589 30.5405C30.1588 30.8297 29.8065 30.6709 29.4618 30.7286C29.4455 31.0635 29.4172 31.4038 29.4139 31.7453C29.4107 32.0867 29.4422 32.4346 29.4389 32.7793C29.4336 32.8205 29.4181 32.8596 29.3938 32.8932C29.3695 32.9268 29.3372 32.9539 29.2998 32.9718C28.8583 33.0523 28.6734 32.9381 28.6974 32.5042C28.7365 31.8159 28.7322 31.1244 28.7322 30.4383C28.7193 29.975 28.8037 29.5142 28.9801 29.0856C28.9983 29.0349 29.0264 28.9884 29.0627 28.9486C29.3422 28.6898 30.1381 28.6593 30.4469 28.8909C30.5801 28.9831 30.6743 29.1216 30.7111 29.2793C30.7479 29.4371 30.7246 29.6029 30.6459 29.7445C30.6125 29.7777 30.5725 29.8035 30.5285 29.8201C30.4844 29.8368 30.4374 29.844 30.3904 29.8413C30.2577 29.8413 30.1196 29.7956 30.1066 29.6238C30.112 29.5536 30.112 29.4831 30.1066 29.4129C30.0859 29.3259 30.0576 29.1889 29.9978 29.1715C29.9321 29.1435 29.8581 29.1422 29.7914 29.168C29.7248 29.1938 29.6709 29.2446 29.6412 29.3096C29.4889 29.6215 29.4304 29.9709 29.4726 30.3154Z" fill="white"/>
<path d="M21.1738 31.0281C21.1425 30.9581 21.1062 30.8905 21.0651 30.8258C21.0152 30.7444 20.9395 30.682 20.85 30.6485C20.7606 30.615 20.6625 30.6124 20.5714 30.641C20.4736 30.6617 20.3867 30.7173 20.3267 30.7972C20.2667 30.8772 20.2378 30.9762 20.2452 31.0759C20.2452 31.4521 20.4485 31.6968 20.8052 31.7425C20.9676 31.7759 21.1365 31.7434 21.275 31.6523C21.4134 31.5612 21.51 31.4188 21.5435 31.2564C21.5435 31.2564 21.5435 31.2488 21.5435 31.2456C21.7316 30.5573 21.2934 29.9886 20.5758 30.0136C20.4263 30.0157 20.2775 30.0343 20.1321 30.069C19.4503 30.231 19.1731 30.9498 19.5047 31.6555C19.7026 32.0752 20.0614 32.3014 20.4833 32.4471C20.5714 32.4722 20.6578 32.5027 20.7421 32.5384C20.2876 32.5526 19.8516 32.4841 19.4656 32.2285C18.9491 31.8871 18.8219 31.3728 18.9001 30.8019C18.9871 30.1604 19.3503 29.7145 19.9875 29.5493C20.299 29.4702 20.6228 29.4521 20.9411 29.496C21.9295 29.6395 22.3873 30.8704 21.7643 31.6533C21.4913 31.998 21.0325 32.1165 20.5421 31.9708C20.3617 31.9227 20.2014 31.8185 20.0841 31.6732C19.9669 31.528 19.8988 31.3493 19.8896 31.1629C19.8691 31.0421 19.883 30.918 19.9297 30.8047C19.9764 30.6914 20.0541 30.5936 20.1539 30.5225C20.2596 30.4457 20.3846 30.4 20.5149 30.3906C20.6452 30.3812 20.7755 30.4084 20.8911 30.4692C21.1238 30.5779 21.1771 30.7867 21.1738 31.0281ZM21.8654 30.9422C22.0491 30.1071 21.3119 29.4199 20.4333 29.6308C21.251 29.6971 21.7632 30.094 21.8654 30.9422ZM19.0317 30.8998C18.923 31.2695 19.0317 31.7055 19.2851 31.8784L19.0317 30.8998Z" fill="white"/>
<path d="M50.3285 35.1783C50.21 35.0913 50.0904 34.9608 49.9425 34.9065C49.8445 34.8724 49.7371 34.8778 49.643 34.9214C49.5489 34.965 49.4754 35.0435 49.438 35.1402C49.3955 35.2711 49.3926 35.4117 49.4298 35.5442C49.4669 35.6767 49.5424 35.7953 49.6468 35.8851C49.7874 35.993 49.9651 36.0407 50.1408 36.0177C50.3166 35.9946 50.476 35.9027 50.5841 35.7622C50.6556 35.67 50.7014 35.5604 50.7167 35.4447C50.8374 34.7281 50.4427 34.2606 49.7174 34.2736C49.2586 34.2823 48.816 34.3736 48.6301 34.8543C48.5327 35.0845 48.505 35.3383 48.5504 35.5842C48.5958 35.83 48.7124 36.0571 48.8856 36.2374C49.1498 36.5375 49.5065 36.6723 49.9066 36.7811C49.0672 36.8691 48.2756 36.4549 48.094 35.7633C47.8765 34.951 48.2778 34.1062 49.0346 33.8376C49.4136 33.6972 49.8266 33.6767 50.2176 33.7789C50.4277 33.8386 50.6203 33.9481 50.7791 34.098C50.9379 34.2479 51.0583 34.4339 51.1301 34.6402C51.2018 34.8464 51.2229 35.0669 51.1914 35.2831C51.16 35.4992 51.077 35.7046 50.9494 35.8818C50.6754 36.258 50.1883 36.3896 49.675 36.2254C49.4895 36.1693 49.3274 36.0538 49.2139 35.8966C49.1004 35.7394 49.0416 35.5494 49.0465 35.3555C49.0412 35.27 49.0528 35.1843 49.0807 35.1032C49.1085 35.0221 49.1521 34.9474 49.2088 34.8832C49.2656 34.8189 49.3344 34.7665 49.4114 34.7289C49.4884 34.6913 49.5721 34.6692 49.6576 34.664H49.6989C50.086 34.639 50.3209 34.851 50.3285 35.1783ZM49.4119 33.9017C49.8109 33.8952 50.1915 33.9572 50.5188 34.2116C50.8461 34.4661 50.9668 34.8401 51.019 35.2403C51.2354 34.328 50.4231 33.6277 49.4119 33.9017ZM48.492 36.1613C48.4128 36.0036 48.3441 35.8409 48.2865 35.6741C48.2497 35.4947 48.2243 35.3131 48.2103 35.1305C48.1125 35.5295 48.1679 35.8818 48.492 36.1613Z" fill="white"/>
<path d="M45.0529 31.3375C45.262 31.2101 45.4596 31.0645 45.6433 30.9026C45.8608 30.6851 45.8227 30.3861 45.752 30.1012C45.6891 29.8839 45.6476 29.661 45.6281 29.4357C45.6096 28.9018 46.1087 28.493 46.6926 28.5386C47.1797 28.5756 47.4962 29.0301 47.4048 29.5597C47.2395 30.51 46.0261 31.4375 45.0659 31.3451C45.0453 31.3419 45.0246 31.3277 45.0529 31.3375ZM47.0764 29.2487C47.0749 29.2021 47.0642 29.1563 47.0449 29.1139C47.0257 29.0715 46.9982 29.0333 46.9642 29.0015C46.9302 28.9697 46.8902 28.9449 46.8466 28.9285C46.803 28.9122 46.7566 28.9046 46.71 28.9062C46.6172 28.9134 46.5308 28.9563 46.469 29.0258C46.4072 29.0954 46.3747 29.1862 46.3783 29.2791C46.382 29.3721 46.4215 29.4601 46.4886 29.5246C46.5557 29.589 46.6452 29.625 46.7383 29.6249C46.8315 29.6159 46.918 29.5723 46.9806 29.5026C47.0432 29.433 47.0774 29.3424 47.0764 29.2487ZM46.1511 29.3313H46.0532C46.001 29.4107 45.8988 29.4977 45.9097 29.5684C45.9217 29.6163 45.9457 29.6603 45.9794 29.6964C46.013 29.7326 46.0553 29.7596 46.1022 29.775C46.1499 29.7648 46.1941 29.7423 46.2303 29.7096C46.2666 29.677 46.2936 29.6354 46.3088 29.589C46.3088 29.5107 46.2076 29.4216 46.1511 29.3346V29.3313Z" fill="white"/>
<path d="M37.3594 24.0674L37.5083 24.0934C37.5823 23.8151 37.6084 23.5291 37.7323 23.2942C37.9302 22.9169 38.3848 22.7821 38.8197 22.9017C39.0106 22.9631 39.1777 23.0825 39.2975 23.2433C39.4173 23.4041 39.484 23.5983 39.4882 23.7988C39.4924 23.9993 39.4339 24.1961 39.3209 24.3618C39.2079 24.5275 39.046 24.6538 38.8578 24.723C38.6677 24.789 38.4622 24.796 38.2681 24.743C38.074 24.69 37.9005 24.5796 37.7704 24.4262C37.6422 24.2969 37.5048 24.1769 37.3594 24.0674Z" fill="white"/>
<path d="M39.538 17.2618C39.4186 17.1763 39.2941 17.0982 39.1651 17.028C38.8617 16.8866 38.6214 16.941 38.4115 17.1987C38.3028 17.3303 38.2104 17.4782 38.1005 17.6108C37.8939 17.8631 37.6721 17.937 37.3687 17.8283C37.2145 17.7785 37.0739 17.6937 36.9579 17.5805C36.8418 17.4673 36.7536 17.3289 36.7 17.1759C36.5326 16.7203 36.7272 16.318 37.1828 16.1701C37.9407 15.9254 39.2064 16.505 39.538 17.2618ZM37.2013 16.5941C37.1669 16.5925 37.1326 16.5977 37.1002 16.6095C37.0679 16.6212 37.0382 16.6392 37.0128 16.6624C36.9874 16.6857 36.9669 16.7137 36.9524 16.7449C36.9379 16.7761 36.9298 16.8099 36.9284 16.8442C36.9278 16.8533 36.9278 16.8624 36.9284 16.8714C36.9249 16.9701 36.9591 17.0665 37.0242 17.1409C37.0892 17.2152 37.1802 17.2619 37.2785 17.2716C37.4655 17.2716 37.5395 17.1454 37.5492 16.9812C37.5515 16.8845 37.5168 16.7906 37.4521 16.7186C37.3874 16.6467 37.2977 16.6022 37.2013 16.5941ZM38.0505 17.289C37.9682 17.2026 37.8733 17.1293 37.7689 17.0715C37.7395 17.0606 37.6091 17.2042 37.6221 17.2433C37.6603 17.3362 37.7294 17.4131 37.8178 17.4608C37.845 17.4782 37.9396 17.3727 38.0505 17.289Z" fill="white"/>
<path d="M25.0375 29.437C24.9679 29.387 24.9005 29.3282 24.8276 29.288C24.4623 29.0618 24.1752 29.1119 23.9034 29.4478C23.8066 29.5707 23.7196 29.7012 23.6229 29.8241C23.5625 29.9063 23.4817 29.9713 23.3884 30.0125C23.2951 30.0537 23.1926 30.0697 23.0911 30.0589C22.5616 30.0165 22.1125 29.4565 22.193 28.9346C22.2463 28.6084 22.4637 28.429 22.7671 28.355C23.413 28.1985 23.9752 28.4246 24.4851 28.79C24.7041 28.9695 24.9092 29.1654 25.0984 29.3761L25.0375 29.437ZM23.0803 29.1912C23.0803 28.964 22.9052 28.7769 22.729 28.7878C22.6943 28.7871 22.6598 28.7932 22.6275 28.8058C22.5952 28.8185 22.5656 28.8373 22.5406 28.8613C22.5156 28.8854 22.4955 28.9141 22.4816 28.9459C22.4676 28.9777 22.4601 29.0119 22.4594 29.0466V29.0825C22.4594 29.2837 22.6421 29.4881 22.8226 29.4718C22.8579 29.4719 22.8929 29.4651 22.9255 29.4516C22.9582 29.4382 22.9878 29.4184 23.0128 29.3934C23.0378 29.3685 23.0575 29.3388 23.071 29.3061C23.0844 29.2735 23.0913 29.2385 23.0911 29.2032V29.1912H23.0803ZM23.3238 29.761C23.4141 29.636 23.5076 29.5566 23.4924 29.5164C23.4449 29.4181 23.383 29.3276 23.3086 29.2478C23.2521 29.3021 23.1422 29.3652 23.1498 29.4087C23.1948 29.5317 23.2551 29.6487 23.3293 29.7567L23.3238 29.761Z" fill="white"/>
<path d="M37.8999 31.423V30.2041C37.8999 29.9736 37.9782 29.9138 38.2076 29.9453C38.561 29.9953 38.6502 30.0975 38.6535 30.4509C38.6535 31.2186 38.6622 31.9874 38.673 32.7561C38.673 32.9442 38.6056 33.0334 38.411 33.0247C38.0456 33.0062 37.8477 32.8649 37.888 32.5093C37.9117 32.1473 37.9146 31.7843 37.8967 31.4219L37.8999 31.423Z" fill="white"/>
<path d="M31.8161 31.5878C31.8161 31.9728 31.8075 32.3566 31.8161 32.7404C31.8227 32.9579 31.7422 33.0384 31.5269 33.0308C31.155 33.0177 31.0398 32.9003 31.043 32.5317C31.0506 31.7944 31.043 31.0561 31.0528 30.3189C31.0528 30.158 30.9887 29.9481 31.2638 29.9361C31.5584 29.9242 31.7966 30.096 31.8075 30.3417C31.8161 30.7016 31.8075 31.0626 31.8075 31.4291V31.5933L31.8161 31.5878Z" fill="white"/>
<path d="M40.0533 38.5806C39.9641 38.4665 39.9054 38.374 39.8304 38.2958C39.7345 38.1851 39.6042 38.11 39.4604 38.0823C39.3166 38.0547 39.1677 38.0763 39.0377 38.1435C38.8735 38.2196 38.7191 38.3153 38.5538 38.3871C38.3655 38.4744 38.1502 38.4834 37.9552 38.412C37.7603 38.3407 37.6017 38.1948 37.5143 38.0065C37.4946 37.9633 37.4786 37.9186 37.4664 37.8728C37.3262 37.3856 37.648 36.979 38.1874 36.9616C39.0105 36.9355 39.938 37.7292 40.0533 38.5806ZM38.3342 37.5781C38.335 37.5412 38.3286 37.5045 38.3152 37.4702C38.3018 37.4358 38.2817 37.4044 38.2562 37.3778C38.2306 37.3512 38.2 37.33 38.1662 37.3153C38.1323 37.3005 38.0959 37.2927 38.059 37.2921H38.0286C37.9567 37.2883 37.8861 37.3131 37.8325 37.3612C37.7789 37.4094 37.7466 37.4768 37.7426 37.5487V37.5727C37.7426 37.6511 37.7738 37.7263 37.8293 37.7818C37.8847 37.8373 37.9599 37.8684 38.0384 37.8684C38.1168 37.8684 38.1921 37.8373 38.2475 37.7818C38.303 37.7263 38.3342 37.6511 38.3342 37.5727V37.5781ZM38.668 38.0217C38.5592 37.9348 38.4831 37.8391 38.4244 37.8456C38.3837 37.8562 38.3465 37.8772 38.3163 37.9066C38.2862 37.9359 38.2643 37.9726 38.2526 38.013C38.2461 38.0685 38.3461 38.1794 38.4081 38.1859C38.4701 38.1925 38.5494 38.1044 38.6712 38.0217H38.668Z" fill="white"/>
<path d="M41.1927 5.61719C41.415 5.62163 41.6265 5.71362 41.7813 5.87317C41.9362 6.03271 42.0218 6.24692 42.0196 6.46924C42.0174 6.69156 41.9275 6.90401 41.7695 7.06043C41.6115 7.21686 41.3982 7.3046 41.1758 7.3046C40.9535 7.3046 40.7402 7.21686 40.5822 7.06043C40.4242 6.90401 40.3343 6.69156 40.3321 6.46924C40.3299 6.24692 40.4155 6.03271 40.5703 5.87317C40.7251 5.71362 40.9367 5.62163 41.159 5.61719H41.1927ZM41.3786 6.36203C41.3297 6.43488 41.2025 6.53927 41.2068 6.63822C41.2231 6.69563 41.2532 6.74817 41.2945 6.7912C41.3359 6.83424 41.3872 6.86647 41.4439 6.88505C41.5972 6.92311 41.7092 6.81002 41.7146 6.64257C41.72 6.47512 41.62 6.38813 41.3786 6.36203Z" fill="white"/>
<path d="M45.5303 16.1641C45.6329 16.1636 45.7345 16.1835 45.8294 16.2224C45.9243 16.2613 46.0106 16.3186 46.0833 16.3909C46.156 16.4632 46.2138 16.5492 46.2532 16.6438C46.2927 16.7385 46.3131 16.8401 46.3132 16.9426V16.9611C46.3119 17.1172 46.2643 17.2695 46.1765 17.3986C46.0887 17.5277 45.9646 17.6278 45.8198 17.6864C45.6751 17.7449 45.5163 17.7592 45.3634 17.7275C45.2105 17.6958 45.0705 17.6194 44.961 17.5081C44.8515 17.3968 44.7775 17.2555 44.7483 17.1022C44.7191 16.9488 44.736 16.7902 44.797 16.6464C44.8579 16.5027 44.9601 16.3803 45.0906 16.2946C45.2212 16.2089 45.3742 16.1639 45.5303 16.1652V16.1641ZM44.8833 16.8785C44.8964 17.4308 45.3183 17.7299 45.763 17.5309C45.2389 17.4221 45.1671 17.3689 44.8833 16.8785Z" fill="white"/>
<path d="M32.4059 18.3162C32.2507 18.3177 32.0984 18.2731 31.9685 18.1881C31.8386 18.1031 31.7368 17.9815 31.676 17.8386C31.6152 17.6957 31.5981 17.538 31.6269 17.3855C31.6557 17.2329 31.7291 17.0923 31.8379 16.9814C31.9466 16.8706 32.0857 16.7945 32.2377 16.7627C32.3897 16.7309 32.5477 16.7449 32.6917 16.803C32.8357 16.861 32.9593 16.9604 33.0468 17.0887C33.1344 17.2169 33.1819 17.3683 33.1834 17.5235C33.1867 17.6243 33.1702 17.7248 33.1346 17.8193C33.0991 17.9137 33.0453 18.0002 32.9764 18.0738C32.9074 18.1474 32.8246 18.2067 32.7327 18.2483C32.6408 18.2899 32.5416 18.313 32.4407 18.3162H32.4059ZM32.6234 18.1161C32.4701 18.0607 32.2689 18.0291 32.1189 17.9248C31.9688 17.8204 31.8753 17.6464 31.7655 17.5126C31.7546 18.0117 32.2243 18.3314 32.6267 18.1161H32.6234Z" fill="white"/>
<path d="M26.1875 29.5014C26.1873 29.3738 26.2249 29.2491 26.2956 29.1429C26.3662 29.0368 26.4668 28.954 26.5845 28.905C26.7023 28.856 26.8319 28.843 26.957 28.8676C27.0822 28.8923 27.1972 28.9535 27.2875 29.0436C27.3778 29.1336 27.4394 29.2484 27.4645 29.3734C27.4896 29.4985 27.477 29.6281 27.4284 29.746C27.3798 29.8639 27.2974 29.9648 27.1914 30.0358C27.0855 30.1068 26.9609 30.1449 26.8334 30.1451H26.8236C26.7411 30.1461 26.6591 30.1308 26.5825 30.1002C26.5059 30.0695 26.436 30.024 26.377 29.9664C26.3179 29.9087 26.2707 29.84 26.2382 29.7641C26.2057 29.6883 26.1885 29.6067 26.1875 29.5242V29.5014ZM27.003 29.9754C26.6768 29.9439 26.4593 29.771 26.3038 29.4318C26.3506 29.9004 26.6007 30.0831 27.003 29.9754Z" fill="white"/>
<path d="M39.6345 35.46C39.6386 35.6287 39.5756 35.792 39.4594 35.9143C39.3433 36.0366 39.1833 36.1079 39.0147 36.1124H38.9821C38.8109 36.1104 38.6476 36.0406 38.528 35.9183C38.4083 35.796 38.342 35.6311 38.3438 35.46C38.3622 35.3011 38.4384 35.1545 38.5579 35.048C38.6774 34.9416 38.8318 34.8828 38.9918 34.8828C39.1519 34.8828 39.3063 34.9416 39.4258 35.048C39.5453 35.1545 39.6215 35.3011 39.6399 35.46H39.6345ZM39.2093 35.9058C38.832 35.9287 38.6156 35.7373 38.4667 35.4024C38.4764 35.8689 38.8407 36.1124 39.2093 35.9058Z" fill="white"/>
<path d="M28.9537 41.5883C28.9553 41.6597 28.9428 41.7307 28.9169 41.7973C28.8911 41.8638 28.8523 41.9247 28.803 41.9763C28.7536 42.0279 28.6945 42.0692 28.6292 42.098C28.5638 42.1268 28.4934 42.1424 28.422 42.1439H28.41C28.2636 42.1436 28.1232 42.0856 28.0194 41.9823C27.9155 41.8791 27.8566 41.739 27.8555 41.5926C27.8606 41.4501 27.9195 41.3147 28.0204 41.2139C28.1213 41.113 28.2566 41.0541 28.3991 41.0489C28.4706 41.0475 28.5415 41.0601 28.6081 41.0861C28.6746 41.1121 28.7353 41.151 28.7868 41.2005C28.8383 41.2499 28.8795 41.3091 28.9082 41.3745C28.9368 41.4399 28.9523 41.5103 28.9537 41.5817V41.5883ZM28.2741 41.5219C28.2023 41.6405 28.1306 41.7068 28.1349 41.7677C28.1393 41.8286 28.2371 41.9199 28.2741 41.9112C28.3112 41.9008 28.3453 41.8818 28.3736 41.8557C28.402 41.8296 28.4237 41.7972 28.4372 41.7612C28.4437 41.7057 28.3578 41.6383 28.2741 41.5219Z" fill="white"/>
<path d="M33.1074 15.575C33.0424 15.5754 32.978 15.5631 32.9178 15.5386C32.8576 15.5141 32.8028 15.4781 32.7566 15.4324C32.7103 15.3868 32.6735 15.3325 32.6483 15.2726C32.623 15.2128 32.6098 15.1485 32.6094 15.0835V15.064C32.6144 14.9337 32.6699 14.8104 32.764 14.7202C32.8581 14.6299 32.9835 14.5797 33.1139 14.5801C33.2418 14.5868 33.3622 14.6426 33.4501 14.7359C33.5379 14.8291 33.5865 14.9526 33.5856 15.0807C33.5848 15.2088 33.5346 15.3316 33.4456 15.4237C33.3565 15.5157 33.2354 15.5699 33.1074 15.575ZM33.476 15.1879C33.3847 15.1118 33.327 15.0281 33.2792 15.0335C33.2451 15.0435 33.214 15.0618 33.1886 15.0866C33.1632 15.1114 33.1443 15.1421 33.1335 15.176C33.1248 15.2107 33.2096 15.3086 33.2553 15.3119C33.3009 15.3151 33.3738 15.2499 33.476 15.1879Z" fill="white"/>
<path d="M37.9336 28.7268C38.2044 28.6246 38.5067 28.6452 38.586 28.8355C38.6567 29.0514 38.6742 29.2812 38.6372 29.5053C38.6306 29.5586 38.3892 29.6032 38.2522 29.6141C38.219 29.6211 38.1848 29.6214 38.1514 29.6152C38.1181 29.6089 38.0863 29.5961 38.0579 29.5775C38.0295 29.5589 38.0051 29.5349 37.986 29.5068C37.9669 29.4788 37.9535 29.4472 37.9467 29.414V29.3911C37.9299 29.1701 37.9255 28.9483 37.9336 28.7268Z" fill="white"/>
<path d="M31.8158 29.2143C31.8158 29.5916 31.7963 29.6134 31.4483 29.6166C31.1732 29.6166 31.0558 29.4905 31.0547 29.1817C31.0547 29.111 31.0721 29.0403 31.0677 28.9707C31.0558 28.7815 31.1036 28.6445 31.3265 28.6445C31.5831 28.6445 31.8017 28.8142 31.8148 29.0229C31.818 29.0882 31.8148 29.1512 31.8158 29.2143Z" fill="white"/>
<path d="M34.7009 42.8795C34.7025 42.9193 34.6963 42.9591 34.6825 42.9965C34.6687 43.0339 34.6477 43.0683 34.6206 43.0976C34.5935 43.1268 34.561 43.1505 34.5247 43.1672C34.4885 43.1839 34.4494 43.1933 34.4095 43.1948H34.4041C34.3255 43.1984 34.2487 43.1706 34.1906 43.1176C34.1325 43.0646 34.0978 42.9907 34.0942 42.9121V42.8827C34.0921 42.8456 34.0974 42.8084 34.1098 42.7733C34.1221 42.7382 34.1412 42.7059 34.1661 42.6783C34.1909 42.6506 34.221 42.6281 34.2546 42.612C34.2881 42.596 34.3245 42.5867 34.3617 42.5848C34.378 42.5837 34.3943 42.5837 34.4106 42.5848C34.6042 42.5946 34.6814 42.7153 34.7009 42.8795Z" fill="white"/>
<path d="M49.8934 35.6865C49.8228 35.6919 49.7529 35.669 49.6991 35.6229C49.6452 35.5769 49.6119 35.5113 49.6064 35.4407C49.6058 35.4302 49.6058 35.4197 49.6064 35.4092C49.6035 35.3748 49.6075 35.3403 49.6181 35.3074C49.6286 35.2746 49.6455 35.2442 49.6679 35.218C49.6902 35.1917 49.7175 35.1701 49.7481 35.1544C49.7788 35.1387 49.8123 35.1292 49.8467 35.1265H49.8858C49.9196 35.1228 49.9538 35.126 49.9863 35.1356C50.0189 35.1453 50.0493 35.1612 50.0757 35.1827C50.102 35.2041 50.1239 35.2305 50.14 35.2604C50.1562 35.2904 50.1662 35.3232 50.1696 35.357C50.1712 35.3722 50.1712 35.3875 50.1696 35.4026C50.1753 35.4719 50.1533 35.5405 50.1085 35.5935C50.0636 35.6465 49.9996 35.6795 49.9304 35.6854C49.9181 35.6868 49.9057 35.6872 49.8934 35.6865Z" fill="white"/>
<path d="M31.7726 42.5078C31.7064 42.5092 31.6422 42.4848 31.5936 42.4398C31.545 42.3948 31.5158 42.3326 31.5121 42.2665C31.5084 42.2004 31.5306 42.1354 31.5739 42.0853C31.6172 42.0351 31.6783 42.0038 31.7443 41.9979C31.8074 41.9902 31.8711 42.0078 31.9212 42.047C31.9713 42.0861 32.0039 42.1435 32.0118 42.2066C32.014 42.2243 32.014 42.2422 32.0118 42.2599C32.0146 42.2896 32.0116 42.3196 32.0028 42.3482C31.9939 42.3767 31.9796 42.4032 31.9605 42.4261C31.9414 42.4491 31.9179 42.468 31.8914 42.4819C31.865 42.4957 31.836 42.5041 31.8063 42.5067C31.7951 42.5081 31.7838 42.5085 31.7726 42.5078Z" fill="white"/>
</g>
<defs>
<clipPath id="clip0_869_44681">
<rect width="38" height="38.8231" fill="white" transform="translate(17 5)"/>
</clipPath>
</defs>
</svg>
