<svg width="140" height="67" viewBox="0 0 140 67" fill="none" xmlns="http://www.w3.org/2000/svg">
<path fill-rule="evenodd" clip-rule="evenodd" d="M64.3924 44.6573C62.8771 44.3712 62.0731 43.9174 61.2898 42.9012C60.7744 42.2304 60.5785 41.52 60.4652 39.9909L60.393 38.9747H62.9905H65.5777V39.3496C65.588 40.5927 66.3096 41.3326 66.928 40.7407C67.1239 40.5532 67.1445 40.4447 67.1032 39.8133C67.0414 38.8859 66.7837 38.3729 65.1448 35.8671C61.3619 30.0661 60.7022 28.8329 60.4136 27.0571C60.1869 25.6266 60.5992 24.3145 61.5681 23.3871C62.6607 22.3414 64.2068 21.9468 66.9177 22.0355C69.474 22.1145 70.68 22.5288 71.4633 23.5548C72.0715 24.3737 72.257 25.0149 72.4323 27.0177L72.4941 27.728H69.876H67.2476L67.1754 27.2544C67.0311 26.2679 66.3508 25.597 65.8973 25.9916C65.3922 26.4257 65.5468 27.3235 66.3199 28.5369C66.6085 28.9908 67.4228 30.2437 68.1443 31.3289C68.8658 32.4141 69.5668 33.4796 69.7008 33.6966C69.8244 33.9137 70.2367 34.5845 70.6078 35.1765C72.0921 37.5837 72.525 38.6985 72.5353 40.1093C72.5456 42.3882 71.4427 43.8483 69.2472 44.4797C68.5463 44.677 68.134 44.7263 66.7631 44.7559C65.6499 44.7757 64.8768 44.7461 64.3924 44.6573ZM28.7812 42.7818V40.7495H29.8635C31.2035 40.7495 31.4921 40.6311 31.8014 39.98C32.0281 39.5164 32.0281 39.4966 32.059 30.9216L32.0591 30.9135L32.09 22.3009H34.5638C36.4501 22.3009 37.0479 22.3305 37.0788 22.4291C37.0995 22.4883 37.0892 26.6516 37.0376 31.6732L37.036 31.8486C36.9551 40.6529 36.9537 40.8137 36.7284 41.5782C36.4501 42.5253 36.3058 42.8114 35.8213 43.3244C35.3987 43.7782 34.636 44.1728 33.5743 44.4984C32.9558 44.6957 32.5744 44.7352 30.8221 44.7746L28.7812 44.8141V42.7818ZM75.1796 43.65C75.9115 44.2813 76.5918 44.4984 78.5708 44.7352C79.2305 44.8141 81.4982 44.6957 82.1991 44.5576C83.7246 44.2419 84.5595 43.6795 85.1058 42.5943L85.1273 42.5524L85.1274 42.5523C85.2347 42.3428 85.3257 42.1649 85.4031 41.9813C85.8378 40.9487 85.8378 39.733 85.8377 31.6835V31.6834V31.6833V31.6832L85.8377 31.2785V22.3502L83.3433 22.3206L80.8385 22.3009L80.8282 30.6077C80.8282 35.1853 80.787 39.2795 80.7457 39.7136C80.6633 40.3844 80.6117 40.5226 80.385 40.7199C79.8284 41.1737 79.1687 40.8777 78.9728 40.0885C78.9213 39.8813 78.8801 35.797 78.8801 31.0023V22.3009L76.2826 22.3206L73.6747 22.3502V31.3279C73.6747 39.5755 73.6851 40.3746 73.8603 41.1441C74.1077 42.2786 74.5406 43.0975 75.1796 43.65ZM39.1941 33.3996V22.3009L43.9665 22.3206L48.7286 22.3502V24.1753V26.0005L46.5434 26.0301L44.3479 26.0498V28.3189V30.5879H45.6364C46.9042 30.5879 46.9248 30.5879 46.9248 30.8149C46.9145 30.9332 46.8114 31.7619 46.6877 32.6597L46.4507 34.2875L45.4302 34.3369L44.3995 34.3862L44.3685 37.5629L44.3479 40.7495L46.5331 40.7692L48.7286 40.7988V42.6239V44.4491L43.9665 44.4787L39.1941 44.4984V33.3996ZM52.5934 26.0498V35.2741V44.4984H55.1703H57.7472V39.6445C57.7472 36.971 57.7781 32.8176 57.8194 30.4202L57.8812 26.0498H58.479C59.0253 26.0498 59.0872 26.0301 59.1387 25.8327C59.3036 25.1619 59.8087 22.6363 59.8087 22.4784C59.8087 22.3107 59.6026 22.3009 54.9642 22.3009H50.1196V24.1753V26.0498H51.3565H52.5934ZM88.154 33.393V22.2943L92.1533 22.3239C95.9465 22.3633 96.1733 22.3732 96.8329 22.5804C98.2348 23.0342 99.1006 23.8629 99.5335 25.1651C99.9664 26.4575 100.049 27.306 100.039 29.9499C100.028 32.071 99.9974 32.5643 99.8015 33.4522C99.5438 34.6361 99.1625 35.4944 98.5852 36.1258L98.1832 36.5599L99.0903 40.4074C99.5851 42.5285 99.9974 44.3142 99.9974 44.3833C100.008 44.472 99.4408 44.5016 97.5029 44.5016H95.0085L94.4622 42.2128C94.1736 40.95 93.8231 39.4505 93.6891 38.8881C93.2768 37.0531 93.2047 37.3984 93.2047 41.1375V44.5016H90.6793H88.154V33.393ZM94.6065 33.1464C94.7302 33.0181 94.8127 32.6926 94.8642 32.0908C94.9673 30.976 94.9673 28.4208 94.8642 27.2961C94.7611 26.2208 94.6168 26.053 93.7613 26.053H93.2047V29.7329V33.4029L93.8128 33.3733C94.2561 33.3437 94.4725 33.2845 94.6065 33.1464ZM101.967 22.3009V33.3996V44.4984H104.544H107.121V39.4176V34.3467L108.131 34.3171L109.131 34.2875L109.358 32.7584C109.482 31.9198 109.585 31.0812 109.585 30.9135L109.595 30.5879H108.358H107.121V28.3189V26.0498H109.183H111.244V24.1753V22.3009H106.606H101.967Z" fill="white"/>
</svg>
