<svg width="72" height="48" viewBox="0 0 72 48" fill="none" xmlns="http://www.w3.org/2000/svg">
<g clip-path="url(#clip0_869_44523)">
<path d="M23.8511 14.2495C23.9663 14.3318 24.0845 14.4107 24.1961 14.4975C25.1964 15.2694 25.8507 16.2676 26.1581 17.4896C26.2286 17.7705 26.2713 18.0564 26.2921 18.3459C26.3032 18.5005 26.3073 18.6551 26.3073 18.8096C26.3073 22.6065 26.3073 26.4028 26.3078 30.1996C26.3078 30.3986 26.3022 30.5967 26.2819 30.7942C26.2307 31.2923 26.1165 31.7752 25.9273 32.2395C25.4708 33.3589 24.7206 34.2298 23.6842 34.8572C23.6584 34.8729 23.6335 34.8901 23.6076 34.9062C23.596 34.9057 23.5884 34.9113 23.5843 34.9214C23.5772 34.9209 23.5711 34.9234 23.5671 34.929C23.5564 34.9279 23.5503 34.933 23.5463 34.9426C23.5077 34.9613 23.4692 34.9805 23.4301 34.9992C23.3134 35.0563 23.1968 35.1133 23.0801 35.1699C23.0689 35.1689 23.0608 35.1735 23.0547 35.1831C23.0258 35.1841 23.0025 35.1997 22.9781 35.2124C22.9675 35.2103 22.9604 35.2154 22.9553 35.2245C22.9421 35.229 22.9289 35.2341 22.9152 35.2386C22.9071 35.2351 22.902 35.2386 22.899 35.2462C22.8914 35.2482 22.8838 35.2507 22.8767 35.2528C22.866 35.2507 22.8584 35.2553 22.8528 35.2644C22.8239 35.2644 22.7996 35.2775 22.7752 35.2912C22.759 35.2886 22.7468 35.2947 22.7367 35.3068C22.7291 35.3088 22.722 35.3109 22.7143 35.3124C22.6986 35.3098 22.687 35.3159 22.6768 35.327C22.6692 35.329 22.6611 35.3311 22.6535 35.3331C22.6383 35.3301 22.6261 35.3366 22.6164 35.3472C22.6083 35.3493 22.6007 35.3513 22.5931 35.3528C22.5774 35.3498 22.5652 35.3558 22.5551 35.3669C22.5475 35.3684 22.5398 35.3705 22.5322 35.372C22.516 35.369 22.5033 35.3745 22.4927 35.3866C22.4785 35.3897 22.4648 35.3932 22.4506 35.3962C22.4404 35.3932 22.4338 35.3977 22.4288 35.4053C22.4161 35.4079 22.4034 35.4109 22.3902 35.4134C22.3745 35.4104 22.3618 35.4154 22.3511 35.427C22.3369 35.4301 22.3232 35.4326 22.309 35.4356C22.2984 35.4326 22.2908 35.4366 22.2847 35.4452C22.2669 35.4478 22.2487 35.4498 22.2309 35.4523C22.2137 35.4473 22.199 35.4523 22.1868 35.4654C22.1736 35.469 22.1599 35.472 22.1467 35.4755C22.131 35.4715 22.1183 35.4766 22.1072 35.4877C22.0853 35.4862 22.0645 35.4887 22.0448 35.4983C22.0301 35.4937 22.0184 35.4983 22.0077 35.5084C21.9854 35.5064 21.9641 35.5089 21.9433 35.5185C21.9286 35.5139 21.9159 35.5185 21.9048 35.5281C21.884 35.5306 21.8632 35.5336 21.8424 35.5362C21.8206 35.5311 21.8013 35.5362 21.7835 35.5488C21.7627 35.5513 21.7419 35.5533 21.7211 35.5559C21.6988 35.5508 21.6775 35.5538 21.6587 35.568C21.6248 35.5655 21.5913 35.568 21.5583 35.5771C21.5304 35.572 21.5035 35.574 21.4787 35.5892C21.432 35.5907 21.3853 35.5927 21.3392 35.5943C21.2499 35.5897 21.1611 35.5892 21.0734 35.6099H9.18318C9.08985 35.5826 8.99398 35.5897 8.89861 35.5902C8.66324 35.5665 8.42889 35.5341 8.19808 35.4811C7.0953 35.228 6.15941 34.687 5.39649 33.8545C4.83799 33.2452 4.44487 32.542 4.21305 31.7505C4.09232 31.3387 4.02181 30.9179 4.0071 30.4886C4.00609 30.4653 4.00254 30.4416 4.00051 30.4183C4.00203 30.3446 4.00457 30.2708 4.00457 30.1966C4.00457 26.3608 4.00457 22.5251 4.00457 18.6889C4.00457 18.6586 4.00152 18.6288 4 18.5985C4.0142 18.4782 4.01319 18.357 4.02486 18.2363C4.04819 18.0014 4.08471 17.769 4.13848 17.5396C4.50726 15.9656 5.56693 14.642 7.02276 13.9363C7.46864 13.7201 7.93583 13.5675 8.42483 13.4827C8.66121 13.4417 8.89861 13.4094 9.13905 13.4054C9.22326 13.4064 9.30797 13.4079 9.39218 13.4079C13.2702 13.4079 17.1487 13.4084 21.0267 13.4079C21.0571 13.4079 21.0871 13.4044 21.1175 13.4023C21.1905 13.4039 21.2631 13.4054 21.3361 13.4069L21.3346 13.4124C21.3676 13.4367 21.4041 13.4296 21.4401 13.4246C21.4741 13.4251 21.5076 13.4261 21.5416 13.4266C21.5654 13.4382 21.5903 13.4433 21.6166 13.4372C21.6445 13.4478 21.674 13.4493 21.7034 13.4473C21.7206 13.4579 21.7384 13.463 21.7587 13.4569C21.7856 13.4685 21.814 13.47 21.8434 13.4685C21.8545 13.4776 21.8662 13.4827 21.8809 13.4771C21.9017 13.4877 21.9245 13.4897 21.9474 13.4877C21.957 13.4963 21.9677 13.5019 21.9808 13.4943C22.0016 13.5074 22.025 13.5094 22.0488 13.5079C22.059 13.517 22.0696 13.5226 22.0833 13.516C22.1031 13.5281 22.1249 13.5302 22.1477 13.5291L22.1548 13.5352L22.1635 13.5327C22.1838 13.5468 22.2066 13.5493 22.2304 13.5483L22.2365 13.5544L22.2441 13.5519C22.2639 13.5665 22.2872 13.5696 22.3111 13.569L22.3177 13.5756L22.3263 13.5736C22.341 13.5852 22.3583 13.5887 22.3765 13.5882C22.3856 13.5973 22.3953 13.6029 22.409 13.5978C22.4242 13.6019 22.4394 13.6059 22.4546 13.6095L22.4602 13.6155L22.4678 13.6135C22.482 13.6251 22.4988 13.6292 22.517 13.6292C22.5267 13.6393 22.5378 13.6453 22.552 13.6418C22.5612 13.6443 22.5703 13.6468 22.5794 13.6489C22.5885 13.6585 22.5987 13.6645 22.6124 13.661C22.6261 13.6645 22.6393 13.6681 22.653 13.6716C22.6575 13.6797 22.6641 13.6837 22.6738 13.6812C22.6829 13.6837 22.692 13.6868 22.7012 13.6893C22.7103 13.6994 22.7204 13.7059 22.7346 13.7024C22.7433 13.7049 22.7519 13.7075 22.761 13.71L22.7656 13.7155L22.7717 13.713C22.7854 13.7251 22.8016 13.7302 22.8199 13.7307L22.8259 13.7378L22.8351 13.7368C22.862 13.7544 22.8909 13.7671 22.9228 13.7706L22.9279 13.7772L22.9355 13.7757C22.9761 13.8014 23.0207 13.8186 23.0674 13.8312L23.071 13.8368L23.0765 13.8343C23.1394 13.8651 23.2028 13.8949 23.2657 13.9262C23.3763 13.9818 23.4864 14.0378 23.5965 14.0939L23.5995 14.1L23.6061 14.099C23.6792 14.1495 23.7547 14.196 23.8344 14.2364C23.8374 14.2455 23.843 14.2505 23.8531 14.25L23.8511 14.2495ZM15.776 24.4715C15.8252 24.4791 15.8739 24.4821 15.9206 24.4599C16.0393 24.4579 16.156 24.4382 16.2727 24.4215C16.6455 24.3685 17.0072 24.274 17.3567 24.1356C18.43 23.7118 19.266 23.0065 19.8646 22.024C20.1704 21.5219 20.3749 20.9793 20.4875 20.4024C20.5412 20.1276 20.5666 19.8498 20.5788 19.5709C20.5849 19.4325 20.595 19.4472 20.456 19.4472C18.8576 19.4472 17.2588 19.4472 15.6604 19.4472C15.6335 19.4472 15.6061 19.4472 15.5792 19.4472C15.5381 19.4487 15.5305 19.4552 15.529 19.4926C15.5275 19.5229 15.5285 19.5532 15.5285 19.5835C15.5285 21.1718 15.5285 22.76 15.5285 24.3483C15.5285 24.3851 15.53 24.422 15.531 24.4594C15.5331 24.4735 15.5412 24.4786 15.5549 24.4756L15.776 24.4705V24.4715ZM12.9181 19.7917C12.8862 19.7942 12.8583 19.8078 12.8319 19.8255C12.8248 19.8225 12.8197 19.825 12.8167 19.8321C12.7918 19.8321 12.7726 19.8452 12.7528 19.8573C12.7416 19.8558 12.7335 19.8604 12.7284 19.87C12.6939 19.8735 12.665 19.8917 12.6346 19.9058C12.0822 20.1589 11.5917 20.5009 11.1635 20.9298C10.7379 21.3562 10.3986 21.8437 10.1475 22.3908C9.87001 22.9949 9.72392 23.6304 9.69552 24.2927C9.68841 24.4639 9.69298 24.6357 9.70465 24.807C9.72392 25.0929 9.76501 25.3753 9.83298 25.6536C10.0303 26.4674 10.4087 27.1883 10.9662 27.8142C11.474 28.3845 12.0812 28.82 12.7873 29.116C13.3726 29.3615 13.9839 29.4924 14.619 29.5065C14.759 29.5095 14.7448 29.5232 14.7448 29.3853C14.7448 26.1138 14.7448 22.8424 14.7448 19.5709C14.7448 19.5441 14.7453 19.5169 14.7443 19.4901C14.7428 19.4557 14.7357 19.4466 14.7027 19.4466C14.6352 19.4466 14.5678 19.4492 14.4998 19.4507C14.4501 19.4451 14.4009 19.4391 14.3537 19.4628C14.3065 19.4669 14.2598 19.4714 14.2127 19.4754C14.1909 19.4694 14.1701 19.4724 14.1518 19.4855C14.1178 19.483 14.0838 19.485 14.0509 19.4951C14.029 19.4896 14.0098 19.4941 13.9915 19.5068C13.9631 19.5042 13.9352 19.5068 13.9083 19.5174C13.8931 19.5123 13.8804 19.5174 13.8693 19.527C13.849 19.5295 13.8287 19.5325 13.8079 19.5351C13.7916 19.531 13.7779 19.5351 13.7658 19.5467C13.746 19.5497 13.7262 19.5527 13.7064 19.5553C13.6902 19.5512 13.677 19.5558 13.6653 19.5669C13.644 19.5654 13.6237 19.5679 13.605 19.5775C13.5948 19.5739 13.5877 19.5775 13.5816 19.5861C13.5613 19.5846 13.5421 19.5876 13.5238 19.5967C13.5132 19.5937 13.5055 19.5977 13.5 19.6058C13.4797 19.6048 13.4604 19.6078 13.4426 19.6174C13.4325 19.6139 13.4254 19.6184 13.4203 19.6265C13.4076 19.629 13.395 19.6315 13.3828 19.6341C13.3666 19.631 13.3539 19.6361 13.3427 19.6477C13.329 19.6507 13.3148 19.6538 13.3011 19.6573C13.291 19.6543 13.2839 19.6588 13.2788 19.6669C13.2661 19.6699 13.2534 19.673 13.2408 19.6755C13.2296 19.673 13.222 19.677 13.2159 19.6861C13.2037 19.6891 13.1916 19.6917 13.1794 19.6947C13.1642 19.6917 13.152 19.6977 13.1423 19.7088C13.1347 19.7108 13.1266 19.7129 13.119 19.7149C13.1079 19.7129 13.0997 19.7169 13.0942 19.7265C13.082 19.7295 13.0703 19.7331 13.0581 19.7361C13.0475 19.7336 13.0399 19.7386 13.0348 19.7472C12.9978 19.7497 12.9653 19.7644 12.9344 19.7836C12.9273 19.7806 12.9227 19.7826 12.9197 19.7897L12.9181 19.7917Z" fill="#111111"/>
<path d="M65.0581 21.9262C65.0911 21.9368 65.1251 21.9383 65.1596 21.9368C65.1712 21.9469 65.1849 21.9514 65.2002 21.9464C65.226 21.9565 65.2534 21.959 65.2808 21.957C65.2859 21.9636 65.2915 21.9676 65.3001 21.9615C65.3254 21.9767 65.3539 21.9777 65.3823 21.9772C65.3873 21.9843 65.3934 21.9883 65.402 21.9833C65.4218 21.9954 65.4436 21.9979 65.466 21.9964L65.4731 22.003L65.4822 22.001C65.5015 22.0151 65.5238 22.0176 65.5471 22.0171C65.5512 22.0237 65.5563 22.0277 65.5644 22.0227C65.5826 22.0363 65.6034 22.0388 65.6252 22.0388C65.6308 22.0469 65.6374 22.0515 65.6476 22.0484C65.6613 22.0515 65.6749 22.055 65.6886 22.058C65.6927 22.0656 65.6983 22.0697 65.7074 22.0656C65.7216 22.0697 65.7363 22.0737 65.7505 22.0777C65.7546 22.0848 65.7597 22.0888 65.7678 22.0848C65.7805 22.0949 65.7947 22.0984 65.8104 22.0979C65.8144 22.1055 65.82 22.1101 65.8297 22.107C65.9103 22.1409 65.992 22.1722 66.0716 22.2086C66.9451 22.6112 67.5295 23.2719 67.8384 24.1772C67.9013 24.3621 67.9439 24.5515 67.9759 24.744C67.9815 24.7768 67.9815 24.8107 67.9845 24.8445C67.9815 24.893 67.9749 24.9425 68.0033 24.987V25.775C67.9886 25.7867 67.9865 25.8038 67.986 25.8205C67.9774 26.0408 67.9231 26.2529 67.8587 26.4621C67.6984 26.9829 67.4296 27.4411 67.0425 27.8275C66.5997 28.2701 66.0696 28.5585 65.4609 28.705C65.2899 28.7459 65.1175 28.7788 64.9414 28.7873C64.8993 28.7838 64.8567 28.7747 64.8172 28.799C64.6691 28.8086 64.5204 28.8086 64.3723 28.799C64.3327 28.7747 64.2906 28.7838 64.2485 28.7873C63.9944 28.7712 63.7469 28.7186 63.5044 28.6429C62.9784 28.4787 62.5188 28.2039 62.1333 27.8114C61.7153 27.3855 61.4378 26.8798 61.2882 26.3039C61.1953 25.9463 61.1563 25.5826 61.171 25.2138C61.1938 24.6369 61.3293 24.0893 61.6148 23.5836C61.977 22.9426 62.5 22.4783 63.1762 22.1843C63.2041 22.1722 63.231 22.1591 63.2584 22.1464C63.2665 22.1505 63.271 22.1464 63.2741 22.1394C63.3416 22.1176 63.409 22.0954 63.4765 22.0737C63.4876 22.0762 63.4963 22.0722 63.5018 22.0631C63.5145 22.059 63.5272 22.055 63.5404 22.051C63.551 22.0535 63.5582 22.0494 63.5642 22.0409C63.5855 22.0409 63.6058 22.0383 63.6236 22.0257C63.6322 22.0303 63.6378 22.0262 63.6424 22.0191C63.6647 22.0196 63.6865 22.0171 63.7053 22.0035C63.7134 22.009 63.7184 22.005 63.723 21.9984C63.7448 21.9999 63.7661 21.9969 63.7854 21.9858C63.7945 21.9903 63.8011 21.9863 63.8067 21.9792C63.8346 21.9797 63.8625 21.9787 63.8874 21.9646C63.896 21.9701 63.9026 21.9661 63.9077 21.959C63.935 21.961 63.9614 21.9585 63.9873 21.9484C64.003 21.953 64.0167 21.9489 64.0289 21.9388C64.0705 21.9393 64.1121 21.9393 64.1516 21.9242C64.1659 21.9317 64.1785 21.9272 64.1902 21.9186C64.249 21.9171 64.3079 21.9156 64.3672 21.9141C64.525 21.9211 64.6827 21.9201 64.8405 21.9151C64.8988 21.9166 64.9572 21.9186 65.0155 21.9201C65.0282 21.9307 65.0429 21.9343 65.0586 21.9287L65.0581 21.9262ZM64.3688 23.52C64.3576 23.5164 64.3485 23.5195 64.3414 23.5281C64.3089 23.525 64.2774 23.5291 64.247 23.5402C64.2364 23.5367 64.2288 23.5402 64.2227 23.5488C64.2039 23.5523 64.1851 23.5553 64.1664 23.5589C64.1552 23.5558 64.1471 23.5599 64.141 23.569C64.1182 23.574 64.0943 23.5766 64.0725 23.5841C63.6236 23.7322 63.306 24.0251 63.1133 24.453C63.0129 24.6763 62.9647 24.9117 62.9444 25.1552C62.9215 25.43 62.9434 25.6998 63.0139 25.965C63.1102 26.3262 63.2939 26.6343 63.5932 26.8662C63.8336 27.0526 64.106 27.1612 64.4098 27.19C64.4428 27.2107 64.4778 27.2097 64.5143 27.2011C64.5676 27.2011 64.6209 27.2011 64.6746 27.2011C64.7106 27.2092 64.7462 27.2112 64.7791 27.19C64.837 27.1905 64.8933 27.1779 64.9491 27.1658C65.2605 27.0991 65.5319 26.9581 65.7556 26.7303C65.9636 26.5181 66.0985 26.2651 66.1746 25.9811C66.2512 25.6962 66.2725 25.4063 66.2436 25.1118C66.2223 24.8961 66.1787 24.6869 66.0939 24.4869C65.9372 24.1161 65.6815 23.8362 65.3158 23.6599C65.2737 23.6397 65.2321 23.6165 65.1839 23.6104C65.1799 23.6023 65.1738 23.5983 65.1646 23.6008C65.1515 23.5973 65.1378 23.5932 65.1246 23.5897C65.12 23.5816 65.1134 23.5776 65.1038 23.5806C65.0865 23.57 65.0683 23.567 65.0485 23.568C65.0419 23.5589 65.0333 23.5553 65.0221 23.5574L64.9668 23.5478C64.9602 23.5387 64.9521 23.5351 64.9414 23.5387C64.911 23.5281 64.8801 23.5235 64.8481 23.5265C64.8405 23.5175 64.8314 23.5149 64.8197 23.518L64.6767 23.5023C64.6219 23.4801 64.5676 23.4801 64.5128 23.5023C64.4651 23.5074 64.4174 23.5129 64.3698 23.518L64.3688 23.52Z" fill="#111111"/>
<path d="M9.14062 13.4064C9.14265 13.4008 9.14367 13.3947 9.14367 13.3887H21.114C21.1165 13.3932 21.1186 13.3983 21.1191 13.4038C21.0886 13.4058 21.0587 13.4094 21.0283 13.4094C17.1503 13.4094 13.2718 13.4094 9.39375 13.4094C9.30954 13.4094 9.22483 13.4079 9.14062 13.4069V13.4064Z" fill="#111111"/>
<path d="M50.3275 27.9125C50.0577 28.3167 49.6691 28.5516 49.2085 28.6773C48.8895 28.7647 48.5638 28.7799 48.2341 28.7506C47.9531 28.7258 47.6796 28.6693 47.4154 28.5728C46.834 28.3601 46.3643 28.0004 46.0016 27.5013C45.7059 27.0942 45.5197 26.6395 45.4203 26.149C45.3574 25.8378 45.3305 25.5231 45.3427 25.2059C45.367 24.5704 45.5207 23.9702 45.8505 23.4201C46.0716 23.0513 46.3562 22.7401 46.7067 22.4886C46.726 22.4749 46.7438 22.4598 46.762 22.4451H46.7691L46.7722 22.4386C46.8264 22.4108 46.8777 22.3789 46.9259 22.3421L46.9319 22.3436L46.9345 22.3375C47.0405 22.2845 47.147 22.2314 47.253 22.1779L47.2566 22.1809L47.2591 22.1759C47.2693 22.1718 47.2794 22.1673 47.2896 22.1632L47.2987 22.1637L47.3048 22.1567C47.3129 22.1541 47.321 22.1516 47.3286 22.1491C47.3428 22.1521 47.353 22.1456 47.3616 22.135C47.3712 22.1314 47.3809 22.1279 47.3905 22.1248C47.3991 22.1284 47.4042 22.1243 47.4083 22.1168C47.425 22.1168 47.4402 22.1127 47.4529 22.1016L47.4615 22.1031L47.4676 22.0961C47.4844 22.0961 47.5001 22.0925 47.5138 22.0814L47.5229 22.0829L47.5295 22.0758C47.5442 22.0718 47.5589 22.0678 47.5736 22.0642C47.5828 22.0683 47.5883 22.0642 47.5929 22.0567C47.6162 22.0567 47.6381 22.0536 47.6573 22.0395L47.6654 22.042L47.6715 22.0359C47.6862 22.0329 47.7004 22.0304 47.7152 22.0274C47.7304 22.0309 47.7425 22.0258 47.7532 22.0157C47.776 22.0167 47.7983 22.0147 47.8186 22.0026C47.8323 22.0092 47.843 22.0036 47.8526 21.995C47.876 21.9965 47.8983 21.995 47.9191 21.9844C47.9389 21.99 47.9561 21.9844 47.9728 21.9743C47.9952 21.9718 48.0175 21.9693 48.0398 21.9667C48.0667 21.9718 48.0926 21.9677 48.1169 21.9551C48.157 21.9546 48.1976 21.9536 48.2376 21.9531C48.3452 21.9541 48.4522 21.9556 48.5597 21.9556C48.6166 21.9556 48.6739 21.9536 48.7307 21.9526C48.7774 21.9536 48.8235 21.9546 48.8702 21.9556C48.8879 21.9662 48.9067 21.9713 48.927 21.9642C48.9549 21.9758 48.9843 21.9768 49.0142 21.9753C49.0315 21.9864 49.0498 21.9915 49.07 21.9864C49.0908 21.9955 49.1127 21.9981 49.135 21.996C49.1456 22.0056 49.1568 22.0112 49.1715 22.0056C49.1908 22.0157 49.2121 22.0188 49.2339 22.0172C49.2385 22.0238 49.244 22.0279 49.2522 22.0228C49.2669 22.0334 49.2831 22.0359 49.3009 22.0354C49.31 22.0445 49.3201 22.0501 49.3333 22.045C49.3485 22.0491 49.3638 22.0531 49.379 22.0572L49.3851 22.0637L49.3932 22.0617C49.4069 22.0733 49.4231 22.0774 49.4409 22.0774L49.4464 22.0834L49.454 22.0814C49.4672 22.0935 49.4835 22.0976 49.5007 22.0981L49.5073 22.1051H49.5164C49.5281 22.1152 49.5423 22.1193 49.558 22.1193C49.5626 22.1279 49.5692 22.1324 49.5793 22.1304C49.6017 22.1395 49.6235 22.1486 49.6458 22.1577L49.6504 22.1643L49.6575 22.1627C49.6681 22.1678 49.6783 22.1728 49.6889 22.1779L49.6919 22.1834L49.697 22.1814C49.7077 22.187 49.7188 22.1925 49.7295 22.1981L49.7325 22.2042L49.7381 22.2021C49.7949 22.238 49.8528 22.2724 49.9085 22.3097C50.0496 22.4047 50.1723 22.5189 50.2692 22.6593C50.2783 22.6724 50.2844 22.6886 50.3027 22.6952C50.3255 22.6896 50.3199 22.6699 50.3204 22.6553C50.3225 22.5613 50.3245 22.4673 50.3245 22.3729C50.3245 21.3045 50.3245 20.2355 50.3245 19.1671C50.3245 19.1272 50.3281 19.0868 50.3296 19.0469C50.9053 19.0469 51.4806 19.0469 52.0563 19.0474C52.0578 19.0908 52.0609 19.1348 52.0609 19.1782C52.0609 21.9319 52.0609 24.6855 52.0614 27.4387C52.0614 27.7751 52.0791 28.1116 52.1004 28.4475C52.103 28.4879 52.1096 28.5278 52.1126 28.5677C52.1146 28.592 52.1024 28.6041 52.0766 28.6051C52.0461 28.6066 52.0157 28.6061 51.9853 28.6061C51.512 28.6061 51.0387 28.6061 50.5655 28.6061C50.5284 28.6061 50.4909 28.6071 50.4539 28.6071C50.4473 28.6051 50.4402 28.6036 50.4336 28.6016C50.4046 28.5293 50.4041 28.452 50.3945 28.3768C50.3762 28.2384 50.3671 28.0994 50.3656 27.9595C50.3656 27.9464 50.3636 27.9332 50.3625 27.9196C50.3671 27.906 50.3757 27.8893 50.3544 27.8832C50.3402 27.8797 50.3336 27.8923 50.3301 27.9044C50.3291 27.9075 50.3291 27.9105 50.3286 27.9135L50.3275 27.9125ZM49.2156 27.1169C49.2253 27.1199 49.2319 27.1154 49.2369 27.1078L49.2765 27.0972C49.2861 27.0997 49.2922 27.0952 49.2968 27.0871C49.3125 27.0871 49.3272 27.083 49.3394 27.0719L49.348 27.0729L49.3536 27.0659C49.382 27.0649 49.4048 27.0497 49.4287 27.0381C49.7406 26.8865 49.9684 26.6506 50.1246 26.3445C50.2717 26.0576 50.3311 25.7494 50.3463 25.4306C50.3554 25.2417 50.3412 25.0543 50.3073 24.8684C50.2677 24.6517 50.1987 24.4446 50.0841 24.2556C49.8178 23.8161 49.4251 23.5752 48.9128 23.5267C48.8656 23.5024 48.8159 23.5095 48.7662 23.5156C48.7535 23.5156 48.7403 23.5156 48.7276 23.5156C48.6713 23.509 48.615 23.5009 48.5613 23.5277C48.5034 23.5277 48.4471 23.5393 48.3908 23.5514C48.0555 23.6217 47.7735 23.7823 47.5493 24.0414C47.3991 24.2147 47.2926 24.4127 47.2262 24.6305C47.0912 25.0725 47.0877 25.518 47.1993 25.9651C47.2642 26.2268 47.3799 26.4647 47.5574 26.6698C47.6771 26.8087 47.8151 26.9264 47.9835 27.0042L47.986 27.0098L47.9906 27.0073C48.0018 27.0128 48.0124 27.0184 48.0236 27.0244L48.0261 27.03L48.0312 27.0275C48.0713 27.0558 48.1154 27.075 48.1636 27.0846C48.1727 27.0947 48.1829 27.1012 48.1971 27.0977L48.2234 27.1048C48.2326 27.1149 48.2437 27.1209 48.2579 27.1169C48.2721 27.1199 48.2863 27.123 48.3005 27.1265L48.3076 27.1331L48.3168 27.131C48.3366 27.1452 48.3594 27.1472 48.3832 27.1462C48.3939 27.1558 48.405 27.1613 48.4197 27.1553C48.4466 27.1674 48.475 27.1694 48.5039 27.1669C48.5217 27.1785 48.5405 27.1831 48.5613 27.176C48.6784 27.1942 48.7951 27.1932 48.9123 27.177C48.9336 27.1836 48.9529 27.1795 48.9711 27.1674C48.9995 27.1699 49.0274 27.1679 49.0543 27.1563C49.0685 27.1613 49.0807 27.1563 49.0914 27.1467C49.1152 27.1477 49.138 27.1457 49.1578 27.131L49.1664 27.1331L49.173 27.1265C49.1872 27.123 49.2014 27.1199 49.2156 27.1164V27.1169Z" fill="#111111"/>
<path d="M55.583 22.0346C55.5977 22.0315 55.6119 22.029 55.6266 22.0265C55.6419 22.0305 55.654 22.025 55.6647 22.0149C55.6875 22.0164 55.7098 22.0138 55.7301 22.0017C55.7438 22.0083 55.7545 22.0027 55.7646 21.9941C55.7874 21.9957 55.8103 21.9941 55.8311 21.9835C55.8509 21.9891 55.8686 21.9835 55.8848 21.9734C55.9072 21.9709 55.9295 21.9684 55.9518 21.9659C55.9787 21.9709 56.0046 21.9669 56.0289 21.9542C56.069 21.9537 56.1096 21.9527 56.1496 21.9522C56.2572 21.9532 56.3642 21.9547 56.4717 21.9547C56.5286 21.9547 56.5859 21.9527 56.6427 21.9517C56.6833 21.9522 56.7244 21.9532 56.7649 21.9537C56.7883 21.9648 56.8126 21.9699 56.8385 21.9628C56.8669 21.9744 56.8963 21.976 56.9262 21.9739C56.9435 21.9851 56.9618 21.9901 56.9815 21.9851C57.0023 21.9941 57.0241 21.9967 57.0465 21.9946C57.0571 22.0042 57.0683 22.0098 57.083 22.0042C57.0992 22.0073 57.1149 22.0108 57.1312 22.0138C57.1403 22.0224 57.1499 22.0275 57.1621 22.0209C57.1814 22.0346 57.2032 22.0371 57.226 22.0366C57.2306 22.0437 57.2367 22.0482 57.2458 22.0437C57.261 22.0477 57.2758 22.0512 57.291 22.0553L57.2971 22.0613L57.3052 22.0593C57.3189 22.0709 57.3356 22.075 57.3529 22.075L57.3579 22.081L57.3655 22.079C57.3787 22.0911 57.395 22.0952 57.4127 22.0957L57.4188 22.1028L57.4279 22.1017C57.469 22.1255 57.5126 22.1422 57.5578 22.1553L57.5618 22.1614L57.5689 22.1598C57.5796 22.1649 57.5897 22.1699 57.6004 22.1755L57.6034 22.1811L57.6085 22.179C57.6192 22.1846 57.6303 22.1901 57.641 22.1957L57.644 22.2013L57.6496 22.1992C57.6805 22.2184 57.7115 22.2381 57.7429 22.2568C57.922 22.3659 58.0777 22.4993 58.1944 22.6756C58.2015 22.6862 58.2127 22.6938 58.2218 22.7029C58.2218 22.7105 58.2258 22.715 58.2335 22.7135C58.2345 22.7135 58.2335 22.7029 58.2335 22.6973C58.2345 22.6569 58.2365 22.6165 58.2365 22.5761C58.2365 21.4385 58.2365 20.3013 58.2365 19.1637C58.2365 19.1233 58.2401 19.0834 58.2416 19.043C58.8173 19.043 59.3925 19.043 59.9683 19.0435C59.9698 19.0869 59.9729 19.1309 59.9729 19.1743C59.9729 21.9244 59.9728 24.6746 59.9739 27.4247C59.9739 27.7611 59.9906 28.0976 60.0124 28.4335C60.0155 28.4769 60.0221 28.5204 60.0251 28.5638C60.0266 28.5881 60.0144 28.6002 59.9891 28.6012C59.9586 28.6027 59.9282 28.6022 59.8978 28.6022C59.4245 28.6022 58.9512 28.6022 58.478 28.6022C58.4409 28.6022 58.4034 28.6032 58.3664 28.6032C58.3598 28.6012 58.3527 28.5997 58.3461 28.5977C58.3177 28.5254 58.3172 28.4481 58.307 28.3729C58.2882 28.2345 58.2801 28.0955 58.2786 27.9556C58.2786 27.9425 58.2761 27.9293 58.275 27.9162C58.2766 27.9106 58.2796 27.9046 58.2801 27.899C58.2806 27.8899 58.2791 27.8803 58.2674 27.8798C58.2619 27.8798 58.2543 27.8818 58.2517 27.8859C58.2466 27.893 58.2451 27.9026 58.2416 27.9106C57.9661 28.3208 57.5715 28.5567 57.1018 28.68C56.7847 28.7634 56.4621 28.777 56.1359 28.7472C55.858 28.7219 55.5881 28.6654 55.3269 28.5694C54.6755 28.3294 54.1703 27.9106 53.8 27.3282C53.5697 26.9655 53.4206 26.5704 53.3354 26.1511C53.2719 25.84 53.2446 25.5247 53.2567 25.2075C53.2801 24.5856 53.4277 23.9971 53.7432 23.4551C53.9669 23.0712 54.2581 22.7479 54.6202 22.4877C54.6395 22.4741 54.6573 22.4589 54.6755 22.4442H54.6831L54.6862 22.4372C54.7405 22.4099 54.7912 22.3776 54.8389 22.3412L54.8455 22.3422L54.8485 22.3361C54.9545 22.2831 55.06 22.2301 55.1661 22.177L55.1706 22.1795L55.1737 22.174C55.1838 22.1699 55.1934 22.1654 55.2036 22.1614H55.2127L55.2188 22.1543C55.2269 22.1518 55.2345 22.1492 55.2427 22.1472C55.2569 22.1502 55.2675 22.1432 55.2761 22.1331C55.2858 22.1295 55.2954 22.1265 55.3045 22.123C55.3132 22.1265 55.3187 22.122 55.3223 22.1149C55.3385 22.1149 55.3537 22.1108 55.3664 22.1002L55.3756 22.1012L55.3821 22.0942C55.3989 22.0942 55.4146 22.0906 55.4278 22.08L55.4369 22.0815L55.4435 22.0745C55.4582 22.0704 55.4729 22.0664 55.4882 22.0623C55.5014 22.0674 55.5115 22.0618 55.5201 22.0522C55.5389 22.0522 55.5561 22.0492 55.5708 22.0376L55.579 22.0401L55.5851 22.0341L55.583 22.0346ZM55.8965 27.0034L55.8985 27.0089L55.9026 27.0064C55.9138 27.012 55.9249 27.018 55.9356 27.0236L55.9381 27.0291L55.9432 27.0266C55.969 27.0468 55.9975 27.061 56.0304 27.065C56.034 27.0726 56.0391 27.0766 56.0482 27.0736C56.0756 27.0887 56.1035 27.1029 56.1359 27.1039C56.1451 27.114 56.1562 27.1201 56.1704 27.116C56.1846 27.119 56.1988 27.1221 56.2136 27.1251L56.2206 27.1317L56.2293 27.1297C56.2491 27.1443 56.2724 27.1463 56.2957 27.1448C56.3059 27.1544 56.3175 27.16 56.3317 27.1539C56.3586 27.1665 56.387 27.168 56.4159 27.1655C56.4337 27.1766 56.4525 27.1817 56.4733 27.1741C56.5904 27.1923 56.7071 27.1913 56.8243 27.1751C56.8456 27.1817 56.8649 27.1776 56.8831 27.1655C56.9115 27.168 56.9394 27.166 56.9663 27.1544C56.9805 27.1595 56.9927 27.1544 57.0034 27.1448C57.0267 27.1458 57.0495 27.1438 57.0698 27.1292L57.0784 27.1312L57.085 27.1246C57.0992 27.1216 57.1134 27.118 57.1276 27.115C57.1373 27.118 57.1439 27.1135 57.1489 27.1054C57.1621 27.1019 57.1753 27.0983 57.1885 27.0948C57.1981 27.0973 57.2047 27.0928 57.2093 27.0847C57.225 27.0847 57.2397 27.0807 57.2514 27.0695L57.26 27.0706L57.2656 27.0635C57.2813 27.0584 57.2981 27.0549 57.3133 27.0483C57.4558 26.9842 57.5847 26.8988 57.6993 26.7927C57.925 26.5836 58.0732 26.3269 58.1604 26.035C58.2548 25.7187 58.2806 25.3964 58.2477 25.0681C58.2284 24.8761 58.1893 24.6902 58.1208 24.5099C58.0346 24.2836 57.9083 24.0825 57.7297 23.9173C57.641 23.835 57.5476 23.7577 57.434 23.7097C57.43 23.7001 57.4229 23.6945 57.4117 23.6955C57.4071 23.69 57.4021 23.688 57.395 23.689C57.3904 23.6789 57.3828 23.6738 57.3711 23.6748C57.3392 23.6531 57.3057 23.6364 57.2666 23.6304C57.257 23.6188 57.2448 23.6122 57.2291 23.6147C57.222 23.6127 57.2154 23.6112 57.2083 23.6092C57.2042 23.6016 57.1992 23.5975 57.19 23.6011C57.1758 23.597 57.1611 23.593 57.1469 23.589C57.1363 23.5773 57.1236 23.5723 57.1078 23.5753C57.0947 23.5728 57.0815 23.5703 57.0683 23.5677C57.0566 23.5561 57.0429 23.5516 57.0267 23.5551C57.0074 23.5521 56.9876 23.5495 56.9683 23.5465C56.9562 23.5349 56.942 23.5314 56.9252 23.5359C56.8923 23.5319 56.8588 23.5278 56.8258 23.5238C56.7786 23.4995 56.7289 23.5066 56.6792 23.5127C56.6665 23.5127 56.6533 23.5127 56.6407 23.5127C56.5844 23.5061 56.528 23.498 56.4743 23.5248C56.3992 23.5263 56.3267 23.5415 56.2546 23.5591C55.7545 23.6844 55.4085 23.9911 55.2031 24.4578C55.1199 24.6468 55.0742 24.8463 55.0519 25.0519C55.02 25.3424 55.0342 25.6298 55.1001 25.9142C55.165 26.1936 55.2817 26.4492 55.4714 26.6679C55.5916 26.8063 55.7291 26.9246 55.8975 27.0024L55.8965 27.0034Z" fill="#111111"/>
<path d="M41.2591 20.9578C41.2185 20.9593 41.1784 20.9623 41.1378 20.9623C39.8656 20.9623 38.5934 20.9623 37.3212 20.9623C37.2806 20.9623 37.2405 20.9648 37.2 20.9664C37.1868 20.9638 37.1802 20.9689 37.1812 20.983C37.1797 21.0128 37.1766 21.0431 37.1766 21.0729C37.1766 21.767 37.1766 22.4611 37.1766 23.1552C37.1766 23.1855 37.1792 23.2153 37.1807 23.2457C37.1807 23.2522 37.1807 23.2593 37.1802 23.2659C37.2061 23.2987 37.2426 23.2856 37.2745 23.2856C38.4605 23.2856 39.6465 23.2856 40.8325 23.2856C40.834 23.3123 40.8375 23.3386 40.8375 23.3654C40.8375 23.8645 40.8375 24.3631 40.8375 24.8622C40.8375 24.889 40.834 24.9152 40.8319 24.942C39.65 24.942 38.4681 24.942 37.2857 24.942C37.2654 24.942 37.2451 24.942 37.2253 24.9445C37.2162 24.9455 37.2081 24.9536 37.1995 24.9587C37.1837 24.994 37.1908 25.0319 37.1908 25.0683C37.1893 26.2014 37.1883 27.335 37.1868 28.4681C37.1868 28.5049 37.1837 28.5418 37.1817 28.5787L37.1609 28.5974C37.1239 28.5989 37.0868 28.6014 37.0503 28.6014C36.5319 28.6014 36.0135 28.6014 35.4951 28.6014C35.4545 28.6014 35.4144 28.6024 35.3738 28.6029L35.3748 28.5938C35.3698 28.5863 35.3632 28.5842 35.3551 28.5893C35.3525 28.5928 35.3525 28.5964 35.3546 28.5999C35.3434 28.5903 35.3398 28.5782 35.3398 28.564C35.3398 28.5337 35.3398 28.5034 35.3398 28.4731C35.3398 25.4386 35.3398 22.4041 35.3398 19.3695C35.3398 19.3291 35.3419 19.2887 35.3434 19.2488C35.3576 19.2468 35.3683 19.2397 35.3759 19.2281C35.4098 19.2276 35.4433 19.2266 35.4773 19.2266C37.3704 19.2266 39.2635 19.2266 41.1566 19.2266C41.1906 19.2266 41.2241 19.2276 41.258 19.2281C41.2657 19.2397 41.2763 19.2468 41.2905 19.2488C41.2915 19.2791 41.2941 19.3089 41.2941 19.3392C41.2941 19.8459 41.2941 20.3531 41.2936 20.8598C41.2936 20.8911 41.3093 20.9269 41.2778 20.9537C41.2702 20.9467 41.2646 20.9492 41.2601 20.9573L41.2591 20.9578Z" fill="#111111"/>
<path d="M42.4401 28.5971C42.431 28.5926 42.4229 28.587 42.4229 28.5754C42.4229 28.5451 42.4219 28.5148 42.4219 28.4845C42.4219 26.3981 42.4219 24.3123 42.4219 22.226C42.4219 22.1957 42.4219 22.1653 42.4229 22.135C42.4234 22.1108 42.4381 22.0992 42.4614 22.0982C42.4817 22.0977 42.502 22.0977 42.5223 22.0977C43.0291 22.0977 43.5363 22.0977 44.0431 22.0977C44.07 22.0977 44.0968 22.1007 44.1237 22.1022C44.1237 24.2678 44.1237 26.4335 44.1237 28.5991C44.0968 28.6006 44.07 28.6032 44.0436 28.6032C43.5424 28.6032 43.0412 28.6032 42.5406 28.6032C42.5137 28.6032 42.4868 28.6006 42.4604 28.5991C42.4548 28.589 42.4488 28.587 42.4412 28.5971H42.4401Z" fill="#111111"/>
<path d="M43.7169 20.9653C43.686 20.9673 43.6591 20.9825 43.6312 20.9941C43.6215 20.9911 43.615 20.9956 43.6099 21.0032C43.5967 21.0057 43.584 21.0082 43.5708 21.0113C43.5546 21.0077 43.5409 21.0128 43.5292 21.0239C43.5094 21.0264 43.4897 21.0295 43.4694 21.032C43.4643 21.029 43.4587 21.0279 43.4526 21.0279C43.4298 21.0229 43.4075 21.0204 43.3882 21.0386C43.3278 21.0456 43.2675 21.0456 43.2071 21.0386C43.1878 21.0204 43.1655 21.0229 43.1427 21.0279C43.1366 21.0279 43.1315 21.0295 43.1265 21.032C43.1067 21.0295 43.0869 21.0264 43.0671 21.0239C43.0554 21.0128 43.0417 21.0077 43.0255 21.0113C43.0128 21.0088 43.0002 21.0062 42.987 21.0037C42.9819 20.9956 42.9748 20.9911 42.9646 20.9941C42.883 20.9572 42.8013 20.9203 42.7196 20.8835C42.7161 20.8744 42.7105 20.8688 42.6999 20.8693C42.6456 20.8244 42.5883 20.7819 42.537 20.7334C42.115 20.3303 42.1124 19.7029 42.4457 19.2846C42.5527 19.1502 42.6856 19.0492 42.8388 18.9729C42.849 18.977 42.8551 18.9724 42.8596 18.9633C42.9261 18.9376 42.9925 18.9128 43.0625 18.8982C43.0691 18.8992 43.0762 18.9002 43.0828 18.9017C43.093 18.9027 43.1011 18.8992 43.1062 18.8896C43.1391 18.8855 43.1721 18.881 43.2051 18.877C43.267 18.8845 43.3283 18.885 43.3902 18.877C43.4166 18.8805 43.443 18.8835 43.4694 18.8871C43.4805 18.9012 43.4952 18.9042 43.5125 18.9017C43.5191 18.9007 43.5262 18.8997 43.5328 18.8982C43.5881 18.9133 43.6434 18.928 43.6986 18.9431L43.7022 18.9487L43.7078 18.9462C43.8057 18.9982 43.9051 19.0477 43.9903 19.1204C44.2363 19.3306 44.3723 19.5968 44.3824 19.9191C44.3961 20.3672 44.1942 20.6976 43.8062 20.9188C43.7884 20.9289 43.7712 20.9385 43.7534 20.9486C43.7377 20.9466 43.726 20.9542 43.7164 20.9658L43.7169 20.9653Z" fill="#111111"/>
<path d="M44.1211 28.5996C44.1211 26.4339 44.1211 24.2683 44.1211 22.1026C44.1343 22.1016 44.1475 22.1006 44.1607 22.0996C44.1683 22.1052 44.1759 22.1107 44.183 22.1158C44.184 22.1527 44.186 22.1895 44.186 22.2269C44.186 24.3112 44.186 26.395 44.186 28.4793C44.186 28.5198 44.1825 28.5597 44.181 28.6001C44.1744 28.6021 44.1673 28.6036 44.1607 28.6056C44.1475 28.6036 44.1343 28.6016 44.1216 28.6001L44.1211 28.5996Z" fill="#111111"/>
<path d="M40.832 23.2879C39.646 23.2879 38.46 23.2879 37.274 23.2879C37.2421 23.2879 37.2056 23.301 37.1797 23.2682C37.1863 23.2671 37.1934 23.2661 37.2 23.2656C37.2441 23.2666 37.2877 23.2687 37.3319 23.2687C38.4575 23.2687 39.5826 23.2687 40.7082 23.2687C40.7386 23.2687 40.7691 23.2687 40.7995 23.2692C40.8137 23.2692 40.8254 23.2747 40.832 23.2879Z" fill="#111111"/>
<path d="M37.2031 24.962C37.2117 24.9569 37.2199 24.9488 37.229 24.9478C37.2488 24.9453 37.2696 24.9453 37.2894 24.9453C38.4713 24.9453 39.6532 24.9453 40.8356 24.9453C40.8285 24.9584 40.8168 24.9635 40.8026 24.964C40.7758 24.964 40.7484 24.9645 40.7215 24.9645C39.5827 24.9645 38.4434 24.9645 37.3046 24.9645C37.2706 24.9645 37.2371 24.9625 37.2031 24.9615V24.962Z" fill="#111111"/>
<path d="M52.0548 19.0431C51.4791 19.0431 50.9039 19.0431 50.3281 19.0426C50.3357 19.0371 50.3433 19.027 50.3515 19.0265C50.3783 19.0239 50.4052 19.0234 50.4321 19.0234C50.9384 19.0234 51.4451 19.0234 51.9514 19.0234C51.9782 19.0234 52.0056 19.0234 52.032 19.0265C52.0401 19.0275 52.0472 19.0376 52.0543 19.0431H52.0548Z" fill="#111111"/>
<path d="M59.965 19.0431C59.3893 19.0431 58.814 19.0431 58.2383 19.0426C58.2459 19.0371 58.2535 19.027 58.2616 19.0265C58.2885 19.0239 58.3154 19.0234 58.3423 19.0234C58.8485 19.0234 59.3553 19.0234 59.8615 19.0234C59.8884 19.0234 59.9158 19.0234 59.9422 19.0265C59.9503 19.0275 59.9574 19.0376 59.9645 19.0431H59.965Z" fill="#111111"/>
<path d="M56.6415 21.9516C56.5847 21.9527 56.5274 21.9547 56.4705 21.9547C56.363 21.9547 56.256 21.9532 56.1484 21.9521C56.1652 21.9395 56.1855 21.9375 56.2053 21.9375C56.3316 21.9375 56.4579 21.9375 56.5842 21.9375C56.604 21.9375 56.6242 21.939 56.641 21.9516H56.6415Z" fill="#111111"/>
<path d="M48.7274 21.9516C48.6706 21.9527 48.6133 21.9547 48.5565 21.9547C48.4489 21.9547 48.3419 21.9532 48.2344 21.9521C48.2511 21.9395 48.2714 21.9375 48.2912 21.9375C48.4175 21.9375 48.5438 21.9375 48.6701 21.9375C48.6899 21.9375 48.7102 21.939 48.7269 21.9516H48.7274Z" fill="#111111"/>
<path d="M64.8366 21.9112C64.6788 21.9162 64.521 21.9172 64.3633 21.9102C64.379 21.9056 64.3947 21.897 64.4105 21.897C64.5368 21.896 64.6631 21.8965 64.7894 21.8975C64.8051 21.8975 64.8208 21.9061 64.8366 21.9107V21.9112Z" fill="#111111"/>
<path d="M64.8164 28.7955C64.856 28.7713 64.8986 28.7804 64.9407 28.7839C64.9011 28.8057 64.859 28.8031 64.8164 28.7955Z" fill="#111111"/>
<path d="M64.2461 28.7839C64.2882 28.7804 64.3308 28.7713 64.3699 28.7955C64.3273 28.8031 64.2857 28.8051 64.2461 28.7839Z" fill="#111111"/>
<path d="M21.4414 13.4266C21.4054 13.4316 21.3689 13.4387 21.3359 13.4145C21.3725 13.4084 21.4085 13.4059 21.4414 13.4266Z" fill="#111111"/>
<path d="M43.1445 21.0271C43.1674 21.0221 43.1897 21.0195 43.209 21.0377C43.1897 21.0392 43.1709 21.0413 43.1516 21.0428C43.1491 21.0377 43.1471 21.0322 43.1445 21.0271Z" fill="#111111"/>
<path d="M43.3906 21.0376C43.4099 21.0199 43.4322 21.0219 43.455 21.027C43.4525 21.032 43.4505 21.0376 43.4479 21.0426C43.4287 21.0411 43.4099 21.0391 43.3906 21.0376Z" fill="#111111"/>
<path d="M43.5158 18.9019C43.499 18.9044 43.4838 18.9019 43.4727 18.8872C43.4858 18.8872 43.499 18.8872 43.5122 18.8867C43.5132 18.8918 43.5143 18.8968 43.5153 18.9019H43.5158Z" fill="#111111"/>
<path d="M35.3763 19.2304C35.3687 19.242 35.358 19.2491 35.3438 19.2511C35.3428 19.2258 35.3585 19.2268 35.3763 19.2304Z" fill="#111111"/>
<path d="M41.2942 19.2511C41.28 19.2491 41.2693 19.242 41.2617 19.2304C41.2795 19.2268 41.2952 19.2258 41.2942 19.2511Z" fill="#111111"/>
<path d="M44.1825 22.1166C44.1749 22.1111 44.1673 22.1055 44.1602 22.1005C44.1739 22.0974 44.1815 22.1025 44.1825 22.1166Z" fill="#111111"/>
<path d="M37.1627 28.6007L37.1835 28.582C37.183 28.5886 37.1825 28.5952 37.1815 28.6017C37.1744 28.6032 37.1673 28.6048 37.1602 28.6063L37.1627 28.6007Z" fill="#111111"/>
<path d="M42.4375 28.5963C42.4451 28.5867 42.4517 28.5882 42.4568 28.5983C42.4502 28.5978 42.4441 28.5968 42.4375 28.5963Z" fill="#111111"/>
<path d="M41.2617 20.9586C41.2663 20.9505 41.2719 20.9485 41.2795 20.9551L41.2714 20.9606L41.2617 20.9586Z" fill="#111111"/>
<path d="M43.082 18.9019C43.083 18.8968 43.0841 18.8918 43.0856 18.8867C43.0922 18.8877 43.0988 18.8887 43.1054 18.8897C43.1003 18.8988 43.0922 18.9029 43.082 18.9019Z" fill="#111111"/>
<path d="M64.6756 23.503C64.6208 23.5121 64.5665 23.5121 64.5117 23.503C64.5665 23.4808 64.6208 23.4808 64.6756 23.503Z" fill="#111111"/>
<path d="M35.3792 28.5956C35.3726 28.5941 35.366 28.5925 35.3594 28.591C35.3675 28.5855 35.3741 28.5875 35.3792 28.5956Z" fill="#111111"/>
<path d="M16.4248 21.2499C16.1575 21.2075 15.9566 20.9999 15.9257 20.7271C15.8978 20.4856 16.0251 20.2285 16.2812 20.1153C16.334 20.0921 16.3888 20.0764 16.4466 20.0699C16.4948 20.0759 16.543 20.0759 16.5912 20.0684C16.7647 20.0891 16.9057 20.1689 17.0081 20.3088C17.2699 20.6665 17.066 21.1767 16.6318 21.2484C16.6028 21.2449 16.5739 21.2393 16.5486 21.26C16.5354 21.26 16.5227 21.26 16.5095 21.26C16.4836 21.2393 16.4542 21.2449 16.4253 21.2494L16.4248 21.2499Z" fill="#111111"/>
<path d="M16.5469 21.2592C16.5722 21.2385 16.6012 21.244 16.6301 21.2476C16.6047 21.2673 16.5763 21.2683 16.5469 21.2592Z" fill="#111111"/>
<path d="M16.4219 21.2502C16.4508 21.2456 16.4802 21.2406 16.5061 21.2608C16.4762 21.2694 16.4477 21.2699 16.4219 21.2502Z" fill="#111111"/>
</g>
<defs>
<clipPath id="clip0_869_44523">
<rect width="64" height="22.2222" fill="white" transform="translate(4 13.3887)"/>
</clipPath>
</defs>
</svg>
