<svg width="72" height="48" viewBox="0 0 72 48" fill="none" xmlns="http://www.w3.org/2000/svg">
<g clip-path="url(#clip0_869_44391)">
<path fill-rule="evenodd" clip-rule="evenodd" d="M5.46298 17.709H8.50465L3.04167 29.5981H0L5.46298 17.709ZM12.2751 17.709H15.3167L9.85376 29.5981H6.81208L12.2751 17.709ZM39.4972 20.7564C41.409 20.7564 42.9784 22.3971 42.9784 24.5229C42.9784 26.6487 41.409 28.2894 39.4972 28.2894C38.4557 28.2894 37.6996 27.9042 37.186 27.2479V28.0896H35.3455V18.1027H37.186V21.7979C37.6996 21.1416 38.4557 20.7564 39.4972 20.7564ZM39.1548 26.5345C40.2962 26.5345 41.1379 25.7213 41.1379 24.5229C41.1379 23.3245 40.2962 22.5112 39.1548 22.5112C38.0277 22.5112 37.186 23.3245 37.186 24.5229C37.186 25.7213 38.0277 26.5345 39.1548 26.5345ZM24.0901 22.7252H25.7023V20.9561H24.0901V18.9588L22.2497 19.5152V20.9561H21.0084V22.7252H22.2497V25.6928C22.2497 27.6188 23.12 28.375 25.7023 28.0896V26.4204C24.6465 26.4775 24.0901 26.4632 24.0901 25.6928V22.7252ZM33.6599 20.9561H31.8195V24.8082C31.8195 26.0494 31.1489 26.5773 30.2501 26.5773C29.4226 26.5773 28.8377 26.078 28.8377 25.1078V20.9561H26.9972V25.3361C26.9972 27.2336 28.1814 28.2894 29.6937 28.2894C30.6496 28.2894 31.3915 27.9327 31.8195 27.2907V28.0896H33.6599V20.9561ZM47.8431 26.6201C46.8729 26.6201 46.0882 26.2207 45.8314 25.279H51.2101C51.2529 25.0365 51.2814 24.794 51.2814 24.5229C51.2814 22.4256 49.7834 20.7564 47.6719 20.7564C45.432 20.7564 43.9054 22.3971 43.9054 24.5229C43.9054 26.6487 45.4177 28.2894 47.8146 28.2894C49.1842 28.2894 50.2542 27.733 50.9248 26.7628L49.441 25.9068C49.1271 26.3205 48.5564 26.6201 47.8431 26.6201ZM49.441 23.8523H45.8029C46.0169 22.9392 46.6875 22.4114 47.6719 22.4114C48.4423 22.4114 49.2127 22.8251 49.441 23.8523ZM60.8411 20.9561H62.6815V28.0896H60.8411V27.2907C60.4131 27.9327 59.6712 28.2894 58.7153 28.2894C57.203 28.2894 56.0189 27.2336 56.0189 25.3361V20.9561H57.8593V25.1078C57.8593 26.078 58.4442 26.5773 59.2717 26.5773C60.1706 26.5773 60.8411 26.0494 60.8411 24.8082V20.9561ZM72 24.5229C72 22.3971 70.4306 20.7564 68.5189 20.7564C67.4774 20.7564 66.7212 21.1416 66.2076 21.7979V20.9561H64.3672V30.943H66.2076V27.2479C66.7212 27.9042 67.4774 28.2894 68.5189 28.2894C70.4306 28.2894 72 26.6487 72 24.5229ZM70.1596 24.5229C70.1596 25.7213 69.3178 26.5345 68.1764 26.5345C67.0494 26.5345 66.2076 25.7213 66.2076 24.5229C66.2076 23.3245 67.0494 22.5112 68.1764 22.5112C69.3178 22.5112 70.1596 23.3245 70.1596 24.5229Z" fill="#111111"/>
</g>
<defs>
<clipPath id="clip0_869_44391">
<rect width="72" height="48" fill="white"/>
</clipPath>
</defs>
</svg>
