<svg width="72" height="48" viewBox="0 0 72 48" fill="none" xmlns="http://www.w3.org/2000/svg">
<path fill-rule="evenodd" clip-rule="evenodd" d="M42.7463 23.7441H44.203C44.203 23.7441 44.1595 22.2277 42.6803 22.2163C42.7244 22.6857 42.7467 23.1586 42.7467 23.6338C42.7467 23.6706 42.7466 23.7073 42.7463 23.7441ZM42.663 22.2092C42.627 22.2089 42.591 22.2096 42.5551 22.2116V22.2127C41.6083 22.2127 41.0182 22.7212 40.7887 23.7447H42.7306L42.6685 25.0263H40.7454C40.8036 25.5126 41.0285 25.9665 41.3847 26.3163C41.5779 26.4829 41.8035 26.6109 42.0486 26.6928C42.1656 26.7319 42.2858 26.7602 42.4077 26.7773L42.0084 28.2741C41.753 28.2366 41.5016 28.1739 41.2583 28.0867C40.7752 27.9135 40.3341 27.647 39.9621 27.3038C39.6078 26.9434 39.3329 26.5178 39.1539 26.0526C38.9749 25.5874 38.8956 25.0922 38.9206 24.5968C38.8791 23.5963 39.2361 22.6183 39.9188 21.8623C40.2601 21.5068 40.6782 21.2275 41.1438 21.044C41.5677 20.8768 42.0215 20.7928 42.4788 20.7963C41.8841 17.6749 40.3172 14.775 37.9514 12.4997C34.8809 9.54657 30.7165 7.88727 26.3739 7.88672C23.1356 7.88662 19.97 8.80995 17.2774 10.54C14.5848 12.27 12.4861 14.7289 11.2467 17.606C10.0073 20.483 9.68286 23.6488 10.3144 26.7031C10.946 29.7574 12.5052 32.5631 14.7949 34.7652C17.0846 36.9674 20.0019 38.4672 23.1779 39.0749C26.3539 39.6827 29.646 39.3711 32.6379 38.1797C35.6298 36.9882 38.1872 34.9703 39.9865 32.3811C40.8636 31.119 41.5414 29.7488 42.0059 28.315C42.926 28.4156 43.8574 28.2728 44.6994 27.9019C45.1855 27.6375 45.6324 27.3117 46.0284 26.9331L44.9804 25.83C44.9804 25.83 43.6145 26.9627 42.418 26.7715C42.5396 26.1968 42.628 25.6149 42.6823 25.0283H46.0008C46.0008 25.0283 46.4219 22.9851 44.9723 21.5796C44.261 21.0388 43.3707 20.7626 42.4649 20.8019C42.4649 20.8019 42.6292 21.7912 42.663 22.2092ZM27.3883 28.0924L26.6992 26.132H22.2604L21.5566 28.0924H19.5332L23.1811 18.286H25.8223L29.4713 28.0924H27.3883ZM22.8352 24.5307H26.1254L25.7243 23.3969C25.0512 21.5278 24.6342 20.322 24.4733 19.7795C24.2723 20.4341 23.8553 21.6487 23.2223 23.4235L22.8352 24.5307ZM32.3013 18.286V19.9711H30.4338V18.286H32.3013ZM32.3013 21.0351V28.0924H30.4338V21.0351H32.3013ZM37.5137 20.9524C37.9092 20.9733 38.3002 21.0433 38.677 21.1606L38.3474 22.7223C38.0428 22.6395 37.7288 22.593 37.4125 22.5838C37.1853 22.5751 36.9593 22.6197 36.754 22.7138C36.5488 22.808 36.3705 22.9488 36.2346 23.1242C35.9234 23.5618 35.7721 24.0863 35.8042 24.6156V28.0945H33.9367V21.0372H35.6749V22.0737C35.827 21.7295 36.0844 21.438 36.4128 21.2377C36.7412 21.0375 37.1252 20.938 37.5137 20.9524ZM51.9396 26.5859C51.609 26.7326 51.2475 26.8039 50.8835 26.7941C50.6242 26.8097 50.3643 26.7756 50.1189 26.6939C49.8734 26.6123 49.6472 26.4846 49.4533 26.3183C49.0968 25.9689 48.8722 25.5148 48.8151 25.0283H54.087C54.1054 24.8253 54.1168 24.5895 54.1168 24.3225C54.1736 23.3813 53.8547 22.4548 53.2253 21.7321C52.8952 21.4109 52.4973 21.1615 52.0583 21.001C51.6194 20.8405 51.1497 20.7726 50.681 20.8019C50.1791 20.7792 49.6781 20.8623 49.2131 21.0456C48.7481 21.2289 48.3305 21.5078 47.9896 21.8628C47.3074 22.619 46.951 23.597 46.993 24.5973C46.9676 25.0926 47.0466 25.5877 47.2252 26.0529C47.4038 26.518 47.6783 26.9437 48.0324 27.3042C48.4046 27.6476 48.846 27.9141 49.3293 28.0874C49.8127 28.2606 50.3277 28.3369 50.8429 28.3115C51.4294 28.3175 52.0114 28.2122 52.5556 28.0018C53.1449 27.7486 53.6755 27.3845 54.1163 26.931L53.0656 25.8253C52.7209 26.1184 52.3433 26.3735 51.9396 26.5859ZM48.8573 23.7452C49.0879 22.7217 49.6763 22.2131 50.6247 22.2131L50.6269 22.2121C50.8414 22.2008 51.0561 22.2311 51.2582 22.301C51.4603 22.3709 51.6458 22.4791 51.8037 22.6192C52.1048 22.924 52.2783 23.3249 52.2909 23.7452H48.8573ZM60.4132 20.9473C60.0797 20.8309 59.725 20.7814 59.3709 20.8019C58.9408 20.7782 58.5116 20.8609 58.1243 21.0422C57.737 21.2235 57.4045 21.4972 57.1585 21.8373V21.0356H55.4214V28.0929H57.289V23.8404C57.2804 23.643 57.3128 23.4459 57.3843 23.2606C57.4557 23.0753 57.5648 22.9056 57.7052 22.7613C57.8428 22.625 58.0085 22.518 58.1917 22.447C58.3749 22.376 58.5715 22.3426 58.7689 22.349C58.9555 22.3379 59.1423 22.3653 59.3169 22.4294C59.4915 22.4935 59.6498 22.5928 59.7812 22.7207C60.035 23.025 60.1602 23.4101 60.132 23.7993V28.0945H61.9995V23.261C62.0147 22.9346 61.9615 22.6086 61.843 22.3024C61.7246 21.9962 61.5433 21.7161 61.3099 21.4786C61.0519 21.2445 60.7467 21.0637 60.4132 20.9473Z" fill="white"/>
</svg>
