<svg width="116" height="64" viewBox="0 0 116 64" fill="none" xmlns="http://www.w3.org/2000/svg">
<g clip-path="url(#clip0_969_57922)">
<path d="M115.474 50.7618C114.937 50.3118 114.321 50.1106 113.63 49.973C112.403 49.7268 111.178 49.6526 109.935 49.6818C109.316 49.695 108.695 49.6394 108.078 49.6579C107.171 49.6871 106.266 49.7665 105.359 49.7982C104.925 49.8141 104.492 49.7585 104.055 49.7559C103.767 49.7559 103.481 49.7956 103.193 49.8062C101.823 49.8565 100.455 49.9068 99.0852 49.9438C97.9426 49.9756 96.7999 49.9915 95.6546 50.0206C95.4113 50.0259 95.1706 50.0841 94.9273 50.0815C93.7925 50.0683 92.6605 50.0074 91.5258 50.0312C89.9917 50.063 88.4549 50.153 86.9208 50.2271C86.6378 50.2403 86.3548 50.3039 86.0744 50.3409C86.0241 50.3462 85.9739 50.3462 85.9236 50.3409C85.7279 50.3144 85.5321 50.2642 85.3364 50.2615C83.9081 50.243 82.4798 50.2403 81.0515 50.2165C80.5569 50.2086 80.0622 50.1397 79.5676 50.1344C79.1762 50.1318 78.7821 50.19 78.3906 50.2112C77.7558 50.2456 77.1183 50.2668 76.4809 50.3012C75.6451 50.3462 74.8066 50.3965 73.9708 50.4548C73.8544 50.4627 73.7433 50.5606 73.6296 50.558C73.336 50.5527 73.0397 50.4839 72.7488 50.4918C71.8071 50.5209 70.8682 50.5924 69.9265 50.6189C68.5564 50.6559 67.1863 50.6665 65.8162 50.6877C65.6204 50.6904 65.4221 50.6877 65.2263 50.6877C65.2078 50.6586 65.1867 50.6295 65.1681 50.6004C65.2819 50.4733 65.3824 50.3356 65.5067 50.2244C66.0304 49.7638 66.5621 49.3085 67.0884 48.8532C68.2681 47.8313 69.4293 46.7857 70.6328 45.7929C71.8971 44.7526 73.2037 43.7598 74.4918 42.7486C75.005 42.3462 75.5207 41.9438 76.0418 41.552C76.3116 41.3482 76.6422 41.2026 76.8671 40.9617C77.1157 40.6943 77.4146 40.5408 77.7188 40.3767C77.8113 40.3264 77.8986 40.2681 77.9833 40.2099C79.028 39.4978 80.0834 38.8042 81.1097 38.0656C83.0405 36.6732 84.9502 35.2542 86.8705 33.8485C87.1244 33.6632 87.3863 33.4912 87.6349 33.3006C88.3041 32.7843 88.9707 32.2628 89.6346 31.744C89.9705 31.4819 90.3064 31.2172 90.6397 30.9471C90.7984 30.8201 90.8037 30.7062 90.6476 30.5395C90.5286 30.4124 90.4836 30.2139 90.4016 30.0497C90.3646 29.9756 90.3276 29.8882 90.2641 29.8432C89.8726 29.56 89.4891 29.3058 88.9469 29.5203C88.3676 29.7506 87.7275 29.8432 87.1668 30.108C85.5903 30.8492 84.0377 31.6407 82.4851 32.427C81.39 32.9829 80.3162 33.5759 79.2185 34.1291C78.3879 34.5474 77.6209 35.0769 76.7427 35.421C76.0683 35.6857 75.4626 36.1252 74.8225 36.4773C74.4707 36.6705 74.1083 36.8426 73.7539 37.0279C72.8863 37.4779 72.0214 37.928 71.1565 38.3859C71.0057 38.4653 70.892 38.6295 70.7359 38.6851C70.1355 38.8942 69.5509 39.1192 69.0907 39.5825C69.0642 39.609 69.0114 39.609 68.9717 39.6222C68.8103 39.6804 68.641 39.7228 68.4903 39.7996C67.9375 40.0908 67.4085 40.4375 66.8345 40.6784C66.2499 40.9246 65.676 41.1735 65.1285 41.4964C64.6127 41.8035 64.0705 42.0683 63.5388 42.3489C63.4859 42.378 63.4198 42.3833 63.3537 42.4018C63.3457 42.3515 63.3325 42.3303 63.3404 42.3197C63.7319 41.642 64.126 40.9644 64.5228 40.2893C64.7423 39.916 64.9777 39.5507 65.1946 39.1748C65.8691 38.018 66.5277 36.8479 67.2207 35.699C67.6201 35.0372 68.0591 34.4018 68.5035 33.7691C68.7865 33.3641 69.1198 32.9935 69.4134 32.5911C70.0641 31.699 70.6962 30.7963 71.3469 29.9041C72.1483 28.8055 72.963 27.7148 73.7645 26.6136C74.2194 25.9915 74.6611 25.3614 75.1055 24.7287C75.2086 24.5805 75.2774 24.4084 75.3806 24.2628C75.7641 23.736 76.1873 23.2357 76.5364 22.6851C77.002 21.9544 77.5389 21.2635 77.888 20.4587C78.0573 20.0669 78.3112 19.7096 78.5255 19.3363C78.9831 18.5448 79.3825 17.7268 79.602 16.832C79.9697 16.427 79.4195 16.1675 79.4327 15.8154C79.4327 15.7996 79.3269 15.7757 79.2714 15.7598C79.0968 15.7069 78.9222 15.6593 78.7503 15.6063C78.6075 15.5613 78.5731 15.4792 78.6604 15.3495C78.6815 15.3151 78.6789 15.2648 78.6842 15.2198C78.6313 15.2198 78.5652 15.196 78.5281 15.2198C78.306 15.3575 78.0679 15.4792 77.8748 15.6513C77.0998 16.3502 76.2825 17.0067 75.6662 17.8644C75.0684 18.7009 74.4442 19.5189 73.8861 20.382C73.1058 21.5891 72.3758 22.828 71.6193 24.0537C71.1591 24.7976 70.6883 25.5335 70.236 26.2827C69.908 26.8254 69.6065 27.3866 69.2811 27.9346C68.9108 28.5646 68.522 29.1841 68.1544 29.8168C68.0697 29.9624 68.075 30.1609 67.9851 30.3039C67.7417 30.6904 67.4614 31.0557 67.2101 31.4395C67.0064 31.7519 66.8213 32.0775 66.6308 32.4005C66.369 32.8505 66.1283 33.3164 65.8453 33.7532C65.3454 34.5289 64.8269 35.2939 64.3085 36.059C63.8377 36.7526 63.3748 37.4488 62.8802 38.1238C61.9121 39.4475 60.9149 40.7473 59.9495 42.0735C59.2248 43.0689 58.5397 44.0881 57.8229 45.0888C57.5716 45.4409 57.3124 45.8009 57.0003 46.0947C56.2333 46.8174 55.4186 47.4925 54.6568 48.2178C54.3183 48.5381 54.0352 48.9246 53.7655 49.3085C53.5565 49.6076 53.5486 49.9994 53.7364 50.2747C53.8898 50.4971 53.8474 50.6056 53.7258 50.7645C53.3502 51.2569 52.9693 51.7466 52.6016 52.2443C52.4112 52.5011 52.2737 52.7949 51.9748 52.9617C51.8848 53.012 51.8319 53.1338 51.7685 53.2264C51.6812 53.3561 51.6124 53.4991 51.5119 53.6209C50.4803 54.873 49.4647 56.1358 48.3273 57.3006C47.6846 57.9597 47.0392 58.5951 46.3012 59.143C45.8992 59.4395 45.4733 59.6566 44.9866 59.7572C44.8861 59.7784 44.775 59.7599 44.6639 59.7599C44.6639 59.5004 44.6322 59.2807 44.6692 59.0716C44.7645 58.5606 44.8755 58.0524 45.0157 57.552C45.1691 57.0094 45.3649 56.4773 45.5421 55.9399C45.5553 55.9002 45.5844 55.8657 45.6056 55.8287C45.7378 55.6037 45.9045 55.3919 45.9917 55.151C46.3673 54.1106 47.063 53.282 47.7507 52.4455C48.203 51.8949 48.6659 51.3495 49.1129 50.791C49.5308 50.2694 49.9381 49.7373 50.3454 49.2052C50.8956 48.4852 51.4378 47.7572 51.9933 47.0424C52.6598 46.1821 53.3449 45.3376 54.0061 44.472C54.3341 44.0405 54.6224 43.5772 54.9319 43.1298C54.9557 43.0954 54.9848 43.0451 55.0165 43.0424C55.2123 43.0133 55.2229 42.8651 55.2546 42.7168C55.2731 42.6295 55.3154 42.5368 55.371 42.4653C55.5694 42.2112 55.7783 41.965 55.9873 41.7188C56.056 41.6394 56.1433 41.5759 56.2333 41.4938C56.2438 41.4276 56.2333 41.3217 56.2782 41.2476C56.5348 40.8082 56.7914 40.3661 57.077 39.9425C57.2833 39.6354 57.4553 39.3813 57.204 38.9895C57.003 38.6771 56.921 38.2906 56.4263 38.4521C56.3973 38.3727 56.3655 38.325 56.3655 38.2774C56.3655 38.0683 56.2544 38.0788 56.0798 38.063C55.5879 38.018 55.2414 38.288 54.924 38.5739C54.4505 39.0001 54.0035 39.4554 53.5829 39.9346C52.9719 40.6282 52.3953 41.3508 51.8002 42.0577C50.5174 43.5798 49.3377 45.1735 48.3405 46.8995C48.1818 47.1748 47.9411 47.3998 47.7745 47.6698C47.3698 48.3237 46.9783 48.9882 46.5922 49.6526C46.2827 50.1874 45.9891 50.7301 45.6823 51.2675C45.3252 51.8949 44.9681 52.5249 44.5952 53.1417C44.1587 53.8671 43.6668 54.5501 43.1007 55.1854C42.4765 55.8896 41.8867 56.6281 41.2757 57.3456C41.1778 57.4594 41.0297 57.5309 40.9292 57.642C40.6065 58.0021 40.2997 58.378 39.9743 58.7354C39.7495 58.9842 39.5035 59.2198 39.2681 59.4607C39.2126 59.5163 39.1597 59.5745 39.0935 59.6169C38.7867 59.8128 38.4534 59.9796 38.1678 60.2046C37.7313 60.5487 37.2394 60.6308 36.713 60.5884C36.6389 60.5831 36.5173 60.5064 36.512 60.4508C36.4829 60.2125 36.4459 59.9637 36.4829 59.7281C36.631 58.7989 36.7818 57.8697 37.0992 56.9776C37.3293 56.3317 37.525 55.6725 37.7287 55.016C37.7816 54.8465 37.808 54.6692 37.853 54.4971C37.8662 54.4442 37.9006 54.3939 37.9324 54.3462C37.972 54.2827 38.0329 54.2297 38.062 54.1636C38.3979 53.3244 38.6941 52.4693 39.0697 51.6487C39.6358 50.415 40.2547 49.2079 40.8578 47.9902C41.199 47.3045 41.5322 46.6136 41.8999 45.9438C42.3892 45.0517 42.8521 44.1358 43.4314 43.3019C43.9445 42.5633 44.6057 41.9253 45.1929 41.237C45.3146 41.0941 45.3569 40.8743 45.4945 40.7605C46.2933 40.0934 46.8567 39.2225 47.5391 38.4574C48.2003 37.7162 48.8325 36.9485 49.4699 36.1861C49.9064 35.6646 50.3269 35.1298 50.7554 34.6004C51.34 33.875 51.9351 33.1576 52.5117 32.4243C53.337 31.3786 54.1543 30.3277 54.9663 29.2714C55.2837 28.8585 55.5667 28.419 55.8921 28.0166C56.2914 27.5216 56.7226 27.0557 57.1326 26.5712C57.3362 26.333 57.5663 26.1053 57.7118 25.8326C58.0663 25.1761 58.5106 24.5911 58.9973 24.0325C59.0899 23.924 59.2935 23.8763 59.193 23.6645C59.1851 23.6487 59.2274 23.609 59.2486 23.5825C59.5342 23.2357 59.8464 22.9074 60.1003 22.5368C60.9546 21.2847 61.7904 20.0193 62.6236 18.7539C62.8881 18.3542 63.1156 17.9306 63.3801 17.5335C63.642 17.1391 63.7054 16.6599 63.9779 16.2602C64.1948 15.9452 64.3032 15.5534 64.4328 15.1854C64.528 14.9154 64.5783 14.6321 64.6497 14.3542C64.7582 13.9332 64.4064 13.7056 64.2371 13.4091C64.1895 13.3244 64.0228 13.3138 63.9144 13.2582C63.8562 13.2291 63.7927 13.1867 63.7583 13.1338C63.5309 12.7896 63.232 12.6626 62.8723 12.8214C62.4755 12.9961 62.0629 13.1655 61.719 13.4223C61.2403 13.7824 60.8091 14.2086 60.378 14.6242C59.5686 15.4051 58.7354 16.1649 57.9816 16.9961C57.241 17.8141 56.5824 18.7089 55.8921 19.5719C55.3763 20.2178 54.842 20.8505 54.3659 21.5229C53.4004 22.8916 52.4588 24.2761 51.5304 25.6685C50.7766 26.7962 50.0307 27.9346 49.3192 29.0888C48.9145 29.7479 48.5891 30.4548 48.0839 31.0504C47.9834 31.1669 47.9253 31.3204 47.8512 31.4581C47.7136 31.7201 47.5973 31.9955 47.4439 32.2469C46.9519 33.0385 46.4282 33.8088 45.9494 34.6083C45.4892 35.3786 45.0819 36.1781 44.6348 36.9538C44.2883 37.5573 43.9101 38.145 43.553 38.7433C43.0478 39.5957 42.5347 40.4455 42.0533 41.3111C41.4264 42.4415 40.7943 43.564 39.8738 44.4905C39.6966 44.6679 39.5141 44.8452 39.3474 45.0305C38.7074 45.7426 38.0911 46.4812 37.4298 47.1722C35.9724 48.6996 34.5203 50.235 33.0126 51.7122C31.9864 52.7182 30.8966 53.6685 29.7857 54.5818C29.1509 55.1033 28.4288 55.5269 27.7199 55.9505C27.3787 56.1543 26.9767 56.2628 26.6011 56.4084C26.5746 56.419 26.5297 56.3846 26.4688 56.3634C26.5508 56.2919 26.6117 56.239 26.6725 56.1861C26.6461 56.1781 26.6223 56.1728 26.5958 56.1649C26.609 55.9955 26.5746 55.7969 26.6487 55.6566C26.863 55.2463 26.7598 54.7062 27.1804 54.3859C27.2095 54.3647 27.2147 54.3065 27.228 54.2668C27.4607 53.5679 27.6908 52.8717 27.9236 52.1728C27.9421 52.1172 27.9897 52.0722 28.0215 52.0193C28.2013 51.7016 28.4129 51.3972 28.5558 51.0663C28.8573 50.3647 29.1271 49.6473 29.4075 48.9379C29.4101 48.9299 29.4154 48.922 29.4207 48.9141C29.7275 48.2999 30.0317 47.6857 30.3464 47.0769C30.6189 46.5527 30.8993 46.0312 31.1823 45.5123C31.4785 44.9644 31.7748 44.4164 32.0816 43.8737C32.1583 43.7387 32.2694 43.6248 32.3672 43.5057C32.4043 43.4607 32.4625 43.4263 32.4889 43.376C32.8116 42.7883 33.1184 42.19 33.4517 41.6076C33.6448 41.2688 33.8828 40.9538 34.0944 40.6229C34.4198 40.1172 34.7319 39.6037 35.0652 39.1033C35.2503 38.828 35.2979 38.46 35.1313 38.2562C34.8959 37.965 34.7187 37.9359 34.3325 38.1265C34.2875 37.965 34.2426 37.8009 34.1923 37.6156C34.1077 37.6579 34.0706 37.6632 34.0468 37.6871C33.6316 38.0947 33.1819 38.4759 32.809 38.9207C31.7615 40.1596 30.7458 41.425 29.7196 42.6798C29.6032 42.8227 29.4921 42.9657 29.381 43.1113C28.7409 43.9505 28.1008 44.7896 27.4581 45.6262C26.6461 46.6824 25.8288 47.736 25.0194 48.7949C24.8871 48.967 24.7893 49.1629 24.6544 49.335C24.3793 49.687 24.083 50.0259 23.808 50.378C23.5223 50.7407 23.2631 51.1245 22.9748 51.4845C22.2686 52.3714 21.5491 53.2476 20.8402 54.1344C20.2425 54.8836 19.6606 55.6434 19.0575 56.3872C18.8221 56.6784 18.5549 56.9432 18.2957 57.2132C18.2375 57.2741 18.1476 57.3032 18.0736 57.3482C18.0471 57.3323 18.0233 57.3138 17.9968 57.2979C18.0683 57.0702 18.1132 56.8293 18.2111 56.6149C18.5126 55.961 18.8353 55.3178 19.1474 54.6692C19.605 53.7162 20.0335 52.7473 20.5281 51.8154C21.1815 50.5845 21.8744 49.3747 22.5727 48.1675C23.2472 47.008 23.9429 45.8591 24.6438 44.7155C25.3765 43.519 26.1223 42.3303 26.8682 41.1417C27.466 40.1861 28.1299 39.2807 28.8837 38.4389C29.0583 38.2456 29.1403 37.9677 29.2593 37.7268C29.2726 37.7003 29.2673 37.6473 29.2488 37.6262C29.0768 37.4462 28.9287 37.2 28.7145 37.1152C28.4949 37.0279 28.2489 37.0226 28.1352 36.7605C28.0691 36.8055 28.0268 36.824 27.9977 36.8532C27.6194 37.2529 27.2385 37.6447 26.8709 38.055C26.527 38.4389 26.17 38.7989 25.8631 39.2278C25.2019 40.1543 24.4348 41.0067 23.7022 41.883C23.1044 42.5977 22.4934 43.3045 21.8903 44.014C20.8958 45.1841 19.9039 46.3568 18.9094 47.5269C18.2984 48.2443 17.6927 48.967 17.0711 49.6738C16.3411 50.5051 15.5978 51.3283 14.8519 52.149C13.495 53.6473 12.1593 55.1642 10.7654 56.6308C9.42698 58.0391 8.09654 59.466 6.48043 60.5805C5.94878 60.9485 5.433 61.3429 4.79291 61.5044C4.14223 61.6712 3.48891 61.8565 2.81178 61.6685C2.68218 61.6315 2.5129 61.5123 2.47587 61.3959C2.26162 60.689 2.17434 59.9557 2.26427 59.2251C2.43884 57.7771 2.78004 56.3634 3.32492 55.0027C3.55239 54.4362 3.70316 53.8353 3.97295 53.2926C4.21365 52.8002 4.39351 52.3052 4.46757 51.7651C4.47815 51.6857 4.55485 51.5851 4.62627 51.5534C4.79555 51.4792 4.85374 51.3522 4.88019 51.1907C4.92251 50.9313 4.98599 50.6877 5.20817 50.5051C5.36423 50.3753 5.4039 50.1874 5.3272 49.9782C5.30604 49.9227 5.33778 49.8326 5.36952 49.7718C5.41448 49.687 5.50706 49.6262 5.53351 49.5388C5.76098 48.8002 6.36405 48.2628 6.60474 47.5189C6.74493 47.0874 7.02001 46.6983 7.25013 46.2986C7.83732 45.2688 8.41923 44.2364 9.03287 43.2225C9.48253 42.4786 9.97185 41.7559 10.4638 41.0385C11.0669 40.1543 11.6488 39.2516 12.3206 38.4203C13.1036 37.4541 13.9632 36.5461 14.8175 35.6407C15.0424 35.4051 15.3756 35.2728 15.6692 35.1086C15.7089 35.0848 15.8385 35.1298 15.8597 35.1722C15.9417 35.3522 16.0448 35.5428 16.0528 35.7307C16.0766 36.419 16.066 37.1073 16.0607 37.7956C16.0607 38.0921 16.0686 38.3939 16.0237 38.6824C15.947 39.1589 15.8306 39.6301 15.7327 40.104C15.7195 40.1622 15.7168 40.2258 15.7063 40.284C15.6137 40.7526 15.5343 41.2211 15.4259 41.6844C15.2566 42.3992 15.0688 43.1086 14.8837 43.8207C14.8017 44.1305 14.7064 44.4375 14.6218 44.7446C14.5953 44.8452 14.5424 45.0252 14.5663 45.0385C14.8255 45.1735 14.9154 45.507 15.1217 45.6076C15.4021 45.7453 15.7724 45.7056 16.103 45.7374C16.14 45.74 16.1929 45.7188 16.2194 45.6897C16.4178 45.4806 16.6082 45.2688 16.8039 45.057C16.8621 44.9935 16.9071 44.8982 16.9785 44.8717C17.2457 44.7764 17.28 44.562 17.2986 44.3264C17.3039 44.2496 17.2986 44.1622 17.325 44.0934C17.5922 43.4528 17.8699 42.8121 18.1397 42.1715C18.3804 41.6023 18.6422 41.0411 18.8485 40.4614C19.0125 40.0034 19.1369 39.5269 19.2241 39.0477C19.3379 38.415 19.4913 37.7638 19.4437 37.1364C19.4066 36.6626 19.4754 36.2469 19.5944 35.8154C19.6315 35.6804 19.6764 35.5481 19.7029 35.4104C19.724 35.2992 19.7214 35.1801 19.7293 35.0451C19.24 35.1404 19.0205 35.4634 18.8538 35.8419C18.7533 36.0722 18.666 36.3131 18.5523 36.5381C18.5126 36.6202 18.4121 36.6705 18.3381 36.734C18.2772 36.6467 18.1661 36.562 18.1608 36.472C18.1317 35.924 18.1265 35.3734 18.1106 34.8254C18.1 34.4706 18.0894 34.1133 18.0603 33.7612C18.0392 33.4832 17.8937 33.2714 17.6477 33.1311C17.5736 33.0888 17.4943 33.0385 17.4387 32.9749C17.243 32.7393 16.9838 32.6996 16.6955 32.6599C16.1004 32.5779 15.6745 32.8796 15.254 33.2105C14.2912 33.9703 13.4077 34.8121 12.6169 35.7466C11.8948 36.599 11.1383 37.4223 10.4585 38.3092C9.8158 39.1457 9.24712 40.0352 8.66521 40.9167C7.96164 41.9835 7.22103 43.0345 6.61003 44.1543C6.2556 44.8029 5.77685 45.3853 5.55203 46.1159C5.44094 46.4812 5.1685 46.7962 4.98864 47.143C4.49931 48.0775 3.99675 49.0041 3.54446 49.9544C2.95991 51.1801 2.40445 52.4217 1.86487 53.6685C1.49456 54.5236 1.14542 55.3919 0.84918 56.2734C0.613773 56.9723 0.428622 57.695 0.293726 58.423C0.19057 58.9763 -0.0871572 59.511 0.0583189 60.1013C0.0636089 60.1252 0.0530289 60.1543 0.0477388 60.1781C-0.0924472 60.8293 0.100639 61.4356 0.309596 62.0365C0.391591 62.2721 0.463007 62.5289 0.611128 62.7168C0.82802 62.9921 1.11104 63.2172 1.3676 63.4634C1.74055 63.8234 2.11879 64.1622 2.69276 63.8472C2.77211 63.8022 2.88056 63.7943 2.97313 63.7969C3.0419 63.7969 3.10803 63.8472 3.1768 63.8763C3.27731 63.9187 3.39104 64.0113 3.47569 63.9902C3.86186 63.8975 4.25332 63.7996 4.62098 63.6487C5.04154 63.4739 5.42771 63.2251 5.84298 63.0371C6.23444 62.8598 6.61268 62.6692 6.9724 62.4256C8.14415 61.6341 9.19422 60.697 10.1835 59.7043C11.6858 58.198 13.2146 56.7155 14.5901 55.0848C15.4894 54.018 16.4574 53.0094 17.3964 51.9743C17.899 51.421 18.4042 50.8704 18.9094 50.3171C18.9438 50.28 18.9887 50.2509 19.0284 50.2191C18.9729 50.3965 18.8962 50.5527 18.8142 50.7009C18.4386 51.3839 18.0471 52.059 17.6874 52.7499C17.3091 53.4753 16.9626 54.2165 16.6003 54.9524C16.3252 55.5084 16.0475 56.0643 15.7724 56.6202C15.7565 56.6493 15.7618 56.689 15.7512 56.7235C15.6296 57.1126 15.5264 57.5097 15.3836 57.8909C15.1032 58.6321 14.8466 59.3654 15.1402 60.1728C15.2566 60.4958 15.4418 60.6943 15.775 60.6705C16.5262 60.6176 17.2377 60.3952 17.8831 60.0166C18.5549 59.6222 19.1051 59.0636 19.6341 58.4998C20.0679 58.0365 20.462 57.5335 20.8667 57.0438C21.3825 56.419 21.9035 55.7996 22.3982 55.1589C22.8981 54.5103 23.3557 53.8274 23.8556 53.1788C24.5671 52.2522 25.3024 51.3416 26.0298 50.4256C26.1752 50.2403 26.3313 50.063 26.4821 49.8803C26.5217 49.9518 26.5191 49.9941 26.5032 50.0285C26.08 50.9551 25.6489 51.8763 25.2336 52.8055C25.0062 53.3138 24.7813 53.8274 24.6015 54.3542C24.3105 55.2013 24.0116 56.051 23.8027 56.9193C23.5673 57.8962 24.1915 58.5262 25.0749 58.7168C26.1567 58.9471 27.1777 58.7142 28.1088 58.1371C28.7753 57.7241 29.4339 57.2926 30.0555 56.8188C30.7829 56.2655 31.4917 55.6778 32.1689 55.0663C33.0682 54.2536 33.9384 53.4064 34.8112 52.5646C35.2186 52.1728 35.6047 51.7599 36.0041 51.3628C36.4009 50.9657 36.8029 50.5739 37.2023 50.1821C37.2209 50.1636 37.2605 50.1662 37.3187 50.153C37.3002 50.2191 37.2923 50.2589 37.279 50.2959C37.0833 50.7698 36.8823 51.2436 36.6945 51.7201C36.549 52.0881 36.4273 52.464 36.2713 52.8267C36.1628 53.0808 35.9936 53.3111 35.8878 53.5653C35.6444 54.153 35.4143 54.746 35.1948 55.3442C34.9964 55.8816 34.8086 56.4243 34.634 56.9696C34.5097 57.3588 34.4542 57.7744 34.3113 58.1556C34.0362 58.8863 33.9119 59.6328 33.9146 60.4084C33.9146 60.7658 33.8961 61.1232 33.8961 61.4806C33.8961 61.5467 33.9252 61.6606 33.9701 61.6738C34.2055 61.7585 34.1288 61.8962 34.0362 62.0444C34.3536 62.2642 34.4806 62.6401 34.917 62.7698C35.6444 62.9869 36.3639 63.0848 37.1071 62.9789C37.8319 62.8757 38.4085 62.4389 38.9798 62.0312C39.5379 61.6315 40.0669 61.1867 40.588 60.7367C40.9636 60.4111 41.3021 60.0458 41.6592 59.699C41.7306 59.6301 41.81 59.5719 41.9528 59.4528C41.9528 59.8366 41.9422 60.1358 41.9528 60.4349C41.9925 61.3244 42.4077 61.8088 43.2674 61.9888C43.3785 62.0127 43.4869 62.0577 43.598 62.0656C43.963 62.0894 44.3122 62.288 44.6851 62.1636C45.0475 62.0444 45.4839 61.9994 45.7484 61.7638C45.997 61.5441 46.28 61.4382 46.5366 61.2635C46.973 60.9643 47.4306 60.6837 47.8327 60.3396C48.3299 59.916 48.7928 59.4501 49.2451 58.9789C49.6048 58.603 49.9249 58.19 50.2634 57.7956C50.2846 57.7691 50.3269 57.7612 50.3481 57.7373C50.4724 57.6023 50.5994 57.4647 50.7184 57.3217C50.7845 57.2423 50.8242 57.1444 50.893 57.0676C51.3902 56.5196 51.9113 55.9902 52.39 55.4263C52.8794 54.8518 53.3237 54.2403 53.7998 53.6553C54.1225 53.2582 54.4664 52.8796 54.7997 52.4905C54.8975 52.3767 54.9927 52.2602 55.0906 52.1437C55.1118 52.1543 55.1303 52.1675 55.1514 52.1781C55.1303 52.2681 55.1223 52.3634 55.0827 52.4455C54.7468 53.1338 54.4003 53.8168 54.0617 54.5051C53.8554 54.926 53.6597 55.3522 53.4481 55.7704C53.3793 55.9081 53.2285 56.014 53.1888 56.1569C52.9164 57.0914 52.2816 57.8379 51.8954 58.7142C51.5595 59.4739 51.131 60.2072 51.3082 61.147C51.6653 61.1602 52.0356 61.192 52.4059 61.1788C52.7736 61.1655 53.1571 61.1576 53.5036 61.0517C53.821 60.9538 54.1305 60.7658 54.3844 60.5487C55.2493 59.8154 56.1116 59.0769 56.9342 58.2959C57.9896 57.2953 58.992 56.2416 60.0394 55.2357C60.7748 54.5289 61.5577 53.8697 62.2983 53.1708C62.5258 52.9564 62.7691 52.8585 63.0653 52.8479C63.3087 52.8399 63.552 52.8214 63.7954 52.8108C64.1154 52.7976 64.4381 52.7843 64.7582 52.7737C65.0703 52.7658 65.4035 52.922 65.6786 52.6467C65.6945 52.6308 65.7289 52.6255 65.7527 52.6281C65.9669 52.6493 66.1812 52.6864 66.3954 52.697C67.0646 52.7314 67.7312 52.7711 68.4004 52.7764C68.6067 52.7764 68.887 52.8611 68.9928 52.5514C69.0008 52.5328 69.0563 52.5196 69.0881 52.5196C69.4187 52.5064 69.7493 52.4905 70.0799 52.4852C70.2122 52.4852 70.3286 52.517 70.1884 52.7685C70.564 52.7023 70.8761 52.6467 71.1908 52.5937C71.249 52.5831 71.3072 52.5726 71.3654 52.5726C72.0452 52.5726 72.7223 52.5937 73.4021 52.5646C74.1665 52.5328 74.9283 52.4587 75.69 52.4031C76.2058 52.3661 76.7242 52.3422 77.2374 52.284C77.7029 52.2311 78.1631 52.1066 78.6313 52.0722C79.0704 52.0378 79.5147 52.0828 79.9564 52.0802C81.5461 52.0749 83.1331 52.0643 84.7228 52.0563C85.0111 52.0563 85.2994 52.0484 85.585 52.0643C85.7199 52.0722 85.8522 52.1569 85.9844 52.1516C86.4923 52.1358 86.9975 52.0987 87.5053 52.0669C87.5926 52.0616 87.6799 52.059 87.7672 52.0484C88.3491 51.9928 88.931 51.9107 89.5129 51.8896C90.7323 51.8472 91.9543 51.8419 93.1736 51.8128C94.2369 51.7863 95.3028 51.744 96.3661 51.7175C97.1782 51.6963 97.9902 51.6963 98.8022 51.6751C100.162 51.6407 101.524 51.5851 102.883 51.556C104.034 51.5322 105.185 51.5375 106.338 51.5269C106.626 51.5242 106.912 51.4845 107.2 51.4845C108.726 51.4898 110.255 51.376 111.779 51.5851C112.308 51.6566 112.837 51.7175 113.318 51.961C113.403 52.0034 113.44 52.1411 113.503 52.2311C113.553 52.3025 113.601 52.4164 113.665 52.4296C113.929 52.4826 114.202 52.5064 114.469 52.5381C114.492 52.5408 114.519 52.5276 114.543 52.5196C114.945 52.419 115.347 52.3078 115.752 52.2258C115.915 52.1914 115.971 52.1119 115.982 51.9637C116.016 51.466 115.844 51.0636 115.461 50.7433L115.474 50.7618ZM49.306 32.9458C49.7212 32.2655 50.1418 31.5878 50.565 30.9127C51.1469 29.9835 51.7261 29.0517 52.316 28.1278C52.554 27.7572 52.8132 27.3998 53.0645 27.0398C53.2973 26.7062 53.5909 26.3992 53.7443 26.0312C53.8898 25.6844 54.1622 25.4647 54.3553 25.1735C54.4902 24.9749 54.5457 24.7234 54.6833 24.5249C54.998 24.0643 55.3445 23.6275 55.6672 23.1722C55.7386 23.0716 55.7651 22.9392 55.818 22.8254C55.8497 22.7565 55.8815 22.6904 55.9238 22.6295C56.1407 22.3065 56.3602 21.9835 56.5798 21.6632C56.6274 21.5917 56.6829 21.5256 56.7358 21.4594C56.9633 21.1655 57.1934 20.8743 57.4209 20.5805C57.4579 20.5328 57.487 20.4746 57.532 20.4375C58.0213 20.014 58.3334 19.4581 58.6693 18.918C58.7275 18.8254 58.8307 18.7618 58.9047 18.6798C59.447 18.0656 59.976 17.4409 60.5288 16.8373C60.825 16.5143 61.1556 16.2231 61.4704 15.9187C61.4995 15.9293 61.5259 15.9399 61.555 15.9531C61.5312 16.0537 61.5259 16.1675 61.4757 16.2496C60.6875 17.5547 59.9045 18.8651 59.0952 20.1569C58.7222 20.7526 58.2329 21.2847 57.9023 21.9015C57.3283 22.963 56.5454 23.871 55.8392 24.8293C54.3817 26.8095 52.8476 28.7314 51.34 30.6745C50.647 31.5692 49.9487 32.4614 49.2504 33.3509C49.1816 33.4382 49.0996 33.5176 49.0256 33.5997C49.0071 33.5891 48.9859 33.5759 48.9674 33.5653C49.0785 33.3588 49.1816 33.147 49.306 32.9485V32.9458ZM55.0086 57.4594C55.1726 57.0967 55.2996 56.7737 55.4609 56.4667C55.7307 55.9505 56.0349 55.4528 56.2994 54.9366C56.6062 54.333 56.8866 53.7162 57.1775 53.1047C57.2119 53.0332 57.2516 52.967 57.2833 52.8929C57.4949 52.4137 57.4949 52.4217 58.0001 52.5037C58.5424 52.5911 59.0846 52.6573 59.6268 52.734C59.685 52.742 59.7406 52.7632 59.7961 52.779C59.722 53.1152 55.8603 56.8955 55.0113 57.4594H55.0086ZM63.8298 49.282C63.388 49.7029 62.9622 50.153 62.4623 50.4918C62.211 50.6612 61.8143 50.6586 61.4836 50.6559C61.0684 50.6507 60.6531 50.5845 60.2431 50.513C59.7511 50.4256 59.2671 50.3065 58.7249 50.1874C58.8201 50.0338 58.8889 49.9174 58.9629 49.8009C59.0052 49.7347 59.074 49.6738 59.0872 49.605C59.1587 49.1814 59.4761 48.8955 59.6691 48.5408C60.095 47.7519 60.5155 46.9577 60.9864 46.1953C61.3064 45.6791 61.7032 45.2317 62.3406 45.0385C62.7506 44.9141 63.1209 44.6546 63.5071 44.4561C63.9012 44.2522 64.2953 44.0458 64.6867 43.8366C65.3401 43.4872 65.9828 43.1245 66.6414 42.7857C67.2048 42.4945 67.7867 42.2377 68.3527 41.9491C69.6276 41.2953 70.8946 40.6229 72.1721 39.9716C73.3518 39.3681 74.55 38.8015 75.7191 38.1847C76.8009 37.6129 77.8537 36.9882 78.9302 36.4031C79.5094 36.0881 80.1125 35.8128 80.7023 35.5137C81.1996 35.2622 81.6916 35.0001 82.1888 34.746C82.4719 34.603 82.7602 34.468 83.0458 34.3277C83.0564 34.3462 83.067 34.3647 83.0802 34.3833C82.8633 34.5289 82.6411 34.6612 82.4348 34.8201C81.4879 35.5428 80.5674 36.3025 79.5941 36.9882C78.1578 38.0021 76.6793 38.9524 75.2298 39.9505C74.6135 40.3767 74.0316 40.8532 73.4259 41.2979C73.0582 41.5679 72.6721 41.8115 72.307 42.0841C72.1325 42.2139 71.9923 42.3859 71.823 42.5236C70.929 43.2516 70.027 43.9663 69.1383 44.6996C68.5326 45.2 67.9533 45.7294 67.3529 46.235C66.6017 46.8704 65.7977 47.4528 65.0994 48.1411C64.692 48.5434 64.2477 48.9008 63.835 49.2926L63.8298 49.282Z" fill="white"/>
<path d="M17.1616 28.6764C17.2171 28.6897 17.2832 28.7214 17.3123 28.7638C17.5821 29.1715 18.0053 29.2377 18.4153 29.1715C19.6743 28.9703 20.8329 28.4938 21.875 27.7525C22.4225 27.3634 22.9727 26.9769 23.5043 26.5692C24.1815 26.0477 24.8374 25.505 25.504 24.9729C25.7156 24.8035 25.9351 24.6447 26.1493 24.4805C26.472 24.2317 26.8053 23.9882 27.1174 23.7261C27.7231 23.2152 28.3156 22.6857 28.9187 22.1695C29.8921 21.3409 30.8707 20.5176 31.8494 19.6943C32.5635 19.0934 33.2777 18.4951 34.0024 17.9074C34.4045 17.5792 34.825 17.2774 35.2297 16.9544C35.6106 16.6526 35.9809 16.3402 36.3538 16.0279C36.4332 15.9617 36.4808 15.8611 36.5575 15.7923C36.7109 15.6572 36.8723 15.5328 37.0283 15.4005C37.0812 15.3581 37.1288 15.3105 37.1791 15.2655C37.2928 15.1622 37.4039 15.0537 37.5229 14.9584C37.8827 14.6751 38.2583 14.4077 38.6047 14.1112C39.0676 13.7142 39.4935 13.2721 39.9669 12.8909C40.6493 12.3429 41.3688 11.8373 42.0591 11.2999C42.7892 10.7334 43.4954 10.1351 44.2281 9.57386C45.1406 8.87498 46.0663 8.19729 46.9895 7.51429C47.7962 6.91866 48.6082 6.33097 49.4149 5.73269C50.137 5.19795 50.8538 4.65791 51.5653 4.11522C51.7373 3.9855 51.8827 3.81873 52.0547 3.68901C52.2028 3.57783 52.3827 3.50635 52.5281 3.39252C52.9037 3.08809 53.2502 2.7413 53.6443 2.46333C54.1099 2.13772 54.414 1.74328 54.4696 1.17147C54.4775 1.1 54.5172 1.00999 54.5727 0.970283C54.9219 0.713499 55.2816 0.467305 55.6387 0.22111C55.7207 0.165518 55.8159 0.128456 55.9032 0.0808059C55.89 0.0516861 55.8767 0.0252135 55.8609 -0.00390625C55.7498 0.0358026 55.6334 0.0649223 55.5302 0.120515C55.0462 0.374651 54.5648 0.634082 54.0834 0.893513C53.6946 1.10529 53.3031 1.31443 52.9196 1.53415C52.7318 1.64269 52.5731 1.84388 52.3747 1.88359C51.8616 1.98683 51.4939 2.33891 51.076 2.5957C50.1159 3.18339 49.1954 3.82932 48.2538 4.44613C47.8385 4.71879 47.4074 4.96499 47 5.2456C46.7673 5.40708 46.5927 5.67445 46.3441 5.79358C45.8653 6.02389 45.4606 6.34156 45.0454 6.66188C44.236 7.28663 43.3896 7.86373 42.5749 8.48054C41.8608 9.02058 41.1678 9.58974 40.4668 10.1483C40.3293 10.2568 40.1997 10.3733 40.0648 10.4819C39.2025 11.1622 38.3429 11.8399 37.4806 12.5202C37.3907 12.5891 37.3008 12.6579 37.2108 12.7241C36.9331 12.9279 36.6369 13.1159 36.375 13.3383C35.9597 13.693 35.5656 14.0742 35.1583 14.4422C35.1213 14.4766 35.0657 14.4872 35.0207 14.5136C34.8726 14.5983 34.706 14.6619 34.5843 14.7757C34.3277 15.0166 34.1373 15.3316 33.7644 15.4269C33.7035 15.4428 33.6533 15.509 33.6004 15.5566C32.9894 16.1258 32.3784 16.695 31.7674 17.2615C31.7383 17.2906 31.6907 17.3012 31.6563 17.3224C31.5134 17.4044 31.3627 17.4733 31.2304 17.5712C30.7596 17.9286 30.2888 18.2886 29.8286 18.6592C29.0774 19.2655 28.3315 19.8796 27.5882 20.4938C26.8344 21.1159 26.0806 21.7406 25.332 22.3654C25.2051 22.4713 25.1046 22.6089 24.975 22.7069C24.5518 23.0246 24.1153 23.3263 23.6921 23.644C23.0811 24.1073 22.5019 24.6156 21.8618 25.0365C21.3619 25.3647 20.7747 25.558 20.2589 25.8677C19.7643 26.1642 19.2141 26.0954 18.693 26.2039C18.5555 26.233 18.5105 26.1457 18.5264 26.0133C18.5767 25.5897 18.6058 25.1635 18.6719 24.7426C18.7195 24.4329 18.8121 24.1311 18.8835 23.8267C19.0528 23.1146 19.1797 22.3866 19.5606 21.7486C19.9018 21.1768 20.2748 20.6208 20.6318 20.057C20.6609 20.0093 20.6953 19.9432 20.6847 19.8955C20.5922 19.509 20.5631 19.0934 20.2245 18.8128C20.1663 18.7625 20.0658 18.7016 20.0103 18.7201C19.8304 18.7784 19.6373 18.8419 19.4945 18.9584C18.2064 20.0014 17.3679 21.3568 16.7886 22.8895C16.6908 23.149 16.6299 23.4243 16.5612 23.6943C16.2517 24.8882 16.0295 26.0927 16.0665 27.3369C16.0877 28.0517 16.4606 28.5203 17.1616 28.6738V28.6764Z" fill="white"/>
<path d="M61.9414 27.7457C61.3833 28.3439 60.8701 28.9846 60.3438 29.6146C60.0819 29.927 59.828 30.2473 59.5794 30.5729C59.5106 30.6603 59.4577 30.7662 59.426 30.8747C59.344 31.1474 59.5344 31.3115 59.6905 31.4889C59.8201 31.6345 59.9523 31.571 60.0899 31.4995C60.2459 31.4201 60.3914 31.3962 60.5422 31.5418C60.685 31.6768 60.8516 31.6689 61.0209 31.5604C61.2404 31.4201 61.4811 31.3089 61.6901 31.1527C61.8964 31.0018 62.1027 30.835 62.2561 30.6338C62.5471 30.2526 62.7666 29.8132 63.0761 29.4479C63.5284 28.9184 64.0257 28.426 64.5176 27.9336C65.1471 27.3036 65.7952 26.6947 66.4273 26.07C67.0225 25.4823 67.6017 24.8787 68.2021 24.2963C68.4825 24.0236 68.8026 23.7933 69.0909 23.5286C69.5061 23.1447 69.9055 22.7424 70.3208 22.3585C70.9609 21.7655 71.6195 21.1911 72.2437 20.5848C72.7622 20.0819 73.1959 19.4862 73.7488 19.0309C74.6719 18.2711 75.386 17.3208 76.2298 16.4922C76.5445 16.1825 76.7482 15.8198 76.7456 15.3592C76.7456 15.1077 76.8381 14.8906 77.018 14.7027C77.2164 14.4962 77.3909 14.2685 77.5734 14.0514C77.5682 14.0382 77.5602 14.025 77.5549 14.0117C77.51 14.0329 77.4624 14.0488 77.4227 14.0753C77.0339 14.3532 76.6318 14.6206 76.2562 14.9171C75.4283 15.5736 74.6057 16.2354 73.799 16.9158C72.5453 17.972 71.3048 19.0415 70.0642 20.1083C69.5643 20.5372 69.0724 20.9793 68.5751 21.4134C67.5303 22.3267 66.4987 23.2533 65.5042 24.2222C65.0678 24.6484 64.6102 25.0508 64.1791 25.4796C63.4252 26.2288 62.6635 26.9753 61.9387 27.7536L61.9414 27.7457Z" fill="white"/>
</g>
<defs>
<clipPath id="clip0_969_57922">
<rect width="116" height="64" fill="white"/>
</clipPath>
</defs>
</svg>
