<svg width="72" height="48" viewBox="0 0 72 48" fill="none" xmlns="http://www.w3.org/2000/svg">
<g clip-path="url(#clip0_1035_55536)">
<path d="M21.4557 32.9199C21.4794 32.9317 21.5007 32.8867 21.5007 32.863C21.5007 32.645 21.4888 30.5476 21.4888 29.9338C21.4888 29.8437 21.477 29.7963 21.4438 29.7395C21.3869 29.6589 21.2376 29.5925 21.112 29.557C21.0433 29.5333 20.9746 29.5001 20.9746 29.4669C20.9746 29.4337 21.0196 29.41 21.0765 29.3982C21.4177 29.3413 21.8396 29.192 21.9533 29.1351C22.0102 29.102 22.0671 29.0664 22.1003 29.0664C22.1334 29.0664 22.1571 29.1233 22.1453 29.2726C22.1216 29.6257 22.0647 33.7304 22.0647 34.5741C22.0647 35.5765 22.0766 36.3065 22.0884 36.6146C22.0884 36.6596 22.1334 36.7165 22.169 36.7165C22.2377 36.7165 22.4084 36.6714 22.7401 36.579C22.8207 36.5553 22.8539 36.579 22.8539 36.624C22.8539 36.6928 22.7615 36.7947 22.5577 36.8302C22.2282 36.899 21.7945 37.0009 21.4983 37.1265C21.4414 37.1383 21.4083 37.0814 21.4083 37.0459C21.4201 36.8753 21.4438 36.7165 21.432 36.579C21.432 36.5553 21.4083 36.5221 21.3869 36.5458C20.8964 36.9227 20.5219 37.1051 20.0882 37.1051C19.6996 37.1051 19.2445 36.9795 18.8345 36.6146C18.607 36.4107 18.2539 35.8515 18.2539 35.1215C18.2539 34.1759 18.7777 33.5716 19.1876 33.2635C19.5645 32.991 20.0882 32.7966 20.6594 32.7966C20.8987 32.7966 21.2874 32.8654 21.458 32.9222M19.6237 33.2185C19.2706 33.4815 18.9388 34.0385 18.9388 34.9059C18.9388 36.0908 19.645 36.7639 20.3987 36.7639C20.7068 36.7639 21.0362 36.6714 21.3111 36.4108C21.4011 36.3088 21.4367 36.1382 21.4485 35.9202C21.4722 35.6239 21.5054 34.1996 21.4367 33.7991C21.413 33.6617 21.3561 33.5835 21.3348 33.5479C21.0717 33.1829 20.6167 33.0242 20.2636 33.0242C19.9437 33.0242 19.8086 33.1047 19.6261 33.2185" fill="#191919"/>
<path d="M23.5525 33.1019C23.78 33.0331 24.0881 32.9075 24.2469 32.8293C24.3488 32.7724 24.4057 32.7487 24.4294 32.7487C24.4649 32.7487 24.4863 32.7819 24.4744 32.9075C24.4507 33.1256 24.4507 33.8768 24.4507 34.7087C24.4507 35.5405 24.4507 36.3486 24.4744 36.543C24.4981 36.7942 24.6332 36.8274 24.7943 36.8629C24.9081 36.8866 24.965 36.9079 24.965 36.953C24.965 37.0098 24.8749 37.0335 24.7825 37.0335C24.7138 37.0335 24.235 36.9885 23.9957 36.9885C23.6758 36.9885 23.517 37.0122 23.3914 37.0122C23.3226 37.0122 23.2539 36.9885 23.2539 36.9435C23.2539 36.9103 23.2989 36.8747 23.4696 36.8416C23.6971 36.7847 23.8227 36.7041 23.8345 36.2159C23.8464 35.8746 23.8677 33.7536 23.8677 33.6398C23.8677 33.5142 23.844 33.4336 23.5146 33.2749C23.4577 33.2512 23.434 33.218 23.434 33.1943C23.434 33.1611 23.4672 33.1256 23.5478 33.1042M24.5976 31.2225C24.5976 31.4951 24.3464 31.5993 24.2327 31.5993C24.0502 31.5993 23.9009 31.4287 23.9009 31.2344C23.9009 30.995 24.0952 30.8457 24.254 30.8457C24.4934 30.8457 24.5953 31.0614 24.5953 31.2225" fill="#191919"/>
<path d="M28.1601 33.4097C28.2169 33.5922 28.262 34.059 28.262 34.4122C28.262 34.7653 28.2169 35.9171 28.2169 36.2133C28.2169 36.4527 28.3188 36.6683 28.6625 36.6683C28.7644 36.6683 28.8781 36.6328 29.0037 36.5664C29.0725 36.5332 29.1175 36.5427 29.0725 36.6565C28.9469 36.929 28.6174 37.1115 28.2738 37.1115C28.0013 37.1115 27.7382 36.884 27.6363 36.5996C27.6245 36.5759 27.5913 36.5759 27.5794 36.5877C27.2382 36.884 26.9064 37.0996 26.4513 37.0996C25.9963 37.0996 25.5508 36.711 25.5508 36.1422C25.5508 35.7772 25.8707 35.5616 25.9608 35.5142C26.2238 35.3672 27.295 35.0236 27.4988 34.9549C27.6008 34.9193 27.6576 34.8079 27.6576 34.7842C27.6695 34.6468 27.6813 34.4548 27.6813 34.2605C27.6813 33.7936 27.6008 33.4287 27.3969 33.2793C27.2382 33.1656 27.0438 33.0969 26.9064 33.0969C26.7239 33.0969 26.622 33.13 26.4276 33.2556C26.3352 33.3362 26.257 33.4144 26.2215 33.5637C26.2096 33.6088 26.2096 33.6656 26.2096 33.7344C26.2096 33.7675 26.1859 33.8031 26.1646 33.8268C26.0627 33.8955 25.7427 34.033 25.6977 34.033C25.6527 34.033 25.6077 33.9761 25.6077 33.9311C25.6077 33.8742 25.6527 33.8055 25.7783 33.6467C26.0627 33.3054 26.5082 33.0424 26.6457 32.9736C26.9182 32.8362 27.1007 32.7793 27.295 32.7793C27.6481 32.7793 28.025 32.995 28.1624 33.4073M27.4562 36.5072C27.5131 36.4503 27.5818 36.3484 27.6031 36.2109C27.6363 36.0166 27.66 35.5616 27.66 35.1492C27.66 35.1374 27.6363 35.0805 27.615 35.0923C27.4562 35.116 26.6812 35.4004 26.43 35.526C26.3281 35.5829 26.167 35.7417 26.167 36.0853C26.167 36.429 26.4987 36.7015 26.885 36.7015C27.1007 36.7015 27.3187 36.6328 27.4538 36.5072" fill="#191919"/>
<path d="M29.5972 33.1229C29.8034 33.0779 30.1115 32.9404 30.2584 32.8148C30.3153 32.7698 30.3722 32.7461 30.4172 32.7461C30.4504 32.7461 30.4741 32.7911 30.4741 32.8599C30.4741 32.9855 30.4622 33.3149 30.4741 33.4405C30.4741 33.4737 30.4859 33.5424 30.5428 33.5092C30.9078 33.1679 31.5003 32.8243 31.9553 32.8243C32.4909 32.8243 32.8559 33.0305 33.1189 33.5424C33.1308 33.5661 33.1876 33.5779 33.1995 33.5661C33.6782 33.0992 34.202 32.7793 34.785 32.7793C35.4225 32.7793 35.7993 33.1656 35.9486 33.6111C36.0292 33.8386 36.0742 34.2723 36.086 34.6942C36.0979 35.071 36.1192 35.9265 36.1311 36.3247C36.1429 36.6896 36.1879 36.7797 36.4629 36.8271C36.6335 36.8603 36.6785 36.8958 36.6785 36.929C36.6785 36.9859 36.6216 37.0096 36.4842 37.0096C36.3586 37.0096 35.9936 36.9859 35.7329 36.9859C35.4722 36.9859 35.2661 37.019 35.0954 37.019C34.9485 37.019 34.8679 36.9953 34.8679 36.9503C34.8679 36.8934 34.9698 36.8579 35.0717 36.8366C35.4367 36.7678 35.4817 36.6659 35.4936 36.3247C35.5173 34.9572 35.4485 34.4311 35.4011 34.0685C35.3111 33.4879 35.003 33.1679 34.3987 33.1679C33.9199 33.1679 33.5313 33.431 33.3156 33.6467C33.2706 33.6917 33.2232 33.8291 33.2232 34.0804C33.235 34.3434 33.2801 36.064 33.3038 36.3721C33.3369 36.692 33.3725 36.7726 33.6687 36.8389C33.8062 36.884 33.8512 36.8958 33.8512 36.9408C33.8512 36.9859 33.7943 37.0096 33.6569 37.0096C33.5313 37.0096 33.1094 36.9859 32.8582 36.9859C32.607 36.9859 32.3558 37.0096 32.2302 37.0096C32.1164 37.0096 32.0596 36.9859 32.0596 36.9408C32.0596 36.9077 32.1164 36.8603 32.2752 36.8271C32.5146 36.782 32.6283 36.7346 32.6283 36.4621L32.6402 34.6491C32.6402 34.0116 32.5715 33.7367 32.344 33.4855C32.1615 33.303 31.979 33.213 31.6022 33.213C31.1566 33.213 30.8509 33.4286 30.6566 33.5898C30.531 33.7035 30.5096 33.796 30.4978 33.8979C30.4859 34.0116 30.4528 34.2842 30.4528 34.6278C30.4528 35.289 30.4978 36.2346 30.5215 36.4289C30.5452 36.6233 30.6234 36.7939 30.9102 36.8389C31.0358 36.8626 31.0808 36.8958 31.0808 36.9314C31.0808 36.9882 30.9907 37.0119 30.9102 37.0119C30.6945 37.0119 30.3414 36.9882 30.0665 36.9882C29.7702 36.9882 29.519 37.0119 29.4171 37.0119C29.3152 37.0119 29.2109 36.9787 29.2109 36.9314C29.2109 36.884 29.2797 36.8508 29.4384 36.8294C29.8271 36.7489 29.8034 36.6019 29.8271 36.4977C29.8721 36.2346 29.8721 35.4952 29.8721 34.7416C29.8721 34.251 29.884 33.9784 29.8603 33.7509C29.8484 33.5234 29.7702 33.4215 29.5878 33.3172C29.5072 33.2722 29.474 33.2485 29.474 33.2035C29.474 33.1703 29.5072 33.1585 29.5996 33.1229" fill="#191919"/>
<path d="M41.5429 34.937C41.5429 35.7926 41.0286 36.4087 40.666 36.6931C40.3247 36.9562 39.8105 37.1268 39.4123 37.1268C38.2961 37.1268 37.2344 36.2144 37.2344 35.0413C37.2344 34.1858 37.6112 33.617 38.0662 33.252C38.2937 33.0695 38.808 32.7852 39.3886 32.7852C40.5854 32.7852 41.5429 33.7189 41.5429 34.9394M37.8837 34.8138C37.8837 35.2688 38.0212 35.8637 38.4193 36.3424C38.7606 36.7642 39.2061 36.9349 39.5711 36.9349C39.891 36.9349 40.1754 36.7974 40.3816 36.6268C40.5641 36.4775 40.8935 35.9324 40.8935 35.11C40.8935 34.117 40.2773 32.9771 39.1848 32.9771C38.5686 32.9771 37.8861 33.5577 37.8861 34.8114" fill="#191919"/>
<path d="M45.8091 33.1808C46.0603 33.4533 46.1409 34.0458 46.1527 34.6975C46.1527 35.2687 46.1646 35.3587 46.1646 35.8943C46.1764 36.693 46.1978 36.7617 46.5082 36.8399C46.6338 36.885 46.7026 36.9087 46.7026 36.9537C46.7026 37.0343 46.6007 37.0343 46.4869 37.0343C46.385 37.0343 46.0651 36.9892 45.802 36.9892C45.5389 36.9892 45.4039 37.0343 45.1977 37.0343C45.1076 37.0343 45.0152 37.0106 45.0152 36.9655C45.0152 36.9205 45.0839 36.8755 45.2664 36.8399C45.5176 36.7831 45.5626 36.693 45.5626 36.3399V34.8468C45.5626 33.9012 45.4726 33.6169 45.1858 33.387C45.0152 33.2495 44.7877 33.1476 44.4891 33.1476C44.1597 33.1476 43.8397 33.2732 43.4748 33.5813C43.3823 33.6714 43.3373 33.8776 43.3373 33.97C43.3373 34.0719 43.3373 34.6762 43.3491 35.3943C43.361 36.1456 43.3942 36.328 43.4179 36.501C43.4511 36.7641 43.6122 36.8091 43.7947 36.8542C43.9321 36.8873 43.989 36.911 43.989 36.9679C43.989 37.0366 43.8753 37.0366 43.7615 37.0366C43.6715 37.0366 43.1572 36.9916 42.8941 36.9916C42.7472 36.9916 42.5173 37.0153 42.3585 37.0153C42.2329 37.0153 42.1523 36.9916 42.1523 36.9347C42.1523 36.8897 42.2448 36.8542 42.4036 36.821C42.6761 36.7641 42.7235 36.6954 42.7353 36.4797C42.759 35.591 42.759 34.5293 42.759 33.6524C42.759 33.5387 42.7353 33.3893 42.451 33.2543C42.3941 33.2211 42.3609 33.1974 42.3609 33.1524C42.3609 33.1287 42.4059 33.1073 42.5197 33.0623C42.7022 33.0054 43.0908 32.8466 43.2828 32.721C43.316 32.6973 43.3728 32.7447 43.3634 32.8111C43.3515 32.9485 43.3302 33.2566 43.3397 33.4273C43.3397 33.4486 43.3634 33.4841 43.3965 33.4604C43.7046 33.2329 44.0009 33.0268 44.2521 32.9248C44.5151 32.7992 44.7545 32.7874 44.937 32.7874C45.4157 32.7874 45.6882 33.0386 45.8139 33.1855" fill="#191919"/>
<path d="M50.4697 32.9199C50.4934 32.9317 50.5148 32.8867 50.5148 32.863C50.5148 32.645 50.5029 30.5476 50.5029 29.9338C50.5029 29.8437 50.4911 29.7963 50.4579 29.7395C50.401 29.6589 50.2517 29.5925 50.1285 29.557C50.0597 29.5333 49.991 29.5001 49.991 29.4669C49.991 29.4337 50.036 29.41 50.0929 29.3982C50.4342 29.3413 50.856 29.192 50.9698 29.1351C51.0267 29.102 51.0835 29.0664 51.1167 29.0664C51.1499 29.0664 51.1736 29.1233 51.1618 29.2726C51.1381 29.6257 51.0812 33.7304 51.0812 34.5741C51.0812 35.5765 51.093 36.3065 51.1049 36.6146C51.1049 36.6596 51.1499 36.7165 51.1855 36.7165C51.2542 36.7165 51.4248 36.6714 51.7542 36.579C51.8348 36.5553 51.868 36.579 51.868 36.624C51.868 36.6928 51.7756 36.7947 51.5717 36.8302C51.24 36.899 50.8086 37.0009 50.51 37.1265C50.4532 37.1383 50.42 37.0814 50.42 37.0459C50.4318 36.8753 50.4532 36.7165 50.4437 36.579C50.4437 36.5553 50.42 36.5221 50.3986 36.5458C49.9081 36.9227 49.5313 37.1051 49.0999 37.1051C48.7113 37.1051 48.2562 36.9795 47.8463 36.6146C47.6187 36.4107 47.2656 35.8515 47.2656 35.1215C47.2656 34.1759 47.7894 33.5716 48.1994 33.2635C48.5762 32.991 49.0999 32.7966 49.6711 32.7966C49.9104 32.7966 50.2991 32.8654 50.4697 32.9222M48.6354 33.2185C48.2823 33.4815 47.9505 34.0385 47.9505 34.9059C47.9505 36.0908 48.6568 36.7639 49.4104 36.7639C49.7185 36.7639 50.0479 36.6714 50.3228 36.4108C50.4129 36.3088 50.4484 36.1382 50.4603 35.9202C50.484 35.6239 50.5171 34.1996 50.4484 33.7991C50.4247 33.6617 50.3678 33.5835 50.3465 33.5479C50.0834 33.1829 49.6284 33.0242 49.2753 33.0242C48.9554 33.0242 48.8203 33.1047 48.6378 33.2185" fill="#191919"/>
<path d="M53.0445 33.6937C53.0445 34.1961 53.4995 34.4805 53.7176 34.6061C54.4712 35.0848 54.7674 35.3692 54.7674 35.9522C54.7674 36.4665 54.3906 36.7627 54.1513 36.8978C53.9001 37.0566 53.5706 37.1253 53.3194 37.1253C53.0113 37.1253 52.7957 37.0566 52.452 36.9191C52.362 36.8859 52.3027 36.8054 52.3027 36.7485C52.3027 36.5897 52.279 36.3385 52.2696 36.201C52.2459 36.0541 52.2814 36.0304 52.3027 36.0304C52.3241 36.0304 52.3596 36.0304 52.4402 36.2461C52.5421 36.5304 52.7246 36.7129 52.9189 36.8267C53.0896 36.9286 53.272 36.9641 53.4095 36.9641C53.7389 36.9641 54.1844 36.6347 54.1844 36.1441C54.1844 35.6536 53.8645 35.4379 53.4545 35.1749C53.0445 34.9118 52.5089 34.5137 52.5089 33.9662C52.5089 33.5681 52.6796 33.2932 52.8739 33.1225C53.0801 32.9519 53.3858 32.7812 53.8313 32.7812C54.1157 32.7812 54.4357 32.8618 54.5613 32.9069C54.585 32.9187 54.6181 32.9756 54.6181 32.9993C54.63 33.1249 54.675 33.3642 54.6869 33.5017C54.6869 33.6273 54.6655 33.6842 54.63 33.6842C54.585 33.6842 54.5731 33.6273 54.5376 33.5467C54.4688 33.3761 54.4238 33.2386 54.265 33.113C54.1394 33.0206 53.9451 32.9543 53.7508 32.9543C53.3526 32.9543 53.0445 33.2173 53.0445 33.696" fill="#191919"/>
<path d="M19.2894 11.7041L16.3625 16.797H22.029L19.2894 11.7041ZM26.7806 24.5063C25.6099 24.5063 24.7449 24.5063 24.1595 24.5513V24.4186C24.7212 24.2409 25.0269 23.9494 25.0719 23.4801C25.0719 23.1886 25.0601 22.7218 24.4392 21.4681C24.2425 21.0699 22.7731 18.2 22.3323 17.335H16.1279C15.4738 18.4962 13.4855 21.8757 13.5542 22.9659C13.5897 23.5228 13.6537 23.9897 14.8411 24.3736V24.5513C14.3718 24.53 13.6229 24.53 12.6394 24.5063C11.6559 24.5063 10.907 24.5063 10.4141 24.5513V24.4186C11.2104 23.9044 11.746 23.2289 12.31 22.5867C13.4475 21.2951 20.0383 9 20.0383 9L26.7806 21.4657C27.2001 22.2383 27.6243 22.8047 27.9988 23.2526C28.3495 23.7005 28.8188 24.0774 29.4492 24.4139V24.5466C28.8875 24.5253 27.9988 24.5253 26.7806 24.5016" fill="#191919"/>
<path d="M44.7716 24.5037C43.5772 24.5274 41.1907 24.5274 37.6074 24.5487C35.1948 24.5487 31.0522 24.5274 30 24.5487V24.416C30.9361 24.1933 31.4456 23.743 31.6139 23.0747C32.0168 21.4844 31.9338 12.493 31.8936 11.6588C31.839 10.4976 31.4267 9.80554 30.583 9.62543V9.44531C31.576 9.59225 34.2327 9.58751 35.2659 9.44531V9.5804C34.2232 9.84583 33.934 10.3648 33.9317 11.9029C33.9317 13.0642 34.0004 21.219 34.0478 21.911C34.0952 22.5817 34.1995 23.0367 34.4222 23.3638C34.9887 24.1885 37.0197 24.0345 37.7235 24.0558C41.2357 24.0558 43.8569 23.141 45.5419 21.3304L45.7291 21.3731L44.7693 24.5013L44.7716 24.5037Z" fill="#191919"/>
<path d="M58.9536 12.5731C58.5081 11.746 57.8066 11.054 56.8705 10.497C55.9581 9.96145 54.8821 9.66995 53.6877 9.62492C51.8842 9.55856 50.4101 10.0728 49.1707 11.1654C47.789 12.3716 47.0875 14.3173 47.0401 16.974C46.9951 19.1425 47.5093 20.9057 48.609 22.2921C49.1706 22.9841 49.8958 23.5197 50.858 23.9012C51.7704 24.2591 52.7066 24.4155 53.6901 24.3705C55.9841 24.3041 57.5767 23.5671 58.5602 22.093C59.4987 20.6616 59.9656 18.9647 59.9656 16.9764C59.9656 15.2558 59.6385 13.8054 58.9584 12.5755M61.3709 21.0218C60.5509 22.2281 59.4726 23.1903 58.0934 23.8586C56.7117 24.5506 55.2376 24.8871 53.6924 24.9085C52.5928 24.9085 51.4671 24.752 50.3201 24.4179C48.635 23.8586 47.2534 22.9651 46.1064 21.6688C45.0304 20.3962 44.4688 18.8107 44.4688 16.9337C44.4688 15.2582 44.9854 13.7841 46.0139 12.4664C47.0448 11.1488 48.4265 10.2316 50.1352 9.62966C51.1163 9.31683 52.3131 9.16042 53.6924 9.13672C55.1926 9.13672 56.643 9.47088 58.0009 10.1866C59.3826 10.8573 60.4585 11.7744 61.3235 12.9807C62.1672 14.1657 62.5891 15.4833 62.5891 16.9787C62.5891 18.4742 62.1909 19.7729 61.3733 21.0218" fill="#191919"/>
</g>
<defs>
<clipPath id="clip0_1035_55536">
<rect width="52.164" height="28.1284" fill="white" transform="translate(10.418 9)"/>
</clipPath>
</defs>
</svg>
