<svg width="140" height="67" viewBox="0 0 140 67" fill="none" xmlns="http://www.w3.org/2000/svg">
<g clip-path="url(#clip0_1035_55510)">
<path d="M51.1788 45.7229C51.2092 45.7381 51.2366 45.6803 51.2366 45.6498C51.2366 45.3698 51.2214 42.6759 51.2214 41.8875C51.2214 41.7718 51.2062 41.711 51.1635 41.6379C51.0905 41.5344 50.8987 41.4492 50.7374 41.4035C50.6491 41.3731 50.5608 41.3305 50.5608 41.2879C50.5608 41.2452 50.6187 41.2148 50.6917 41.1996C51.1301 41.1265 51.6719 40.9348 51.818 40.8617C51.891 40.8191 51.9641 40.7734 52.0067 40.7734C52.0493 40.7734 52.0798 40.8465 52.0645 41.0383C52.0341 41.4918 51.9611 46.7639 51.9611 47.8475C51.9611 49.1351 51.9763 50.0727 51.9915 50.4684C51.9915 50.5262 52.0493 50.5993 52.095 50.5993C52.1833 50.5993 52.4024 50.5414 52.8286 50.4227C52.9321 50.3923 52.9747 50.4227 52.9747 50.4805C52.9747 50.5688 52.856 50.6997 52.5942 50.7454C52.1711 50.8336 51.614 50.9645 51.2335 51.1259C51.1605 51.1411 51.1179 51.068 51.1179 51.0224C51.1331 50.8032 51.1635 50.5993 51.1483 50.4227C51.1483 50.3923 51.1179 50.3497 51.0905 50.3801C50.4604 50.8641 49.9795 51.0985 49.4224 51.0985C48.9232 51.0985 48.3388 50.9371 47.8122 50.4684C47.52 50.2066 47.0664 49.4882 47.0664 48.5507C47.0664 47.3362 47.7391 46.56 48.2657 46.1642C48.7497 45.8142 49.4224 45.5646 50.156 45.5646C50.4634 45.5646 50.9626 45.6529 51.1818 45.7259M48.8258 46.1064C48.3723 46.4443 47.9461 47.1596 47.9461 48.2737C47.9461 49.7957 48.8532 50.6601 49.8212 50.6601C50.2169 50.6601 50.64 50.5414 50.9931 50.2066C51.1087 50.0757 51.1544 49.8565 51.1696 49.5765C51.2001 49.196 51.2427 47.3666 51.1544 46.8522C51.124 46.6756 51.0509 46.5752 51.0235 46.5295C50.6856 46.0607 50.1012 45.8568 49.6477 45.8568C49.2367 45.8568 49.0632 45.9603 48.8288 46.1064" fill="#191919"/>
<path d="M53.8718 45.9564C54.164 45.8681 54.5597 45.7068 54.7637 45.6064C54.8946 45.5333 54.9676 45.5029 54.9981 45.5029C55.0437 45.5029 55.0711 45.5455 55.0559 45.7068C55.0255 45.9869 55.0255 46.9518 55.0255 48.0202C55.0255 49.0886 55.0255 50.1266 55.0559 50.3762C55.0863 50.6989 55.2598 50.7415 55.4668 50.7871C55.6129 50.8176 55.686 50.845 55.686 50.9028C55.686 50.9759 55.5703 51.0063 55.4516 51.0063C55.3633 51.0063 54.7485 50.9485 54.441 50.9485C54.0301 50.9485 53.8262 50.9789 53.6648 50.9789C53.5766 50.9789 53.4883 50.9485 53.4883 50.8906C53.4883 50.848 53.5461 50.8024 53.7653 50.7597C54.0575 50.6867 54.2188 50.5832 54.234 49.9561C54.2493 49.5178 54.2767 46.7935 54.2767 46.6474C54.2767 46.4861 54.2462 46.3826 53.8231 46.1786C53.7501 46.1482 53.7196 46.1056 53.7196 46.0751C53.7196 46.0325 53.7622 45.9869 53.8657 45.9595M55.2142 43.5426C55.2142 43.8926 54.8915 44.0266 54.7454 44.0266C54.511 44.0266 54.3193 43.8074 54.3193 43.5578C54.3193 43.2504 54.5689 43.0586 54.7728 43.0586C55.0803 43.0586 55.2111 43.3356 55.2111 43.5426" fill="#191919"/>
<path d="M59.7889 46.3527C59.8619 46.587 59.9198 47.1867 59.9198 47.6402C59.9198 48.0938 59.8619 49.5731 59.8619 49.9536C59.8619 50.2611 59.9928 50.5381 60.4342 50.5381C60.5651 50.5381 60.7112 50.4924 60.8725 50.4072C60.9608 50.3646 61.0186 50.3767 60.9608 50.5228C60.7995 50.8729 60.3763 51.1073 59.935 51.1073C59.5849 51.1073 59.2471 50.8151 59.1162 50.4498C59.1009 50.4193 59.0583 50.4194 59.0431 50.4346C58.6048 50.8151 58.1786 51.0921 57.5942 51.0921C57.0098 51.0921 56.4375 50.5929 56.4375 49.8623C56.4375 49.3935 56.8484 49.1165 56.9641 49.0557C57.302 48.8669 58.6778 48.4256 58.9396 48.3373C59.0705 48.2916 59.1436 48.1486 59.1436 48.1181C59.1588 47.9416 59.174 47.695 59.174 47.4454C59.174 46.8458 59.0705 46.377 58.8087 46.1852C58.6048 46.0391 58.3552 45.9509 58.1786 45.9509C57.9442 45.9509 57.8134 45.9935 57.5638 46.1548C57.445 46.2583 57.3446 46.3587 57.2989 46.5505C57.2837 46.6083 57.2837 46.6814 57.2837 46.7697C57.2837 46.8123 57.2533 46.8579 57.2259 46.8884C57.095 46.9767 56.6841 47.1532 56.6262 47.1532C56.5684 47.1532 56.5106 47.0802 56.5106 47.0223C56.5106 46.9493 56.5684 46.861 56.7297 46.657C57.095 46.2187 57.6672 45.8808 57.8438 45.7926C58.1938 45.616 58.4282 45.543 58.6778 45.543C59.1314 45.543 59.6154 45.82 59.7919 46.3496M58.8848 50.3311C58.9579 50.258 59.0462 50.1271 59.0735 49.9506C59.1162 49.701 59.1466 49.1165 59.1466 48.5869C59.1466 48.5717 59.1162 48.4986 59.0888 48.5138C58.8848 48.5443 57.8895 48.9096 57.5668 49.0709C57.4359 49.1439 57.2289 49.3479 57.2289 49.7893C57.2289 50.2306 57.6551 50.5807 58.1512 50.5807C58.4282 50.5807 58.7083 50.4924 58.8818 50.3311" fill="#191919"/>
<path d="M61.6329 45.984C61.8977 45.9262 62.2934 45.7496 62.4821 45.5883C62.5552 45.5304 62.6282 45.5 62.6861 45.5C62.7287 45.5 62.7591 45.5578 62.7591 45.6461C62.7591 45.8074 62.7439 46.2305 62.7591 46.3919C62.7591 46.4345 62.7744 46.5228 62.8474 46.4801C63.3162 46.0418 64.0772 45.6005 64.6616 45.6005C65.3495 45.6005 65.8183 45.8653 66.1562 46.5228C66.1714 46.5532 66.2444 46.5684 66.2597 46.5532C66.8745 45.9535 67.5472 45.5426 68.296 45.5426C69.1149 45.5426 69.5989 46.0388 69.7906 46.611C69.8941 46.9033 69.9519 47.4603 69.9672 48.0021C69.9824 48.4861 70.0098 49.585 70.025 50.0963C70.0402 50.5651 70.0981 50.6808 70.4512 50.7417C70.6703 50.7843 70.7281 50.8299 70.7281 50.8725C70.7281 50.9456 70.6551 50.976 70.4785 50.976C70.3172 50.976 69.8485 50.9456 69.5136 50.9456C69.1788 50.9456 68.914 50.9882 68.6948 50.9882C68.5061 50.9882 68.4026 50.9578 68.4026 50.8999C68.4026 50.8269 68.5335 50.7812 68.6644 50.7538C69.1331 50.6656 69.191 50.5347 69.2062 50.0963C69.2366 48.34 69.1483 47.6642 69.0875 47.1985C68.9718 46.4528 68.5761 46.0418 67.7999 46.0418C67.185 46.0418 66.6858 46.3797 66.4088 46.6567C66.351 46.7145 66.2901 46.8911 66.2901 47.2137C66.3053 47.5516 66.3632 49.7615 66.3936 50.1572C66.4362 50.5681 66.4819 50.6716 66.8624 50.7569C67.0389 50.8147 67.0967 50.8299 67.0967 50.8878C67.0967 50.9456 67.0237 50.976 66.8471 50.976C66.6858 50.976 66.144 50.9456 65.8213 50.9456C65.4987 50.9456 65.176 50.976 65.0147 50.976C64.8686 50.976 64.7955 50.9456 64.7955 50.8878C64.7955 50.8451 64.8686 50.7843 65.0725 50.7417C65.38 50.6838 65.5261 50.6229 65.5261 50.2729L65.5413 47.9443C65.5413 47.1255 65.453 46.7724 65.1608 46.4497C64.9264 46.2153 64.692 46.0997 64.208 46.0997C63.6358 46.0997 63.2431 46.3767 62.9935 46.5836C62.8322 46.7298 62.8048 46.8485 62.7896 46.9794C62.7744 47.1255 62.7317 47.4755 62.7317 47.9169C62.7317 48.7661 62.7896 49.9807 62.82 50.2303C62.8505 50.4799 62.9509 50.699 63.3192 50.7569C63.4805 50.7873 63.5384 50.8299 63.5384 50.8756C63.5384 50.9486 63.4227 50.9791 63.3192 50.9791C63.0422 50.9791 62.5887 50.9486 62.2356 50.9486C61.8551 50.9486 61.5324 50.9791 61.4015 50.9791C61.2707 50.9791 61.1367 50.9365 61.1367 50.8756C61.1367 50.8147 61.225 50.7721 61.4289 50.7447C61.9281 50.6412 61.8977 50.4525 61.9281 50.3185C61.986 49.9807 61.986 49.031 61.986 48.063C61.986 47.4329 62.0012 47.0828 61.9708 46.7906C61.9555 46.4984 61.8551 46.3675 61.6207 46.2336C61.5172 46.1758 61.4746 46.1453 61.4746 46.0875C61.4746 46.0449 61.5172 46.0296 61.6359 45.984" fill="#191919"/>
<path d="M76.9792 48.3127C76.9792 49.4116 76.3186 50.203 75.8529 50.5683C75.4146 50.9061 74.7541 51.1253 74.2427 51.1253C72.809 51.1253 71.4453 49.9534 71.4453 48.4467C71.4453 47.3478 71.9293 46.6172 72.5137 46.1485C72.8059 45.9141 73.4665 45.5488 74.2122 45.5488C75.7494 45.5488 76.9792 46.7481 76.9792 48.3158M72.2793 48.1544C72.2793 48.7389 72.4559 49.5029 72.9673 50.1178C73.4056 50.6596 73.9779 50.8788 74.4466 50.8788C74.8576 50.8788 75.2228 50.7022 75.4877 50.483C75.722 50.2913 76.1451 49.5912 76.1451 48.5349C76.1451 47.2595 75.3537 45.7954 73.9505 45.7954C73.159 45.7954 72.2824 46.5412 72.2824 48.1514" fill="#191919"/>
<path d="M82.4546 46.0575C82.7773 46.4075 82.8808 47.1685 82.896 48.0056C82.896 48.7392 82.9112 48.8548 82.9112 49.5428C82.9264 50.5686 82.9538 50.6568 83.3526 50.7573C83.5139 50.8151 83.6022 50.8456 83.6022 50.9034C83.6022 51.0069 83.4713 51.0069 83.3252 51.0069C83.1943 51.0069 82.7833 50.9491 82.4455 50.9491C82.1076 50.9491 81.9341 51.0069 81.6693 51.0069C81.5536 51.0069 81.4349 50.9765 81.4349 50.9186C81.4349 50.8608 81.5232 50.803 81.7575 50.7573C82.0802 50.6842 82.138 50.5686 82.138 50.115V48.1973C82.138 46.9828 82.0224 46.6175 81.654 46.3223C81.4349 46.1457 81.1427 46.0148 80.7591 46.0148C80.336 46.0148 79.9251 46.1762 79.4563 46.5719C79.3376 46.6876 79.2798 46.9524 79.2798 47.0711C79.2798 47.202 79.2798 47.9782 79.295 48.9005C79.3102 49.8654 79.3528 50.0998 79.3833 50.322C79.4259 50.6599 79.6329 50.7177 79.8673 50.7756C80.0438 50.8182 80.1169 50.8486 80.1169 50.9217C80.1169 51.0099 79.9708 51.0099 79.8246 51.0099C79.709 51.0099 79.0484 50.9521 78.7106 50.9521C78.5218 50.9521 78.2266 50.9825 78.0226 50.9825C77.8613 50.9825 77.7578 50.9521 77.7578 50.8791C77.7578 50.8212 77.8765 50.7756 78.0805 50.7329C78.4305 50.6599 78.4914 50.5716 78.5066 50.2946C78.5371 49.1531 78.5371 47.7895 78.5371 46.6632C78.5371 46.5171 78.5066 46.3253 78.1414 46.1518C78.0683 46.1092 78.0257 46.0788 78.0257 46.0209C78.0257 45.9905 78.0835 45.9631 78.2296 45.9053C78.464 45.8322 78.9632 45.6283 79.2098 45.4669C79.2524 45.4365 79.3254 45.4974 79.3133 45.5826C79.298 45.7592 79.2706 46.1549 79.2828 46.374C79.2828 46.4014 79.3133 46.4471 79.3559 46.4166C79.7516 46.1244 80.1321 45.8596 80.4547 45.7287C80.7926 45.5674 81.1001 45.5522 81.3344 45.5522C81.9493 45.5522 82.2994 45.8748 82.4607 46.0635" fill="#191919"/>
<path d="M88.4435 45.7229C88.474 45.7381 88.5014 45.6803 88.5014 45.6498C88.5014 45.3698 88.4861 42.6759 88.4861 41.8875C88.4861 41.7718 88.4709 41.711 88.4283 41.6379C88.3552 41.5344 88.1635 41.4492 88.0052 41.4035C87.9169 41.3731 87.8286 41.3305 87.8286 41.2879C87.8286 41.2452 87.8865 41.2148 87.9595 41.1996C88.3979 41.1265 88.9397 40.9348 89.0858 40.8617C89.1588 40.8191 89.2319 40.7734 89.2745 40.7734C89.3171 40.7734 89.3476 40.8465 89.3324 41.0383C89.3019 41.4918 89.2289 46.7639 89.2289 47.8475C89.2289 49.1351 89.2441 50.0727 89.2593 50.4684C89.2593 50.5262 89.3171 50.5993 89.3628 50.5993C89.4511 50.5993 89.6702 50.5414 90.0933 50.4227C90.1968 50.3923 90.2394 50.4227 90.2394 50.4805C90.2394 50.5688 90.1207 50.6997 89.859 50.7454C89.4328 50.8336 88.8788 50.9645 88.4953 51.1259C88.4222 51.1411 88.3796 51.068 88.3796 51.0224C88.3948 50.8032 88.4222 50.5993 88.41 50.4227C88.41 50.3923 88.3796 50.3497 88.3522 50.3801C87.7221 50.8641 87.2381 51.0985 86.6841 51.0985C86.1849 51.0985 85.6005 50.9371 85.0739 50.4684C84.7817 50.2066 84.3281 49.4882 84.3281 48.5507C84.3281 47.3362 85.0008 46.56 85.5274 46.1642C86.0114 45.8142 86.6841 45.5646 87.4177 45.5646C87.7252 45.5646 88.2244 45.6529 88.4435 45.7259M86.0875 46.1064C85.634 46.4443 85.2078 47.1596 85.2078 48.2737C85.2078 49.7957 86.1149 50.6601 87.0829 50.6601C87.4786 50.6601 87.9017 50.5414 88.2548 50.2066C88.3705 50.0757 88.4161 49.8565 88.4313 49.5765C88.4618 49.196 88.5044 47.3666 88.4161 46.8522C88.3857 46.6756 88.3126 46.5752 88.2852 46.5295C87.9474 46.0607 87.3629 45.8568 86.9094 45.8568C86.4985 45.8568 86.3249 45.9603 86.0906 46.1064" fill="#191919"/>
<path d="M91.7515 46.7168C91.7515 47.3621 92.336 47.7274 92.616 47.8888C93.584 48.5036 93.9645 48.8689 93.9645 49.6177C93.9645 50.2782 93.4805 50.6587 93.173 50.8322C92.8504 51.0362 92.4273 51.1245 92.1046 51.1245C91.7089 51.1245 91.4319 51.0362 90.9906 50.8596C90.8749 50.817 90.7988 50.7135 90.7988 50.6405C90.7988 50.4365 90.7683 50.1139 90.7562 49.9373C90.7257 49.7486 90.7714 49.7182 90.7988 49.7182C90.8262 49.7182 90.8718 49.7182 90.9753 49.9952C91.1062 50.3604 91.3406 50.5948 91.5902 50.7409C91.8094 50.8718 92.0438 50.9175 92.2203 50.9175C92.6434 50.9175 93.2157 50.4944 93.2157 49.8643C93.2157 49.2342 92.8047 48.9572 92.2781 48.6193C91.7515 48.2814 91.0636 47.77 91.0636 47.0669C91.0636 46.5555 91.2828 46.2024 91.5324 45.9832C91.7972 45.7641 92.1899 45.5449 92.7621 45.5449C93.1274 45.5449 93.5383 45.6484 93.6997 45.7062C93.7301 45.7215 93.7727 45.7945 93.7727 45.825C93.7879 45.9863 93.8458 46.2937 93.861 46.4703C93.861 46.6316 93.8336 46.7047 93.7879 46.7047C93.7301 46.7047 93.7149 46.6316 93.6692 46.5281C93.5809 46.3089 93.5231 46.1324 93.3192 45.9711C93.1578 45.8524 92.9082 45.7671 92.6586 45.7671C92.1472 45.7671 91.7515 46.105 91.7515 46.7199" fill="#191919"/>
<path d="M48.3956 18.4731L44.6364 25.0145H51.9144L48.3956 18.4731ZM58.0175 34.9165C56.5138 34.9165 55.4028 34.9165 54.6509 34.9743V34.8038C55.3723 34.5755 55.765 34.2011 55.8228 33.5984C55.8228 33.224 55.8076 32.6244 55.0101 31.0141C54.7574 30.5027 52.8702 26.8165 52.304 25.7055H44.335C43.4949 27.197 40.941 31.5377 41.0293 32.9379C41.075 33.6532 41.1571 34.2529 42.6822 34.746V34.9743C42.0795 34.9469 41.1176 34.9469 39.8543 34.9165C38.5911 34.9165 37.6292 34.9165 36.9961 34.9743V34.8038C38.0189 34.1433 38.7068 33.2758 39.4312 32.4509C40.8923 30.7919 49.3575 15 49.3575 15L58.0175 31.0111C58.5563 32.0034 59.1011 32.7309 59.5821 33.3062C60.0326 33.8815 60.6353 34.3655 61.445 34.7977V34.9682C60.7235 34.9408 59.5821 34.9408 58.0175 34.9104" fill="#191919"/>
<path d="M81.1252 34.9134C79.591 34.9439 76.5258 34.9439 71.9234 34.9712C68.8246 34.9712 63.5038 34.9439 62.1523 34.9712V34.8008C63.3547 34.5147 64.0091 33.9363 64.2253 33.0779C64.7427 31.0354 64.6362 19.4868 64.5844 18.4153C64.5144 16.9238 63.9848 16.0349 62.9012 15.8036V15.5723C64.1766 15.761 67.5888 15.7549 68.916 15.5723V15.7458C67.5766 16.0867 67.2053 16.7533 67.2022 18.7288C67.2022 20.2204 67.2905 30.6945 67.3514 31.5834C67.4123 32.4448 67.5462 33.0292 67.8323 33.4493C68.5598 34.5086 71.1685 34.3107 72.0725 34.3381C76.5836 34.3381 79.9502 33.1632 82.1145 30.8376L82.3549 30.8924L81.1221 34.9104L81.1252 34.9134Z" fill="#191919"/>
<path d="M99.3389 19.5895C98.7666 18.5272 97.8656 17.6383 96.6633 16.923C95.4914 16.2351 94.1094 15.8607 92.5753 15.8028C90.2588 15.7176 88.3655 16.3781 86.7735 17.7814C84.9989 19.3307 84.0979 21.8298 84.037 25.2421C83.9792 28.0273 84.6397 30.292 86.0521 32.0727C86.7735 32.9615 87.705 33.6494 88.9408 34.1395C90.1127 34.5991 91.3151 34.8 92.5783 34.7422C95.5248 34.6569 97.5704 33.7103 98.8336 31.817C100.039 29.9784 100.639 27.799 100.639 25.2451C100.639 23.0352 100.219 21.1723 99.345 19.5925M102.444 30.4411C101.391 31.9905 100.006 33.2263 98.2339 34.0847C96.4593 34.9735 94.566 35.4058 92.5814 35.4332C91.169 35.4332 89.7231 35.2323 88.2498 34.8031C86.0856 34.0847 84.311 32.9371 82.8377 31.2721C81.4558 29.6375 80.7344 27.6011 80.7344 25.1903C80.7344 23.0383 81.398 21.1449 82.719 19.4525C84.0431 17.7601 85.8177 16.5821 88.0124 15.8089C89.2726 15.4071 90.8098 15.2062 92.5814 15.1758C94.5082 15.1758 96.3711 15.605 98.1152 16.5242C99.8898 17.3857 101.272 18.5637 102.383 20.113C103.466 21.635 104.008 23.3274 104.008 25.2482C104.008 27.1689 103.497 28.837 102.447 30.4411" fill="#191919"/>
</g>
<defs>
<clipPath id="clip0_1035_55510">
<rect width="67" height="36.1284" fill="white" transform="translate(37 15)"/>
</clipPath>
</defs>
</svg>
