<svg width="232" height="58" viewBox="0 0 232 58" fill="none" xmlns="http://www.w3.org/2000/svg">
<path fill-rule="evenodd" clip-rule="evenodd" d="M222.693 11.9047C222.366 11.7747 221.973 11.6184 221.721 11.495L212.57 7.00428C210.932 6.20048 209.405 5.48342 207.817 4.88471C207.856 5.06314 207.924 5.3159 208.043 5.66825C208.079 5.77528 208.124 5.904 208.173 6.04548C208.292 6.38833 208.438 6.80614 208.546 7.17198C208.711 7.72603 208.883 8.43431 208.888 9.20097C208.898 10.4754 209.134 11.6454 209.414 13.0312C209.544 13.6762 209.683 14.3679 209.814 15.1386C209.952 15.9543 210.262 16.7471 210.671 17.7908C210.804 18.1303 210.947 18.4964 211.098 18.8985C211.453 19.8409 211.846 20.9857 211.997 22.2385C212.449 21.9684 212.893 21.7514 213.242 21.581C213.271 21.567 213.299 21.5532 213.326 21.5398C213.872 21.273 214.208 21.0996 214.475 20.9053C215.751 19.9797 217.16 19.913 218.38 20.3337C219.44 20.699 220.315 21.4105 220.94 21.9848C221.415 22.4209 221.905 22.9338 222.31 23.3574C222.443 23.4968 222.567 23.6265 222.678 23.7407C223.227 24.3054 223.503 24.5312 223.62 24.5968C223.844 24.7223 224.052 24.8861 224.137 24.9521L224.142 24.9566C224.268 25.055 224.41 25.1711 224.549 25.2866C224.678 25.3936 224.798 25.4941 224.917 25.5946C225.192 25.2903 225.505 24.97 225.861 24.6642C225.004 23.9681 224.246 23.1665 223.717 22.5338C223.418 22.1759 222.956 21.6682 222.477 21.2104C222.239 20.9826 222.015 20.785 221.82 20.6312C221.723 20.555 221.642 20.4966 221.578 20.454C221.547 20.433 221.522 20.4178 221.504 20.4073C221.487 20.3974 221.479 20.3932 221.479 20.3932C220.948 20.1329 220.448 19.6945 220.144 19.0552C219.855 18.4469 219.838 17.8571 219.891 17.4281C219.987 16.6468 220.36 15.9995 220.595 15.6356C221.107 14.8415 221.825 14.11 222.245 13.7594C222.661 13.4114 223.181 12.8533 223.63 12.2919C223.399 12.1902 223.157 12.0905 222.915 11.993C222.847 11.9657 222.772 11.9359 222.693 11.9047ZM207.912 25.5801C207.452 25.0803 207.21 24.3869 207.308 23.6611C207.413 22.8838 207.194 21.9504 206.672 20.5623C206.585 20.3303 206.485 20.0762 206.378 19.805C205.936 18.6863 205.38 17.2769 205.152 15.9284C205.075 15.4775 204.974 14.9712 204.864 14.4273C204.55 12.8644 204.173 10.9918 204.16 9.23616C204.159 9.12087 204.129 8.90621 204.014 8.51992C203.935 8.25526 203.855 8.02431 203.757 7.74549C203.699 7.57813 203.634 7.39352 203.561 7.17402C203.261 6.28375 202.703 4.59535 203.314 2.89713C204.122 0.653711 206.604 -0.581167 208.971 0.270904C210.978 0.993313 212.829 1.86406 214.653 2.75937L223.804 7.25002C223.804 7.25002 223.81 7.25281 223.823 7.25867C223.837 7.26497 223.856 7.27336 223.881 7.28408C223.932 7.30594 223.996 7.33262 224.078 7.36565C224.176 7.40518 224.264 7.44051 224.364 7.48008C224.455 7.51634 224.555 7.55617 224.679 7.60606C225.135 7.78948 225.723 8.03258 226.284 8.31501C226.8 8.57497 227.501 8.96824 228.048 9.5111C228.328 9.7887 228.699 10.232 228.907 10.8512C229.14 11.5486 229.118 12.3367 228.76 13.067C228.033 14.5486 226.453 16.3995 225.292 17.3747C225.455 17.519 225.607 17.6604 225.745 17.7923C226.366 18.3857 226.947 19.0244 227.345 19.5008C228.077 20.3764 229.025 21.2339 229.636 21.5336C230.146 21.7837 230.632 22.1938 230.95 22.7926C231.258 23.3731 231.313 23.9529 231.281 24.4033C231.224 25.22 230.862 25.8994 230.629 26.2828C230.128 27.108 229.407 27.8622 228.978 28.2203C228.717 28.439 228.457 28.7181 228.139 29.0953C228.059 29.1906 227.963 29.3065 227.859 29.4335C227.617 29.7276 227.327 30.0807 227.062 30.3737C226.177 31.3537 225.026 31.1626 224.813 31.1224C224.469 31.0576 224.208 30.9326 224.099 30.8787C223.848 30.754 223.62 30.5986 223.474 30.4945C223.151 30.2657 222.778 29.9643 222.454 29.6974C222.271 29.5461 222.056 29.3664 221.865 29.2064C221.737 29.0989 221.619 29.0003 221.529 28.9252C221.397 28.8162 221.297 28.7344 221.225 28.6782C221.217 28.6717 221.21 28.6661 221.203 28.6611C220.446 28.2106 219.767 27.5296 219.289 27.0386C219.11 26.8546 218.945 26.6816 218.788 26.517C218.418 26.1303 218.094 25.7906 217.742 25.4674C217.411 25.1635 217.174 24.9897 217.019 24.8952C216.451 25.2751 215.868 25.5604 215.433 25.7731L215.405 25.787C214.844 26.0613 214.494 26.2353 214.202 26.4385C213.845 26.6868 213.23 27.0565 212.648 27.3638C212.353 27.52 212.021 27.6842 211.702 27.8161L211.694 27.8195C211.488 27.9046 210.912 28.1431 210.285 28.1478C208.98 28.1575 207.913 27.1069 207.904 25.8012C207.903 25.7267 207.906 25.6529 207.912 25.5801Z" fill="#EEEEEE"/>
<path fill-rule="evenodd" clip-rule="evenodd" d="M3.58892 27.9397C5.00416 27.9397 6.15143 29.0869 6.15143 30.5022V54.0938C6.15143 55.509 5.00416 56.6563 3.58892 56.6563C2.17369 56.6563 1.02641 55.509 1.02641 54.0938V30.5022C1.02641 29.0869 2.17369 27.9397 3.58892 27.9397Z" fill="#EEEEEE"/>
<path fill-rule="evenodd" clip-rule="evenodd" d="M0.917295 30.5022C0.917295 29.0869 2.06457 27.9397 3.47981 27.9397C10.9044 27.9397 19.4858 33.0063 19.4858 42.051C19.4858 44.4264 18.8105 46.5778 18.1988 48.4033C17.7452 49.7568 17.2314 50.8511 16.5212 51.8705C15.8277 52.8659 15.0115 53.6946 14.0948 54.5558C12.087 56.442 9.72856 56.849 7.86976 57.0164C7.2599 57.0713 6.7282 57.1047 6.25006 57.1347C5.09225 57.2074 4.24853 57.2604 3.36968 57.5518C2.02636 57.9972 0.576313 57.2693 0.13091 55.9259C-0.314493 54.5826 0.413413 53.1326 1.75673 52.6872C3.32705 52.1665 5.12027 52.0584 6.45107 51.9781C6.80852 51.9566 7.13262 51.937 7.41007 51.912C8.94831 51.7735 9.86144 51.501 10.5858 50.8205C11.4338 50.0238 11.9349 49.488 12.3161 48.9409C12.6805 48.4177 12.9987 47.7913 13.3394 46.7749C13.9488 44.9561 14.3608 43.5097 14.3608 42.051C14.3608 36.902 9.27203 33.0647 3.47981 33.0647C2.06457 33.0647 0.917295 31.9174 0.917295 30.5022Z" fill="#EEEEEE"/>
<path fill-rule="evenodd" clip-rule="evenodd" d="M26.6835 31.1856C26.6835 31.1856 26.6828 31.1922 26.6798 31.2037C26.6818 31.1911 26.6835 31.1856 26.6835 31.1856ZM25.6402 32.0396C25.6402 32.0396 25.6487 32.0383 25.6687 32.0385C25.6507 32.0402 25.6402 32.0396 25.6402 32.0396ZM26.6834 32.2177C26.7655 32.2364 26.8535 32.2567 26.9483 32.2785C26.9994 32.2903 27.0524 32.3025 27.1076 32.3152C27.6805 32.447 28.5567 32.6466 29.4332 32.6466C30.0249 32.6466 31.1098 32.8178 32.1455 33.1935C32.6485 33.3759 33.0614 33.5789 33.3587 33.7763C33.6367 33.9608 33.7173 34.0749 33.7173 34.0749C33.7173 34.0749 33.7163 34.0729 33.7141 34.0689C34.1422 34.8355 34.1977 35.4557 34.1037 35.985C34.0017 36.5597 33.6869 37.2099 33.099 37.8987C31.887 39.3191 29.8717 40.4774 28.1216 40.9748C27.9809 41.0148 27.841 41.0591 27.7395 41.0912C27.7321 41.0935 27.7249 41.0958 27.7179 41.098C27.6646 41.1148 27.6195 41.129 27.5794 41.1414C27.5505 39.4066 27.3177 37.7022 27.109 36.1734L27.1006 36.1122C26.9078 34.7 26.7371 33.4331 26.6834 32.2177ZM27.4124 48.3308C27.3415 50.2886 27.2769 52.1976 27.2769 54.0938C27.2769 55.509 26.1296 56.6563 24.7144 56.6563C23.2992 56.6563 22.1519 55.509 22.1519 54.0938C22.1519 51.9624 22.2294 49.8316 22.3051 47.7506L22.3064 47.7155C22.383 45.6077 22.4574 43.5496 22.4574 41.498C22.4574 40.0241 22.2559 38.5134 22.0227 36.8055C22.0186 36.7752 22.0144 36.7449 22.0103 36.7145C21.7887 35.0921 21.5408 33.2778 21.5408 31.4517C21.5408 30.2919 21.7983 28.8704 22.9432 27.8693C24.0645 26.889 25.4072 26.8741 26.1558 26.9339C26.8341 26.9881 27.5638 27.1588 28.0697 27.2772C28.1359 27.2927 28.1983 27.3073 28.2562 27.3206C28.8868 27.4656 29.2211 27.5216 29.4332 27.5216C30.7074 27.5216 32.3847 27.8285 33.8931 28.3757C35.2739 28.8765 37.2144 29.8258 38.1885 31.5699C39.1672 33.3222 39.4595 35.1368 39.1498 36.8808C38.8483 38.5795 38.0082 40.0412 36.9975 41.2256C35.6003 42.8628 33.722 44.1566 31.8485 45.0304C31.9801 45.1096 32.1057 45.1861 32.2166 45.2555C32.7167 45.5686 33.3321 45.983 33.8544 46.5025C34.1892 46.8355 34.5975 47.1318 35.2028 47.5711C35.3025 47.6435 35.4076 47.7197 35.5185 47.8006C36.1989 48.2968 37.1367 48.9966 37.8681 49.932C38.0306 50.1398 38.1729 50.3209 38.3212 50.4938C38.4687 50.6658 38.5934 50.7953 38.6986 50.8889C38.7215 50.9093 38.7416 50.9262 38.7588 50.9402C40.0349 51.0867 41.026 52.1706 41.026 53.4859C41.026 54.9011 39.8787 56.0484 38.4635 56.0484C36.9941 56.0484 35.9042 55.2627 35.2915 54.7174C34.673 54.167 34.1639 53.5153 33.8636 53.1308C33.8523 53.1165 33.8414 53.1025 33.8308 53.0888C33.5883 52.7787 33.1922 52.4472 32.4987 51.9414C32.4193 51.8835 32.3338 51.8219 32.2435 51.7568C31.6635 51.3387 30.8845 50.777 30.2401 50.136C30.1366 50.0331 29.9182 49.8631 29.497 49.5994C29.2357 49.4358 29.0193 49.3089 28.775 49.1656C28.5739 49.0476 28.3539 48.9185 28.0742 48.7487C27.8657 48.6221 27.6417 48.4828 27.4124 48.3308Z" fill="#EEEEEE"/>
<path fill-rule="evenodd" clip-rule="evenodd" d="M50.2163 34.0414C50.0557 34.6817 49.8607 35.2877 49.6644 35.8479C49.4786 36.378 49.2778 36.9045 49.093 37.3887C49.0676 37.4555 49.0424 37.5215 49.0176 37.5865C48.8069 38.1399 48.6202 38.6382 48.4626 39.1172C48.0017 40.5181 47.7996 42.9638 47.7996 44.7657C47.7996 46.6204 47.6362 48.4324 47.4844 50.1161L47.4796 50.1695C47.3231 51.905 47.1803 53.5093 47.1803 55.1195C47.1803 56.5347 46.033 57.682 44.6178 57.682C43.2025 57.682 42.0553 56.5347 42.0553 55.1195C42.0553 53.2585 42.219 51.4426 42.371 49.7567L42.3753 49.7093C42.5318 47.9734 42.6746 46.3715 42.6746 44.7657C42.6746 42.8389 42.869 39.7201 43.5942 37.5156C43.7926 36.9126 44.0176 36.3155 44.2281 35.7626C44.2542 35.6942 44.28 35.6266 44.3055 35.5596C44.4927 35.0687 44.6668 34.6122 44.8277 34.1531C45.1954 33.1037 45.4223 32.2325 45.4653 31.4479C45.4874 31.0447 45.6018 30.5612 45.6768 30.2638C45.7725 29.8845 45.901 29.4405 46.0485 29.008C46.1888 28.5964 46.3781 28.1 46.6102 27.6653C46.7202 27.4591 46.9017 27.1476 47.1676 26.8519C47.3396 26.6606 48.0551 25.8882 49.2626 25.8882C50.5153 25.8882 51.3465 26.6526 51.6408 26.9432C52.0298 27.3274 52.3415 27.7692 52.5607 28.1063C52.7918 28.4618 52.9966 28.8219 53.1485 29.0931C53.1835 29.1556 53.2133 29.2091 53.2404 29.2577C53.2788 29.3264 53.3116 29.3854 53.3461 29.4464C53.3727 29.4934 53.3933 29.5293 53.4097 29.5571C53.424 29.5814 53.431 29.5927 53.4321 29.5945C54.3621 31.0441 55.3335 32.4785 56.3253 33.9141C58.0797 36.4536 59.356 39.4733 60.4595 42.0841C60.6588 42.5557 60.8525 43.0139 61.0423 43.4536C61.79 45.1851 62.0888 47.091 62.3268 48.6096C62.3398 48.6921 62.3525 48.7735 62.3652 48.8536C62.6356 50.5679 62.8605 51.7845 63.3273 52.7305C63.9536 53.9996 63.4324 55.5362 62.1633 56.1624C60.8942 56.7887 59.3577 56.2676 58.7314 54.9984C57.8707 53.2542 57.5576 51.2687 57.3112 49.7061L57.3027 49.652C57.0298 47.9219 56.8181 46.599 56.3372 45.4852C56.1163 44.9735 55.9012 44.4668 55.6889 43.9663C54.5759 41.3432 53.5368 38.8943 52.1087 36.8272C51.4752 35.9101 50.8416 34.9818 50.2163 34.0414Z" fill="#EEEEEE"/>
<path fill-rule="evenodd" clip-rule="evenodd" d="M42.0553 45.888C42.0553 44.4727 43.2025 43.3255 44.6178 43.3255H57.9522C59.3674 43.3255 60.5147 44.4727 60.5147 45.888C60.5147 47.3032 59.3674 48.4505 57.9522 48.4505H44.6178C43.2025 48.4505 42.0553 47.3032 42.0553 45.888Z" fill="#EEEEEE"/>
<path fill-rule="evenodd" clip-rule="evenodd" d="M61.0293 24.8625C62.4446 24.8625 63.5919 26.0098 63.5919 27.425C63.5919 27.6664 63.6698 28.1252 63.8747 28.8089C64.0466 29.3824 64.2562 29.9534 64.4619 30.5138C64.49 30.5903 64.518 30.6666 64.5458 30.7427C64.8057 31.4531 65.051 32.1403 65.2911 32.8131C65.8464 34.3691 66.374 35.8476 66.9912 37.3566C67.9112 39.6062 68.5599 41.8905 69.1082 44.1135C69.2932 43.6606 69.4654 43.1677 69.6467 42.6194C69.7019 42.4527 69.759 42.2773 69.8181 42.0956C70.0207 41.4731 70.2467 40.7788 70.4967 40.1209C70.5005 40.1108 70.5048 40.0995 70.5096 40.0868C70.6035 39.8396 70.8823 39.1053 71.1634 38.4403C71.3048 38.1056 71.4792 37.7107 71.6491 37.3932C71.713 37.2739 71.8722 36.9791 72.1077 36.7045C72.1096 36.7023 72.1117 36.6998 72.1141 36.697C72.1921 36.6054 72.5742 36.1566 73.2383 35.9179C73.6612 35.7659 74.3143 35.6613 75.0297 35.9312C75.6997 36.184 76.0998 36.6434 76.3131 36.984C76.3297 36.9982 76.4141 37.0811 76.658 37.2786C76.6797 37.2962 76.704 37.3157 76.7306 37.337C77.035 37.5809 77.641 38.0664 78.104 38.7192C78.4686 39.2333 78.8085 39.7827 79.0977 40.25C79.1535 40.3403 79.2075 40.4275 79.2593 40.5108C79.6047 41.0654 79.8918 41.5046 80.1926 41.877C80.4011 42.1352 80.6419 42.4188 80.9007 42.7238C81.1486 43.0158 81.413 43.3274 81.6817 43.655C81.8008 42.985 81.902 42.2953 82.0098 41.5603C82.0992 40.9516 82.193 40.3117 82.3054 39.6262C82.6264 37.6682 83.0863 35.4805 84.0885 33.4562C84.2033 33.2244 84.3265 32.865 84.5088 32.2586C84.5314 32.1834 84.555 32.1039 84.5797 32.0209C84.7291 31.5189 84.9167 30.8882 85.1432 30.2982C85.6273 29.0373 86.7111 26.808 89.346 26.3879C90.7436 26.165 92.0572 27.1173 92.2801 28.5149C92.4964 29.8711 91.6059 31.1483 90.2758 31.4263C90.2114 31.5117 90.0902 31.7119 89.9278 32.135C89.7782 32.5246 89.6543 32.9393 89.5017 33.4506C89.4744 33.5417 89.4463 33.636 89.4169 33.7337C89.2458 34.3031 89.0139 35.0586 88.6815 35.7301C88.0309 37.0441 87.6656 38.609 87.3629 40.4554C87.282 40.9491 87.2034 41.4826 87.1217 42.0374C86.9207 43.403 86.7007 44.897 86.38 46.2396C86.2945 46.5972 86.2429 46.9345 86.1741 47.3845C86.1562 47.5019 86.137 47.6269 86.1158 47.762C86.0213 48.3641 85.8911 49.1119 85.6235 49.91C85.633 49.8814 85.6329 49.8885 85.5439 50.2106C85.4856 50.4212 85.3956 50.7376 85.2925 51.0256C85.2441 51.1606 85.1643 51.3712 85.0527 51.5862C84.9986 51.6902 84.8984 51.8715 84.745 52.0665C84.6407 52.1991 84.2597 52.6748 83.5618 52.9284C83.1562 53.0757 82.6396 53.1474 82.0806 53.0162C81.5325 52.8875 81.1276 52.607 80.8602 52.3468C80.3929 51.8921 80.224 51.3855 80.1735 51.2278C80.068 50.8983 80.0327 50.5774 80.0177 50.3717C79.9904 50.3021 79.9367 50.1888 79.839 50.0186C79.7409 49.8475 79.6267 49.6671 79.4841 49.4447C79.4732 49.4275 79.4619 49.4099 79.4503 49.3919C79.3264 49.1987 79.171 48.9565 79.0354 48.7229C78.5439 47.8765 77.9763 47.2074 77.2546 46.3566C76.937 45.9822 76.5895 45.5725 76.2055 45.0971C75.6917 44.4609 75.2637 43.7897 74.9089 43.2199C74.8943 43.1964 74.8798 43.1732 74.8654 43.1501C74.8175 43.2958 74.769 43.4447 74.719 43.598C74.6533 43.7999 74.5851 44.0094 74.5124 44.229C74.2405 45.0511 73.919 45.9728 73.4896 46.8765C73.2515 47.3777 73.0172 47.8565 72.7901 48.3206C72.2016 49.5233 71.6615 50.6271 71.2291 51.7647C71.1177 52.0579 70.6172 53.2448 69.1978 53.5276C67.8405 53.798 66.9403 52.9669 66.7559 52.791C66.2508 52.3093 65.9416 51.667 65.8162 51.4033C65.4859 50.7082 65.1776 49.816 65.0716 49.36C64.9811 48.9702 64.8924 48.5845 64.8046 48.2024C64.0788 45.0463 63.4105 42.1401 62.2476 39.2967C61.5842 37.6746 60.9945 36.0225 60.422 34.4187C60.1907 33.7707 59.9622 33.1305 59.7328 32.5034C59.708 32.4357 59.6818 32.3644 59.6543 32.2897C59.4527 31.7414 59.1855 31.0148 58.9654 30.28C58.7248 29.4771 58.4668 28.4357 58.4668 27.425C58.4668 26.0098 59.6141 24.8625 61.0293 24.8625ZM76.1831 39.7844C76.1831 39.7844 76.1787 39.7929 76.1701 39.8072C76.1788 39.791 76.1831 39.7844 76.1831 39.7844ZM90.328 31.3711C90.328 31.3711 90.3194 31.383 90.3007 31.3955C90.3183 31.3755 90.328 31.3711 90.328 31.3711ZM85.1285 49.9884C85.1306 50.0057 85.131 50.0155 85.131 50.0155C85.131 50.0155 85.1298 50.0072 85.1285 49.9884ZM66.4399 49.9402L66.4389 49.9427L66.4384 49.9439L66.4399 49.9402Z" fill="#EEEEEE"/>
<path fill-rule="evenodd" clip-rule="evenodd" d="M109.597 25.6721C111.012 25.6885 112.146 26.8491 112.129 28.2642C112.085 32.0665 112.452 35.817 112.838 39.7237L112.845 39.8014C113.224 43.64 113.618 47.6338 113.571 51.7178C113.554 53.1329 112.394 54.2668 110.979 54.2503C109.563 54.2338 108.43 53.0732 108.446 51.6581C108.49 47.8752 108.123 44.1348 107.737 40.2271L107.732 40.1766C107.353 36.3287 106.957 32.3168 107.005 28.2045C107.021 26.7894 108.182 25.6556 109.597 25.6721Z" fill="#EEEEEE"/>
<path fill-rule="evenodd" clip-rule="evenodd" d="M122.816 38.8013C124.003 39.5724 124.34 41.1595 123.569 42.3462C123.123 43.0321 122.505 43.3606 122.141 43.5134C121.752 43.6768 121.372 43.7562 121.084 43.8004C120.506 43.8891 119.889 43.8942 119.391 43.8818C118.871 43.8689 118.35 43.8323 117.941 43.8022C117.904 43.7994 117.869 43.7968 117.834 43.7943C117.437 43.7649 117.23 43.7497 117.123 43.7484C116.086 43.7363 115.05 43.7757 113.963 43.826C113.782 43.8344 113.6 43.843 113.415 43.8518C112.508 43.895 111.556 43.9403 110.599 43.9571C109.184 43.982 108.017 42.8551 107.992 41.4401C107.967 40.0251 109.094 38.8578 110.509 38.8329C111.382 38.8176 112.243 38.7766 113.149 38.7336C113.339 38.7246 113.531 38.7155 113.726 38.7065C114.827 38.6555 115.987 38.6098 117.183 38.6238C117.464 38.627 117.854 38.6563 118.179 38.6807C118.227 38.6843 118.273 38.6878 118.318 38.691C118.724 38.721 119.134 38.7489 119.518 38.7584C119.765 38.7645 119.957 38.7615 120.098 38.7539C120.912 38.2651 121.967 38.2493 122.816 38.8013Z" fill="#EEEEEE"/>
<path fill-rule="evenodd" clip-rule="evenodd" d="M120.02 23.726C121.322 23.1704 122.827 23.7752 123.383 25.0769C123.861 26.1965 124.031 27.3256 124.11 28.2851C124.154 28.8254 124.176 29.509 124.194 30.078C124.204 30.3831 124.213 30.6552 124.224 30.8548C124.261 31.5609 124.365 32.2686 124.491 33.1192C124.503 33.2016 124.515 33.2854 124.528 33.3707C124.662 34.2843 124.811 35.3577 124.821 36.4771C124.835 38.0502 124.959 39.8258 125.282 41.0936C125.72 42.8071 125.694 44.6944 125.606 46.2961C125.566 47.0177 125.516 47.6585 125.47 48.2531C125.402 49.1374 125.342 49.9195 125.333 50.713C125.316 52.1281 124.156 53.2619 122.74 53.2454C121.325 53.229 120.191 52.0684 120.208 50.6533C120.219 49.7311 120.302 48.6187 120.38 47.5848C120.422 47.0236 120.462 46.4854 120.489 46.0133C120.573 44.4782 120.547 43.2624 120.316 42.3604C119.837 40.4811 119.711 38.2078 119.696 36.5217C119.69 35.792 119.591 35.0323 119.457 34.1143C119.444 34.0271 119.431 33.938 119.417 33.8472C119.297 33.0354 119.157 32.0864 119.106 31.1255C119.081 30.6648 119.071 30.3047 119.062 29.9759C119.051 29.5488 119.04 29.1746 119.002 28.7017C118.944 27.9943 118.838 27.4851 118.669 27.0887C118.114 25.7871 118.719 24.2815 120.02 23.726Z" fill="#EEEEEE"/>
<path fill-rule="evenodd" clip-rule="evenodd" d="M130.768 24.2036C132.183 24.2201 133.317 25.3806 133.301 26.7958L133.211 34.4989C133.201 35.3404 133.343 36.2076 133.56 37.2748C133.593 37.4377 133.629 37.6081 133.666 37.7849C133.855 38.6877 134.078 39.7559 134.183 40.8357C134.435 43.4217 134.509 46.2764 134.486 48.7966C134.507 48.7987 134.529 48.8007 134.552 48.8026C134.898 48.8317 135.291 48.8363 135.83 48.8425L135.887 48.8432C137.071 48.857 138.267 48.8026 139.523 48.7349C139.703 48.7252 139.885 48.7152 140.069 48.7051C141.141 48.6461 142.265 48.5843 143.383 48.5648C143.601 48.561 143.818 48.5727 143.988 48.5842C144.158 48.5958 144.341 48.6117 144.504 48.6259L144.521 48.6273C144.881 48.6587 145.19 48.6846 145.471 48.6917C145.51 48.6926 145.546 48.6932 145.579 48.6933C146.326 48.178 147.325 48.0768 148.192 48.5153C149.455 49.154 149.961 50.6955 149.322 51.9585C148.696 53.1974 147.512 53.5624 146.996 53.6803C146.392 53.8182 145.78 53.8261 145.341 53.815C144.888 53.8036 144.433 53.7641 144.1 53.7351L144.077 53.7331C143.897 53.7174 143.759 53.7055 143.64 53.6974C143.527 53.6897 143.48 53.6891 143.473 53.689C142.459 53.7067 141.443 53.7625 140.367 53.8215C140.179 53.8318 139.99 53.8422 139.799 53.8525C138.533 53.9207 137.193 53.9838 135.827 53.9679C135.788 53.9674 135.749 53.967 135.709 53.9665C135.232 53.9613 134.662 53.955 134.122 53.9096C133.541 53.8606 132.807 53.7544 132.089 53.4537C131.319 53.1317 130.551 52.5781 130.019 51.6786C129.508 50.8154 129.348 49.8582 129.359 48.9452C129.387 46.4918 129.317 43.7474 129.082 41.3324C129.007 40.5558 128.852 39.8111 128.666 38.9152C128.624 38.7172 128.582 38.5118 128.538 38.2971C128.311 37.1826 128.07 35.862 128.086 34.4392L128.176 26.7361C128.193 25.3209 129.353 24.1871 130.768 24.2036ZM134.496 49.218L134.495 49.2155L134.496 49.218Z" fill="#EEEEEE"/>
<path fill-rule="evenodd" clip-rule="evenodd" d="M135.435 43.9689C134.263 44.0612 133.026 44.1587 131.792 44.2023C130.378 44.2524 129.19 43.1464 129.14 41.7321C129.09 40.3177 130.196 39.1306 131.611 39.0805C132.723 39.0412 133.826 38.9544 134.992 38.8627C135.257 38.8419 135.524 38.8208 135.796 38.8C137.235 38.6899 138.758 38.5894 140.311 38.6074C141.726 38.6239 142.86 39.7845 142.844 41.1996C142.827 42.6148 141.667 43.7486 140.251 43.7321C138.939 43.7168 137.606 43.8014 136.188 43.9101C135.94 43.929 135.689 43.9488 135.435 43.9689Z" fill="#EEEEEE"/>
<path fill-rule="evenodd" clip-rule="evenodd" d="M134.753 29.3817C133.518 29.3366 132.809 29.4511 132.439 29.6346C131.171 30.2632 129.633 29.7449 129.005 28.4769C128.376 27.2089 128.895 25.6715 130.163 25.0429C131.759 24.2515 133.586 24.2106 134.941 24.2601C135.603 24.2843 136.266 24.3379 136.844 24.3847C136.891 24.3884 136.937 24.3922 136.983 24.3958C137.624 24.4474 138.141 24.4858 138.584 24.491C139.031 24.4962 139.436 24.5637 139.739 24.6253C139.966 24.6713 140.212 24.7313 140.393 24.7753C140.441 24.7871 140.485 24.7978 140.523 24.8067C140.728 24.8556 140.844 24.8791 140.922 24.8902C142.764 24.5813 144.461 24.5594 146.195 24.5796C147.61 24.5961 148.744 25.7567 148.728 27.1718C148.711 28.587 147.551 29.7208 146.136 29.7043C144.434 29.6845 143.09 29.7153 141.686 29.9589C140.726 30.1256 139.798 29.9032 139.374 29.8016C139.36 29.7982 139.346 29.7949 139.333 29.7917C139.247 29.7712 139.173 29.7533 139.107 29.7372C138.952 29.6995 138.841 29.6725 138.718 29.6476C138.576 29.6188 138.522 29.6156 138.522 29.6156L138.524 29.6156C137.877 29.6081 137.188 29.5539 136.572 29.5043C136.533 29.5012 136.494 29.498 136.455 29.4949C135.853 29.4464 135.298 29.4016 134.753 29.3817ZM140.973 24.8958C140.973 24.8958 140.971 24.8958 140.967 24.8955L140.973 24.8958Z" fill="#EEEEEE"/>
<path fill-rule="evenodd" clip-rule="evenodd" d="M153.142 23.3729C154.533 23.1149 155.87 24.0339 156.128 25.4254C156.282 26.2558 156.459 27.1141 156.641 27.9955C157.28 31.0916 157.977 34.472 157.937 37.9216C157.927 38.7827 157.79 39.7138 157.685 40.4362C157.668 40.5516 157.652 40.6617 157.637 40.7653C157.512 41.6479 157.464 42.1995 157.505 42.5855C157.546 42.9772 157.553 43.6063 157.559 44.1458C157.56 44.1719 157.56 44.1977 157.56 44.2232L157.561 44.3098C157.568 44.9243 157.576 45.5987 157.601 46.2502C157.628 46.948 157.673 47.5199 157.735 47.9027C158.239 48.6385 158.344 49.6166 157.925 50.4754C157.305 51.7476 155.771 52.2762 154.499 51.6561C153.462 51.1508 153.086 50.1912 152.985 49.9282C152.826 49.5152 152.736 49.086 152.679 48.7406C152.562 48.031 152.509 47.1971 152.48 46.4489C152.452 45.7247 152.444 44.9862 152.437 44.3847C152.436 44.3499 152.436 44.3156 152.436 44.2817C152.432 43.9646 152.429 43.6975 152.423 43.4797C152.42 43.3717 152.417 43.2856 152.414 43.2187C152.411 43.1575 152.409 43.1291 152.408 43.1243C152.292 42.0241 152.444 40.8797 152.563 40.0455C152.582 39.9059 152.602 39.773 152.62 39.646C152.728 38.8954 152.806 38.3523 152.812 37.8619C152.845 35.0181 152.302 32.3701 151.689 29.385C151.491 28.418 151.285 27.4155 151.089 26.3595C150.831 24.968 151.75 23.6308 153.142 23.3729Z" fill="#EEEEEE"/>
<path fill-rule="evenodd" clip-rule="evenodd" d="M157.127 27.7661C156.313 27.8468 155.565 27.9209 154.917 27.9618C153.504 28.0509 152.287 26.9782 152.198 25.5658C152.109 24.1534 153.181 22.9361 154.594 22.847C154.977 22.8228 155.517 22.769 156.169 22.704C158.354 22.4862 161.795 22.1431 164.786 22.3715C166.753 22.5218 168.944 22.9311 170.704 24.0277C172.649 25.2393 173.932 27.2216 173.901 29.9288C173.87 32.559 173.218 34.9171 171.664 36.8208C170.126 38.7049 167.941 39.8527 165.403 40.5395C165.275 40.5742 165.145 40.6103 165.012 40.6477C166.876 41.4817 168.792 42.4969 170.419 43.8482C170.59 43.9904 170.743 44.1204 170.885 44.2413C171.225 44.5316 171.504 44.7693 171.831 44.995C172.135 45.2052 172.287 45.2593 172.314 45.2704C173.696 45.3234 174.793 46.469 174.777 47.8609C174.76 49.276 173.6 50.4099 172.185 50.3934C170.779 50.377 169.622 49.6975 168.921 49.2136C168.354 48.8231 167.778 48.3307 167.399 48.0063C167.3 47.9214 167.214 47.8481 167.145 47.791C165.298 46.2571 162.962 45.314 160.302 44.24C159.791 44.0335 159.268 43.8222 158.733 43.6009C158.421 43.4714 157.573 43.038 156.876 42.5954C156.559 42.3942 156.045 42.0507 155.649 41.6248C155.51 41.4759 154.989 40.9165 154.854 40.045C154.77 39.5076 154.837 38.8525 155.208 38.2381C155.556 37.6628 156.035 37.3487 156.373 37.1858C156.896 36.9341 157.397 36.852 157.77 36.8253C158.136 36.7991 158.468 36.8212 158.678 36.838C158.812 36.8488 158.892 36.8563 158.952 36.862C159.022 36.8687 159.067 36.8729 159.142 36.8771C159.146 36.8773 159.149 36.8774 159.152 36.8776C160.262 36.6852 161.241 36.4007 162.381 36.0693C162.9 35.9186 163.452 35.7583 164.064 35.5925C165.96 35.0795 167.051 34.3674 167.694 33.5799C168.321 32.8119 168.755 31.6864 168.776 29.869C168.785 29.0701 168.521 28.7058 167.994 28.3774C167.283 27.9341 166.079 27.6103 164.395 27.4817C161.911 27.292 159.286 27.5521 157.127 27.7661ZM159.194 36.8788C159.194 36.8788 159.193 36.8788 159.19 36.8788L159.194 36.8788Z" fill="#EEEEEE"/>
<path fill-rule="evenodd" clip-rule="evenodd" d="M179.571 23.6291C180.986 23.6456 182.12 24.8062 182.104 26.2213C182.087 27.6438 182.012 29.0841 181.94 30.4519C181.908 31.0678 181.876 31.669 181.851 32.2473C181.768 34.1708 181.747 35.9843 181.932 37.7946C182.202 40.4371 182.278 43.0198 182.247 45.6399C182.246 45.7507 182.247 45.8492 182.249 45.9367C182.489 45.9517 182.798 45.9603 183.211 45.9651C183.899 45.9731 184.581 45.9086 185.419 45.8264L185.473 45.8211C186.26 45.7438 187.195 45.6519 188.181 45.6634C188.567 45.6679 188.969 45.6962 189.291 45.7189C189.314 45.7205 189.335 45.722 189.357 45.7235C189.721 45.7491 190.012 45.7679 190.282 45.7701C190.705 45.7736 190.865 45.7285 190.887 45.7242C192.078 44.999 193.635 45.3604 194.384 46.5438C195.14 47.7399 194.784 49.3228 193.588 50.0793C192.398 50.8319 191.077 50.9017 190.24 50.895C189.789 50.8913 189.347 50.8605 188.998 50.836C188.617 50.8093 188.352 50.7908 188.121 50.7881C187.439 50.7801 186.759 50.8444 185.92 50.9269L185.873 50.9315C185.083 51.009 184.144 51.1013 183.151 51.0897C182.51 51.0823 181.814 51.0666 181.182 50.9788C180.55 50.8911 179.733 50.7024 178.98 50.1772C177.272 48.985 177.106 47.0031 177.122 45.5802C177.151 43.0974 177.079 40.7164 176.834 38.3165C176.61 36.1352 176.645 34.0299 176.731 32.0259C176.761 31.3472 176.795 30.6933 176.829 30.0514C176.898 28.7404 176.964 27.4799 176.979 26.1616C176.996 24.7465 178.156 23.6127 179.571 23.6291Z" fill="#EEEEEE"/>
<path fill-rule="evenodd" clip-rule="evenodd" d="M182.847 40.8688C181.427 40.9256 180.423 41.0519 179.991 41.1957C178.648 41.6431 177.197 40.9172 176.75 39.5746C176.303 38.2319 177.028 36.7808 178.371 36.3335C179.579 35.9311 181.266 35.8029 182.642 35.7478C184.114 35.6889 185.626 35.7054 186.648 35.7173C188.063 35.7338 189.197 36.8944 189.18 38.3095C189.164 39.7246 188.003 40.8585 186.588 40.842C185.556 40.8299 184.169 40.8158 182.847 40.8688Z" fill="#EEEEEE"/>
<path fill-rule="evenodd" clip-rule="evenodd" d="M189.951 28.435C189.472 28.4963 188.824 28.5791 188.109 28.5708C187.052 28.5585 185.952 28.6116 184.746 28.6699L184.742 28.6701C183.565 28.7271 182.289 28.7888 181.01 28.7739C179.595 28.7574 178.461 27.5969 178.478 26.1817C178.494 24.7666 179.655 23.6328 181.07 23.6492C182.171 23.6621 183.296 23.609 184.498 23.5509L184.566 23.5476C185.721 23.4917 186.954 23.432 188.168 23.4461C188.507 23.4501 188.833 23.4109 189.376 23.3417L189.393 23.3397C189.899 23.2752 190.581 23.1884 191.365 23.1976C192.78 23.214 193.914 24.3746 193.897 25.7898C193.881 27.2049 192.72 28.3387 191.305 28.3222C190.909 28.3176 190.544 28.3595 190.023 28.4258C190 28.4288 189.975 28.4319 189.951 28.435Z" fill="#EEEEEE"/>
</svg>
